M48
;Layer_Color=9474304
;FILE_FORMAT=4:3
METRIC,TZ
;TYPE=PLATED
T1F00S00C0.152
T2F00S00C0.203
;TYPE=NON_PLATED
%
T01
X610Y1219
X1194Y1372
X1422Y1092
X2692Y2286
X2692Y2794
X2642Y3556
X2565Y3962
X2184Y4115
X2337Y4496
X2677Y5004
X3028Y4770
X3708Y4597
X3718Y5258
X4049Y5741
X5613Y5639
X6055Y5639
X6375Y5385
X6706Y5639
X7087Y5486
X7874Y5766
X8230Y5512
X8534Y5766
X8829Y5487
X8382Y4089
X7884Y3658
X7884Y3124
X7880Y2235
X7874Y1803
X7163Y2235
X6736Y2667
X6833Y3073
X5936Y3033
X6096Y3327
X5512Y2946
X4696Y3035
X4597Y3607
X5512Y4293
X5029Y2134
X6233Y1829
X6528Y1549
X6807Y1270
X8722Y1448
X9150Y1448
X9652Y1448
X9982Y1181
X10262Y1509
X10693Y1539
X10973Y1219
X11100Y1981
X11100Y2388
X11100Y2794
X10806Y2953
X10449Y2966
X10262Y3248
X10262Y3632
X9855Y4039
X9449Y4064
X10262Y2565
X11989Y1270
X13030Y1372
X13970Y1397
X14085Y1825
X14615Y1651
X15102Y1805
X15102Y2516
X14615Y2464
X14085Y2544
X13726Y2184
X13208Y3251
X12913Y4115
X12431Y4216
X12100Y4318
X12278Y4597
X11872Y4597
X12659Y4470
X12714Y5410
X12532Y5740
X12634Y6071
X13040Y5639
X13417Y5740
X13417Y5359
X13828Y5359
X13828Y5740
X14285Y5740
X14615Y5817
X15102Y6072
X15813Y6072
X15813Y5361
X15102Y5361
X15102Y4650
X15813Y4650
X15813Y3939
X15102Y3939
X14615Y4090
X14615Y3277
X15102Y3228
X15813Y3228
X15813Y2516
X15813Y1805
X15813Y1094
X15102Y1094
X15102Y383
X15457Y383
X15813Y383
X16168Y383
X16524Y383
X16524Y738
X16524Y1094
X16524Y1450
X16524Y1805
X16524Y2161
X16524Y2516
X16524Y2872
X16524Y3228
X16524Y3583
X16524Y3939
X16524Y4294
X16524Y4650
X16524Y5006
X16524Y5361
X16524Y5717
X16524Y6072
X16524Y6428
X14094Y6452
X13916Y6121
X13510Y6071
X13701Y4902
X13991Y4612
X14234Y5334
X12243Y5537
X11862Y5537
X11481Y5537
X11532Y6528
X14615Y839
X2841Y6248
X2311Y5994
X1168Y5918
X1220Y5208
X1168Y6756
X1194Y8230
X1168Y8738
X1204Y9296
X1158Y9750
X1217Y10185
X1204Y11227
X1158Y11913
X1158Y12750
X1158Y13750
X1102Y14300
X1458Y14300
X1432Y14630
X1422Y15138
X2159Y14351
X2743Y14224
X3150Y14326
X4480Y14062
X4795Y13874
X4833Y14244
X5161Y14008
X5476Y14293
X6243Y14293
X6761Y14252
X7312Y14298
X7579Y14046
X7818Y13782
X7960Y12548
X7503Y12624
X9078Y12573
X9500Y12522
X9510Y11354
X9093Y11405
X9078Y10973
X9601Y10947
X9603Y9793
X9601Y9195
X9627Y8738
X10008Y8179
X10008Y7442
X8795Y7833
X7595Y7833
X7595Y6633
X6395Y6633
X5195Y6633
X5195Y7833
X5195Y9033
X6395Y9033
X6395Y10233
X6528Y11024
X6081Y10973
X5715Y11201
X5319Y10973
X4861Y10973
X4480Y10744
X4303Y10338
X4303Y9906
X4303Y9449
X4064Y8661
X4039Y8183
X4064Y7595
X4140Y7163
X2790Y7181
X2972Y6680
X2829Y8077
X2499Y8738
X2575Y9423
X2829Y9220
X2960Y9703
X2296Y10693
X2474Y12395
X2855Y12319
X5242Y13487
X5552Y13487
X5195Y10233
X7595Y10233
X7681Y10973
X7264Y11074
X8040Y11332
X8671Y11328
X8392Y10973
X8795Y10233
X8795Y9033
X7595Y9033
X6395Y7833
X8795Y6633
X12583Y7010
X13066Y7010
X12735Y7772
X12456Y8103
X12431Y8458
X12431Y8788
X12481Y9144
X12786Y9347
X13154Y9373
X13142Y10338
X13154Y10770
X12964Y11074
X13332Y11201
X13142Y11582
X13142Y11989
X12608Y11989
X12603Y11605
X12608Y11227
X12761Y10566
X12761Y10236
X12380Y10033
X12243Y10439
X12240Y11730
X12329Y12190
X12217Y12573
X12217Y13106
X11836Y13106
X12217Y13665
X12217Y14224
X11836Y14224
X11211Y13945
X10889Y14232
X10500Y14046
X10094Y14224
X9578Y14255
X10830Y13691
X13675Y12395
X13675Y11989
X13675Y11582
X14361Y10922
X14691Y11100
X15072Y11100
X15583Y11052
X15925Y11394
X15769Y11848
X15326Y11963
X15326Y11506
X15242Y10711
X14780Y10770
X14513Y10541
X14285Y10287
X14082Y10008
X14926Y10395
X15813Y10340
X15813Y9628
X15102Y9628
X15102Y8917
X15813Y8917
X15813Y8206
X15102Y8206
X15102Y7495
X14615Y7442
X14615Y7036
X14615Y6629
X15102Y6784
X15813Y6784
X15813Y7495
X16524Y7495
X16524Y7850
X16524Y8206
X16524Y8562
X16524Y8917
X16524Y9273
X16524Y9628
X16524Y9984
X16524Y10340
X16524Y10695
X16524Y11051
X16524Y11406
X16266Y11735
X16114Y12095
X16524Y12095
X16545Y14783
X16545Y15138
X16063Y15138
X16063Y14783
X15580Y14783
X15580Y15138
X14285Y8458
X14285Y8077
X13616Y8357
X11872Y8306
X11821Y8814
X11481Y8915
X11709Y9169
X12126Y7569
X14094Y6858
X16524Y6784
X16524Y7139
X9982Y10152
X381Y14326
T02
X2418Y1385
X2918Y1385
X5766Y2057
X6861Y3590
X5036Y4242
X1741Y4913
X1372Y4547
X13124Y4910
X12954Y3658
X11659Y7620
X8318Y14122
X7076Y13846
X2753Y10922
X1661Y9830
X1727Y7036
X2210Y7036
M30
