G04*
G04 #@! TF.GenerationSoftware,Altium Limited,Altium Designer,22.4.2 (48)*
G04*
G04 Layer_Physical_Order=1*
G04 Layer_Color=255*
%FSLAX24Y24*%
%MOIN*%
G70*
G04*
G04 #@! TF.SameCoordinates,09D1A8E4-E44A-436B-8A94-970E0EB30887*
G04*
G04*
G04 #@! TF.FilePolarity,Positive*
G04*
G01*
G75*
%ADD14C,0.0059*%
%ADD15C,0.0039*%
G04:AMPARAMS|DCode=20|XSize=10.8mil|YSize=11.8mil|CornerRadius=2.7mil|HoleSize=0mil|Usage=FLASHONLY|Rotation=270.000|XOffset=0mil|YOffset=0mil|HoleType=Round|Shape=RoundedRectangle|*
%AMROUNDEDRECTD20*
21,1,0.0108,0.0064,0,0,270.0*
21,1,0.0054,0.0118,0,0,270.0*
1,1,0.0054,-0.0032,-0.0027*
1,1,0.0054,-0.0032,0.0027*
1,1,0.0054,0.0032,0.0027*
1,1,0.0054,0.0032,-0.0027*
%
%ADD20ROUNDEDRECTD20*%
G04:AMPARAMS|DCode=21|XSize=10.8mil|YSize=11.8mil|CornerRadius=2.7mil|HoleSize=0mil|Usage=FLASHONLY|Rotation=180.000|XOffset=0mil|YOffset=0mil|HoleType=Round|Shape=RoundedRectangle|*
%AMROUNDEDRECTD21*
21,1,0.0108,0.0064,0,0,180.0*
21,1,0.0054,0.0118,0,0,180.0*
1,1,0.0054,-0.0027,0.0032*
1,1,0.0054,0.0027,0.0032*
1,1,0.0054,0.0027,-0.0032*
1,1,0.0054,-0.0027,-0.0032*
%
%ADD21ROUNDEDRECTD21*%
G04:AMPARAMS|DCode=22|XSize=21.7mil|YSize=23.6mil|CornerRadius=5.4mil|HoleSize=0mil|Usage=FLASHONLY|Rotation=180.000|XOffset=0mil|YOffset=0mil|HoleType=Round|Shape=RoundedRectangle|*
%AMROUNDEDRECTD22*
21,1,0.0217,0.0128,0,0,180.0*
21,1,0.0108,0.0236,0,0,180.0*
1,1,0.0108,-0.0054,0.0064*
1,1,0.0108,0.0054,0.0064*
1,1,0.0108,0.0054,-0.0064*
1,1,0.0108,-0.0054,-0.0064*
%
%ADD22ROUNDEDRECTD22*%
G04:AMPARAMS|DCode=23|XSize=21.7mil|YSize=23.6mil|CornerRadius=5.4mil|HoleSize=0mil|Usage=FLASHONLY|Rotation=270.000|XOffset=0mil|YOffset=0mil|HoleType=Round|Shape=RoundedRectangle|*
%AMROUNDEDRECTD23*
21,1,0.0217,0.0128,0,0,270.0*
21,1,0.0108,0.0236,0,0,270.0*
1,1,0.0108,-0.0064,-0.0054*
1,1,0.0108,-0.0064,0.0054*
1,1,0.0108,0.0064,0.0054*
1,1,0.0108,0.0064,-0.0054*
%
%ADD23ROUNDEDRECTD23*%
%ADD24R,0.0413X0.0866*%
%ADD25R,0.0394X0.0413*%
G04:AMPARAMS|DCode=26|XSize=55.1mil|YSize=43.3mil|CornerRadius=10.8mil|HoleSize=0mil|Usage=FLASHONLY|Rotation=270.000|XOffset=0mil|YOffset=0mil|HoleType=Round|Shape=RoundedRectangle|*
%AMROUNDEDRECTD26*
21,1,0.0551,0.0217,0,0,270.0*
21,1,0.0335,0.0433,0,0,270.0*
1,1,0.0217,-0.0108,-0.0167*
1,1,0.0217,-0.0108,0.0167*
1,1,0.0217,0.0108,0.0167*
1,1,0.0217,0.0108,-0.0167*
%
%ADD26ROUNDEDRECTD26*%
%ADD29R,0.0295X0.0295*%
%ADD43C,0.0119*%
%ADD44C,0.0119*%
%ADD45R,0.1772X0.1772*%
%ADD46O,0.0098X0.0276*%
%ADD47O,0.0276X0.0098*%
%ADD48R,0.0197X0.0118*%
%ADD49R,0.0512X0.0591*%
%ADD50C,0.0160*%
%ADD51C,0.0100*%
%ADD52C,0.0060*%
%ADD53C,0.0040*%
%ADD54C,0.0120*%
%ADD55C,0.0200*%
%ADD56C,0.0140*%
%ADD57O,0.0276X0.0118*%
%ADD58O,0.0118X0.0276*%
%ADD59C,0.0120*%
%ADD60C,0.0140*%
%ADD61C,0.0160*%
G36*
X6584Y5042D02*
X6584Y4700D01*
X6584Y140D01*
X6539Y80D01*
X564Y80D01*
X564Y80D01*
X564Y80D01*
X516Y128D01*
X516Y205D01*
X516Y256D01*
X516Y256D01*
X516Y266D01*
X516Y266D01*
X516Y266D01*
X509Y288D01*
X504Y314D01*
X501Y319D01*
X472Y363D01*
X423Y396D01*
X365Y407D01*
X157Y407D01*
X80Y484D01*
X80Y5676D01*
X124Y5720D01*
X159Y5720D01*
X209Y5687D01*
X266Y5676D01*
X365Y5676D01*
X423Y5687D01*
X472Y5720D01*
X504Y5769D01*
X516Y5827D01*
X504Y5885D01*
X494Y5900D01*
X494Y5980D01*
X536Y6022D01*
X6584Y6022D01*
X6584Y5042D01*
X6584Y5042D02*
G37*
%LPC*%
G36*
X850Y5752D02*
X811Y5744D01*
X778Y5722D01*
X756Y5689D01*
X748Y5650D01*
X748Y5649D01*
X704Y5589D01*
X687Y5589D01*
X629Y5578D01*
X580Y5545D01*
X567Y5526D01*
X540Y5498D01*
X495Y5508D01*
X456Y5515D01*
X417Y5508D01*
X384Y5486D01*
X362Y5452D01*
X354Y5413D01*
X354Y5413D01*
X354Y4978D01*
X414Y4918D01*
X546Y4918D01*
X634Y4830D01*
X634Y4755D01*
X643Y4708D01*
X644Y4707D01*
X644Y4653D01*
X651Y4616D01*
X672Y4585D01*
X694Y4571D01*
X694Y4460D01*
X914Y4460D01*
X962Y4430D01*
X962Y4300D01*
X971Y4253D01*
X973Y4250D01*
X973Y4250D01*
X966Y4197D01*
X934Y4150D01*
X880Y4150D01*
X854Y4145D01*
X832Y4130D01*
X818Y4110D01*
X754Y4110D01*
X754Y4017D01*
X706Y3980D01*
X701Y3983D01*
X654Y3992D01*
X607Y3983D01*
X567Y3957D01*
X565Y3953D01*
X535Y3919D01*
X495Y3933D01*
X456Y3941D01*
X417Y3933D01*
X384Y3911D01*
X362Y3878D01*
X354Y3839D01*
X362Y3800D01*
X384Y3767D01*
X417Y3745D01*
X456Y3737D01*
X495Y3745D01*
X528Y3767D01*
X598Y3763D01*
X607Y3757D01*
X654Y3748D01*
X662Y3749D01*
X714Y3699D01*
X714Y3610D01*
X778Y3610D01*
X792Y3590D01*
X814Y3575D01*
X840Y3570D01*
X894Y3570D01*
X921Y3575D01*
X926Y3578D01*
X974Y3578D01*
X1009Y3585D01*
X1042Y3558D01*
X1045Y3556D01*
X1058Y3509D01*
X1059Y3484D01*
X1057Y3481D01*
X1048Y3467D01*
X1043Y3439D01*
X1043Y3329D01*
X965Y3251D01*
X914Y3230D01*
X857Y3230D01*
X694Y3230D01*
X694Y3119D01*
X672Y3105D01*
X667Y3097D01*
X490Y2920D01*
X358Y2788D01*
X358Y1789D01*
X407Y1740D01*
X408Y1735D01*
X439Y1689D01*
X485Y1658D01*
X540Y1647D01*
X541Y1647D01*
X541Y1647D01*
X596Y1658D01*
X642Y1689D01*
X787Y1833D01*
X787Y1833D01*
X817Y1880D01*
X828Y1934D01*
X828Y2084D01*
X843Y2106D01*
X851Y2143D01*
X851Y2251D01*
X843Y2288D01*
X826Y2314D01*
X831Y2338D01*
X848Y2374D01*
X866Y2374D01*
X937Y2446D01*
X937Y2508D01*
X1057Y2508D01*
X1057Y2519D01*
X1059Y2521D01*
X1117Y2545D01*
X1131Y2536D01*
X1153Y2531D01*
X1180Y2488D01*
X1184Y2470D01*
X1184Y2469D01*
X1177Y2434D01*
X1177Y2434D01*
X1003Y2260D01*
X988Y2237D01*
X982Y2210D01*
X982Y2043D01*
X982Y2042D01*
X960Y2009D01*
X952Y1970D01*
X960Y1931D01*
X982Y1898D01*
X1104Y1776D01*
X1350Y1776D01*
X1418Y1708D01*
X1469Y1708D01*
X1517Y1660D01*
X1517Y1540D01*
X1479Y1496D01*
X1472Y1489D01*
X1472Y999D01*
X1472Y606D01*
X1749Y606D01*
X1749Y606D01*
X1807Y601D01*
X1809Y599D01*
X1855Y580D01*
X1911Y580D01*
X1921Y564D01*
X1943Y550D01*
X1970Y544D01*
X2024Y544D01*
X2050Y550D01*
X2072Y564D01*
X2128Y564D01*
X2150Y550D01*
X2176Y544D01*
X2195Y544D01*
X2203Y543D01*
X2211Y544D01*
X2230Y544D01*
X2256Y550D01*
X2279Y564D01*
X2294Y587D01*
X2295Y592D01*
X2342Y639D01*
X2364Y672D01*
X2372Y711D01*
X2372Y747D01*
X2383Y763D01*
X2392Y810D01*
X2383Y857D01*
X2372Y873D01*
X2372Y933D01*
X2364Y972D01*
X2342Y1005D01*
X2295Y1053D01*
X2294Y1058D01*
X2279Y1080D01*
X2264Y1121D01*
X2272Y1160D01*
X2264Y1199D01*
X2242Y1232D01*
X2209Y1254D01*
X2170Y1262D01*
X2131Y1254D01*
X2098Y1232D01*
X2093Y1225D01*
X2064Y1225D01*
X2018Y1206D01*
X1953Y1141D01*
X1930Y1118D01*
X1821Y1118D01*
X1749Y1190D01*
X1749Y1274D01*
X1809Y1318D01*
X1810Y1318D01*
X1849Y1326D01*
X1882Y1348D01*
X1898Y1372D01*
X1958Y1370D01*
X1958Y1370D01*
X2078Y1370D01*
X2078Y1370D01*
X2159Y1370D01*
X2159Y1370D01*
X2279Y1370D01*
X2279Y1370D01*
X2447Y1370D01*
X2462Y1348D01*
X2483Y1334D01*
X2483Y1270D01*
X2543Y1270D01*
X2543Y1270D01*
X2920Y1270D01*
X2920Y1270D01*
X2920Y1334D01*
X2940Y1348D01*
X2955Y1370D01*
X2960Y1396D01*
X2960Y1410D01*
X3311Y1761D01*
X3362Y1734D01*
X3378Y1723D01*
X3378Y1525D01*
X3178Y1525D01*
X3178Y1222D01*
X3050Y1094D01*
X3040Y1095D01*
X3018Y1110D01*
X2992Y1115D01*
X2928Y1115D01*
X2901Y1110D01*
X2879Y1095D01*
X2864Y1073D01*
X2859Y1046D01*
X2859Y992D01*
X2864Y966D01*
X2879Y944D01*
X2900Y930D01*
X2900Y866D01*
X3020Y866D01*
X3020Y930D01*
X3040Y944D01*
X3047Y954D01*
X3067Y954D01*
X3113Y973D01*
X3533Y973D01*
X3536Y977D01*
X3611Y902D01*
X3611Y638D01*
X3986Y638D01*
X4024Y676D01*
X4131Y676D01*
X4157Y670D01*
X4221Y670D01*
X4247Y676D01*
X4269Y690D01*
X4284Y713D01*
X4289Y739D01*
X4289Y793D01*
X4284Y819D01*
X4269Y841D01*
X4249Y855D01*
X4249Y919D01*
X4129Y919D01*
X4129Y919D01*
X4129Y919D01*
X4015Y919D01*
X3986Y948D01*
X3986Y1014D01*
X3683Y1014D01*
X3647Y1050D01*
X3647Y1719D01*
X3684Y1756D01*
X3704Y1769D01*
X3772Y1769D01*
X3802Y1750D01*
X3813Y1748D01*
X4082Y1478D01*
X4112Y1459D01*
X4140Y1453D01*
X4140Y1390D01*
X4260Y1390D01*
X4260Y1452D01*
X4393Y1452D01*
X4393Y1376D01*
X4400Y1339D01*
X4421Y1308D01*
X4452Y1287D01*
X4489Y1280D01*
X4597Y1280D01*
X4634Y1287D01*
X4806Y1287D01*
X4843Y1280D01*
X4951Y1280D01*
X4988Y1287D01*
X5019Y1308D01*
X5028Y1322D01*
X5053Y1327D01*
X5100Y1318D01*
X5147Y1327D01*
X5187Y1353D01*
X5213Y1393D01*
X5222Y1440D01*
X5213Y1487D01*
X5187Y1527D01*
X5147Y1553D01*
X5100Y1562D01*
X5053Y1553D01*
X5028Y1558D01*
X5019Y1572D01*
X4988Y1593D01*
X4951Y1600D01*
X4520Y1600D01*
X4512Y1608D01*
X4482Y1628D01*
X4447Y1635D01*
X4251Y1635D01*
X4232Y1639D01*
X4181Y1639D01*
X3928Y1891D01*
X3928Y1922D01*
X3928Y1926D01*
X3928Y2011D01*
X3921Y2046D01*
X3915Y2055D01*
X3901Y2075D01*
X3874Y2102D01*
X3852Y2102D01*
X3640Y2102D01*
X3640Y2102D01*
X3640Y2102D01*
X3428Y2102D01*
X3127Y2102D01*
X2967Y2262D01*
X2790Y2262D01*
X2751Y2254D01*
X2718Y2232D01*
X2696Y2199D01*
X2688Y2160D01*
X2629Y2148D01*
X2612Y2146D01*
X2606Y2152D01*
X2604Y2159D01*
X2582Y2192D01*
X2549Y2214D01*
X2510Y2222D01*
X2468Y2222D01*
X2406Y2160D01*
X2197Y2160D01*
X2197Y2160D01*
X2197Y2160D01*
X2121Y2160D01*
X2120Y2161D01*
X1970Y2311D01*
X1947Y2326D01*
X1920Y2332D01*
X1689Y2332D01*
X1640Y2358D01*
X1640Y2358D01*
X1568Y2430D01*
X1545Y2453D01*
X1529Y2474D01*
X1529Y2596D01*
X1536Y2631D01*
X1529Y2666D01*
X1529Y2793D01*
X1533Y2812D01*
X1611Y2890D01*
X1639Y2896D01*
X1672Y2918D01*
X1694Y2951D01*
X1702Y2990D01*
X1702Y3452D01*
X1539Y3615D01*
X1536Y3615D01*
X1536Y4009D01*
X1655Y4128D01*
X1764Y4128D01*
X1803Y4136D01*
X1836Y4158D01*
X1858Y4191D01*
X1866Y4230D01*
X1858Y4269D01*
X1838Y4300D01*
X1850Y4356D01*
X1904Y4410D01*
X2106Y4410D01*
X2208Y4308D01*
X2292Y4308D01*
X2348Y4364D01*
X2370Y4370D01*
X2412Y4377D01*
X2452Y4352D01*
X2466Y4335D01*
X2466Y4335D01*
X2471Y4327D01*
X2476Y4301D01*
X2498Y4268D01*
X2531Y4246D01*
X2570Y4238D01*
X2882Y4238D01*
X2932Y4288D01*
X2954Y4321D01*
X2962Y4360D01*
X3140Y4538D01*
X3425Y4538D01*
X3479Y4484D01*
X3486Y4451D01*
X3508Y4418D01*
X3541Y4396D01*
X3580Y4388D01*
X3619Y4396D01*
X3652Y4418D01*
X3674Y4451D01*
X3682Y4490D01*
X3682Y4491D01*
X3690Y4499D01*
X3706Y4522D01*
X3711Y4550D01*
X3771Y4559D01*
X3819Y4521D01*
X3819Y4444D01*
X3780Y4412D01*
X3741Y4404D01*
X3708Y4382D01*
X3686Y4349D01*
X3678Y4310D01*
X3686Y4271D01*
X3708Y4238D01*
X3741Y4216D01*
X3780Y4208D01*
X3781Y4208D01*
X3834Y4155D01*
X3834Y4025D01*
X3828Y3997D01*
X3787Y3956D01*
X3781Y3957D01*
X3742Y3950D01*
X3708Y3927D01*
X3686Y3894D01*
X3679Y3855D01*
X3680Y3849D01*
X3678Y3847D01*
X3678Y3349D01*
X3846Y3181D01*
X3868Y3148D01*
X3901Y3126D01*
X3977Y3050D01*
X3972Y3025D01*
X3979Y2990D01*
X3999Y2960D01*
X3999Y2944D01*
X3998Y2931D01*
X3984Y2878D01*
X3952Y2845D01*
X3952Y2832D01*
X3952Y2631D01*
X3952Y2631D01*
X3952Y2631D01*
X3952Y2258D01*
X3972Y2237D01*
X3979Y2203D01*
X3979Y2203D01*
X3999Y2173D01*
X4028Y2153D01*
X4063Y2146D01*
X4148Y2146D01*
X4152Y2146D01*
X4175Y2146D01*
X4388Y1932D01*
X4391Y1920D01*
X4405Y1898D01*
X4426Y1884D01*
X4426Y1820D01*
X4546Y1820D01*
X4546Y1882D01*
X5057Y1882D01*
X5080Y1847D01*
X5120Y1820D01*
X5167Y1811D01*
X5214Y1820D01*
X5253Y1847D01*
X5280Y1886D01*
X5289Y1933D01*
X5280Y1980D01*
X5253Y2020D01*
X5214Y2046D01*
X5167Y2056D01*
X5166Y2055D01*
X5162Y2058D01*
X5127Y2065D01*
X4536Y2065D01*
X4518Y2069D01*
X4511Y2069D01*
X4392Y2187D01*
X4419Y2243D01*
X4475Y2245D01*
X4770Y2245D01*
X4800Y2251D01*
X4802Y2251D01*
X4836Y2258D01*
X4865Y2277D01*
X4884Y2306D01*
X4891Y2340D01*
X4891Y2362D01*
X4892Y2367D01*
X4891Y2373D01*
X4891Y2394D01*
X4935Y2452D01*
X5079Y2452D01*
X5079Y2421D01*
X5199Y2421D01*
X5199Y2452D01*
X5361Y2452D01*
X5391Y2458D01*
X5393Y2458D01*
X5427Y2465D01*
X5456Y2484D01*
X5475Y2513D01*
X5482Y2547D01*
X5482Y2568D01*
X5483Y2574D01*
X5482Y2579D01*
X5482Y2775D01*
X5483Y2781D01*
X5483Y3287D01*
X5483Y3290D01*
X5483Y3293D01*
X5483Y3390D01*
X5514Y3450D01*
X5514Y3450D01*
X5514Y3570D01*
X5483Y3570D01*
X5483Y3753D01*
X5481Y3758D01*
X5481Y3780D01*
X5475Y3814D01*
X5460Y3856D01*
X5475Y3898D01*
X5481Y3932D01*
X5481Y3954D01*
X5483Y3959D01*
X5483Y4109D01*
X5514Y4109D01*
X5514Y4229D01*
X5544Y4277D01*
X5700Y4433D01*
X5963Y4433D01*
X5963Y4966D01*
X5449Y4966D01*
X5449Y4526D01*
X5343Y4420D01*
X5342Y4420D01*
X5286Y4347D01*
X5250Y4261D01*
X5238Y4169D01*
X5239Y4169D01*
X5239Y3959D01*
X5240Y3954D01*
X5240Y3758D01*
X5239Y3753D01*
X5239Y3410D01*
X5239Y3410D01*
X5239Y3410D01*
X5239Y3293D01*
X5238Y3290D01*
X5239Y3287D01*
X5239Y3016D01*
X5207Y3016D01*
X5207Y2896D01*
X5239Y2896D01*
X5239Y2781D01*
X5240Y2775D01*
X5240Y2754D01*
X5196Y2696D01*
X4892Y2696D01*
X4892Y2767D01*
X4886Y2798D01*
X4886Y2829D01*
X4879Y2863D01*
X4860Y2892D01*
X4831Y2911D01*
X4797Y2918D01*
X4752Y2918D01*
X4735Y2930D01*
X4734Y2931D01*
X4707Y2972D01*
X4712Y3000D01*
X4703Y3047D01*
X4677Y3087D01*
X4676Y3087D01*
X4675Y3092D01*
X4655Y3122D01*
X4620Y3157D01*
X4615Y3180D01*
X4600Y3202D01*
X4580Y3216D01*
X4580Y3280D01*
X4460Y3280D01*
X4431Y3328D01*
X4431Y3536D01*
X4558Y3664D01*
X4563Y3665D01*
X4585Y3680D01*
X4599Y3700D01*
X4663Y3700D01*
X4663Y3865D01*
X4690Y3892D01*
X4744Y3892D01*
X4770Y3897D01*
X4792Y3912D01*
X4807Y3934D01*
X4812Y3960D01*
X4812Y3991D01*
X4831Y4010D01*
X4859Y4016D01*
X4892Y4038D01*
X4914Y4071D01*
X4922Y4110D01*
X4922Y4262D01*
X4814Y4370D01*
X4690Y4370D01*
X4677Y4383D01*
X4660Y4440D01*
X4660Y4440D01*
X4660Y4440D01*
X4660Y4560D01*
X4596Y4560D01*
X4586Y4575D01*
X4586Y4576D01*
X4579Y4611D01*
X4559Y4641D01*
X4165Y5035D01*
X4130Y5080D01*
X4130Y5393D01*
X4173Y5436D01*
X4206Y5458D01*
X4228Y5491D01*
X4236Y5499D01*
X4236Y5572D01*
X4094Y5714D01*
X3798Y5709D01*
X3771Y5714D01*
X3739Y5708D01*
X3473Y5703D01*
X3473Y5703D01*
X3473Y5703D01*
X3275Y5703D01*
X3220Y5692D01*
X3174Y5661D01*
X3143Y5615D01*
X3132Y5560D01*
X3143Y5505D01*
X3174Y5459D01*
X3220Y5428D01*
X3249Y5422D01*
X3265Y5360D01*
X3250Y5338D01*
X3245Y5313D01*
X3220Y5263D01*
X3191Y5263D01*
X3100Y5263D01*
X3100Y5263D01*
X3100Y5263D01*
X3059Y5302D01*
X2976Y5385D01*
X2970Y5414D01*
X2946Y5450D01*
X2946Y5450D01*
X2899Y5496D01*
X2899Y5498D01*
X2872Y5538D01*
X2833Y5564D01*
X2786Y5573D01*
X2739Y5564D01*
X2699Y5538D01*
X2673Y5498D01*
X2664Y5451D01*
X2673Y5404D01*
X2699Y5365D01*
X2739Y5338D01*
X2741Y5338D01*
X2744Y5335D01*
X2744Y5072D01*
X2759Y5057D01*
X2774Y5035D01*
X2796Y5020D01*
X2801Y5019D01*
X2842Y4980D01*
X2842Y4914D01*
X2818Y4890D01*
X2788Y4871D01*
X2720Y4871D01*
X2690Y4890D01*
X2656Y4897D01*
X2621Y4890D01*
X2593Y4872D01*
X2591Y4871D01*
X2557Y4871D01*
X2523Y4871D01*
X2521Y4872D01*
X2521Y4872D01*
X2480Y4904D01*
X2470Y4967D01*
X2575Y5072D01*
X2591Y5095D01*
X2596Y5122D01*
X2596Y5560D01*
X2591Y5587D01*
X2591Y5638D01*
X2530Y5699D01*
X2497Y5721D01*
X2458Y5729D01*
X2156Y5729D01*
X2117Y5721D01*
X2084Y5699D01*
X2062Y5666D01*
X2054Y5627D01*
X2062Y5588D01*
X2084Y5555D01*
X2117Y5533D01*
X2156Y5525D01*
X2274Y5525D01*
X2354Y5445D01*
X2354Y5193D01*
X2089Y4929D01*
X2064Y4940D01*
X2055Y4997D01*
X2288Y5230D01*
X2288Y5310D01*
X2280Y5349D01*
X2258Y5382D01*
X2225Y5404D01*
X2186Y5412D01*
X2064Y5412D01*
X2025Y5404D01*
X1992Y5382D01*
X1970Y5349D01*
X1962Y5310D01*
X1962Y5247D01*
X1954Y5190D01*
X1834Y5190D01*
X1834Y5190D01*
X1834Y5190D01*
X1834Y5190D01*
X1783Y5211D01*
X1724Y5270D01*
X1724Y5438D01*
X1713Y5496D01*
X1680Y5545D01*
X1631Y5578D01*
X1573Y5589D01*
X1393Y5589D01*
X1342Y5640D01*
X1334Y5679D01*
X1312Y5712D01*
X1279Y5734D01*
X1240Y5742D01*
X1201Y5734D01*
X1168Y5712D01*
X1146Y5679D01*
X1138Y5640D01*
X1146Y5601D01*
X1159Y5581D01*
X1144Y5536D01*
X1133Y5521D01*
X1030Y5521D01*
X1030Y5521D01*
X1030Y5521D01*
X1018Y5536D01*
X1011Y5545D01*
X989Y5559D01*
X961Y5578D01*
X950Y5641D01*
X952Y5650D01*
X944Y5689D01*
X922Y5722D01*
X889Y5744D01*
X850Y5752D01*
X850Y5752D02*
G37*
G36*
X4414Y5592D02*
X4375Y5584D01*
X4342Y5562D01*
X4320Y5529D01*
X4312Y5490D01*
X4320Y5451D01*
X4342Y5418D01*
X4375Y5396D01*
X4414Y5388D01*
X4453Y5396D01*
X4486Y5418D01*
X4508Y5451D01*
X4516Y5490D01*
X4508Y5529D01*
X4486Y5562D01*
X4453Y5584D01*
X4414Y5592D01*
X4414Y5592D02*
G37*
G36*
X456Y4792D02*
X417Y4784D01*
X384Y4762D01*
X362Y4729D01*
X354Y4690D01*
X362Y4651D01*
X384Y4618D01*
X417Y4596D01*
X456Y4588D01*
X495Y4596D01*
X528Y4618D01*
X550Y4651D01*
X558Y4690D01*
X550Y4729D01*
X528Y4762D01*
X495Y4784D01*
X456Y4792D01*
X456Y4792D02*
G37*
G36*
X474Y4522D02*
X435Y4514D01*
X402Y4492D01*
X380Y4459D01*
X372Y4420D01*
X380Y4381D01*
X402Y4348D01*
X435Y4326D01*
X474Y4318D01*
X513Y4326D01*
X546Y4348D01*
X568Y4381D01*
X576Y4420D01*
X568Y4459D01*
X546Y4492D01*
X513Y4514D01*
X474Y4522D01*
X474Y4522D02*
G37*
G36*
X460Y3542D02*
X421Y3534D01*
X388Y3512D01*
X366Y3479D01*
X358Y3440D01*
X366Y3401D01*
X386Y3371D01*
X388Y3368D01*
X398Y3312D01*
X376Y3279D01*
X368Y3240D01*
X376Y3201D01*
X398Y3168D01*
X431Y3146D01*
X470Y3138D01*
X509Y3146D01*
X542Y3168D01*
X564Y3201D01*
X572Y3240D01*
X564Y3279D01*
X544Y3309D01*
X542Y3312D01*
X532Y3368D01*
X554Y3401D01*
X562Y3440D01*
X554Y3479D01*
X532Y3512D01*
X499Y3534D01*
X460Y3542D01*
X460Y3542D02*
G37*
G36*
X5721Y2070D02*
X5663Y2059D01*
X5614Y2026D01*
X5581Y1977D01*
X5569Y1919D01*
X5569Y1821D01*
X5581Y1763D01*
X5614Y1714D01*
X5663Y1681D01*
X5721Y1670D01*
X5779Y1681D01*
X5828Y1714D01*
X5860Y1763D01*
X5872Y1821D01*
X5872Y1919D01*
X5860Y1977D01*
X5828Y2026D01*
X5779Y2059D01*
X5721Y2070D01*
X5721Y2070D02*
G37*
G36*
X1010Y1662D02*
X971Y1654D01*
X938Y1632D01*
X916Y1599D01*
X908Y1560D01*
X916Y1521D01*
X938Y1488D01*
X966Y1469D01*
X946Y1439D01*
X938Y1400D01*
X946Y1361D01*
X968Y1328D01*
X1001Y1306D01*
X1040Y1298D01*
X1079Y1306D01*
X1112Y1328D01*
X1134Y1361D01*
X1142Y1400D01*
X1134Y1439D01*
X1112Y1472D01*
X1084Y1491D01*
X1104Y1521D01*
X1112Y1560D01*
X1104Y1599D01*
X1082Y1632D01*
X1049Y1654D01*
X1010Y1662D01*
X1010Y1662D02*
G37*
G36*
X648Y1394D02*
X371Y1394D01*
X371Y1196D01*
X371Y803D01*
X648Y803D01*
X648Y1196D01*
X648Y1394D01*
X648Y1394D02*
G37*
G36*
X2652Y1152D02*
X2613Y1144D01*
X2580Y1122D01*
X2558Y1089D01*
X2550Y1050D01*
X2558Y1011D01*
X2569Y995D01*
X2557Y977D01*
X2552Y951D01*
X2552Y897D01*
X2557Y870D01*
X2572Y848D01*
X2592Y835D01*
X2592Y770D01*
X2712Y770D01*
X2712Y835D01*
X2732Y848D01*
X2747Y870D01*
X2752Y897D01*
X2752Y951D01*
X2747Y977D01*
X2735Y995D01*
X2746Y1011D01*
X2754Y1050D01*
X2746Y1089D01*
X2724Y1122D01*
X2691Y1144D01*
X2652Y1152D01*
X2652Y1152D02*
G37*
G36*
X1149Y667D02*
X1102Y658D01*
X1096Y654D01*
X1051Y636D01*
X1005Y654D01*
X999Y658D01*
X952Y667D01*
X905Y658D01*
X866Y632D01*
X839Y592D01*
X830Y545D01*
X839Y498D01*
X866Y459D01*
X905Y432D01*
X952Y423D01*
X999Y432D01*
X1005Y436D01*
X1051Y454D01*
X1096Y436D01*
X1102Y432D01*
X1149Y423D01*
X1196Y432D01*
X1235Y459D01*
X1262Y498D01*
X1271Y545D01*
X1262Y592D01*
X1235Y632D01*
X1196Y658D01*
X1149Y667D01*
X1149Y667D02*
G37*
G36*
X5500Y652D02*
X5461Y644D01*
X5428Y622D01*
X5406Y589D01*
X5398Y550D01*
X5406Y511D01*
X5428Y478D01*
X5461Y456D01*
X5500Y448D01*
X5539Y456D01*
X5572Y478D01*
X5594Y511D01*
X5602Y550D01*
X5594Y589D01*
X5572Y622D01*
X5539Y644D01*
X5500Y652D01*
X5500Y652D02*
G37*
G36*
X5130Y642D02*
X5091Y634D01*
X5058Y612D01*
X5036Y579D01*
X5028Y540D01*
X5036Y501D01*
X5058Y468D01*
X5091Y446D01*
X5130Y438D01*
X5169Y446D01*
X5202Y468D01*
X5224Y501D01*
X5232Y540D01*
X5224Y579D01*
X5202Y612D01*
X5169Y634D01*
X5130Y642D01*
X5130Y642D02*
G37*
G36*
X4720Y602D02*
X4681Y594D01*
X4648Y572D01*
X4626Y539D01*
X4618Y500D01*
X4626Y461D01*
X4648Y428D01*
X4681Y406D01*
X4720Y398D01*
X4759Y406D01*
X4792Y428D01*
X4814Y461D01*
X4822Y500D01*
X4814Y539D01*
X4792Y572D01*
X4759Y594D01*
X4720Y602D01*
X4720Y602D02*
G37*
G36*
X4320Y582D02*
X4281Y574D01*
X4248Y552D01*
X4226Y519D01*
X4218Y480D01*
X4226Y441D01*
X4248Y408D01*
X4281Y386D01*
X4320Y378D01*
X4359Y386D01*
X4392Y408D01*
X4414Y441D01*
X4422Y480D01*
X4414Y519D01*
X4392Y552D01*
X4359Y574D01*
X4320Y582D01*
X4320Y582D02*
G37*
G36*
X3930Y567D02*
X3891Y559D01*
X3858Y537D01*
X3836Y504D01*
X3828Y465D01*
X3836Y426D01*
X3858Y393D01*
X3891Y371D01*
X3930Y363D01*
X3969Y371D01*
X4002Y393D01*
X4024Y426D01*
X4032Y465D01*
X4024Y504D01*
X4002Y537D01*
X3969Y559D01*
X3930Y567D01*
X3930Y567D02*
G37*
%LPD*%
G36*
X3733Y5126D02*
X3740Y5089D01*
X3741Y5089D01*
X3740Y5088D01*
X3710Y5026D01*
X3701Y5024D01*
X3668Y5002D01*
X3646Y4969D01*
X3638Y4930D01*
X3605Y4890D01*
X3589Y4879D01*
X3575Y4879D01*
X3536Y4887D01*
X3519Y4894D01*
X3507Y4913D01*
X3450Y4970D01*
X3469Y5030D01*
X3493Y5030D01*
X3493Y5124D01*
X3511Y5161D01*
X3541Y5180D01*
X3574Y5180D01*
X3600Y5185D01*
X3605Y5188D01*
X3733Y5188D01*
X3733Y5126D01*
X3733Y5126D02*
G37*
G36*
X1200Y5021D02*
X1217Y5000D01*
X1217Y5000D01*
X1217Y4722D01*
X1209Y4716D01*
X1157Y4700D01*
X1080Y4777D01*
X1041Y4803D01*
X994Y4812D01*
X947Y4812D01*
X936Y4829D01*
X905Y4850D01*
X878Y4855D01*
X878Y4952D01*
X904Y4952D01*
X961Y4964D01*
X1011Y4996D01*
X1017Y5005D01*
X1030Y5021D01*
X1030Y5021D01*
X1200Y5021D01*
X1200Y5021D02*
G37*
G36*
X1165Y2932D02*
X1191Y2873D01*
X1184Y2863D01*
X1177Y2828D01*
X1184Y2793D01*
X1186Y2790D01*
X1180Y2770D01*
X1155Y2729D01*
X1131Y2724D01*
X1077Y2737D01*
X1077Y2738D01*
X1075Y2740D01*
X1075Y2740D01*
X1067Y2748D01*
X1020Y2795D01*
X1020Y2903D01*
X1051Y2933D01*
X1164Y2933D01*
X1165Y2932D01*
X1165Y2932D02*
G37*
G36*
X4616Y2657D02*
X4648Y2633D01*
X4648Y2574D01*
X4649Y2568D01*
X4649Y2547D01*
X4605Y2489D01*
X4428Y2489D01*
X4422Y2491D01*
X4410Y2500D01*
X4410Y2536D01*
X4444Y2582D01*
X4444Y2582D01*
X4485Y2626D01*
X4514Y2654D01*
X4563Y2674D01*
X4616Y2657D01*
X4616Y2657D02*
G37*
G36*
X935Y3090D02*
X960Y3065D01*
X962Y3039D01*
X957Y3012D01*
X934Y2989D01*
X907Y2949D01*
X898Y2903D01*
X898Y2795D01*
X907Y2748D01*
X926Y2719D01*
X898Y2690D01*
X840Y2690D01*
X800Y2650D01*
X800Y2490D01*
X790Y2480D01*
X783Y2475D01*
X765Y2464D01*
X764Y2462D01*
X762Y2461D01*
X751Y2444D01*
X586Y2444D01*
X559Y2471D01*
X559Y2645D01*
X562Y2660D01*
X559Y2675D01*
X559Y2816D01*
X753Y3010D01*
X755Y3013D01*
X762Y3018D01*
X770Y3026D01*
X780Y3033D01*
X787Y3043D01*
X796Y3051D01*
X800Y3063D01*
X807Y3073D01*
X809Y3084D01*
X812Y3090D01*
X851Y3090D01*
X935Y3090D01*
X935Y3090D02*
G37*
D14*
X103952Y-55679D02*
X103952Y-56269D01*
X103755Y-55679D02*
X104149Y-55679D01*
X104359Y-55876D02*
X104303Y-55904D01*
X104247Y-55960D01*
X104219Y-56044D01*
X104219Y-56101D01*
X104247Y-56185D01*
X104303Y-56241D01*
X104359Y-56269D01*
X104444Y-56269D01*
X104500Y-56241D01*
X104556Y-56185D01*
X104584Y-56101D01*
X104584Y-56044D01*
X104556Y-55960D01*
X104500Y-55904D01*
X104444Y-55876D01*
X104359Y-55876D01*
X104714Y-55876D02*
X104714Y-56466D01*
X104714Y-55960D02*
X104770Y-55904D01*
X104826Y-55876D01*
X104910Y-55876D01*
X104967Y-55904D01*
X105023Y-55960D01*
X105051Y-56044D01*
X105051Y-56101D01*
X105023Y-56185D01*
X104967Y-56241D01*
X104910Y-56269D01*
X104826Y-56269D01*
X104770Y-56241D01*
X104714Y-56185D01*
X105641Y-55679D02*
X105641Y-56269D01*
X105979Y-56269D01*
X106381Y-55876D02*
X106381Y-56269D01*
X106381Y-55960D02*
X106325Y-55904D01*
X106268Y-55876D01*
X106184Y-55876D01*
X106128Y-55904D01*
X106072Y-55960D01*
X106043Y-56044D01*
X106043Y-56101D01*
X106072Y-56185D01*
X106128Y-56241D01*
X106184Y-56269D01*
X106268Y-56269D01*
X106325Y-56241D01*
X106381Y-56185D01*
X106566Y-55876D02*
X106735Y-56269D01*
X106904Y-55876D02*
X106735Y-56269D01*
X106679Y-56382D01*
X106623Y-56438D01*
X106566Y-56466D01*
X106538Y-56466D01*
X107002Y-56044D02*
X107340Y-56044D01*
X107340Y-55988D01*
X107311Y-55932D01*
X107283Y-55904D01*
X107227Y-55876D01*
X107143Y-55876D01*
X107087Y-55904D01*
X107030Y-55960D01*
X107002Y-56044D01*
X107002Y-56101D01*
X107030Y-56185D01*
X107087Y-56241D01*
X107143Y-56269D01*
X107227Y-56269D01*
X107283Y-56241D01*
X107340Y-56185D01*
X107466Y-55876D02*
X107466Y-56269D01*
X107466Y-56044D02*
X107494Y-55960D01*
X107550Y-55904D01*
X107607Y-55876D01*
X107691Y-55876D01*
D15*
X0Y0D02*
X0Y6102D01*
X0Y0D02*
X6600Y0D01*
X6600Y6102D01*
X0Y6102D02*
X6600Y6102D01*
D20*
X3160Y5110D02*
D03*
X3160Y5317D02*
D03*
X1894Y5037D02*
D03*
X1894Y5243D02*
D03*
X997Y2662D02*
D03*
X997Y2455D02*
D03*
X2219Y1523D02*
D03*
X2219Y1317D02*
D03*
X2018Y1523D02*
D03*
X2018Y1317D02*
D03*
X4200Y1543D02*
D03*
X4200Y1337D02*
D03*
X2543Y1423D02*
D03*
X2543Y1217D02*
D03*
X2860Y1423D02*
D03*
X2860Y1217D02*
D03*
X4486Y1973D02*
D03*
X4486Y1767D02*
D03*
X4520Y3127D02*
D03*
X4520Y3333D02*
D03*
X4770Y2367D02*
D03*
X4770Y2574D02*
D03*
X5139Y2574D02*
D03*
X5139Y2367D02*
D03*
X2960Y1019D02*
D03*
X2960Y813D02*
D03*
X4189Y766D02*
D03*
X4189Y973D02*
D03*
X3547Y5487D02*
D03*
X3547Y5280D02*
D03*
X5361Y2781D02*
D03*
X5361Y2574D02*
D03*
X5361Y3959D02*
D03*
X5361Y3753D02*
D03*
X2854Y5317D02*
D03*
X2854Y5110D02*
D03*
X2652Y924D02*
D03*
X2652Y717D02*
D03*
D21*
X3340Y5090D02*
D03*
X3547Y5090D02*
D03*
X907Y4050D02*
D03*
X701Y4050D02*
D03*
X4507Y4500D02*
D03*
X4713Y4500D02*
D03*
X867Y3670D02*
D03*
X661Y3670D02*
D03*
X4510Y3760D02*
D03*
X4717Y3760D02*
D03*
X5361Y2956D02*
D03*
X5154Y2956D02*
D03*
X4563Y2797D02*
D03*
X4770Y2797D02*
D03*
X5361Y3510D02*
D03*
X5567Y3510D02*
D03*
X1670Y1600D02*
D03*
X1463Y1600D02*
D03*
X5567Y4169D02*
D03*
X5361Y4169D02*
D03*
X3547Y5280D02*
D03*
X3340Y5280D02*
D03*
X4510Y4270D02*
D03*
X4717Y4270D02*
D03*
X4510Y3992D02*
D03*
X4717Y3992D02*
D03*
X2203Y1000D02*
D03*
X1997Y1000D02*
D03*
X2203Y645D02*
D03*
X1997Y645D02*
D03*
D22*
X3883Y5190D02*
D03*
X4237Y5190D02*
D03*
X4543Y1440D02*
D03*
X4897Y1440D02*
D03*
D23*
X804Y2983D02*
D03*
X804Y3337D02*
D03*
X804Y4707D02*
D03*
X804Y4353D02*
D03*
X691Y2552D02*
D03*
X691Y2197D02*
D03*
D24*
X5125Y5300D02*
D03*
X6287Y5300D02*
D03*
D25*
X5706Y4700D02*
D03*
D26*
X795Y5271D02*
D03*
X1465Y5271D02*
D03*
D29*
X3799Y1338D02*
D03*
X3799Y826D02*
D03*
X3366Y826D02*
D03*
X3366Y1338D02*
D03*
D43*
X4563Y2797D02*
G03*
X4427Y2741I0J-193D01*
G01*
X4262Y2631D02*
G03*
X4356Y2670I0J133D01*
G01*
X4340Y2400D02*
G03*
X4419Y2367I79J79D01*
G01*
X4340Y2400D02*
G03*
X4257Y2434I-83J-83D01*
G01*
X5429Y4334D02*
G03*
X5361Y4169I164J-164D01*
G01*
X5361Y3290D02*
X5361Y3410D01*
X5361Y3410D02*
X5361Y3410D01*
X4427Y2741D02*
X4427Y2741D01*
X4427Y2741D01*
X4427Y2741D02*
X4427Y2741D01*
X4356Y2670D02*
X4427Y2741D01*
X4152Y2631D02*
X4262Y2631D01*
X4419Y2367D02*
X4770Y2367D01*
X4152Y2434D02*
X4257Y2434D01*
X5785Y4690D02*
X5785Y4700D01*
X5429Y4334D02*
X5785Y4690D01*
X5361Y3959D02*
X5361Y4169D01*
X5361Y3410D02*
X5361Y3753D01*
X5361Y2976D02*
X5361Y3290D01*
X5361Y2781D02*
X5361Y2976D01*
X4770Y2574D02*
X5139Y2574D01*
X5361Y2574D01*
X4770Y2574D02*
X4770Y2767D01*
D44*
X4427Y2741D02*
D03*
D45*
X2754Y3320D02*
D03*
D46*
X1671Y4718D02*
D03*
X1868Y4718D02*
D03*
X2065Y4718D02*
D03*
X2262Y4718D02*
D03*
X2459Y4718D02*
D03*
X2656Y4718D02*
D03*
X2852Y4718D02*
D03*
X3049Y4718D02*
D03*
X3246Y4718D02*
D03*
X3443Y4718D02*
D03*
X3640Y4718D02*
D03*
X3837Y4718D02*
D03*
X3837Y1922D02*
D03*
X3640Y1922D02*
D03*
X3443Y1922D02*
D03*
X3246Y1922D02*
D03*
X3049Y1922D02*
D03*
X2852Y1922D02*
D03*
X2656Y1922D02*
D03*
X2459Y1922D02*
D03*
X2262Y1922D02*
D03*
X2065Y1922D02*
D03*
X1868Y1922D02*
D03*
X1671Y1922D02*
D03*
D47*
X4152Y4403D02*
D03*
X4152Y4206D02*
D03*
X4152Y4009D02*
D03*
X4152Y3812D02*
D03*
X4152Y3615D02*
D03*
X4152Y3418D02*
D03*
X4152Y3222D02*
D03*
X4152Y3025D02*
D03*
X4152Y2828D02*
D03*
X4152Y2631D02*
D03*
X4152Y2434D02*
D03*
X4152Y2237D02*
D03*
X1356Y2237D02*
D03*
X1356Y2434D02*
D03*
X1356Y2631D02*
D03*
X1356Y2828D02*
D03*
X1356Y3025D02*
D03*
X1356Y3222D02*
D03*
X1356Y3418D02*
D03*
X1356Y3615D02*
D03*
X1356Y3812D02*
D03*
X1356Y4009D02*
D03*
X1356Y4206D02*
D03*
X1356Y4403D02*
D03*
D48*
X1610Y705D02*
D03*
X1610Y902D02*
D03*
X1610Y1098D02*
D03*
X1610Y1295D02*
D03*
X509Y705D02*
D03*
X509Y902D02*
D03*
X509Y1098D02*
D03*
X509Y1295D02*
D03*
D49*
X1060Y1000D02*
D03*
D50*
X756Y4755D02*
X756Y5271D01*
X1084Y4300D02*
X1084Y4600D01*
X821Y4690D02*
X994Y4690D01*
X804Y4707D02*
X821Y4690D01*
X994Y4690D02*
X1084Y4600D01*
X756Y4755D02*
X804Y4707D01*
D51*
X2547Y1413D02*
X2547Y1499D01*
X4494Y4513D02*
X4494Y4576D01*
X4494Y4513D02*
X4507Y4500D01*
X4060Y5010D02*
X4494Y4576D01*
X3344Y4946D02*
X3344Y5090D01*
X928Y2770D02*
X928Y2941D01*
X928Y2757D02*
X1010Y2675D01*
X671Y2552D02*
X671Y2770D01*
X1013Y3025D02*
X1356Y3025D01*
X928Y2941D02*
X1013Y3025D01*
X1137Y4113D02*
X1230Y4206D01*
X1029Y4113D02*
X1137Y4113D01*
X966Y4050D02*
X1029Y4113D01*
X907Y4050D02*
X966Y4050D01*
X1231Y4009D02*
X1356Y4009D01*
X1194Y3971D02*
X1231Y4009D01*
X1085Y3971D02*
X1194Y3971D01*
X867Y3753D02*
X1085Y3971D01*
X974Y3670D02*
X1014Y3710D01*
X1034Y3710D01*
X3980Y5010D02*
X4060Y5010D01*
X4590Y3000D02*
X4590Y3057D01*
X4508Y4272D02*
X4508Y4498D01*
X4508Y4272D02*
X4510Y4270D01*
X1672Y4805D02*
X1672Y4878D01*
X1671Y4805D02*
X1672Y4805D01*
X1672Y4718D02*
X1672Y4805D01*
X1671Y4718D02*
X1671Y4805D01*
X1671Y4718D02*
X1672Y4718D01*
X1230Y4206D02*
X1356Y4206D01*
X654Y3870D02*
X745Y3870D01*
X867Y3670D02*
X867Y3753D01*
X745Y3870D02*
X907Y4032D01*
X3106Y5110D02*
X3160Y5110D01*
X3336Y5110D01*
X3883Y5198D02*
X3883Y5220D01*
X3883Y5190D02*
X3883Y5198D01*
X3800Y5280D02*
X3883Y5198D01*
X3547Y5280D02*
X3800Y5280D01*
X3340Y5106D02*
X3340Y5280D01*
X3340Y5090D02*
X3340Y5106D01*
X867Y3670D02*
X974Y3670D01*
X1034Y3710D02*
X1114Y3630D01*
X907Y4032D02*
X907Y4050D01*
X3344Y4946D02*
X3442Y4848D01*
X5127Y1973D02*
X5167Y1933D01*
X4486Y1973D02*
X5127Y1973D01*
X2656Y1834D02*
X2656Y1922D01*
X2345Y1523D02*
X2656Y1834D01*
X2219Y1523D02*
X2345Y1523D01*
X2547Y1499D02*
X2852Y1804D01*
X2852Y1922D01*
X2018Y1523D02*
X2219Y1523D01*
X2869Y1427D02*
X2869Y1449D01*
X4147Y1543D02*
X4200Y1543D01*
X3837Y1853D02*
X4147Y1543D01*
X3837Y1853D02*
X3837Y1922D01*
X1610Y1536D02*
X1670Y1595D01*
X1610Y1295D02*
X1610Y1536D01*
X1806Y1424D02*
X1806Y1554D01*
X1760Y1600D02*
X1806Y1554D01*
X1670Y1600D02*
X1760Y1600D01*
X4410Y3017D02*
X4520Y3127D01*
X4410Y2964D02*
X4410Y3017D01*
X4520Y3127D02*
X4590Y3057D01*
X4274Y2828D02*
X4410Y2964D01*
X4152Y2828D02*
X4274Y2828D01*
X4543Y1440D02*
X4543Y1448D01*
X4447Y1543D02*
X4543Y1448D01*
X4200Y1543D02*
X4447Y1543D01*
X2860Y1423D02*
X2864Y1423D01*
X2869Y1427D01*
X2869Y1449D02*
X3246Y1826D01*
X3246Y1922D01*
X1806Y1424D02*
X1810Y1420D01*
X2547Y1413D02*
X2701Y1413D01*
X2711Y1423D01*
X1983Y1559D02*
X2018Y1523D01*
X1983Y1559D02*
X1983Y1670D01*
X3442Y4718D02*
X3442Y4848D01*
X3883Y5107D02*
X3980Y5010D01*
X3883Y5107D02*
X3883Y5190D01*
X3442Y4718D02*
X3443Y4718D01*
X4411Y4491D02*
X4503Y4491D01*
X4324Y4403D02*
X4411Y4491D01*
X4152Y4403D02*
X4324Y4403D01*
X4503Y4491D02*
X4507Y4495D01*
X4507Y4500D01*
X4152Y4403D02*
X4152Y4403D01*
X4507Y4500D02*
X4508Y4498D01*
X3823Y5280D02*
X3883Y5220D01*
X4477Y1973D02*
X4486Y1973D01*
X4213Y2237D02*
X4477Y1973D01*
X3336Y5110D02*
X3340Y5106D01*
X4152Y2237D02*
X4213Y2237D01*
X2711Y1423D02*
X2860Y1423D01*
D52*
X3940Y3220D02*
X4152Y3220D01*
X4359Y3144D02*
X4359Y3566D01*
X4240Y3025D02*
X4359Y3144D01*
X1356Y3222D02*
X1590Y3222D01*
X1600Y2980D02*
X1600Y2990D01*
X2790Y2160D02*
X2968Y2160D01*
X4820Y4100D02*
X4820Y4110D01*
X1868Y4552D02*
X1868Y4718D01*
X1764Y4448D02*
X1868Y4552D01*
X1764Y4230D02*
X1764Y4448D01*
X2273Y5627D02*
X2425Y5475D01*
X2156Y5627D02*
X2273Y5627D01*
X2458Y5627D02*
X2525Y5560D01*
X2525Y5122D02*
X2525Y5560D01*
X2262Y4859D02*
X2525Y5122D01*
X2425Y5164D02*
X2425Y5475D01*
X2065Y4804D02*
X2425Y5164D01*
X2262Y4718D02*
X2262Y4859D01*
X4152Y3220D02*
X4190Y3220D01*
X3828Y3808D02*
X4147Y3808D01*
X3781Y3855D02*
X3828Y3808D01*
X4147Y3808D02*
X4152Y3812D01*
X1165Y3820D02*
X1169Y3816D01*
X1114Y3439D02*
X1290Y3615D01*
X1114Y3180D02*
X1114Y3439D01*
X2070Y1922D02*
X2070Y2110D01*
X1524Y2130D02*
X1820Y2130D01*
X1464Y2070D02*
X1524Y2130D01*
X4717Y3997D02*
X4820Y4100D01*
X1169Y3816D02*
X1352Y3816D01*
X1356Y3812D01*
X2065Y4718D02*
X2065Y4804D01*
X2065Y4718D02*
X2065Y4718D01*
X2652Y924D02*
X2652Y1050D01*
X4190Y3220D02*
X4190Y3222D01*
X4510Y3992D02*
X4510Y3997D01*
X4510Y3760D02*
X4510Y3992D01*
X2874Y5110D02*
X2954Y5030D01*
X2954Y4970D02*
X2954Y5030D01*
X2954Y4912D02*
X2954Y4970D01*
X2954Y4912D02*
X3049Y4817D01*
X3049Y4718D02*
X3049Y4817D01*
X1170Y2630D02*
X1171Y2631D01*
X1054Y2210D02*
X1278Y2434D01*
X1054Y1970D02*
X1054Y2210D01*
X1257Y2237D02*
X1356Y2237D01*
X1192Y2172D02*
X1257Y2237D01*
X1192Y1878D02*
X1192Y2172D01*
X1460Y1810D02*
X1470Y1800D01*
X1290Y3615D02*
X1356Y3615D01*
X1365Y3410D02*
X1600Y3410D01*
X1356Y3418D02*
X1365Y3410D01*
X3246Y4718D02*
X3246Y4828D01*
X3134Y4940D02*
X3246Y4828D01*
X3930Y3997D02*
X3942Y4009D01*
X3780Y3620D02*
X4147Y3620D01*
X3812Y3418D02*
X4152Y3418D01*
X3790Y3440D02*
X3812Y3418D01*
X4693Y4246D02*
X4717Y4270D01*
X4693Y4180D02*
X4693Y4246D01*
X4510Y3997D02*
X4693Y4180D01*
X1820Y2130D02*
X1868Y2082D01*
X1594Y2260D02*
X1920Y2260D01*
X1448Y2828D02*
X1600Y2980D01*
X1920Y2260D02*
X2070Y2110D01*
X2968Y2160D02*
X3049Y2079D01*
X3049Y1922D02*
X3049Y2079D01*
X2170Y1690D02*
X2262Y1782D01*
X2459Y4619D02*
X2459Y4718D01*
X2250Y4410D02*
X2459Y4619D01*
X4152Y3025D02*
X4240Y3025D01*
X4359Y3566D02*
X4510Y3717D01*
X4152Y3222D02*
X4190Y3222D01*
X2656Y4426D02*
X2656Y4718D01*
X2570Y4340D02*
X2656Y4426D01*
X3580Y4490D02*
X3640Y4550D01*
X3942Y4009D02*
X4152Y4009D01*
X2459Y2069D02*
X2510Y2120D01*
X2262Y1782D02*
X2262Y1922D01*
X2459Y1922D02*
X2459Y2069D01*
X1470Y1800D02*
X1627Y1800D01*
X1671Y1844D01*
X2852Y4368D02*
X2852Y4718D01*
X2852Y4368D02*
X2860Y4360D01*
X3640Y4550D02*
X3640Y4718D01*
X3884Y4206D02*
X4152Y4206D01*
X3780Y4310D02*
X3884Y4206D01*
X3837Y4718D02*
X3837Y4833D01*
X3740Y4930D02*
X3837Y4833D01*
X4510Y3717D02*
X4510Y3760D01*
X4717Y3992D02*
X4717Y3997D01*
X1356Y2828D02*
X1448Y2828D01*
X4147Y3620D02*
X4152Y3615D01*
X1868Y1922D02*
X1868Y2082D01*
X1278Y2434D02*
X1356Y2434D01*
X1171Y2631D02*
X1356Y2631D01*
X1356Y2631D01*
X1671Y1844D02*
X1671Y1922D01*
D53*
X1610Y695D02*
X1805Y695D01*
X2064Y1160D02*
X2170Y1160D01*
X1994Y1090D02*
X2064Y1160D01*
X1610Y892D02*
X1772Y892D01*
X4084Y766D02*
X4189Y766D01*
X4024Y826D02*
X4084Y766D01*
X3779Y826D02*
X4024Y826D01*
X3640Y1804D02*
X3640Y1922D01*
X3582Y1746D02*
X3640Y1804D01*
X3582Y1023D02*
X3582Y1746D01*
X3443Y1395D02*
X3443Y1922D01*
X3385Y1338D02*
X3443Y1395D01*
X1994Y1002D02*
X1994Y1090D01*
X1880Y1000D02*
X1990Y1000D01*
X1772Y892D02*
X1880Y1000D01*
X1980Y840D02*
X1988Y832D01*
X1988Y653D02*
X1988Y832D01*
X1988Y653D02*
X1997Y645D01*
X1997Y1000D02*
X1997Y1001D01*
X1994Y1002D02*
X1997Y1000D01*
X1855Y645D02*
X1997Y645D01*
X1805Y695D02*
X1855Y645D01*
X3067Y1019D02*
X3385Y1338D01*
X3582Y1023D02*
X3779Y826D01*
X2960Y1019D02*
X3067Y1019D01*
D54*
X1830Y5036D02*
X1894Y5036D01*
X2064Y5310D02*
X2186Y5310D01*
X2854Y5317D02*
X2899Y5317D01*
X1951Y5037D02*
X2064Y5150D01*
X1894Y5037D02*
X1951Y5037D01*
X1672Y4878D02*
X1830Y5036D01*
X2064Y5150D02*
X2064Y5310D01*
X2854Y5317D02*
X2866Y5329D01*
X2899Y5317D02*
X3106Y5110D01*
X3574Y4970D02*
X3574Y5063D01*
X3547Y5090D02*
X3574Y5063D01*
X4897Y1440D02*
X5100Y1440D01*
X2270Y850D02*
X2270Y933D01*
X2203Y1000D02*
X2270Y933D01*
X2270Y711D02*
X2270Y810D01*
X2203Y645D02*
X2270Y711D01*
D55*
X3473Y5560D02*
X3547Y5487D01*
X3275Y5560D02*
X3473Y5560D01*
X686Y1934D02*
X686Y2197D01*
X1484Y5124D02*
X1484Y5290D01*
X541Y1790D02*
X686Y1934D01*
X540Y1790D02*
X541Y1790D01*
X1360Y5000D02*
X1484Y5124D01*
X1360Y4460D02*
X1360Y5000D01*
D56*
X2786Y5451D02*
X2866Y5371D01*
X2866Y5329D02*
X2866Y5371D01*
D57*
X316Y5827D02*
D03*
X315Y256D02*
D03*
D58*
X5721Y1870D02*
D03*
D59*
X6226Y4071D02*
D03*
X6226Y3791D02*
D03*
X5946Y3791D02*
D03*
X6226Y3511D02*
D03*
X5946Y3511D02*
D03*
X6226Y3231D02*
D03*
X5946Y3231D02*
D03*
X6226Y2951D02*
D03*
X5946Y2951D02*
D03*
X6226Y2671D02*
D03*
X5946Y2671D02*
D03*
X6226Y2391D02*
D03*
X5946Y2391D02*
D03*
X6226Y2111D02*
D03*
X5946Y2111D02*
D03*
X6226Y1831D02*
D03*
X5946Y1831D02*
D03*
X6226Y1551D02*
D03*
X5946Y1551D02*
D03*
X6226Y1271D02*
D03*
X5946Y1271D02*
D03*
X6226Y991D02*
D03*
X5946Y991D02*
D03*
X6226Y711D02*
D03*
X5946Y711D02*
D03*
X5946Y431D02*
D03*
X6226Y431D02*
D03*
X5946Y151D02*
D03*
X6086Y151D02*
D03*
X6226Y151D02*
D03*
X6366Y151D02*
D03*
X6506Y291D02*
D03*
X6506Y851D02*
D03*
X6506Y1411D02*
D03*
X6506Y1971D02*
D03*
X6506Y2531D02*
D03*
X6506Y3091D02*
D03*
X6506Y3651D02*
D03*
X6506Y431D02*
D03*
X6506Y151D02*
D03*
X6506Y991D02*
D03*
X6506Y571D02*
D03*
X6506Y711D02*
D03*
X6506Y1551D02*
D03*
X6506Y1131D02*
D03*
X6506Y1271D02*
D03*
X6506Y2111D02*
D03*
X6506Y1691D02*
D03*
X6506Y1831D02*
D03*
X6506Y2671D02*
D03*
X6506Y2251D02*
D03*
X6506Y2391D02*
D03*
X6506Y3231D02*
D03*
X6506Y2811D02*
D03*
X6506Y2951D02*
D03*
X6506Y3791D02*
D03*
X6506Y3371D02*
D03*
X6506Y3511D02*
D03*
X6506Y4071D02*
D03*
X6506Y3931D02*
D03*
X6506Y4211D02*
D03*
X6506Y4351D02*
D03*
X6506Y4491D02*
D03*
X5144Y2760D02*
D03*
X1060Y1100D02*
D03*
X1060Y900D02*
D03*
X3360Y2270D02*
D03*
X3940Y3220D02*
D03*
X1590Y3222D02*
D03*
X1600Y2990D02*
D03*
X2790Y2160D02*
D03*
X1630Y2820D02*
D03*
X2170Y1160D02*
D03*
X2337Y1194D02*
D03*
X4819Y4618D02*
D03*
X4820Y4110D02*
D03*
X4962Y4569D02*
D03*
X4964Y4420D02*
D03*
X3771Y5612D02*
D03*
X3974Y5600D02*
D03*
X1888Y5462D02*
D03*
X2032Y5515D02*
D03*
X1903Y5608D02*
D03*
X1764Y5536D02*
D03*
X2879Y5629D02*
D03*
X2662Y5611D02*
D03*
X2984Y5530D02*
D03*
X3078Y5426D02*
D03*
X4134Y5530D02*
D03*
X4264Y5390D02*
D03*
X4287Y5603D02*
D03*
X2156Y5627D02*
D03*
X2186Y5310D02*
D03*
X2458Y5627D02*
D03*
X3781Y3855D02*
D03*
X904Y4210D02*
D03*
X1165Y3820D02*
D03*
X1014Y3710D02*
D03*
X974Y4880D02*
D03*
X1464Y2070D02*
D03*
X5754Y2930D02*
D03*
X5624Y4050D02*
D03*
X5544Y3940D02*
D03*
X5624Y3330D02*
D03*
X5361Y3290D02*
D03*
X2064Y5310D02*
D03*
X2570Y610D02*
D03*
X2652Y1050D02*
D03*
X2690Y1210D02*
D03*
X2820Y880D02*
D03*
X4254Y1163D02*
D03*
X474Y4420D02*
D03*
X479Y4010D02*
D03*
X2454Y720D02*
D03*
X1849Y1195D02*
D03*
X456Y3839D02*
D03*
X474Y3660D02*
D03*
X5545Y719D02*
D03*
X5404Y860D02*
D03*
X5545Y1001D02*
D03*
X3414Y4460D02*
D03*
X3165Y4461D02*
D03*
X1694Y3720D02*
D03*
X1914Y4320D02*
D03*
X2094Y4320D02*
D03*
X2394Y4320D02*
D03*
X3574Y4320D02*
D03*
X3304Y4320D02*
D03*
X3024Y4320D02*
D03*
X5654Y4300D02*
D03*
X4854Y4799D02*
D03*
X4660Y5160D02*
D03*
X4660Y5600D02*
D03*
X5249Y4410D02*
D03*
X4964Y4720D02*
D03*
X5174Y4720D02*
D03*
X5174Y4560D02*
D03*
X4894Y1660D02*
D03*
X4764Y1700D02*
D03*
X5084Y1620D02*
D03*
X5006Y2130D02*
D03*
X5604Y2100D02*
D03*
X5624Y2260D02*
D03*
X5508Y1816D02*
D03*
X5444Y2110D02*
D03*
X5444Y2260D02*
D03*
X4904Y3190D02*
D03*
X4974Y2390D02*
D03*
X5282Y2110D02*
D03*
X5394Y1930D02*
D03*
X5754Y650D02*
D03*
X5754Y330D02*
D03*
X5754Y970D02*
D03*
X5754Y1290D02*
D03*
X5754Y1610D02*
D03*
X5754Y2290D02*
D03*
X5754Y2610D02*
D03*
X5754Y2770D02*
D03*
X5624Y3180D02*
D03*
X5384Y4880D02*
D03*
X6514Y5960D02*
D03*
X6324Y5960D02*
D03*
X6134Y5960D02*
D03*
X6514Y5820D02*
D03*
X6324Y5820D02*
D03*
X6134Y5820D02*
D03*
X6034Y4710D02*
D03*
X6034Y4530D02*
D03*
X6208Y4664D02*
D03*
X6344Y4762D02*
D03*
X6404Y4620D02*
D03*
X6506Y4762D02*
D03*
X6270Y4486D02*
D03*
X6135Y4351D02*
D03*
X5934Y4370D02*
D03*
X6001Y4217D02*
D03*
X5877Y4093D02*
D03*
X1694Y4070D02*
D03*
X3744Y4470D02*
D03*
X574Y5630D02*
D03*
X1124Y4850D02*
D03*
X4414Y5490D02*
D03*
X2954Y4970D02*
D03*
X1170Y2630D02*
D03*
X1119Y2460D02*
D03*
X910Y2360D02*
D03*
X1054Y1970D02*
D03*
X860Y1620D02*
D03*
X920Y1770D02*
D03*
X1010Y1560D02*
D03*
X1460Y1810D02*
D03*
X480Y2050D02*
D03*
X1040Y1400D02*
D03*
X984Y3440D02*
D03*
X1114Y3630D02*
D03*
X470Y3240D02*
D03*
X1098Y2827D02*
D03*
X1600Y3410D02*
D03*
X1114Y3180D02*
D03*
X460Y2660D02*
D03*
X460Y3440D02*
D03*
X1764Y4230D02*
D03*
X1694Y3900D02*
D03*
X5714Y4150D02*
D03*
X5384Y4560D02*
D03*
X5384Y4720D02*
D03*
X3134Y4940D02*
D03*
X3574Y4950D02*
D03*
X4810Y5600D02*
D03*
X3930Y3997D02*
D03*
X5819Y4240D02*
D03*
X5784Y4370D02*
D03*
X3790Y3440D02*
D03*
X1594Y2260D02*
D03*
X1192Y1878D02*
D03*
X2640Y2220D02*
D03*
X2384Y2220D02*
D03*
X5200Y1280D02*
D03*
X4984Y1760D02*
D03*
X3476Y2160D02*
D03*
X4674Y1810D02*
D03*
X4834Y1810D02*
D03*
X4820Y2180D02*
D03*
X4670Y2180D02*
D03*
X4040Y1430D02*
D03*
X4040Y1279D02*
D03*
X3940Y2930D02*
D03*
X2210Y2220D02*
D03*
X3100Y2270D02*
D03*
X2170Y1690D02*
D03*
X850Y5650D02*
D03*
X1240Y5640D02*
D03*
X1080Y5600D02*
D03*
X4720Y500D02*
D03*
X5500Y550D02*
D03*
X5130Y540D02*
D03*
X5034Y3680D02*
D03*
X5024Y4030D02*
D03*
X4874Y3950D02*
D03*
X5024Y4160D02*
D03*
X5104Y4360D02*
D03*
X4774Y2980D02*
D03*
X4610Y3610D02*
D03*
X4520Y2180D02*
D03*
X4540Y2570D02*
D03*
X2250Y4410D02*
D03*
X2680Y500D02*
D03*
X2510Y2120D02*
D03*
X5179Y4240D02*
D03*
X5174Y4070D02*
D03*
X5134Y2220D02*
D03*
X5282Y2260D02*
D03*
X5014Y3060D02*
D03*
X4894Y3330D02*
D03*
X4894Y3460D02*
D03*
X4914Y3600D02*
D03*
X470Y540D02*
D03*
X560Y430D02*
D03*
X240Y480D02*
D03*
X4114Y1168D02*
D03*
X4370Y780D02*
D03*
X4370Y940D02*
D03*
X4320Y480D02*
D03*
X3800Y570D02*
D03*
X3434Y570D02*
D03*
X4040Y594D02*
D03*
X3930Y465D02*
D03*
X4040Y1010D02*
D03*
X4210Y606D02*
D03*
X3104Y1440D02*
D03*
X3104Y1230D02*
D03*
X3100Y710D02*
D03*
X3103Y880D02*
D03*
X1980Y840D02*
D03*
X3240Y2170D02*
D03*
X1810Y1420D02*
D03*
X2400Y1310D02*
D03*
X2860Y4360D02*
D03*
X2570Y4340D02*
D03*
X3580Y4490D02*
D03*
X3780Y4310D02*
D03*
X3740Y4930D02*
D03*
X4934Y2260D02*
D03*
X4954Y2760D02*
D03*
X5179Y3690D02*
D03*
X4654Y3470D02*
D03*
X4674Y3270D02*
D03*
X4520Y3510D02*
D03*
X3780Y3620D02*
D03*
X3880Y1590D02*
D03*
X3720Y1600D02*
D03*
X3603Y570D02*
D03*
X434Y5630D02*
D03*
X150Y5640D02*
D03*
X564Y5760D02*
D03*
X560Y5960D02*
D03*
X460Y2330D02*
D03*
X456Y4690D02*
D03*
X456Y5020D02*
D03*
X456Y5413D02*
D03*
X5319Y2390D02*
D03*
X5479Y2410D02*
D03*
X5549Y2540D02*
D03*
X5549Y2700D02*
D03*
X4810Y4950D02*
D03*
X4810Y5160D02*
D03*
X4810Y5380D02*
D03*
X3300Y1610D02*
D03*
X4370Y1100D02*
D03*
D60*
X2518Y3556D02*
D03*
X2045Y3556D02*
D03*
X2045Y4029D02*
D03*
X2518Y4029D02*
D03*
X2045Y2611D02*
D03*
X2518Y2611D02*
D03*
X2990Y2611D02*
D03*
X2990Y3556D02*
D03*
X2990Y4029D02*
D03*
X2518Y3084D02*
D03*
X2045Y3084D02*
D03*
X2990Y3084D02*
D03*
X3463Y3556D02*
D03*
X3463Y4029D02*
D03*
X3463Y3084D02*
D03*
X3463Y2611D02*
D03*
D61*
X3275Y5560D02*
D03*
X2786Y5451D02*
D03*
X4590Y3000D02*
D03*
X1084Y4300D02*
D03*
X654Y3870D02*
D03*
X686Y1934D02*
D03*
X870Y2770D02*
D03*
X680Y2770D02*
D03*
X5100Y1440D02*
D03*
X5167Y1933D02*
D03*
X1983Y1670D02*
D03*
X540Y1790D02*
D03*
X2701Y1413D02*
D03*
X2270Y810D02*
D03*
X952Y545D02*
D03*
X1149Y545D02*
D03*
M02*
