G04*
G04 #@! TF.GenerationSoftware,Altium Limited,Altium Designer,22.4.2 (48)*
G04*
G04 Layer_Physical_Order=4*
G04 Layer_Color=16711680*
%FSLAX24Y24*%
%MOIN*%
G70*
G04*
G04 #@! TF.SameCoordinates,09D1A8E4-E44A-436B-8A94-970E0EB30887*
G04*
G04*
G04 #@! TF.FilePolarity,Positive*
G04*
G01*
G75*
%ADD14C,0.0059*%
%ADD15C,0.0039*%
%ADD50C,0.0160*%
%ADD51C,0.0100*%
%ADD52C,0.0060*%
%ADD55C,0.0200*%
%ADD57O,0.0276X0.0118*%
%ADD58O,0.0118X0.0276*%
%ADD59C,0.0120*%
%ADD60C,0.0140*%
%ADD61C,0.0160*%
G04:AMPARAMS|DCode=62|XSize=31.5mil|YSize=31.5mil|CornerRadius=7.9mil|HoleSize=0mil|Usage=FLASHONLY|Rotation=270.000|XOffset=0mil|YOffset=0mil|HoleType=Round|Shape=RoundedRectangle|*
%AMROUNDEDRECTD62*
21,1,0.0315,0.0157,0,0,270.0*
21,1,0.0157,0.0315,0,0,270.0*
1,1,0.0157,-0.0079,-0.0079*
1,1,0.0157,-0.0079,0.0079*
1,1,0.0157,0.0079,0.0079*
1,1,0.0157,0.0079,-0.0079*
%
%ADD62ROUNDEDRECTD62*%
%ADD63C,0.0315*%
G36*
X6584Y4706D02*
X6584Y3549D01*
X6584Y3240D01*
X6584Y2536D01*
X6584Y2068D01*
X6584Y1692D01*
X6584Y1113D01*
X6584Y567D01*
X6584Y80D01*
X5571Y80D01*
X5571Y434D01*
X5668Y434D01*
X5668Y526D01*
X5542Y652D01*
X5098Y652D01*
X5028Y582D01*
X4777Y582D01*
X4759Y594D01*
X4720Y602D01*
X4681Y594D01*
X4663Y582D01*
X4289Y582D01*
X4281Y574D01*
X4248Y552D01*
X4237Y536D01*
X4003Y536D01*
X4002Y537D01*
X3969Y559D01*
X3969Y559D01*
X3969Y559D01*
X3930Y567D01*
X3891Y559D01*
X3858Y537D01*
X3836Y504D01*
X3765Y434D01*
X3699Y434D01*
X3694Y302D01*
X3859Y302D01*
X3859Y80D01*
X3613Y80D01*
X3613Y276D01*
X3607Y303D01*
X3592Y326D01*
X3287Y630D01*
X3264Y646D01*
X3237Y651D01*
X2955Y651D01*
X2704Y902D01*
X2718Y973D01*
X2724Y978D01*
X2746Y1011D01*
X2754Y1050D01*
X2746Y1089D01*
X2724Y1122D01*
X2691Y1144D01*
X2652Y1152D01*
X2613Y1144D01*
X2580Y1122D01*
X2576Y1116D01*
X2504Y1102D01*
X2496Y1110D01*
X2473Y1126D01*
X2445Y1131D01*
X2320Y1131D01*
X2275Y1158D01*
X2271Y1219D01*
X2281Y1229D01*
X2281Y1275D01*
X2281Y1696D01*
X2281Y1723D01*
X2331Y1747D01*
X2503Y1747D01*
X2558Y1692D01*
X2558Y1413D01*
X2569Y1359D01*
X2600Y1312D01*
X2646Y1281D01*
X2701Y1271D01*
X2756Y1281D01*
X2802Y1312D01*
X2833Y1359D01*
X2844Y1413D01*
X2844Y1692D01*
X2899Y1747D01*
X3811Y1747D01*
X4619Y939D01*
X4619Y939D01*
X4665Y908D01*
X4720Y897D01*
X4720Y897D01*
X5280Y897D01*
X5280Y897D01*
X5335Y908D01*
X5381Y939D01*
X5541Y1099D01*
X5541Y1099D01*
X5572Y1145D01*
X5583Y1200D01*
X5583Y1200D01*
X5583Y1570D01*
X5583Y1570D01*
X5572Y1625D01*
X5541Y1671D01*
X5541Y1671D01*
X5310Y1902D01*
X5310Y1933D01*
X5299Y1988D01*
X5268Y2034D01*
X5221Y2065D01*
X5167Y2076D01*
X5112Y2065D01*
X5066Y2034D01*
X5035Y1988D01*
X5024Y1933D01*
X5024Y1843D01*
X5024Y1843D01*
X5035Y1789D01*
X5066Y1742D01*
X5297Y1511D01*
X5297Y1259D01*
X5221Y1183D01*
X4779Y1183D01*
X3971Y1991D01*
X3925Y2022D01*
X3870Y2033D01*
X3870Y2033D01*
X3021Y2033D01*
X2892Y2162D01*
X2884Y2199D01*
X2862Y2232D01*
X2829Y2254D01*
X2790Y2262D01*
X2751Y2254D01*
X2718Y2232D01*
X2696Y2199D01*
X2692Y2181D01*
X2667Y2156D01*
X2607Y2156D01*
X2604Y2159D01*
X2582Y2192D01*
X2549Y2214D01*
X2510Y2222D01*
X2471Y2214D01*
X2438Y2192D01*
X2416Y2159D01*
X2416Y2159D01*
X2410Y2128D01*
X2408Y2120D01*
X2345Y2120D01*
X2287Y2120D01*
X2228Y2121D01*
X2126Y2223D01*
X2126Y2322D01*
X2152Y2348D01*
X3430Y2348D01*
X3641Y2138D01*
X3670Y2118D01*
X3705Y2111D01*
X4009Y2111D01*
X4745Y1375D01*
X4775Y1355D01*
X4810Y1348D01*
X5021Y1348D01*
X5053Y1327D01*
X5100Y1318D01*
X5147Y1327D01*
X5187Y1353D01*
X5213Y1393D01*
X5222Y1440D01*
X5213Y1487D01*
X5187Y1527D01*
X5147Y1553D01*
X5100Y1562D01*
X5053Y1553D01*
X5021Y1532D01*
X4848Y1532D01*
X4112Y2267D01*
X4083Y2287D01*
X4047Y2294D01*
X3743Y2294D01*
X3533Y2505D01*
X3503Y2525D01*
X3468Y2532D01*
X2028Y2532D01*
X1972Y2588D01*
X1972Y3342D01*
X1965Y3377D01*
X1945Y3407D01*
X1727Y3625D01*
X1697Y3645D01*
X1662Y3652D01*
X1587Y3652D01*
X1587Y4335D01*
X1829Y4577D01*
X3446Y4577D01*
X3461Y4558D01*
X3483Y4517D01*
X3478Y4490D01*
X3486Y4451D01*
X3508Y4418D01*
X3541Y4396D01*
X3580Y4388D01*
X3619Y4396D01*
X3652Y4418D01*
X3674Y4451D01*
X3682Y4490D01*
X3677Y4517D01*
X3699Y4558D01*
X3714Y4577D01*
X3871Y4577D01*
X4147Y4301D01*
X4147Y3234D01*
X4147Y3234D01*
X4158Y3179D01*
X4189Y3133D01*
X4376Y2946D01*
X4422Y2915D01*
X4477Y2904D01*
X4508Y2910D01*
X4543Y2887D01*
X4590Y2878D01*
X4637Y2887D01*
X4677Y2913D01*
X4703Y2953D01*
X4712Y3000D01*
X4703Y3047D01*
X4677Y3087D01*
X4637Y3113D01*
X4596Y3121D01*
X4578Y3148D01*
X4433Y3293D01*
X4433Y4360D01*
X4433Y4360D01*
X4422Y4415D01*
X4391Y4461D01*
X4391Y4461D01*
X4031Y4821D01*
X3985Y4852D01*
X3985Y4852D01*
X3805Y5032D01*
X3740Y5032D01*
X3740Y5032D01*
X3701Y5024D01*
X3668Y5002D01*
X3646Y4969D01*
X3638Y4930D01*
X3639Y4923D01*
X3598Y4863D01*
X3355Y4863D01*
X3146Y5072D01*
X2954Y5072D01*
X2915Y5064D01*
X2882Y5042D01*
X2860Y5009D01*
X2713Y4863D01*
X1770Y4863D01*
X1715Y4852D01*
X1669Y4821D01*
X1669Y4821D01*
X1343Y4495D01*
X1312Y4449D01*
X1301Y4394D01*
X1301Y4394D01*
X1301Y4185D01*
X920Y3804D01*
X920Y3749D01*
X912Y3710D01*
X918Y3682D01*
X912Y3652D01*
X923Y3598D01*
X954Y3551D01*
X1024Y3481D01*
X1024Y3481D01*
X1024Y3481D01*
X1075Y3430D01*
X1075Y3274D01*
X1042Y3252D01*
X1020Y3219D01*
X1012Y3180D01*
X1020Y3141D01*
X1042Y3108D01*
X1075Y3086D01*
X1114Y3078D01*
X1160Y3078D01*
X1237Y3001D01*
X1237Y2775D01*
X1233Y2768D01*
X1222Y2757D01*
X1184Y2729D01*
X1170Y2732D01*
X1131Y2724D01*
X1098Y2702D01*
X1076Y2669D01*
X1068Y2630D01*
X1076Y2591D01*
X1098Y2558D01*
X1131Y2536D01*
X1170Y2528D01*
X1171Y2528D01*
X1252Y2447D01*
X1252Y2301D01*
X1015Y2064D01*
X982Y2042D01*
X960Y2009D01*
X952Y1970D01*
X960Y1931D01*
X982Y1898D01*
X982Y1897D01*
X982Y1740D01*
X987Y1719D01*
X986Y1708D01*
X978Y1679D01*
X965Y1651D01*
X961Y1647D01*
X938Y1632D01*
X916Y1599D01*
X908Y1560D01*
X849Y1548D01*
X843Y1548D01*
X799Y1593D01*
X799Y1888D01*
X808Y1934D01*
X799Y1981D01*
X772Y2021D01*
X732Y2047D01*
X686Y2057D01*
X639Y2047D01*
X562Y2124D01*
X562Y2575D01*
X625Y2638D01*
X680Y2627D01*
X870Y2627D01*
X925Y2638D01*
X971Y2669D01*
X1002Y2715D01*
X1013Y2770D01*
X1002Y2825D01*
X1002Y2840D01*
X823Y3019D01*
X823Y4847D01*
X1090Y5115D01*
X1990Y5115D01*
X1990Y5115D01*
X2045Y5125D01*
X2091Y5156D01*
X2102Y5167D01*
X2645Y5167D01*
X2645Y5167D01*
X2700Y5178D01*
X2746Y5209D01*
X2887Y5350D01*
X2918Y5396D01*
X2929Y5451D01*
X2918Y5506D01*
X2887Y5552D01*
X2841Y5583D01*
X2786Y5594D01*
X2731Y5583D01*
X2685Y5552D01*
X2586Y5453D01*
X2064Y5453D01*
X2053Y5451D01*
X2043Y5453D01*
X1988Y5442D01*
X1942Y5411D01*
X1931Y5400D01*
X1031Y5400D01*
X1031Y5400D01*
X977Y5389D01*
X616Y5389D01*
X558Y5447D01*
X545Y5460D01*
X528Y5486D01*
X503Y5502D01*
X434Y5572D01*
X440Y5544D01*
X417Y5508D01*
X384Y5486D01*
X383Y5485D01*
X80Y5485D01*
X80Y5676D01*
X124Y5720D01*
X159Y5720D01*
X209Y5687D01*
X266Y5676D01*
X365Y5676D01*
X423Y5687D01*
X472Y5720D01*
X504Y5769D01*
X516Y5827D01*
X504Y5885D01*
X494Y5900D01*
X494Y5980D01*
X536Y6022D01*
X714Y6022D01*
X714Y5866D01*
X720Y5839D01*
X735Y5816D01*
X773Y5778D01*
X778Y5722D01*
X756Y5689D01*
X748Y5650D01*
X756Y5611D01*
X778Y5578D01*
X811Y5556D01*
X850Y5548D01*
X889Y5556D01*
X922Y5578D01*
X944Y5611D01*
X952Y5650D01*
X971Y5669D01*
X1021Y5669D01*
X1034Y5762D01*
X1019Y5776D01*
X981Y5776D01*
X921Y5785D01*
X921Y5802D01*
X916Y5829D01*
X900Y5852D01*
X857Y5896D01*
X857Y6022D01*
X1108Y6022D01*
X1108Y5866D01*
X1113Y5839D01*
X1129Y5816D01*
X1169Y5776D01*
X1169Y5713D01*
X1168Y5712D01*
X1146Y5679D01*
X1138Y5640D01*
X1146Y5601D01*
X1168Y5568D01*
X1201Y5546D01*
X1240Y5538D01*
X1279Y5546D01*
X1312Y5568D01*
X1334Y5601D01*
X1342Y5640D01*
X1334Y5679D01*
X1312Y5712D01*
X1311Y5713D01*
X1311Y5805D01*
X1306Y5833D01*
X1290Y5856D01*
X1251Y5896D01*
X1251Y6022D01*
X1895Y6022D01*
X1895Y5866D01*
X1901Y5839D01*
X1916Y5816D01*
X1959Y5773D01*
X1959Y5753D01*
X1940Y5700D01*
X1940Y5700D01*
X2081Y5559D01*
X2084Y5555D01*
X2087Y5553D01*
X2115Y5525D01*
X2458Y5525D01*
X2497Y5533D01*
X2530Y5555D01*
X2552Y5588D01*
X2560Y5627D01*
X2552Y5666D01*
X2530Y5699D01*
X2529Y5700D01*
X2529Y5768D01*
X2524Y5796D01*
X2508Y5819D01*
X2432Y5896D01*
X2432Y6022D01*
X3005Y6022D01*
X3005Y5687D01*
X3005Y5687D01*
X3016Y5633D01*
X3047Y5586D01*
X3174Y5459D01*
X3220Y5428D01*
X3275Y5417D01*
X4165Y5417D01*
X4206Y5458D01*
X4228Y5491D01*
X4236Y5530D01*
X4228Y5569D01*
X4206Y5602D01*
X4220Y5656D01*
X4379Y5816D01*
X4395Y5839D01*
X4400Y5866D01*
X4400Y6022D01*
X4652Y6022D01*
X4652Y5894D01*
X4367Y5609D01*
X4351Y5586D01*
X4347Y5566D01*
X4342Y5562D01*
X4320Y5529D01*
X4312Y5490D01*
X4320Y5451D01*
X4342Y5418D01*
X4375Y5396D01*
X4414Y5388D01*
X4453Y5396D01*
X4486Y5418D01*
X4508Y5451D01*
X4516Y5490D01*
X4508Y5529D01*
X4500Y5541D01*
X4774Y5814D01*
X4790Y5838D01*
X4795Y5865D01*
X4795Y6022D01*
X6584Y6022D01*
X6584Y4706D01*
X6584Y4706D02*
G37*
G36*
X537Y4275D02*
X537Y4128D01*
X533Y4127D01*
X533Y4127D01*
X478Y4109D01*
X475Y4112D01*
X471Y4115D01*
X470Y4116D01*
X434Y4080D01*
X434Y4074D01*
X514Y4074D01*
X534Y4056D01*
X537Y4053D01*
X537Y3977D01*
X525Y3964D01*
X477Y3936D01*
X456Y3941D01*
X417Y3933D01*
X384Y3911D01*
X383Y3910D01*
X80Y3910D01*
X80Y4161D01*
X286Y4161D01*
X314Y4167D01*
X337Y4182D01*
X473Y4318D01*
X474Y4318D01*
X477Y4319D01*
X537Y4275D01*
X537Y4275D02*
G37*
G36*
X384Y3767D02*
X417Y3745D01*
X456Y3737D01*
X477Y3741D01*
X525Y3713D01*
X537Y3701D01*
X537Y3601D01*
X477Y3563D01*
X455Y3567D01*
X80Y3567D01*
X80Y3767D01*
X383Y3767D01*
X384Y3767D01*
X384Y3767D02*
G37*
G36*
X1788Y3287D02*
X1788Y2639D01*
X1733Y2616D01*
X1543Y2806D01*
X1549Y2847D01*
X1600Y2888D01*
X1639Y2896D01*
X1672Y2918D01*
X1694Y2951D01*
X1702Y2990D01*
X1702Y3279D01*
X1762Y3308D01*
X1788Y3287D01*
X1788Y3287D02*
G37*
G36*
X1323Y1142D02*
X1323Y754D01*
X1263Y729D01*
X1202Y790D01*
X819Y790D01*
X780Y790D01*
X627Y637D01*
X627Y493D01*
X643Y434D01*
X643Y375D01*
X616Y348D01*
X486Y348D01*
X439Y396D01*
X423Y396D01*
X365Y407D01*
X161Y407D01*
X80Y487D01*
X80Y1012D01*
X434Y1012D01*
X434Y925D01*
X436Y923D01*
X737Y923D01*
X1086Y1271D01*
X1193Y1271D01*
X1323Y1142D01*
X1323Y1142D02*
G37*
G36*
X2041Y1167D02*
X2041Y1027D01*
X1950Y936D01*
X1941Y934D01*
X1908Y912D01*
X1904Y906D01*
X1902Y903D01*
X1828Y903D01*
X1828Y903D01*
X1778Y931D01*
X1765Y949D01*
X1765Y1234D01*
X1792Y1261D01*
X1947Y1261D01*
X2041Y1167D01*
X2041Y1167D02*
G37*
G36*
X1296Y510D02*
X1296Y175D01*
X1261Y140D01*
X1092Y140D01*
X1056Y175D01*
X1056Y450D01*
X1046Y460D01*
X1010Y460D01*
X916Y460D01*
X906Y450D01*
X906Y175D01*
X871Y140D01*
X666Y140D01*
X666Y238D01*
X702Y262D01*
X729Y289D01*
X756Y328D01*
X765Y375D01*
X765Y434D01*
X762Y449D01*
X761Y464D01*
X750Y508D01*
X750Y587D01*
X793Y630D01*
X1176Y630D01*
X1296Y510D01*
X1296Y510D02*
G37*
G36*
X2843Y420D02*
X2867Y404D01*
X2894Y399D01*
X2944Y399D01*
X3076Y267D01*
X3076Y80D01*
X2825Y80D01*
X2825Y236D01*
X2820Y264D01*
X2804Y287D01*
X2804Y287D01*
X2421Y670D01*
X2399Y685D01*
X2397Y687D01*
X2374Y747D01*
X2374Y750D01*
X2383Y763D01*
X2388Y790D01*
X2443Y813D01*
X2450Y813D01*
X2843Y420D01*
X2843Y420D02*
G37*
%LPC*%
G36*
X2250Y4512D02*
X2211Y4504D01*
X2178Y4482D01*
X2156Y4449D01*
X2148Y4410D01*
X2156Y4371D01*
X2178Y4338D01*
X2211Y4316D01*
X2250Y4308D01*
X2289Y4316D01*
X2322Y4338D01*
X2344Y4371D01*
X2352Y4410D01*
X2344Y4449D01*
X2322Y4482D01*
X2289Y4504D01*
X2250Y4512D01*
X2250Y4512D02*
G37*
G36*
X2860Y4462D02*
X2821Y4454D01*
X2788Y4432D01*
X2766Y4399D01*
X2758Y4360D01*
X2766Y4321D01*
X2788Y4288D01*
X2821Y4266D01*
X2860Y4258D01*
X2899Y4266D01*
X2932Y4288D01*
X2954Y4321D01*
X2962Y4360D01*
X2954Y4399D01*
X2932Y4432D01*
X2899Y4454D01*
X2860Y4462D01*
X2860Y4462D02*
G37*
G36*
X2570Y4442D02*
X2531Y4434D01*
X2498Y4412D01*
X2476Y4379D01*
X2468Y4340D01*
X2476Y4301D01*
X2498Y4268D01*
X2531Y4246D01*
X2570Y4238D01*
X2609Y4246D01*
X2642Y4268D01*
X2664Y4301D01*
X2672Y4340D01*
X2664Y4379D01*
X2642Y4412D01*
X2609Y4434D01*
X2570Y4442D01*
X2570Y4442D02*
G37*
G36*
X3780Y4412D02*
X3741Y4404D01*
X3708Y4382D01*
X3686Y4349D01*
X3678Y4310D01*
X3686Y4271D01*
X3708Y4238D01*
X3741Y4216D01*
X3780Y4208D01*
X3819Y4216D01*
X3852Y4238D01*
X3874Y4271D01*
X3882Y4310D01*
X3874Y4349D01*
X3852Y4382D01*
X3819Y4404D01*
X3780Y4412D01*
X3780Y4412D02*
G37*
G36*
X1084Y4422D02*
X1037Y4413D01*
X997Y4387D01*
X971Y4347D01*
X962Y4300D01*
X971Y4253D01*
X997Y4214D01*
X1037Y4187D01*
X1084Y4178D01*
X1131Y4187D01*
X1170Y4214D01*
X1197Y4253D01*
X1206Y4300D01*
X1197Y4347D01*
X1170Y4387D01*
X1131Y4413D01*
X1084Y4422D01*
X1084Y4422D02*
G37*
G36*
X1764Y4332D02*
X1725Y4324D01*
X1692Y4302D01*
X1670Y4269D01*
X1662Y4230D01*
X1670Y4191D01*
X1692Y4158D01*
X1725Y4136D01*
X1764Y4128D01*
X1803Y4136D01*
X1836Y4158D01*
X1858Y4191D01*
X1866Y4230D01*
X1858Y4269D01*
X1836Y4302D01*
X1803Y4324D01*
X1764Y4332D01*
X1764Y4332D02*
G37*
G36*
X4820Y4212D02*
X4781Y4204D01*
X4748Y4182D01*
X4726Y4149D01*
X4718Y4110D01*
X4726Y4071D01*
X4748Y4038D01*
X4781Y4016D01*
X4820Y4008D01*
X4859Y4016D01*
X4892Y4038D01*
X4914Y4071D01*
X4922Y4110D01*
X4914Y4149D01*
X4892Y4182D01*
X4859Y4204D01*
X4820Y4212D01*
X4820Y4212D02*
G37*
G36*
X3930Y4099D02*
X3891Y4091D01*
X3858Y4069D01*
X3828Y4039D01*
X3828Y4039D01*
X3732Y3943D01*
X3708Y3927D01*
X3686Y3894D01*
X3679Y3855D01*
X3678Y3621D01*
X3678Y3620D01*
X3678Y3619D01*
X3678Y3438D01*
X3678Y3415D01*
X3704Y3388D01*
X3704Y3388D01*
X3718Y3368D01*
X3751Y3346D01*
X3790Y3338D01*
X3829Y3346D01*
X3862Y3368D01*
X3876Y3388D01*
X3876Y3388D01*
X3892Y3405D01*
X3892Y3440D01*
X3892Y3440D01*
X3892Y3440D01*
X3892Y3442D01*
X3892Y3826D01*
X3969Y3903D01*
X4002Y3925D01*
X4024Y3958D01*
X4032Y3997D01*
X4024Y4036D01*
X4002Y4069D01*
X3969Y4091D01*
X3930Y4099D01*
X3930Y4099D02*
G37*
G36*
X5488Y3621D02*
X5032Y3621D01*
X4999Y3607D01*
X4974Y3582D01*
X4960Y3549D01*
X4960Y3193D01*
X4974Y3160D01*
X4999Y3135D01*
X5032Y3121D01*
X5488Y3121D01*
X5521Y3135D01*
X5546Y3160D01*
X5560Y3193D01*
X5560Y3549D01*
X5546Y3582D01*
X5521Y3607D01*
X5488Y3621D01*
X5488Y3621D02*
G37*
G36*
X3940Y3322D02*
X3901Y3314D01*
X3868Y3292D01*
X3846Y3259D01*
X3838Y3220D01*
X3846Y3181D01*
X3868Y3148D01*
X3901Y3126D01*
X3940Y3118D01*
X3979Y3126D01*
X4012Y3148D01*
X4034Y3181D01*
X4042Y3220D01*
X4034Y3259D01*
X4012Y3292D01*
X3979Y3314D01*
X3940Y3322D01*
X3940Y3322D02*
G37*
G36*
X5721Y2070D02*
X5663Y2059D01*
X5614Y2026D01*
X5581Y1977D01*
X5569Y1919D01*
X5569Y1821D01*
X5581Y1763D01*
X5614Y1714D01*
X5663Y1681D01*
X5721Y1670D01*
X5779Y1681D01*
X5828Y1714D01*
X5860Y1763D01*
X5872Y1821D01*
X5872Y1919D01*
X5860Y1977D01*
X5828Y2026D01*
X5779Y2059D01*
X5721Y2070D01*
X5721Y2070D02*
G37*
%LPD*%
D14*
X103725Y-55679D02*
X103725Y-56269D01*
X103725Y-55679D02*
X103978Y-55679D01*
X104062Y-55707D01*
X104090Y-55735D01*
X104118Y-55791D01*
X104118Y-55847D01*
X104090Y-55904D01*
X104062Y-55932D01*
X103978Y-55960D01*
X103725Y-55960D02*
X103978Y-55960D01*
X104062Y-55988D01*
X104090Y-56016D01*
X104118Y-56072D01*
X104118Y-56157D01*
X104090Y-56213D01*
X104062Y-56241D01*
X103978Y-56269D01*
X103725Y-56269D01*
X104391Y-55876D02*
X104335Y-55904D01*
X104279Y-55960D01*
X104251Y-56044D01*
X104251Y-56101D01*
X104279Y-56185D01*
X104335Y-56241D01*
X104391Y-56269D01*
X104476Y-56269D01*
X104532Y-56241D01*
X104588Y-56185D01*
X104616Y-56101D01*
X104616Y-56044D01*
X104588Y-55960D01*
X104532Y-55904D01*
X104476Y-55876D01*
X104391Y-55876D01*
X104830Y-55679D02*
X104830Y-56157D01*
X104858Y-56241D01*
X104914Y-56269D01*
X104970Y-56269D01*
X104745Y-55876D02*
X104942Y-55876D01*
X105139Y-55679D02*
X105139Y-56157D01*
X105167Y-56241D01*
X105223Y-56269D01*
X105280Y-56269D01*
X105055Y-55876D02*
X105252Y-55876D01*
X105505Y-55876D02*
X105448Y-55904D01*
X105392Y-55960D01*
X105364Y-56044D01*
X105364Y-56101D01*
X105392Y-56185D01*
X105448Y-56241D01*
X105505Y-56269D01*
X105589Y-56269D01*
X105645Y-56241D01*
X105701Y-56185D01*
X105730Y-56101D01*
X105730Y-56044D01*
X105701Y-55960D01*
X105645Y-55904D01*
X105589Y-55876D01*
X105505Y-55876D01*
X105859Y-55876D02*
X105859Y-56269D01*
X105859Y-55988D02*
X105943Y-55904D01*
X105999Y-55876D01*
X106084Y-55876D01*
X106140Y-55904D01*
X106168Y-55988D01*
X106168Y-56269D01*
X106168Y-55988D02*
X106252Y-55904D01*
X106309Y-55876D01*
X106393Y-55876D01*
X106449Y-55904D01*
X106477Y-55988D01*
X106477Y-56269D01*
X107127Y-55679D02*
X107127Y-56269D01*
X107464Y-56269D01*
X107866Y-55876D02*
X107866Y-56269D01*
X107866Y-55960D02*
X107810Y-55904D01*
X107754Y-55876D01*
X107669Y-55876D01*
X107613Y-55904D01*
X107557Y-55960D01*
X107529Y-56044D01*
X107529Y-56101D01*
X107557Y-56185D01*
X107613Y-56241D01*
X107669Y-56269D01*
X107754Y-56269D01*
X107810Y-56241D01*
X107866Y-56185D01*
X108052Y-55876D02*
X108221Y-56269D01*
X108389Y-55876D02*
X108221Y-56269D01*
X108164Y-56382D01*
X108108Y-56438D01*
X108052Y-56466D01*
X108024Y-56466D01*
X108488Y-56044D02*
X108825Y-56044D01*
X108825Y-55988D01*
X108797Y-55932D01*
X108769Y-55904D01*
X108713Y-55876D01*
X108628Y-55876D01*
X108572Y-55904D01*
X108516Y-55960D01*
X108488Y-56044D01*
X108488Y-56101D01*
X108516Y-56185D01*
X108572Y-56241D01*
X108628Y-56269D01*
X108713Y-56269D01*
X108769Y-56241D01*
X108825Y-56185D01*
X108952Y-55876D02*
X108952Y-56269D01*
X108952Y-56044D02*
X108980Y-55960D01*
X109036Y-55904D01*
X109092Y-55876D01*
X109176Y-55876D01*
D15*
X0Y0D02*
X0Y6102D01*
X0Y0D02*
X6600Y0D01*
X6600Y6102D01*
X0Y6102D02*
X6600Y6102D01*
D50*
X0Y3445D02*
X455Y3445D01*
D51*
X3705Y2203D02*
X4047Y2203D01*
X3468Y2440D02*
X3705Y2203D01*
X2584Y2440D02*
X3468Y2440D01*
X4047Y2203D02*
X4810Y1440D01*
X1880Y2550D02*
X1880Y3342D01*
X4810Y1440D02*
X5100Y1440D01*
X4574Y3000D02*
X4590Y3000D01*
X4527Y3047D02*
X4574Y3000D01*
X4477Y3047D02*
X4527Y3047D01*
X1662Y3560D02*
X1880Y3342D01*
X1444Y3560D02*
X1662Y3560D01*
X1384Y3560D02*
X1444Y3560D01*
X1880Y2550D02*
X1990Y2440D01*
X2530Y2440D01*
X2584Y2440D01*
X1983Y1507D02*
X2080Y1410D01*
X1983Y1507D02*
X1983Y1670D01*
D52*
X785Y5866D02*
X785Y6102D01*
X1179Y5866D02*
X1179Y6102D01*
X1967Y5866D02*
X1967Y6102D01*
X2360Y5866D02*
X2360Y6102D01*
X3541Y5866D02*
X3541Y6102D01*
X3935Y5866D02*
X3935Y6102D01*
X4329Y5866D02*
X4329Y6102D01*
X4724Y5865D02*
X4724Y6101D01*
X0Y5413D02*
X456Y5413D01*
X0Y5020D02*
X456Y5020D01*
X0Y3839D02*
X447Y3839D01*
X0Y1870D02*
X300Y1870D01*
X0Y2658D02*
X458Y2658D01*
X0Y1083D02*
X723Y1083D01*
X0Y3051D02*
X281Y3051D01*
X0Y1477D02*
X927Y1477D01*
X0Y4232D02*
X286Y4232D01*
X0Y4626D02*
X236Y4626D01*
X0Y2264D02*
X236Y2264D01*
X4720Y0D02*
X4720Y500D01*
X3541Y0D02*
X3541Y276D01*
X1967Y0D02*
X1967Y293D01*
X2360Y0D02*
X2360Y300D01*
X3930Y0D02*
X3930Y465D01*
X4320Y0D02*
X4320Y480D01*
X3148Y0D02*
X3148Y296D01*
X1573Y0D02*
X1573Y514D01*
X5500Y0D02*
X5500Y550D01*
X5130Y0D02*
X5130Y540D01*
X2754Y0D02*
X2754Y236D01*
X1544Y1446D02*
X1544Y1726D01*
X1544Y1446D02*
X1694Y1296D01*
X1460Y1810D02*
X1544Y1726D01*
X1694Y906D02*
X1694Y1296D01*
X1170Y2630D02*
X1323Y2477D01*
X1323Y1754D02*
X1323Y2477D01*
X2170Y1160D02*
X2270Y1060D01*
X2404Y960D02*
X2894Y470D01*
X2100Y960D02*
X2404Y960D01*
X2445Y1060D02*
X2925Y580D01*
X2270Y1060D02*
X2445Y1060D01*
X4417Y5558D02*
X4724Y5865D01*
X3771Y5612D02*
X3771Y5637D01*
X3541Y5866D02*
X3771Y5637D01*
X3974Y5600D02*
X3974Y5827D01*
X3935Y5866D02*
X3974Y5827D01*
X4134Y5530D02*
X4134Y5671D01*
X4417Y5493D02*
X4417Y5558D01*
X2458Y5627D02*
X2458Y5768D01*
X2360Y5866D02*
X2458Y5768D01*
X2030Y5753D02*
X2156Y5627D01*
X2030Y5753D02*
X2030Y5802D01*
X1967Y5866D02*
X2030Y5802D01*
X1394Y692D02*
X1573Y514D01*
X1394Y692D02*
X1394Y1172D01*
X1054Y1740D02*
X1244Y1550D01*
X1244Y1322D02*
X1394Y1172D01*
X1192Y1743D02*
X1344Y1591D01*
X1344Y1363D02*
X1494Y1213D01*
X1444Y1405D02*
X1594Y1255D01*
X1244Y1322D02*
X1244Y1550D01*
X1344Y1363D02*
X1344Y1591D01*
X1323Y1754D02*
X1444Y1633D01*
X1444Y1405D02*
X1444Y1633D01*
X2370Y620D02*
X2754Y236D01*
X2754Y236D01*
X2894Y470D02*
X2974Y470D01*
X1980Y840D02*
X2100Y960D01*
X2925Y580D02*
X3237Y580D01*
X1980Y620D02*
X2370Y620D01*
X474Y4420D02*
X474Y4420D01*
X286Y4232D02*
X474Y4420D01*
X1494Y766D02*
X1494Y1213D01*
X1494Y766D02*
X1967Y293D01*
X1594Y865D02*
X1949Y510D01*
X1594Y865D02*
X1594Y1255D01*
X1694Y906D02*
X1980Y620D01*
X2974Y470D02*
X3148Y296D01*
X4414Y5490D02*
X4417Y5493D01*
X4134Y5671D02*
X4329Y5866D01*
X1054Y1740D02*
X1054Y1970D01*
X927Y1477D02*
X1010Y1560D01*
X1192Y1743D02*
X1192Y1878D01*
X300Y1870D02*
X480Y2050D01*
X723Y1083D02*
X1040Y1400D01*
X281Y3051D02*
X470Y3240D01*
X458Y2658D02*
X460Y2660D01*
X236Y4626D02*
X300Y4690D01*
X4722Y5866D02*
X4724Y5865D01*
X850Y5650D02*
X850Y5802D01*
X785Y5866D02*
X850Y5802D01*
X1179Y5866D02*
X1240Y5805D01*
X1240Y5640D02*
X1240Y5805D01*
X3237Y580D02*
X3541Y276D01*
X1949Y510D02*
X2150Y510D01*
X2360Y300D01*
X302Y2330D02*
X460Y2330D01*
X236Y2264D02*
X302Y2330D01*
X300Y4690D02*
X456Y4690D01*
D55*
X3148Y5687D02*
X3148Y6102D01*
X785Y0D02*
X785Y515D01*
X1179Y0D02*
X1179Y515D01*
X1444Y3560D02*
X1444Y4394D01*
X1055Y3652D02*
X1125Y3582D01*
X1380Y2767D02*
X1380Y3560D01*
X2840Y1890D02*
X3870Y1890D01*
X2562Y1890D02*
X2840Y1890D01*
X1380Y2767D02*
X2257Y1890D01*
X680Y2770D02*
X680Y4906D01*
X3148Y5687D02*
X3275Y5560D01*
X2064Y5310D02*
X2186Y5310D01*
X2645Y5310D01*
X2786Y5451D01*
X680Y4906D02*
X1031Y5257D01*
X1990Y5257D01*
X4290Y3234D02*
X4290Y4360D01*
X4290Y3234D02*
X4477Y3047D01*
X3930Y4720D02*
X4290Y4360D01*
X1990Y5257D02*
X2043Y5310D01*
X2701Y1751D02*
X2840Y1890D01*
X1770Y4720D02*
X3930Y4720D01*
X1444Y4394D02*
X1770Y4720D01*
X1125Y3582D02*
X1362Y3582D01*
X1384Y3560D01*
X680Y2770D02*
X870Y2770D01*
X2562Y1890D02*
X2701Y1751D01*
X2701Y1413D02*
X2701Y1751D01*
X2257Y1890D02*
X2562Y1890D01*
X3870Y1890D02*
X4720Y1040D01*
X5440Y1200D02*
X5440Y1570D01*
X5280Y1040D02*
X5440Y1200D01*
X4720Y1040D02*
X5280Y1040D01*
X5167Y1843D02*
X5440Y1570D01*
X5167Y1843D02*
X5167Y1933D01*
X1179Y295D02*
X1179Y515D01*
X785Y295D02*
X785Y515D01*
X1149Y545D02*
X1179Y515D01*
X952Y545D02*
X1149Y545D01*
X815Y545D02*
X952Y545D01*
X785Y515D02*
X815Y545D01*
D57*
X316Y5827D02*
D03*
X315Y256D02*
D03*
D58*
X5721Y1870D02*
D03*
D59*
X6226Y4071D02*
D03*
X6226Y3791D02*
D03*
X5946Y3791D02*
D03*
X6226Y3511D02*
D03*
X5946Y3511D02*
D03*
X6226Y3231D02*
D03*
X5946Y3231D02*
D03*
X6226Y2951D02*
D03*
X5946Y2951D02*
D03*
X6226Y2671D02*
D03*
X5946Y2671D02*
D03*
X6226Y2391D02*
D03*
X5946Y2391D02*
D03*
X6226Y2111D02*
D03*
X5946Y2111D02*
D03*
X6226Y1831D02*
D03*
X5946Y1831D02*
D03*
X6226Y1551D02*
D03*
X5946Y1551D02*
D03*
X6226Y1271D02*
D03*
X5946Y1271D02*
D03*
X6226Y991D02*
D03*
X5946Y991D02*
D03*
X6226Y711D02*
D03*
X5946Y711D02*
D03*
X5946Y431D02*
D03*
X6226Y431D02*
D03*
X5946Y151D02*
D03*
X6086Y151D02*
D03*
X6226Y151D02*
D03*
X6366Y151D02*
D03*
X6506Y291D02*
D03*
X6506Y851D02*
D03*
X6506Y1411D02*
D03*
X6506Y1971D02*
D03*
X6506Y2531D02*
D03*
X6506Y3091D02*
D03*
X6506Y3651D02*
D03*
X6506Y431D02*
D03*
X6506Y151D02*
D03*
X6506Y991D02*
D03*
X6506Y571D02*
D03*
X6506Y711D02*
D03*
X6506Y1551D02*
D03*
X6506Y1131D02*
D03*
X6506Y1271D02*
D03*
X6506Y2111D02*
D03*
X6506Y1691D02*
D03*
X6506Y1831D02*
D03*
X6506Y2671D02*
D03*
X6506Y2251D02*
D03*
X6506Y2391D02*
D03*
X6506Y3231D02*
D03*
X6506Y2811D02*
D03*
X6506Y2951D02*
D03*
X6506Y3791D02*
D03*
X6506Y3371D02*
D03*
X6506Y3511D02*
D03*
X6506Y4071D02*
D03*
X6506Y3931D02*
D03*
X6506Y4211D02*
D03*
X6506Y4351D02*
D03*
X6506Y4491D02*
D03*
X5144Y2760D02*
D03*
X1060Y1100D02*
D03*
X1060Y900D02*
D03*
X3360Y2270D02*
D03*
X3940Y3220D02*
D03*
X1590Y3222D02*
D03*
X1600Y2990D02*
D03*
X2790Y2160D02*
D03*
X1630Y2820D02*
D03*
X2170Y1160D02*
D03*
X2337Y1194D02*
D03*
X4819Y4618D02*
D03*
X4820Y4110D02*
D03*
X4962Y4569D02*
D03*
X4964Y4420D02*
D03*
X3771Y5612D02*
D03*
X3974Y5600D02*
D03*
X1888Y5462D02*
D03*
X2032Y5515D02*
D03*
X1903Y5608D02*
D03*
X1764Y5536D02*
D03*
X2879Y5629D02*
D03*
X2662Y5611D02*
D03*
X2984Y5530D02*
D03*
X3078Y5426D02*
D03*
X4134Y5530D02*
D03*
X4264Y5390D02*
D03*
X4287Y5603D02*
D03*
X2156Y5627D02*
D03*
X2186Y5310D02*
D03*
X2458Y5627D02*
D03*
X3781Y3855D02*
D03*
X904Y4210D02*
D03*
X1165Y3820D02*
D03*
X1014Y3710D02*
D03*
X974Y4880D02*
D03*
X1464Y2070D02*
D03*
X5754Y2930D02*
D03*
X5624Y4050D02*
D03*
X5544Y3940D02*
D03*
X5624Y3330D02*
D03*
X5361Y3290D02*
D03*
X2064Y5310D02*
D03*
X2570Y610D02*
D03*
X2652Y1050D02*
D03*
X2690Y1210D02*
D03*
X2820Y880D02*
D03*
X4254Y1163D02*
D03*
X474Y4420D02*
D03*
X479Y4010D02*
D03*
X2454Y720D02*
D03*
X1849Y1195D02*
D03*
X456Y3839D02*
D03*
X474Y3660D02*
D03*
X5545Y719D02*
D03*
X5404Y860D02*
D03*
X5545Y1001D02*
D03*
X3414Y4460D02*
D03*
X3165Y4461D02*
D03*
X1694Y3720D02*
D03*
X1914Y4320D02*
D03*
X2094Y4320D02*
D03*
X2394Y4320D02*
D03*
X3574Y4320D02*
D03*
X3304Y4320D02*
D03*
X3024Y4320D02*
D03*
X5654Y4300D02*
D03*
X4854Y4799D02*
D03*
X4660Y5160D02*
D03*
X4660Y5600D02*
D03*
X5249Y4410D02*
D03*
X4964Y4720D02*
D03*
X5174Y4720D02*
D03*
X5174Y4560D02*
D03*
X4894Y1660D02*
D03*
X4764Y1700D02*
D03*
X5084Y1620D02*
D03*
X5006Y2130D02*
D03*
X5604Y2100D02*
D03*
X5624Y2260D02*
D03*
X5508Y1816D02*
D03*
X5444Y2110D02*
D03*
X5444Y2260D02*
D03*
X4904Y3190D02*
D03*
X4974Y2390D02*
D03*
X5282Y2110D02*
D03*
X5394Y1930D02*
D03*
X5754Y650D02*
D03*
X5754Y330D02*
D03*
X5754Y970D02*
D03*
X5754Y1290D02*
D03*
X5754Y1610D02*
D03*
X5754Y2290D02*
D03*
X5754Y2610D02*
D03*
X5754Y2770D02*
D03*
X5624Y3180D02*
D03*
X5384Y4880D02*
D03*
X6514Y5960D02*
D03*
X6324Y5960D02*
D03*
X6134Y5960D02*
D03*
X6514Y5820D02*
D03*
X6324Y5820D02*
D03*
X6134Y5820D02*
D03*
X6034Y4710D02*
D03*
X6034Y4530D02*
D03*
X6208Y4664D02*
D03*
X6344Y4762D02*
D03*
X6404Y4620D02*
D03*
X6506Y4762D02*
D03*
X6270Y4486D02*
D03*
X6135Y4351D02*
D03*
X5934Y4370D02*
D03*
X6001Y4217D02*
D03*
X5877Y4093D02*
D03*
X1694Y4070D02*
D03*
X3744Y4470D02*
D03*
X574Y5630D02*
D03*
X1124Y4850D02*
D03*
X4414Y5490D02*
D03*
X2954Y4970D02*
D03*
X1170Y2630D02*
D03*
X1119Y2460D02*
D03*
X910Y2360D02*
D03*
X1054Y1970D02*
D03*
X860Y1620D02*
D03*
X920Y1770D02*
D03*
X1010Y1560D02*
D03*
X1460Y1810D02*
D03*
X480Y2050D02*
D03*
X1040Y1400D02*
D03*
X984Y3440D02*
D03*
X1114Y3630D02*
D03*
X470Y3240D02*
D03*
X1098Y2827D02*
D03*
X1600Y3410D02*
D03*
X1114Y3180D02*
D03*
X460Y2660D02*
D03*
X460Y3440D02*
D03*
X1764Y4230D02*
D03*
X1694Y3900D02*
D03*
X5714Y4150D02*
D03*
X5384Y4560D02*
D03*
X5384Y4720D02*
D03*
X3134Y4940D02*
D03*
X3574Y4950D02*
D03*
X4810Y5600D02*
D03*
X3930Y3997D02*
D03*
X5819Y4240D02*
D03*
X5784Y4370D02*
D03*
X3790Y3440D02*
D03*
X1594Y2260D02*
D03*
X1192Y1878D02*
D03*
X2640Y2220D02*
D03*
X2384Y2220D02*
D03*
X5200Y1280D02*
D03*
X4984Y1760D02*
D03*
X3476Y2160D02*
D03*
X4674Y1810D02*
D03*
X4834Y1810D02*
D03*
X4820Y2180D02*
D03*
X4670Y2180D02*
D03*
X4040Y1430D02*
D03*
X4040Y1279D02*
D03*
X3940Y2930D02*
D03*
X2210Y2220D02*
D03*
X3100Y2270D02*
D03*
X2170Y1690D02*
D03*
X850Y5650D02*
D03*
X1240Y5640D02*
D03*
X1080Y5600D02*
D03*
X4720Y500D02*
D03*
X5500Y550D02*
D03*
X5130Y540D02*
D03*
X5034Y3680D02*
D03*
X5024Y4030D02*
D03*
X4874Y3950D02*
D03*
X5024Y4160D02*
D03*
X5104Y4360D02*
D03*
X4774Y2980D02*
D03*
X4610Y3610D02*
D03*
X4520Y2180D02*
D03*
X4540Y2570D02*
D03*
X2250Y4410D02*
D03*
X2680Y500D02*
D03*
X2510Y2120D02*
D03*
X5179Y4240D02*
D03*
X5174Y4070D02*
D03*
X5134Y2220D02*
D03*
X5282Y2260D02*
D03*
X5014Y3060D02*
D03*
X4894Y3330D02*
D03*
X4894Y3460D02*
D03*
X4914Y3600D02*
D03*
X470Y540D02*
D03*
X560Y430D02*
D03*
X240Y480D02*
D03*
X4114Y1168D02*
D03*
X4370Y780D02*
D03*
X4370Y940D02*
D03*
X4320Y480D02*
D03*
X3800Y570D02*
D03*
X3434Y570D02*
D03*
X4040Y594D02*
D03*
X3930Y465D02*
D03*
X4040Y1010D02*
D03*
X4210Y606D02*
D03*
X3104Y1440D02*
D03*
X3104Y1230D02*
D03*
X3100Y710D02*
D03*
X3103Y880D02*
D03*
X1980Y840D02*
D03*
X3240Y2170D02*
D03*
X1810Y1420D02*
D03*
X2400Y1310D02*
D03*
X2860Y4360D02*
D03*
X2570Y4340D02*
D03*
X3580Y4490D02*
D03*
X3780Y4310D02*
D03*
X3740Y4930D02*
D03*
X4934Y2260D02*
D03*
X4954Y2760D02*
D03*
X5179Y3690D02*
D03*
X4654Y3470D02*
D03*
X4674Y3270D02*
D03*
X4520Y3510D02*
D03*
X3780Y3620D02*
D03*
X3880Y1590D02*
D03*
X3720Y1600D02*
D03*
X3603Y570D02*
D03*
X434Y5630D02*
D03*
X150Y5640D02*
D03*
X564Y5760D02*
D03*
X560Y5960D02*
D03*
X460Y2330D02*
D03*
X456Y4690D02*
D03*
X456Y5020D02*
D03*
X456Y5413D02*
D03*
X5319Y2390D02*
D03*
X5479Y2410D02*
D03*
X5549Y2540D02*
D03*
X5549Y2700D02*
D03*
X4810Y4950D02*
D03*
X4810Y5160D02*
D03*
X4810Y5380D02*
D03*
X3300Y1610D02*
D03*
X4370Y1100D02*
D03*
D60*
X2518Y3556D02*
D03*
X2045Y3556D02*
D03*
X2045Y4029D02*
D03*
X2518Y4029D02*
D03*
X2045Y2611D02*
D03*
X2518Y2611D02*
D03*
X2990Y2611D02*
D03*
X2990Y3556D02*
D03*
X2990Y4029D02*
D03*
X2518Y3084D02*
D03*
X2045Y3084D02*
D03*
X2990Y3084D02*
D03*
X3463Y3556D02*
D03*
X3463Y4029D02*
D03*
X3463Y3084D02*
D03*
X3463Y2611D02*
D03*
D61*
X3275Y5560D02*
D03*
X2786Y5451D02*
D03*
X4590Y3000D02*
D03*
X1084Y4300D02*
D03*
X654Y3870D02*
D03*
X686Y1934D02*
D03*
X870Y2770D02*
D03*
X680Y2770D02*
D03*
X5100Y1440D02*
D03*
X5167Y1933D02*
D03*
X1983Y1670D02*
D03*
X540Y1790D02*
D03*
X2701Y1413D02*
D03*
X2270Y810D02*
D03*
X952Y545D02*
D03*
X1149Y545D02*
D03*
D62*
X5260Y3371D02*
D03*
D63*
X2080Y1410D02*
D03*
X1384Y3560D02*
D03*
M02*
