G04*
G04 #@! TF.GenerationSoftware,Altium Limited,Altium Designer,22.4.2 (48)*
G04*
G04 Layer_Color=65535*
%FSLAX24Y24*%
%MOIN*%
G70*
G04*
G04 #@! TF.SameCoordinates,09D1A8E4-E44A-436B-8A94-970E0EB30887*
G04*
G04*
G04 #@! TF.FilePolarity,Positive*
G04*
G01*
G75*
%ADD10C,0.0098*%
%ADD11C,0.0080*%
%ADD12C,0.0079*%
%ADD13C,0.0050*%
%ADD14C,0.0059*%
%ADD15C,0.0039*%
D10*
X1133Y4410D02*
G03*
X1133Y4410I-49J0D01*
G01*
D11*
X3124Y1600D02*
G03*
X3124Y1600I-10J0D01*
G01*
D12*
X1376Y1942D02*
X1376Y1932D01*
X1366Y1942D02*
X1376Y1942D01*
X4132Y1942D02*
X4142Y1942D01*
X4132Y1942D02*
X4132Y1932D01*
X4132Y4698D02*
X4132Y4708D01*
X4132Y4698D02*
X4142Y4698D01*
X1366Y4698D02*
X1376Y4698D01*
X1376Y4708D01*
X6041Y4749D02*
X6218Y4749D01*
X5194Y4749D02*
X5371Y4749D01*
X1154Y5034D02*
X1154Y5507D01*
X1110Y5507D02*
X1154Y5507D01*
X1110Y5034D02*
X1154Y5034D01*
X473Y1510D02*
X473Y1576D01*
X538Y1576D01*
X538Y1510D01*
X473Y1510D01*
D13*
X292Y528D02*
X292Y1472D01*
X1828Y528D02*
X1828Y1472D01*
X3133Y1027D02*
X3133Y1133D01*
X4031Y1031D02*
X4031Y1133D01*
D14*
X104017Y-55740D02*
X104017Y-56330D01*
X103820Y-55740D02*
X104214Y-55740D01*
X104424Y-55936D02*
X104368Y-55964D01*
X104312Y-56021D01*
X104284Y-56105D01*
X104284Y-56161D01*
X104312Y-56246D01*
X104368Y-56302D01*
X104424Y-56330D01*
X104509Y-56330D01*
X104565Y-56302D01*
X104621Y-56246D01*
X104649Y-56161D01*
X104649Y-56105D01*
X104621Y-56021D01*
X104565Y-55964D01*
X104509Y-55936D01*
X104424Y-55936D01*
X104779Y-55936D02*
X104779Y-56527D01*
X104779Y-56021D02*
X104835Y-55964D01*
X104891Y-55936D01*
X104976Y-55936D01*
X105032Y-55964D01*
X105088Y-56021D01*
X105116Y-56105D01*
X105116Y-56161D01*
X105088Y-56246D01*
X105032Y-56302D01*
X104976Y-56330D01*
X104891Y-56330D01*
X104835Y-56302D01*
X104779Y-56246D01*
X105875Y-55740D02*
X105819Y-55768D01*
X105763Y-55824D01*
X105735Y-55880D01*
X105707Y-55964D01*
X105707Y-56105D01*
X105735Y-56189D01*
X105763Y-56246D01*
X105819Y-56302D01*
X105875Y-56330D01*
X105988Y-56330D01*
X106044Y-56302D01*
X106100Y-56246D01*
X106128Y-56189D01*
X106156Y-56105D01*
X106156Y-55964D01*
X106128Y-55880D01*
X106100Y-55824D01*
X106044Y-55768D01*
X105988Y-55740D01*
X105875Y-55740D01*
X106294Y-55936D02*
X106463Y-56330D01*
X106632Y-55936D02*
X106463Y-56330D01*
X106727Y-56105D02*
X107065Y-56105D01*
X107065Y-56049D01*
X107036Y-55993D01*
X107008Y-55964D01*
X106952Y-55936D01*
X106868Y-55936D01*
X106811Y-55964D01*
X106755Y-56021D01*
X106727Y-56105D01*
X106727Y-56161D01*
X106755Y-56246D01*
X106811Y-56302D01*
X106868Y-56330D01*
X106952Y-56330D01*
X107008Y-56302D01*
X107065Y-56246D01*
X107191Y-55936D02*
X107191Y-56330D01*
X107191Y-56105D02*
X107219Y-56021D01*
X107275Y-55964D01*
X107332Y-55936D01*
X107416Y-55936D01*
X107469Y-55740D02*
X107469Y-56330D01*
X107930Y-55936D02*
X107930Y-56330D01*
X107930Y-56021D02*
X107874Y-55964D01*
X107818Y-55936D01*
X107734Y-55936D01*
X107677Y-55964D01*
X107621Y-56021D01*
X107593Y-56105D01*
X107593Y-56161D01*
X107621Y-56246D01*
X107677Y-56302D01*
X107734Y-56330D01*
X107818Y-56330D01*
X107874Y-56302D01*
X107930Y-56246D01*
X108116Y-55936D02*
X108285Y-56330D01*
X108453Y-55936D02*
X108285Y-56330D01*
X108229Y-56442D01*
X108172Y-56499D01*
X108116Y-56527D01*
X108088Y-56527D01*
D15*
X0Y0D02*
X0Y6102D01*
X0Y0D02*
X6600Y0D01*
X6600Y6102D01*
X0Y6102D02*
X6600Y6102D01*
M02*
