G04*
G04 #@! TF.GenerationSoftware,Altium Limited,Altium Designer,22.4.2 (48)*
G04*
G04 Layer_Color=32896*
%FSLAX24Y24*%
%MOIN*%
G70*
G04*
G04 #@! TF.SameCoordinates,234F8549-8FEE-4F9A-8B0D-93BDF39202AA*
G04*
G04*
G04 #@! TF.FilePolarity,Positive*
G04*
G01*
G75*
%ADD14C,0.0059*%
%ADD15C,0.0039*%
%ADD51C,0.0100*%
%ADD53C,0.0040*%
G36*
X3426Y2004D02*
X3432Y2001D01*
X3437Y1998D01*
X3438Y1997D01*
X3438Y1997D01*
X3441Y1994D01*
X3444Y1990D01*
X3447Y1983D01*
X3447Y1981D01*
X3448Y1979D01*
X3448Y1977D01*
X3448Y1977D01*
X3447Y1972D01*
X3447Y1968D01*
X3444Y1961D01*
X3441Y1957D01*
X3439Y1956D01*
X3439Y1955D01*
X3435Y1952D01*
X3432Y1950D01*
X3424Y1948D01*
X3421Y1947D01*
X3419Y1946D01*
X3417Y1946D01*
X3407Y1948D01*
X3400Y1951D01*
X3395Y1956D01*
X3392Y1962D01*
X3390Y1967D01*
X3389Y1972D01*
X3388Y1975D01*
X3388Y1977D01*
X3390Y1985D01*
X3392Y1993D01*
X3397Y1998D01*
X3402Y2001D01*
X3408Y2003D01*
X3412Y2005D01*
X3415Y2005D01*
X3421Y2005D01*
X3426Y2004D01*
X3426Y2004D02*
G37*
G36*
X3640Y2031D02*
X3662Y2028D01*
X3683Y2024D01*
X3702Y2019D01*
X3720Y2013D01*
X3737Y2005D01*
X3752Y1998D01*
X3766Y1991D01*
X3779Y1983D01*
X3790Y1976D01*
X3799Y1969D01*
X3808Y1963D01*
X3814Y1957D01*
X3819Y1954D01*
X3822Y1951D01*
X3822Y1950D01*
X3836Y1936D01*
X3848Y1921D01*
X3858Y1906D01*
X3867Y1891D01*
X3873Y1876D01*
X3880Y1861D01*
X3885Y1846D01*
X3889Y1833D01*
X3892Y1820D01*
X3895Y1809D01*
X3896Y1798D01*
X3897Y1789D01*
X3898Y1783D01*
X3899Y1777D01*
X3899Y1774D01*
X3899Y1772D01*
X3898Y1758D01*
X3897Y1744D01*
X3896Y1732D01*
X3893Y1721D01*
X3892Y1712D01*
X3891Y1706D01*
X3890Y1701D01*
X3889Y1701D01*
X3889Y1700D01*
X3810Y1810D01*
X3757Y1726D01*
X3752Y1718D01*
X3750Y1712D01*
X3749Y1708D01*
X3749Y1707D01*
X3750Y1702D01*
X3751Y1698D01*
X3752Y1694D01*
X3753Y1691D01*
X3754Y1690D01*
X3825Y1591D01*
X3809Y1576D01*
X3793Y1562D01*
X3776Y1551D01*
X3759Y1541D01*
X3742Y1533D01*
X3725Y1526D01*
X3708Y1520D01*
X3694Y1516D01*
X3679Y1512D01*
X3666Y1509D01*
X3654Y1507D01*
X3644Y1506D01*
X3636Y1505D01*
X3630Y1504D01*
X3625Y1504D01*
X3603Y1505D01*
X3583Y1507D01*
X3564Y1511D01*
X3546Y1516D01*
X3528Y1522D01*
X3512Y1527D01*
X3497Y1534D01*
X3483Y1541D01*
X3471Y1547D01*
X3461Y1554D01*
X3451Y1560D01*
X3443Y1566D01*
X3437Y1570D01*
X3432Y1574D01*
X3429Y1576D01*
X3429Y1577D01*
X3598Y1844D01*
X3550Y1910D01*
X3546Y1916D01*
X3542Y1920D01*
X3538Y1923D01*
X3534Y1925D01*
X3531Y1926D01*
X3529Y1927D01*
X3526Y1927D01*
X3521Y1926D01*
X3516Y1924D01*
X3512Y1921D01*
X3508Y1918D01*
X3505Y1915D01*
X3502Y1912D01*
X3501Y1910D01*
X3501Y1909D01*
X3356Y1684D01*
X3353Y1696D01*
X3351Y1701D01*
X3350Y1707D01*
X3349Y1710D01*
X3348Y1713D01*
X3347Y1715D01*
X3347Y1716D01*
X3345Y1727D01*
X3344Y1732D01*
X3344Y1737D01*
X3344Y1740D01*
X3343Y1743D01*
X3343Y1744D01*
X3343Y1745D01*
X3509Y2009D01*
X3527Y2017D01*
X3546Y2022D01*
X3564Y2026D01*
X3581Y2028D01*
X3589Y2030D01*
X3596Y2030D01*
X3602Y2031D01*
X3607Y2031D01*
X3617Y2031D01*
X3640Y2031D01*
X3640Y2031D02*
G37*
G36*
X3276Y1247D02*
X3241Y1247D01*
X3241Y1316D01*
X3159Y1316D01*
X3159Y1247D01*
X3121Y1247D01*
X3121Y1428D01*
X3159Y1428D01*
X3159Y1365D01*
X3241Y1365D01*
X3241Y1428D01*
X3276Y1428D01*
X3276Y1247D01*
X3276Y1247D02*
G37*
G36*
X4334Y1487D02*
X4340Y1485D01*
X4344Y1480D01*
X4347Y1476D01*
X4349Y1470D01*
X4351Y1467D01*
X4352Y1464D01*
X4352Y1462D01*
X4374Y1247D01*
X4330Y1247D01*
X4317Y1398D01*
X4316Y1398D01*
X4269Y1277D01*
X4266Y1271D01*
X4262Y1265D01*
X4258Y1262D01*
X4252Y1260D01*
X4248Y1258D01*
X4244Y1257D01*
X4241Y1257D01*
X4235Y1257D01*
X4229Y1260D01*
X4225Y1263D01*
X4221Y1267D01*
X4218Y1271D01*
X4216Y1274D01*
X4215Y1277D01*
X4215Y1277D01*
X4168Y1400D01*
X4167Y1400D01*
X4155Y1247D01*
X4109Y1247D01*
X4133Y1460D01*
X4135Y1470D01*
X4138Y1476D01*
X4142Y1482D01*
X4146Y1485D01*
X4150Y1487D01*
X4154Y1487D01*
X4156Y1488D01*
X4157Y1488D01*
X4165Y1487D01*
X4172Y1485D01*
X4178Y1481D01*
X4182Y1476D01*
X4185Y1471D01*
X4188Y1467D01*
X4189Y1465D01*
X4189Y1464D01*
X4241Y1332D01*
X4242Y1332D01*
X4294Y1464D01*
X4298Y1472D01*
X4303Y1478D01*
X4309Y1482D01*
X4314Y1485D01*
X4319Y1487D01*
X4323Y1488D01*
X4327Y1488D01*
X4334Y1487D01*
X4334Y1487D02*
G37*
G36*
X4086Y1247D02*
X4044Y1247D01*
X4044Y1428D01*
X4086Y1428D01*
X4086Y1247D01*
X4086Y1247D02*
G37*
G36*
X3836Y1247D02*
X3797Y1247D01*
X3797Y1294D01*
X3730Y1294D01*
X3723Y1294D01*
X3720Y1291D01*
X3717Y1288D01*
X3717Y1288D01*
X3716Y1285D01*
X3716Y1282D01*
X3715Y1277D01*
X3715Y1274D01*
X3715Y1271D01*
X3715Y1269D01*
X3715Y1268D01*
X3715Y1247D01*
X3677Y1247D01*
X3677Y1277D01*
X3677Y1289D01*
X3680Y1298D01*
X3683Y1305D01*
X3687Y1310D01*
X3691Y1314D01*
X3694Y1316D01*
X3697Y1317D01*
X3697Y1317D01*
X3697Y1318D01*
X3691Y1322D01*
X3686Y1328D01*
X3682Y1336D01*
X3679Y1343D01*
X3677Y1351D01*
X3677Y1357D01*
X3677Y1362D01*
X3677Y1362D01*
X3677Y1363D01*
X3677Y1374D01*
X3677Y1384D01*
X3678Y1392D01*
X3680Y1399D01*
X3683Y1405D01*
X3685Y1411D01*
X3688Y1415D01*
X3691Y1419D01*
X3694Y1422D01*
X3701Y1425D01*
X3707Y1428D01*
X3711Y1428D01*
X3836Y1428D01*
X3836Y1247D01*
X3836Y1247D02*
G37*
G36*
X3094Y1247D02*
X3051Y1247D01*
X3051Y1428D01*
X3094Y1428D01*
X3094Y1247D01*
X3094Y1247D02*
G37*
G36*
X3027Y1247D02*
X2990Y1247D01*
X2990Y1293D01*
X2900Y1293D01*
X2894Y1294D01*
X2889Y1295D01*
X2885Y1297D01*
X2881Y1299D01*
X2879Y1301D01*
X2877Y1303D01*
X2875Y1304D01*
X2875Y1305D01*
X2872Y1311D01*
X2869Y1318D01*
X2867Y1326D01*
X2866Y1334D01*
X2865Y1341D01*
X2864Y1347D01*
X2864Y1351D01*
X2864Y1352D01*
X2864Y1366D01*
X2864Y1373D01*
X2865Y1379D01*
X2865Y1385D01*
X2866Y1389D01*
X2866Y1393D01*
X2866Y1396D01*
X2867Y1397D01*
X2867Y1398D01*
X2872Y1408D01*
X2877Y1416D01*
X2884Y1421D01*
X2891Y1425D01*
X2898Y1427D01*
X2904Y1428D01*
X2908Y1428D01*
X3027Y1428D01*
X3027Y1247D01*
X3027Y1247D02*
G37*
G36*
X3979Y1430D02*
X3982Y1429D01*
X3984Y1429D01*
X3990Y1428D01*
X3996Y1425D01*
X4001Y1421D01*
X4005Y1416D01*
X4012Y1406D01*
X4016Y1395D01*
X4019Y1384D01*
X4020Y1374D01*
X4021Y1371D01*
X4021Y1368D01*
X4021Y1366D01*
X4021Y1365D01*
X4021Y1311D01*
X4020Y1298D01*
X4019Y1288D01*
X4017Y1279D01*
X4015Y1272D01*
X4013Y1267D01*
X4010Y1263D01*
X4010Y1261D01*
X4009Y1260D01*
X4004Y1255D01*
X3997Y1251D01*
X3990Y1249D01*
X3982Y1248D01*
X3976Y1246D01*
X3970Y1245D01*
X3897Y1245D01*
X3888Y1246D01*
X3881Y1247D01*
X3875Y1249D01*
X3870Y1251D01*
X3867Y1253D01*
X3865Y1255D01*
X3863Y1256D01*
X3863Y1257D01*
X3862Y1260D01*
X3860Y1265D01*
X3859Y1277D01*
X3858Y1282D01*
X3858Y1287D01*
X3858Y1290D01*
X3858Y1291D01*
X3959Y1291D01*
X3964Y1292D01*
X3968Y1293D01*
X3971Y1294D01*
X3974Y1296D01*
X3977Y1299D01*
X3978Y1300D01*
X3979Y1303D01*
X3979Y1307D01*
X3980Y1317D01*
X3981Y1320D01*
X3981Y1324D01*
X3981Y1327D01*
X3981Y1328D01*
X3981Y1348D01*
X3981Y1355D01*
X3980Y1362D01*
X3979Y1367D01*
X3978Y1371D01*
X3976Y1374D01*
X3976Y1375D01*
X3975Y1376D01*
X3970Y1381D01*
X3965Y1383D01*
X3960Y1384D01*
X3860Y1384D01*
X3861Y1396D01*
X3862Y1406D01*
X3863Y1413D01*
X3865Y1419D01*
X3868Y1422D01*
X3869Y1425D01*
X3870Y1426D01*
X3871Y1426D01*
X3872Y1427D01*
X3874Y1428D01*
X3881Y1429D01*
X3889Y1430D01*
X3898Y1430D01*
X3907Y1430D01*
X3973Y1430D01*
X3979Y1430D01*
X3979Y1430D02*
G37*
G36*
X3609Y1430D02*
X3616Y1429D01*
X3619Y1428D01*
X3621Y1428D01*
X3622Y1428D01*
X3623Y1428D01*
X3628Y1425D01*
X3633Y1422D01*
X3637Y1419D01*
X3640Y1414D01*
X3646Y1405D01*
X3650Y1393D01*
X3652Y1383D01*
X3653Y1374D01*
X3654Y1371D01*
X3654Y1368D01*
X3654Y1366D01*
X3654Y1365D01*
X3654Y1311D01*
X3653Y1300D01*
X3652Y1289D01*
X3651Y1281D01*
X3649Y1275D01*
X3647Y1270D01*
X3646Y1266D01*
X3645Y1264D01*
X3644Y1263D01*
X3638Y1257D01*
X3632Y1253D01*
X3624Y1250D01*
X3617Y1248D01*
X3610Y1246D01*
X3604Y1245D01*
X3538Y1245D01*
X3526Y1246D01*
X3521Y1247D01*
X3518Y1248D01*
X3515Y1248D01*
X3512Y1248D01*
X3511Y1249D01*
X3510Y1249D01*
X3506Y1251D01*
X3501Y1255D01*
X3495Y1263D01*
X3490Y1274D01*
X3486Y1284D01*
X3485Y1294D01*
X3484Y1302D01*
X3483Y1306D01*
X3483Y1308D01*
X3483Y1310D01*
X3483Y1311D01*
X3483Y1365D01*
X3484Y1377D01*
X3485Y1387D01*
X3487Y1395D01*
X3489Y1402D01*
X3492Y1408D01*
X3493Y1411D01*
X3495Y1413D01*
X3495Y1414D01*
X3501Y1419D01*
X3506Y1424D01*
X3514Y1427D01*
X3521Y1428D01*
X3527Y1430D01*
X3532Y1430D01*
X3599Y1430D01*
X3609Y1430D01*
X3609Y1430D02*
G37*
G36*
X3422Y1429D02*
X3428Y1428D01*
X3432Y1427D01*
X3436Y1425D01*
X3438Y1425D01*
X3440Y1423D01*
X3441Y1423D01*
X3444Y1420D01*
X3448Y1416D01*
X3453Y1408D01*
X3458Y1399D01*
X3460Y1389D01*
X3461Y1379D01*
X3462Y1372D01*
X3463Y1369D01*
X3463Y1367D01*
X3463Y1365D01*
X3463Y1365D01*
X3463Y1310D01*
X3462Y1300D01*
X3461Y1290D01*
X3460Y1282D01*
X3458Y1276D01*
X3457Y1271D01*
X3455Y1268D01*
X3454Y1265D01*
X3454Y1265D01*
X3449Y1258D01*
X3442Y1254D01*
X3434Y1250D01*
X3427Y1248D01*
X3419Y1246D01*
X3413Y1245D01*
X3339Y1245D01*
X3330Y1246D01*
X3323Y1247D01*
X3317Y1248D01*
X3313Y1251D01*
X3310Y1252D01*
X3307Y1254D01*
X3306Y1254D01*
X3306Y1255D01*
X3304Y1259D01*
X3302Y1264D01*
X3301Y1270D01*
X3301Y1276D01*
X3300Y1282D01*
X3300Y1287D01*
X3300Y1290D01*
X3300Y1291D01*
X3401Y1291D01*
X3405Y1292D01*
X3409Y1293D01*
X3414Y1297D01*
X3418Y1303D01*
X3421Y1310D01*
X3422Y1317D01*
X3423Y1322D01*
X3424Y1326D01*
X3424Y1327D01*
X3424Y1328D01*
X3424Y1348D01*
X3424Y1354D01*
X3423Y1359D01*
X3421Y1365D01*
X3420Y1369D01*
X3416Y1376D01*
X3412Y1379D01*
X3408Y1382D01*
X3404Y1383D01*
X3401Y1384D01*
X3401Y1384D01*
X3301Y1382D01*
X3301Y1388D01*
X3301Y1394D01*
X3302Y1399D01*
X3302Y1403D01*
X3303Y1407D01*
X3303Y1409D01*
X3304Y1410D01*
X3304Y1411D01*
X3305Y1416D01*
X3307Y1419D01*
X3310Y1422D01*
X3313Y1425D01*
X3318Y1428D01*
X3319Y1428D01*
X3320Y1428D01*
X3323Y1429D01*
X3327Y1430D01*
X3336Y1430D01*
X3415Y1430D01*
X3422Y1429D01*
X3422Y1429D02*
G37*
G36*
X3446Y299D02*
X3410Y299D01*
X3410Y426D01*
X3332Y299D01*
X3293Y299D01*
X3293Y491D01*
X3329Y491D01*
X3329Y362D01*
X3408Y491D01*
X3446Y491D01*
X3446Y299D01*
X3446Y299D02*
G37*
G36*
X2910Y299D02*
X2874Y299D01*
X2874Y426D01*
X2797Y299D01*
X2758Y299D01*
X2758Y491D01*
X2794Y491D01*
X2794Y362D01*
X2873Y491D01*
X2910Y491D01*
X2910Y299D01*
X2910Y299D02*
G37*
G36*
X2717Y299D02*
X2681Y299D01*
X2681Y426D01*
X2603Y299D01*
X2564Y299D01*
X2564Y491D01*
X2600Y491D01*
X2600Y362D01*
X2679Y491D01*
X2717Y491D01*
X2717Y299D01*
X2717Y299D02*
G37*
G36*
X4025Y494D02*
X4032Y493D01*
X4039Y492D01*
X4045Y490D01*
X4051Y488D01*
X4056Y486D01*
X4061Y484D01*
X4065Y481D01*
X4069Y479D01*
X4073Y476D01*
X4076Y474D01*
X4078Y472D01*
X4080Y470D01*
X4082Y469D01*
X4082Y468D01*
X4083Y468D01*
X4087Y463D01*
X4091Y457D01*
X4094Y451D01*
X4097Y445D01*
X4099Y439D01*
X4101Y433D01*
X4103Y427D01*
X4104Y421D01*
X4105Y415D01*
X4106Y410D01*
X4107Y405D01*
X4107Y401D01*
X4107Y398D01*
X4107Y396D01*
X4107Y394D01*
X4107Y394D01*
X4107Y393D01*
X4107Y385D01*
X4106Y377D01*
X4105Y370D01*
X4103Y363D01*
X4102Y357D01*
X4100Y351D01*
X4097Y345D01*
X4095Y341D01*
X4093Y336D01*
X4091Y332D01*
X4088Y329D01*
X4087Y327D01*
X4085Y325D01*
X4084Y323D01*
X4083Y322D01*
X4083Y322D01*
X4078Y317D01*
X4073Y313D01*
X4068Y310D01*
X4063Y307D01*
X4057Y304D01*
X4052Y302D01*
X4047Y301D01*
X4043Y299D01*
X4038Y298D01*
X4034Y297D01*
X4030Y297D01*
X4027Y296D01*
X4024Y296D01*
X4022Y296D01*
X4020Y296D01*
X4015Y296D01*
X4009Y296D01*
X4004Y297D01*
X3999Y298D01*
X3995Y299D01*
X3991Y301D01*
X3987Y302D01*
X3983Y304D01*
X3980Y305D01*
X3977Y306D01*
X3975Y308D01*
X3973Y309D01*
X3971Y310D01*
X3970Y311D01*
X3970Y311D01*
X3969Y311D01*
X3966Y314D01*
X3962Y318D01*
X3956Y325D01*
X3951Y333D01*
X3947Y340D01*
X3946Y344D01*
X3944Y347D01*
X3943Y350D01*
X3942Y353D01*
X3941Y355D01*
X3941Y357D01*
X3941Y358D01*
X3941Y358D01*
X3978Y370D01*
X3980Y362D01*
X3983Y356D01*
X3985Y350D01*
X3988Y346D01*
X3990Y343D01*
X3992Y340D01*
X3994Y339D01*
X3994Y339D01*
X3999Y335D01*
X4003Y333D01*
X4008Y331D01*
X4011Y330D01*
X4015Y329D01*
X4018Y329D01*
X4019Y329D01*
X4021Y329D01*
X4024Y329D01*
X4028Y329D01*
X4035Y331D01*
X4041Y334D01*
X4045Y337D01*
X4049Y339D01*
X4052Y342D01*
X4053Y343D01*
X4054Y344D01*
X4054Y344D01*
X4054Y344D01*
X4057Y347D01*
X4059Y351D01*
X4061Y355D01*
X4062Y359D01*
X4064Y367D01*
X4066Y376D01*
X4066Y380D01*
X4067Y384D01*
X4067Y387D01*
X4067Y390D01*
X4067Y393D01*
X4067Y395D01*
X4067Y396D01*
X4067Y396D01*
X4067Y403D01*
X4067Y408D01*
X4066Y414D01*
X4065Y419D01*
X4064Y423D01*
X4063Y427D01*
X4062Y431D01*
X4061Y434D01*
X4060Y437D01*
X4059Y439D01*
X4057Y441D01*
X4056Y443D01*
X4056Y444D01*
X4055Y445D01*
X4054Y446D01*
X4054Y446D01*
X4052Y449D01*
X4049Y451D01*
X4046Y453D01*
X4043Y455D01*
X4038Y458D01*
X4032Y460D01*
X4027Y461D01*
X4025Y461D01*
X4023Y461D01*
X4022Y462D01*
X4020Y462D01*
X4014Y461D01*
X4009Y460D01*
X4005Y459D01*
X4001Y457D01*
X3998Y455D01*
X3996Y454D01*
X3994Y453D01*
X3994Y453D01*
X3990Y449D01*
X3987Y445D01*
X3984Y442D01*
X3982Y438D01*
X3981Y434D01*
X3980Y432D01*
X3980Y431D01*
X3980Y430D01*
X3979Y430D01*
X3979Y429D01*
X3941Y439D01*
X3944Y447D01*
X3947Y454D01*
X3950Y460D01*
X3953Y465D01*
X3956Y468D01*
X3957Y470D01*
X3959Y472D01*
X3959Y472D01*
X3960Y473D01*
X3961Y474D01*
X3961Y474D01*
X3965Y477D01*
X3970Y481D01*
X3974Y483D01*
X3979Y486D01*
X3984Y488D01*
X3988Y490D01*
X3993Y491D01*
X3998Y492D01*
X4002Y493D01*
X4006Y493D01*
X4009Y494D01*
X4012Y494D01*
X4015Y494D01*
X4018Y494D01*
X4025Y494D01*
X4025Y494D02*
G37*
G36*
X4279Y299D02*
X4240Y299D01*
X4240Y372D01*
X4206Y372D01*
X4202Y372D01*
X4198Y372D01*
X4194Y372D01*
X4191Y372D01*
X4188Y373D01*
X4185Y373D01*
X4183Y373D01*
X4181Y373D01*
X4179Y373D01*
X4178Y374D01*
X4177Y374D01*
X4176Y374D01*
X4175Y374D01*
X4171Y375D01*
X4168Y377D01*
X4164Y378D01*
X4161Y380D01*
X4159Y381D01*
X4157Y382D01*
X4156Y383D01*
X4155Y383D01*
X4152Y386D01*
X4149Y389D01*
X4146Y392D01*
X4143Y395D01*
X4141Y398D01*
X4140Y400D01*
X4139Y401D01*
X4139Y402D01*
X4137Y407D01*
X4135Y412D01*
X4134Y417D01*
X4133Y422D01*
X4133Y426D01*
X4133Y427D01*
X4132Y429D01*
X4132Y430D01*
X4132Y431D01*
X4132Y432D01*
X4132Y432D01*
X4133Y440D01*
X4134Y447D01*
X4136Y454D01*
X4138Y459D01*
X4139Y461D01*
X4140Y463D01*
X4141Y465D01*
X4142Y467D01*
X4143Y468D01*
X4143Y468D01*
X4144Y469D01*
X4144Y469D01*
X4148Y474D01*
X4152Y478D01*
X4157Y481D01*
X4161Y484D01*
X4165Y486D01*
X4168Y487D01*
X4169Y487D01*
X4170Y488D01*
X4171Y488D01*
X4171Y488D01*
X4173Y488D01*
X4176Y489D01*
X4179Y489D01*
X4183Y490D01*
X4190Y490D01*
X4198Y491D01*
X4205Y491D01*
X4208Y491D01*
X4279Y491D01*
X4279Y299D01*
X4279Y299D02*
G37*
G36*
X3907Y299D02*
X3824Y299D01*
X3819Y299D01*
X3811Y299D01*
X3808Y300D01*
X3802Y300D01*
X3800Y300D01*
X3798Y300D01*
X3797Y300D01*
X3795Y300D01*
X3790Y301D01*
X3785Y303D01*
X3780Y304D01*
X3777Y306D01*
X3774Y307D01*
X3771Y308D01*
X3770Y309D01*
X3769Y309D01*
X3766Y313D01*
X3762Y316D01*
X3759Y319D01*
X3757Y322D01*
X3755Y325D01*
X3754Y327D01*
X3753Y329D01*
X3753Y329D01*
X3751Y334D01*
X3749Y338D01*
X3748Y343D01*
X3747Y347D01*
X3747Y350D01*
X3747Y352D01*
X3747Y354D01*
X3747Y354D01*
X3747Y355D01*
X3747Y361D01*
X3748Y366D01*
X3750Y371D01*
X3751Y375D01*
X3753Y379D01*
X3755Y381D01*
X3756Y383D01*
X3756Y383D01*
X3760Y388D01*
X3764Y391D01*
X3769Y395D01*
X3773Y397D01*
X3777Y399D01*
X3780Y400D01*
X3781Y400D01*
X3782Y401D01*
X3783Y401D01*
X3783Y401D01*
X3779Y403D01*
X3775Y406D01*
X3771Y409D01*
X3769Y411D01*
X3767Y414D01*
X3765Y416D01*
X3764Y417D01*
X3764Y418D01*
X3761Y422D01*
X3759Y426D01*
X3758Y431D01*
X3757Y434D01*
X3756Y438D01*
X3756Y440D01*
X3756Y442D01*
X3756Y442D01*
X3756Y442D01*
X3756Y447D01*
X3757Y451D01*
X3758Y455D01*
X3759Y458D01*
X3760Y461D01*
X3761Y463D01*
X3762Y464D01*
X3762Y465D01*
X3764Y468D01*
X3767Y472D01*
X3769Y474D01*
X3772Y477D01*
X3774Y478D01*
X3775Y480D01*
X3777Y481D01*
X3777Y481D01*
X3780Y483D01*
X3784Y485D01*
X3787Y486D01*
X3790Y487D01*
X3793Y488D01*
X3795Y489D01*
X3796Y489D01*
X3797Y489D01*
X3802Y490D01*
X3807Y490D01*
X3812Y490D01*
X3818Y491D01*
X3823Y491D01*
X3907Y491D01*
X3907Y299D01*
X3907Y299D02*
G37*
G36*
X3659Y299D02*
X3618Y299D01*
X3602Y343D01*
X3525Y343D01*
X3508Y299D01*
X3467Y299D01*
X3544Y491D01*
X3585Y491D01*
X3659Y299D01*
X3659Y299D02*
G37*
G36*
X3266Y458D02*
X3209Y458D01*
X3209Y299D01*
X3171Y299D01*
X3171Y458D01*
X3114Y458D01*
X3114Y491D01*
X3266Y491D01*
X3266Y458D01*
X3266Y458D02*
G37*
G36*
X3089Y299D02*
X2943Y299D01*
X2943Y332D01*
X3050Y332D01*
X3050Y384D01*
X2954Y384D01*
X2954Y416D01*
X3050Y416D01*
X3050Y458D01*
X2947Y458D01*
X2947Y491D01*
X3089Y491D01*
X3089Y299D01*
X3089Y299D02*
G37*
G36*
X2543Y299D02*
X2502Y299D01*
X2486Y343D01*
X2409Y343D01*
X2393Y299D01*
X2351Y299D01*
X2428Y491D01*
X2469Y491D01*
X2543Y299D01*
X2543Y299D02*
G37*
G36*
X4339Y485D02*
X4344Y475D01*
X4349Y466D01*
X4351Y462D01*
X4353Y458D01*
X4355Y454D01*
X4357Y450D01*
X4358Y447D01*
X4359Y445D01*
X4360Y443D01*
X4360Y441D01*
X4361Y440D01*
X4361Y440D01*
X4363Y434D01*
X4365Y427D01*
X4369Y415D01*
X4371Y403D01*
X4372Y397D01*
X4372Y392D01*
X4373Y387D01*
X4373Y382D01*
X4374Y378D01*
X4374Y375D01*
X4374Y372D01*
X4374Y370D01*
X4374Y369D01*
X4374Y368D01*
X4373Y357D01*
X4372Y346D01*
X4370Y335D01*
X4370Y330D01*
X4369Y326D01*
X4368Y321D01*
X4367Y318D01*
X4366Y314D01*
X4365Y311D01*
X4364Y309D01*
X4364Y307D01*
X4364Y306D01*
X4364Y306D01*
X4359Y294D01*
X4354Y282D01*
X4352Y277D01*
X4349Y272D01*
X4347Y267D01*
X4344Y262D01*
X4342Y258D01*
X4340Y254D01*
X4338Y251D01*
X4336Y248D01*
X4335Y246D01*
X4334Y244D01*
X4333Y243D01*
X4333Y243D01*
X4308Y243D01*
X4310Y247D01*
X4312Y252D01*
X4313Y256D01*
X4315Y259D01*
X4316Y263D01*
X4318Y266D01*
X4319Y269D01*
X4320Y272D01*
X4321Y274D01*
X4322Y276D01*
X4323Y277D01*
X4323Y279D01*
X4323Y280D01*
X4324Y281D01*
X4324Y281D01*
X4324Y281D01*
X4326Y289D01*
X4329Y296D01*
X4330Y303D01*
X4332Y310D01*
X4333Y313D01*
X4333Y316D01*
X4334Y318D01*
X4334Y320D01*
X4334Y321D01*
X4334Y322D01*
X4335Y323D01*
X4335Y324D01*
X4336Y332D01*
X4337Y340D01*
X4338Y347D01*
X4338Y354D01*
X4338Y357D01*
X4338Y360D01*
X4339Y362D01*
X4339Y364D01*
X4339Y365D01*
X4339Y367D01*
X4339Y367D01*
X4339Y368D01*
X4338Y379D01*
X4338Y390D01*
X4337Y395D01*
X4336Y400D01*
X4336Y405D01*
X4335Y409D01*
X4335Y413D01*
X4334Y416D01*
X4334Y419D01*
X4333Y422D01*
X4333Y424D01*
X4332Y426D01*
X4332Y426D01*
X4332Y427D01*
X4331Y432D01*
X4329Y437D01*
X4325Y449D01*
X4321Y460D01*
X4319Y466D01*
X4317Y471D01*
X4315Y476D01*
X4313Y480D01*
X4312Y484D01*
X4310Y488D01*
X4309Y490D01*
X4308Y493D01*
X4308Y494D01*
X4307Y494D01*
X4333Y494D01*
X4339Y485D01*
X4339Y485D02*
G37*
G36*
X2338Y487D02*
X2335Y480D01*
X2332Y473D01*
X2330Y467D01*
X2327Y461D01*
X2325Y455D01*
X2324Y450D01*
X2322Y445D01*
X2321Y441D01*
X2320Y437D01*
X2318Y434D01*
X2318Y432D01*
X2317Y429D01*
X2317Y428D01*
X2317Y427D01*
X2317Y427D01*
X2314Y416D01*
X2313Y406D01*
X2311Y396D01*
X2311Y391D01*
X2310Y387D01*
X2310Y383D01*
X2310Y379D01*
X2310Y376D01*
X2310Y373D01*
X2310Y371D01*
X2310Y369D01*
X2310Y368D01*
X2310Y368D01*
X2310Y362D01*
X2310Y357D01*
X2310Y352D01*
X2310Y347D01*
X2311Y343D01*
X2311Y340D01*
X2311Y339D01*
X2312Y338D01*
X2312Y338D01*
X2312Y338D01*
X2313Y327D01*
X2314Y322D01*
X2315Y317D01*
X2316Y313D01*
X2317Y310D01*
X2317Y309D01*
X2317Y308D01*
X2317Y307D01*
X2317Y307D01*
X2319Y301D01*
X2320Y296D01*
X2322Y291D01*
X2323Y287D01*
X2324Y283D01*
X2325Y281D01*
X2325Y279D01*
X2325Y279D01*
X2325Y279D01*
X2327Y274D01*
X2330Y268D01*
X2332Y262D01*
X2335Y256D01*
X2337Y251D01*
X2338Y249D01*
X2339Y247D01*
X2340Y245D01*
X2340Y244D01*
X2341Y243D01*
X2341Y243D01*
X2315Y243D01*
X2311Y249D01*
X2307Y255D01*
X2304Y262D01*
X2301Y268D01*
X2298Y274D01*
X2295Y280D01*
X2293Y285D01*
X2291Y290D01*
X2289Y295D01*
X2287Y299D01*
X2286Y303D01*
X2285Y306D01*
X2284Y308D01*
X2284Y310D01*
X2283Y311D01*
X2283Y312D01*
X2280Y323D01*
X2278Y334D01*
X2277Y339D01*
X2277Y344D01*
X2276Y349D01*
X2276Y353D01*
X2275Y357D01*
X2275Y360D01*
X2275Y363D01*
X2274Y366D01*
X2274Y368D01*
X2274Y369D01*
X2274Y370D01*
X2274Y370D01*
X2275Y383D01*
X2276Y394D01*
X2277Y399D01*
X2278Y405D01*
X2279Y410D01*
X2280Y414D01*
X2281Y419D01*
X2282Y423D01*
X2283Y426D01*
X2284Y429D01*
X2284Y431D01*
X2285Y433D01*
X2286Y434D01*
X2286Y434D01*
X2290Y446D01*
X2295Y457D01*
X2297Y462D01*
X2300Y467D01*
X2302Y472D01*
X2305Y476D01*
X2307Y480D01*
X2309Y484D01*
X2311Y487D01*
X2313Y489D01*
X2314Y491D01*
X2315Y493D01*
X2316Y494D01*
X2316Y494D01*
X2341Y494D01*
X2338Y487D01*
X2338Y487D02*
G37*
G36*
X3882Y1101D02*
X3887Y1101D01*
X3892Y1099D01*
X3897Y1098D01*
X3900Y1097D01*
X3903Y1096D01*
X3904Y1096D01*
X3905Y1095D01*
X3905Y1095D01*
X3909Y1093D01*
X3913Y1090D01*
X3917Y1087D01*
X3920Y1085D01*
X3922Y1082D01*
X3923Y1080D01*
X3925Y1079D01*
X3925Y1079D01*
X3927Y1075D01*
X3929Y1070D01*
X3931Y1065D01*
X3933Y1061D01*
X3934Y1057D01*
X3935Y1054D01*
X3935Y1052D01*
X3935Y1052D01*
X3935Y1051D01*
X3935Y1051D01*
X3902Y1045D01*
X3901Y1050D01*
X3900Y1053D01*
X3898Y1057D01*
X3897Y1059D01*
X3896Y1062D01*
X3895Y1063D01*
X3894Y1064D01*
X3893Y1064D01*
X3891Y1067D01*
X3888Y1068D01*
X3885Y1069D01*
X3883Y1070D01*
X3881Y1071D01*
X3879Y1071D01*
X3877Y1071D01*
X3874Y1071D01*
X3871Y1070D01*
X3868Y1069D01*
X3866Y1068D01*
X3864Y1067D01*
X3863Y1066D01*
X3862Y1065D01*
X3862Y1065D01*
X3860Y1063D01*
X3859Y1060D01*
X3857Y1058D01*
X3857Y1055D01*
X3856Y1053D01*
X3856Y1051D01*
X3856Y1050D01*
X3856Y1050D01*
X3856Y1045D01*
X3857Y1042D01*
X3859Y1039D01*
X3860Y1036D01*
X3862Y1034D01*
X3863Y1033D01*
X3864Y1032D01*
X3864Y1031D01*
X3867Y1029D01*
X3871Y1027D01*
X3875Y1026D01*
X3879Y1026D01*
X3882Y1025D01*
X3885Y1025D01*
X3887Y1025D01*
X3891Y995D01*
X3887Y996D01*
X3884Y997D01*
X3881Y998D01*
X3879Y998D01*
X3877Y998D01*
X3874Y998D01*
X3870Y998D01*
X3867Y997D01*
X3864Y996D01*
X3861Y994D01*
X3859Y993D01*
X3857Y991D01*
X3856Y990D01*
X3856Y990D01*
X3854Y986D01*
X3852Y983D01*
X3850Y979D01*
X3849Y976D01*
X3849Y972D01*
X3848Y970D01*
X3848Y968D01*
X3848Y968D01*
X3848Y968D01*
X3849Y962D01*
X3849Y958D01*
X3851Y953D01*
X3852Y950D01*
X3854Y948D01*
X3855Y946D01*
X3856Y944D01*
X3856Y944D01*
X3859Y941D01*
X3863Y939D01*
X3866Y938D01*
X3869Y937D01*
X3872Y936D01*
X3874Y936D01*
X3875Y935D01*
X3875Y935D01*
X3879Y936D01*
X3883Y937D01*
X3886Y938D01*
X3888Y939D01*
X3890Y940D01*
X3892Y941D01*
X3893Y942D01*
X3893Y942D01*
X3896Y945D01*
X3898Y949D01*
X3900Y952D01*
X3901Y956D01*
X3902Y959D01*
X3902Y961D01*
X3903Y963D01*
X3903Y963D01*
X3903Y963D01*
X3938Y959D01*
X3938Y955D01*
X3936Y950D01*
X3934Y943D01*
X3931Y936D01*
X3929Y933D01*
X3927Y931D01*
X3926Y928D01*
X3924Y926D01*
X3923Y924D01*
X3921Y923D01*
X3920Y922D01*
X3919Y921D01*
X3919Y920D01*
X3918Y920D01*
X3915Y917D01*
X3911Y915D01*
X3908Y913D01*
X3904Y911D01*
X3897Y909D01*
X3890Y907D01*
X3887Y906D01*
X3884Y906D01*
X3882Y906D01*
X3880Y905D01*
X3878Y905D01*
X3875Y905D01*
X3870Y905D01*
X3865Y906D01*
X3861Y907D01*
X3856Y908D01*
X3852Y909D01*
X3849Y911D01*
X3845Y912D01*
X3842Y914D01*
X3839Y916D01*
X3836Y917D01*
X3834Y919D01*
X3833Y920D01*
X3831Y921D01*
X3830Y922D01*
X3829Y922D01*
X3829Y923D01*
X3826Y926D01*
X3823Y930D01*
X3821Y933D01*
X3818Y937D01*
X3817Y941D01*
X3815Y944D01*
X3813Y951D01*
X3812Y954D01*
X3812Y957D01*
X3811Y960D01*
X3811Y962D01*
X3811Y963D01*
X3811Y965D01*
X3811Y966D01*
X3811Y966D01*
X3811Y972D01*
X3812Y978D01*
X3814Y983D01*
X3816Y987D01*
X3818Y991D01*
X3819Y993D01*
X3820Y995D01*
X3821Y996D01*
X3825Y1000D01*
X3829Y1003D01*
X3833Y1006D01*
X3838Y1008D01*
X3841Y1010D01*
X3844Y1011D01*
X3845Y1011D01*
X3846Y1011D01*
X3847Y1012D01*
X3847Y1012D01*
X3842Y1015D01*
X3838Y1018D01*
X3834Y1021D01*
X3831Y1024D01*
X3828Y1028D01*
X3826Y1031D01*
X3824Y1034D01*
X3823Y1037D01*
X3821Y1040D01*
X3821Y1043D01*
X3820Y1046D01*
X3820Y1048D01*
X3820Y1050D01*
X3819Y1051D01*
X3819Y1052D01*
X3819Y1052D01*
X3820Y1055D01*
X3820Y1058D01*
X3821Y1065D01*
X3823Y1070D01*
X3826Y1075D01*
X3828Y1079D01*
X3831Y1081D01*
X3831Y1083D01*
X3832Y1083D01*
X3833Y1084D01*
X3833Y1084D01*
X3836Y1087D01*
X3839Y1090D01*
X3843Y1092D01*
X3846Y1094D01*
X3850Y1096D01*
X3854Y1097D01*
X3861Y1099D01*
X3864Y1100D01*
X3867Y1101D01*
X3869Y1101D01*
X3872Y1101D01*
X3874Y1101D01*
X3876Y1101D01*
X3882Y1101D01*
X3882Y1101D02*
G37*
G36*
X3390Y1008D02*
X3457Y909D01*
X3410Y909D01*
X3367Y973D01*
X3325Y909D01*
X3279Y909D01*
X3344Y1008D01*
X3284Y1100D01*
X3330Y1100D01*
X3367Y1043D01*
X3405Y1100D01*
X3451Y1100D01*
X3390Y1008D01*
X3390Y1008D02*
G37*
G36*
X3729Y1101D02*
X3734Y1101D01*
X3742Y1099D01*
X3749Y1097D01*
X3753Y1096D01*
X3756Y1095D01*
X3759Y1094D01*
X3761Y1092D01*
X3763Y1091D01*
X3765Y1090D01*
X3766Y1089D01*
X3767Y1089D01*
X3767Y1088D01*
X3768Y1088D01*
X3771Y1085D01*
X3774Y1083D01*
X3776Y1079D01*
X3778Y1076D01*
X3782Y1068D01*
X3784Y1062D01*
X3785Y1058D01*
X3786Y1055D01*
X3787Y1052D01*
X3787Y1050D01*
X3788Y1047D01*
X3788Y1046D01*
X3788Y1045D01*
X3788Y1045D01*
X3751Y1041D01*
X3751Y1047D01*
X3750Y1051D01*
X3749Y1055D01*
X3747Y1058D01*
X3746Y1061D01*
X3745Y1063D01*
X3744Y1064D01*
X3744Y1064D01*
X3741Y1066D01*
X3738Y1068D01*
X3735Y1069D01*
X3732Y1070D01*
X3729Y1071D01*
X3727Y1071D01*
X3725Y1071D01*
X3721Y1071D01*
X3718Y1070D01*
X3715Y1069D01*
X3712Y1068D01*
X3710Y1067D01*
X3708Y1065D01*
X3707Y1065D01*
X3707Y1064D01*
X3705Y1062D01*
X3703Y1058D01*
X3702Y1055D01*
X3701Y1052D01*
X3701Y1050D01*
X3700Y1047D01*
X3700Y1046D01*
X3700Y1045D01*
X3700Y1045D01*
X3701Y1041D01*
X3702Y1037D01*
X3703Y1033D01*
X3704Y1030D01*
X3706Y1027D01*
X3707Y1025D01*
X3708Y1023D01*
X3708Y1023D01*
X3709Y1021D01*
X3711Y1019D01*
X3713Y1017D01*
X3715Y1014D01*
X3720Y1009D01*
X3725Y1004D01*
X3730Y999D01*
X3733Y997D01*
X3735Y995D01*
X3736Y993D01*
X3738Y992D01*
X3738Y991D01*
X3739Y991D01*
X3744Y986D01*
X3749Y981D01*
X3754Y976D01*
X3758Y972D01*
X3762Y968D01*
X3765Y964D01*
X3768Y961D01*
X3771Y957D01*
X3773Y955D01*
X3775Y952D01*
X3777Y950D01*
X3778Y948D01*
X3779Y947D01*
X3779Y946D01*
X3780Y945D01*
X3780Y945D01*
X3784Y939D01*
X3786Y932D01*
X3789Y926D01*
X3790Y921D01*
X3791Y916D01*
X3792Y914D01*
X3792Y912D01*
X3792Y911D01*
X3792Y909D01*
X3792Y909D01*
X3792Y909D01*
X3664Y909D01*
X3664Y943D01*
X3737Y943D01*
X3734Y946D01*
X3732Y949D01*
X3731Y951D01*
X3730Y952D01*
X3729Y952D01*
X3729Y953D01*
X3728Y954D01*
X3727Y955D01*
X3724Y958D01*
X3720Y962D01*
X3716Y965D01*
X3713Y969D01*
X3710Y971D01*
X3709Y973D01*
X3708Y973D01*
X3707Y974D01*
X3707Y974D01*
X3701Y980D01*
X3696Y985D01*
X3692Y989D01*
X3688Y992D01*
X3686Y995D01*
X3684Y997D01*
X3683Y998D01*
X3683Y999D01*
X3679Y1003D01*
X3676Y1008D01*
X3674Y1012D01*
X3672Y1016D01*
X3670Y1019D01*
X3669Y1021D01*
X3669Y1022D01*
X3668Y1023D01*
X3667Y1027D01*
X3666Y1032D01*
X3665Y1036D01*
X3664Y1040D01*
X3664Y1043D01*
X3664Y1045D01*
X3664Y1047D01*
X3664Y1048D01*
X3664Y1052D01*
X3664Y1056D01*
X3665Y1060D01*
X3666Y1063D01*
X3669Y1070D01*
X3672Y1075D01*
X3673Y1078D01*
X3675Y1080D01*
X3676Y1082D01*
X3677Y1083D01*
X3679Y1084D01*
X3679Y1085D01*
X3680Y1086D01*
X3680Y1086D01*
X3683Y1089D01*
X3687Y1091D01*
X3690Y1093D01*
X3694Y1095D01*
X3701Y1098D01*
X3708Y1099D01*
X3711Y1100D01*
X3715Y1101D01*
X3717Y1101D01*
X3720Y1101D01*
X3722Y1101D01*
X3725Y1101D01*
X3729Y1101D01*
X3729Y1101D02*
G37*
G36*
X2761Y1101D02*
X2766Y1101D01*
X2774Y1099D01*
X2781Y1097D01*
X2785Y1096D01*
X2788Y1095D01*
X2790Y1094D01*
X2793Y1092D01*
X2795Y1091D01*
X2797Y1090D01*
X2798Y1089D01*
X2799Y1089D01*
X2799Y1088D01*
X2800Y1088D01*
X2803Y1085D01*
X2805Y1083D01*
X2808Y1079D01*
X2810Y1076D01*
X2813Y1068D01*
X2816Y1062D01*
X2817Y1058D01*
X2818Y1055D01*
X2819Y1052D01*
X2819Y1050D01*
X2820Y1047D01*
X2820Y1046D01*
X2820Y1045D01*
X2820Y1045D01*
X2783Y1041D01*
X2783Y1047D01*
X2782Y1051D01*
X2780Y1055D01*
X2779Y1058D01*
X2778Y1061D01*
X2777Y1063D01*
X2776Y1064D01*
X2776Y1064D01*
X2773Y1066D01*
X2770Y1068D01*
X2767Y1069D01*
X2764Y1070D01*
X2761Y1071D01*
X2759Y1071D01*
X2757Y1071D01*
X2753Y1071D01*
X2749Y1070D01*
X2746Y1069D01*
X2744Y1068D01*
X2742Y1067D01*
X2740Y1065D01*
X2739Y1065D01*
X2739Y1064D01*
X2737Y1062D01*
X2735Y1058D01*
X2734Y1055D01*
X2733Y1052D01*
X2733Y1050D01*
X2732Y1047D01*
X2732Y1046D01*
X2732Y1045D01*
X2732Y1045D01*
X2733Y1041D01*
X2733Y1037D01*
X2735Y1033D01*
X2736Y1030D01*
X2738Y1027D01*
X2739Y1025D01*
X2740Y1023D01*
X2740Y1023D01*
X2741Y1021D01*
X2743Y1019D01*
X2745Y1017D01*
X2747Y1014D01*
X2752Y1009D01*
X2757Y1004D01*
X2762Y999D01*
X2764Y997D01*
X2767Y995D01*
X2768Y993D01*
X2769Y992D01*
X2770Y991D01*
X2771Y991D01*
X2776Y986D01*
X2781Y981D01*
X2786Y976D01*
X2790Y972D01*
X2794Y968D01*
X2797Y964D01*
X2800Y961D01*
X2803Y957D01*
X2805Y955D01*
X2807Y952D01*
X2808Y950D01*
X2810Y948D01*
X2811Y947D01*
X2811Y946D01*
X2812Y945D01*
X2812Y945D01*
X2815Y939D01*
X2818Y932D01*
X2820Y926D01*
X2822Y921D01*
X2823Y916D01*
X2823Y914D01*
X2824Y912D01*
X2824Y911D01*
X2824Y909D01*
X2824Y909D01*
X2824Y909D01*
X2695Y909D01*
X2695Y943D01*
X2769Y943D01*
X2766Y946D01*
X2764Y949D01*
X2763Y951D01*
X2762Y952D01*
X2761Y952D01*
X2761Y953D01*
X2760Y954D01*
X2759Y955D01*
X2756Y958D01*
X2752Y962D01*
X2748Y965D01*
X2745Y969D01*
X2742Y971D01*
X2741Y973D01*
X2740Y973D01*
X2739Y974D01*
X2739Y974D01*
X2733Y980D01*
X2728Y985D01*
X2724Y989D01*
X2720Y992D01*
X2718Y995D01*
X2716Y997D01*
X2715Y998D01*
X2715Y999D01*
X2711Y1003D01*
X2708Y1008D01*
X2706Y1012D01*
X2704Y1016D01*
X2702Y1019D01*
X2701Y1021D01*
X2700Y1022D01*
X2700Y1023D01*
X2698Y1027D01*
X2697Y1032D01*
X2697Y1036D01*
X2696Y1040D01*
X2696Y1043D01*
X2695Y1045D01*
X2695Y1047D01*
X2695Y1048D01*
X2696Y1052D01*
X2696Y1056D01*
X2697Y1060D01*
X2698Y1063D01*
X2701Y1070D01*
X2703Y1075D01*
X2705Y1078D01*
X2707Y1080D01*
X2708Y1082D01*
X2709Y1083D01*
X2710Y1084D01*
X2711Y1085D01*
X2712Y1086D01*
X2712Y1086D01*
X2715Y1089D01*
X2718Y1091D01*
X2722Y1093D01*
X2726Y1095D01*
X2733Y1098D01*
X2740Y1099D01*
X2743Y1100D01*
X2746Y1101D01*
X2749Y1101D01*
X2752Y1101D01*
X2754Y1101D01*
X2756Y1101D01*
X2761Y1101D01*
X2761Y1101D02*
G37*
G36*
X2255Y1101D02*
X2259Y1101D01*
X2268Y1099D01*
X2275Y1097D01*
X2279Y1096D01*
X2282Y1095D01*
X2284Y1094D01*
X2287Y1092D01*
X2289Y1091D01*
X2290Y1090D01*
X2292Y1089D01*
X2293Y1089D01*
X2293Y1088D01*
X2294Y1088D01*
X2297Y1085D01*
X2299Y1083D01*
X2302Y1079D01*
X2304Y1076D01*
X2307Y1068D01*
X2310Y1062D01*
X2311Y1058D01*
X2312Y1055D01*
X2313Y1052D01*
X2313Y1050D01*
X2313Y1047D01*
X2313Y1046D01*
X2314Y1045D01*
X2314Y1045D01*
X2277Y1041D01*
X2277Y1047D01*
X2276Y1051D01*
X2274Y1055D01*
X2273Y1058D01*
X2272Y1061D01*
X2271Y1063D01*
X2270Y1064D01*
X2270Y1064D01*
X2267Y1066D01*
X2264Y1068D01*
X2261Y1069D01*
X2258Y1070D01*
X2255Y1071D01*
X2253Y1071D01*
X2251Y1071D01*
X2247Y1071D01*
X2243Y1070D01*
X2240Y1069D01*
X2238Y1068D01*
X2236Y1067D01*
X2234Y1065D01*
X2233Y1065D01*
X2233Y1064D01*
X2231Y1062D01*
X2229Y1058D01*
X2228Y1055D01*
X2227Y1052D01*
X2226Y1050D01*
X2226Y1047D01*
X2226Y1046D01*
X2226Y1045D01*
X2226Y1045D01*
X2226Y1041D01*
X2227Y1037D01*
X2229Y1033D01*
X2230Y1030D01*
X2231Y1027D01*
X2233Y1025D01*
X2234Y1023D01*
X2234Y1023D01*
X2235Y1021D01*
X2237Y1019D01*
X2239Y1017D01*
X2241Y1014D01*
X2246Y1009D01*
X2251Y1004D01*
X2256Y999D01*
X2258Y997D01*
X2261Y995D01*
X2262Y993D01*
X2263Y992D01*
X2264Y991D01*
X2264Y991D01*
X2270Y986D01*
X2275Y981D01*
X2280Y976D01*
X2284Y972D01*
X2288Y968D01*
X2291Y964D01*
X2294Y961D01*
X2297Y957D01*
X2299Y955D01*
X2301Y952D01*
X2302Y950D01*
X2304Y948D01*
X2305Y947D01*
X2305Y946D01*
X2306Y945D01*
X2306Y945D01*
X2309Y939D01*
X2312Y932D01*
X2314Y926D01*
X2316Y921D01*
X2317Y916D01*
X2317Y914D01*
X2318Y912D01*
X2318Y911D01*
X2318Y909D01*
X2318Y909D01*
X2318Y909D01*
X2189Y909D01*
X2189Y943D01*
X2262Y943D01*
X2260Y946D01*
X2258Y949D01*
X2257Y951D01*
X2256Y952D01*
X2255Y952D01*
X2255Y953D01*
X2254Y954D01*
X2253Y955D01*
X2249Y958D01*
X2246Y962D01*
X2242Y965D01*
X2239Y969D01*
X2236Y971D01*
X2235Y973D01*
X2234Y973D01*
X2233Y974D01*
X2233Y974D01*
X2227Y980D01*
X2222Y985D01*
X2218Y989D01*
X2214Y992D01*
X2212Y995D01*
X2210Y997D01*
X2209Y998D01*
X2209Y999D01*
X2205Y1003D01*
X2202Y1008D01*
X2200Y1012D01*
X2198Y1016D01*
X2196Y1019D01*
X2195Y1021D01*
X2194Y1022D01*
X2194Y1023D01*
X2192Y1027D01*
X2191Y1032D01*
X2190Y1036D01*
X2190Y1040D01*
X2190Y1043D01*
X2189Y1045D01*
X2189Y1047D01*
X2189Y1048D01*
X2190Y1052D01*
X2190Y1056D01*
X2191Y1060D01*
X2192Y1063D01*
X2195Y1070D01*
X2197Y1075D01*
X2199Y1078D01*
X2200Y1080D01*
X2202Y1082D01*
X2203Y1083D01*
X2204Y1084D01*
X2205Y1085D01*
X2205Y1086D01*
X2206Y1086D01*
X2209Y1089D01*
X2212Y1091D01*
X2216Y1093D01*
X2220Y1095D01*
X2227Y1098D01*
X2234Y1099D01*
X2237Y1100D01*
X2240Y1101D01*
X2243Y1101D01*
X2246Y1101D01*
X2248Y1101D01*
X2250Y1101D01*
X2255Y1101D01*
X2255Y1101D02*
G37*
G36*
X2159Y998D02*
X2130Y994D01*
X2127Y996D01*
X2125Y998D01*
X2122Y1000D01*
X2120Y1002D01*
X2115Y1004D01*
X2111Y1006D01*
X2107Y1007D01*
X2104Y1008D01*
X2103Y1008D01*
X2101Y1008D01*
X2097Y1008D01*
X2093Y1006D01*
X2089Y1005D01*
X2086Y1003D01*
X2084Y1001D01*
X2082Y1000D01*
X2081Y999D01*
X2081Y999D01*
X2078Y995D01*
X2076Y991D01*
X2074Y986D01*
X2074Y982D01*
X2073Y978D01*
X2072Y975D01*
X2072Y974D01*
X2072Y973D01*
X2072Y972D01*
X2072Y972D01*
X2073Y965D01*
X2074Y960D01*
X2075Y955D01*
X2076Y951D01*
X2078Y948D01*
X2079Y945D01*
X2080Y944D01*
X2081Y944D01*
X2084Y941D01*
X2087Y938D01*
X2090Y937D01*
X2093Y935D01*
X2096Y935D01*
X2098Y935D01*
X2100Y934D01*
X2100Y934D01*
X2104Y935D01*
X2107Y935D01*
X2110Y937D01*
X2113Y938D01*
X2115Y939D01*
X2117Y940D01*
X2118Y941D01*
X2118Y942D01*
X2121Y945D01*
X2123Y948D01*
X2125Y951D01*
X2126Y954D01*
X2127Y957D01*
X2127Y959D01*
X2127Y961D01*
X2127Y961D01*
X2164Y957D01*
X2163Y953D01*
X2162Y949D01*
X2159Y941D01*
X2156Y935D01*
X2155Y932D01*
X2153Y929D01*
X2151Y927D01*
X2150Y925D01*
X2148Y923D01*
X2147Y922D01*
X2146Y921D01*
X2145Y920D01*
X2145Y919D01*
X2144Y919D01*
X2141Y917D01*
X2138Y914D01*
X2134Y912D01*
X2130Y911D01*
X2123Y908D01*
X2116Y907D01*
X2113Y906D01*
X2110Y906D01*
X2107Y906D01*
X2105Y905D01*
X2103Y905D01*
X2101Y905D01*
X2095Y905D01*
X2089Y906D01*
X2084Y907D01*
X2079Y909D01*
X2074Y911D01*
X2070Y913D01*
X2066Y915D01*
X2062Y918D01*
X2059Y920D01*
X2056Y922D01*
X2054Y924D01*
X2052Y926D01*
X2051Y928D01*
X2049Y929D01*
X2049Y930D01*
X2049Y930D01*
X2046Y934D01*
X2044Y937D01*
X2042Y941D01*
X2041Y945D01*
X2038Y952D01*
X2036Y959D01*
X2036Y962D01*
X2036Y964D01*
X2035Y967D01*
X2035Y969D01*
X2035Y971D01*
X2035Y972D01*
X2035Y973D01*
X2035Y973D01*
X2035Y978D01*
X2036Y983D01*
X2036Y988D01*
X2038Y992D01*
X2039Y996D01*
X2040Y1000D01*
X2042Y1004D01*
X2043Y1007D01*
X2045Y1009D01*
X2046Y1012D01*
X2048Y1014D01*
X2049Y1016D01*
X2050Y1017D01*
X2051Y1018D01*
X2052Y1019D01*
X2052Y1019D01*
X2055Y1022D01*
X2059Y1025D01*
X2062Y1027D01*
X2066Y1030D01*
X2069Y1031D01*
X2073Y1033D01*
X2079Y1035D01*
X2082Y1036D01*
X2085Y1036D01*
X2087Y1037D01*
X2089Y1037D01*
X2091Y1037D01*
X2094Y1037D01*
X2098Y1037D01*
X2103Y1036D01*
X2107Y1035D01*
X2111Y1034D01*
X2114Y1033D01*
X2117Y1032D01*
X2118Y1031D01*
X2118Y1031D01*
X2119Y1031D01*
X2113Y1063D01*
X2043Y1063D01*
X2043Y1098D01*
X2141Y1098D01*
X2159Y998D01*
X2159Y998D02*
G37*
G36*
X3205Y1095D02*
X3209Y1089D01*
X3213Y1084D01*
X3217Y1079D01*
X3220Y1076D01*
X3223Y1073D01*
X3224Y1072D01*
X3225Y1071D01*
X3226Y1071D01*
X3226Y1070D01*
X3232Y1066D01*
X3238Y1062D01*
X3243Y1059D01*
X3248Y1057D01*
X3252Y1055D01*
X3254Y1054D01*
X3256Y1053D01*
X3256Y1053D01*
X3257Y1053D01*
X3257Y1053D01*
X3257Y1020D01*
X3247Y1024D01*
X3238Y1028D01*
X3234Y1030D01*
X3230Y1032D01*
X3226Y1035D01*
X3223Y1037D01*
X3220Y1039D01*
X3217Y1041D01*
X3215Y1043D01*
X3213Y1044D01*
X3212Y1046D01*
X3210Y1047D01*
X3210Y1047D01*
X3210Y1047D01*
X3210Y909D01*
X3173Y909D01*
X3173Y1101D01*
X3203Y1101D01*
X3205Y1095D01*
X3205Y1095D02*
G37*
G36*
X2907Y1095D02*
X2911Y1089D01*
X2915Y1084D01*
X2919Y1079D01*
X2922Y1076D01*
X2925Y1073D01*
X2926Y1072D01*
X2927Y1071D01*
X2928Y1071D01*
X2928Y1070D01*
X2934Y1066D01*
X2940Y1062D01*
X2945Y1059D01*
X2950Y1057D01*
X2954Y1055D01*
X2956Y1054D01*
X2957Y1053D01*
X2958Y1053D01*
X2959Y1053D01*
X2959Y1053D01*
X2959Y1020D01*
X2949Y1024D01*
X2940Y1028D01*
X2936Y1030D01*
X2932Y1032D01*
X2928Y1035D01*
X2925Y1037D01*
X2922Y1039D01*
X2919Y1041D01*
X2917Y1043D01*
X2915Y1044D01*
X2913Y1046D01*
X2912Y1047D01*
X2912Y1047D01*
X2912Y1047D01*
X2912Y909D01*
X2875Y909D01*
X2875Y1101D01*
X2905Y1101D01*
X2907Y1095D01*
X2907Y1095D02*
G37*
G36*
X4046Y1104D02*
X4054Y1103D01*
X4060Y1101D01*
X4066Y1100D01*
X4072Y1098D01*
X4077Y1096D01*
X4082Y1093D01*
X4087Y1091D01*
X4091Y1088D01*
X4094Y1086D01*
X4097Y1083D01*
X4100Y1081D01*
X4102Y1080D01*
X4103Y1078D01*
X4104Y1078D01*
X4104Y1077D01*
X4108Y1072D01*
X4112Y1067D01*
X4115Y1061D01*
X4118Y1055D01*
X4121Y1048D01*
X4123Y1042D01*
X4124Y1036D01*
X4126Y1030D01*
X4127Y1024D01*
X4127Y1019D01*
X4128Y1015D01*
X4128Y1011D01*
X4128Y1008D01*
X4129Y1005D01*
X4129Y1003D01*
X4129Y1003D01*
X4129Y1003D01*
X4128Y994D01*
X4128Y987D01*
X4126Y979D01*
X4125Y973D01*
X4123Y966D01*
X4121Y960D01*
X4119Y955D01*
X4116Y950D01*
X4114Y946D01*
X4112Y942D01*
X4110Y939D01*
X4108Y936D01*
X4106Y934D01*
X4105Y932D01*
X4105Y932D01*
X4104Y931D01*
X4100Y927D01*
X4095Y923D01*
X4089Y919D01*
X4084Y916D01*
X4079Y914D01*
X4074Y912D01*
X4069Y910D01*
X4064Y909D01*
X4059Y908D01*
X4055Y907D01*
X4051Y906D01*
X4048Y906D01*
X4045Y906D01*
X4043Y905D01*
X4042Y905D01*
X4036Y906D01*
X4031Y906D01*
X4025Y907D01*
X4021Y908D01*
X4016Y909D01*
X4012Y910D01*
X4008Y911D01*
X4005Y913D01*
X4002Y914D01*
X3999Y916D01*
X3996Y917D01*
X3994Y918D01*
X3993Y919D01*
X3992Y920D01*
X3991Y920D01*
X3991Y921D01*
X3987Y924D01*
X3984Y927D01*
X3978Y934D01*
X3973Y942D01*
X3969Y950D01*
X3967Y953D01*
X3966Y957D01*
X3965Y960D01*
X3964Y962D01*
X3963Y964D01*
X3962Y966D01*
X3962Y967D01*
X3962Y967D01*
X4000Y979D01*
X4002Y971D01*
X4004Y965D01*
X4007Y960D01*
X4010Y955D01*
X4012Y952D01*
X4014Y950D01*
X4015Y949D01*
X4016Y948D01*
X4020Y945D01*
X4024Y942D01*
X4029Y941D01*
X4033Y939D01*
X4036Y939D01*
X4039Y939D01*
X4041Y938D01*
X4042Y938D01*
X4046Y939D01*
X4049Y939D01*
X4056Y941D01*
X4062Y943D01*
X4067Y946D01*
X4070Y949D01*
X4073Y951D01*
X4074Y952D01*
X4075Y953D01*
X4075Y953D01*
X4076Y953D01*
X4078Y957D01*
X4080Y960D01*
X4082Y964D01*
X4083Y968D01*
X4085Y977D01*
X4087Y985D01*
X4088Y989D01*
X4088Y993D01*
X4088Y997D01*
X4088Y1000D01*
X4089Y1002D01*
X4089Y1004D01*
X4089Y1005D01*
X4089Y1006D01*
X4088Y1012D01*
X4088Y1018D01*
X4088Y1023D01*
X4087Y1028D01*
X4086Y1032D01*
X4085Y1037D01*
X4083Y1040D01*
X4082Y1044D01*
X4081Y1046D01*
X4080Y1049D01*
X4079Y1051D01*
X4078Y1052D01*
X4077Y1054D01*
X4076Y1055D01*
X4076Y1055D01*
X4076Y1055D01*
X4073Y1058D01*
X4070Y1061D01*
X4068Y1063D01*
X4065Y1064D01*
X4059Y1067D01*
X4053Y1069D01*
X4049Y1070D01*
X4046Y1070D01*
X4045Y1071D01*
X4043Y1071D01*
X4041Y1071D01*
X4036Y1071D01*
X4031Y1070D01*
X4026Y1068D01*
X4022Y1067D01*
X4019Y1065D01*
X4017Y1063D01*
X4016Y1062D01*
X4015Y1062D01*
X4011Y1059D01*
X4008Y1055D01*
X4006Y1051D01*
X4004Y1047D01*
X4002Y1044D01*
X4002Y1041D01*
X4001Y1040D01*
X4001Y1039D01*
X4001Y1039D01*
X4001Y1039D01*
X3962Y1048D01*
X3965Y1056D01*
X3968Y1063D01*
X3972Y1069D01*
X3975Y1074D01*
X3978Y1078D01*
X3979Y1080D01*
X3980Y1081D01*
X3981Y1082D01*
X3982Y1083D01*
X3982Y1083D01*
X3982Y1083D01*
X3986Y1087D01*
X3991Y1090D01*
X3995Y1093D01*
X4000Y1095D01*
X4005Y1097D01*
X4010Y1099D01*
X4015Y1100D01*
X4019Y1101D01*
X4023Y1102D01*
X4027Y1103D01*
X4030Y1103D01*
X4033Y1104D01*
X4036Y1104D01*
X4039Y1104D01*
X4046Y1104D01*
X4046Y1104D02*
G37*
G36*
X3555Y1104D02*
X3562Y1103D01*
X3569Y1101D01*
X3575Y1100D01*
X3580Y1098D01*
X3586Y1096D01*
X3591Y1093D01*
X3595Y1091D01*
X3599Y1088D01*
X3603Y1086D01*
X3606Y1083D01*
X3608Y1081D01*
X3610Y1080D01*
X3611Y1078D01*
X3612Y1078D01*
X3613Y1077D01*
X3617Y1072D01*
X3621Y1067D01*
X3624Y1061D01*
X3627Y1055D01*
X3629Y1048D01*
X3631Y1042D01*
X3633Y1036D01*
X3634Y1030D01*
X3635Y1024D01*
X3636Y1019D01*
X3636Y1015D01*
X3637Y1011D01*
X3637Y1008D01*
X3637Y1005D01*
X3637Y1003D01*
X3637Y1003D01*
X3637Y1003D01*
X3637Y994D01*
X3636Y987D01*
X3635Y979D01*
X3633Y973D01*
X3632Y966D01*
X3629Y960D01*
X3627Y955D01*
X3625Y950D01*
X3623Y946D01*
X3621Y942D01*
X3618Y939D01*
X3617Y936D01*
X3615Y934D01*
X3614Y932D01*
X3613Y932D01*
X3613Y931D01*
X3608Y927D01*
X3603Y923D01*
X3598Y919D01*
X3593Y916D01*
X3587Y914D01*
X3582Y912D01*
X3577Y910D01*
X3572Y909D01*
X3568Y908D01*
X3564Y907D01*
X3560Y906D01*
X3557Y906D01*
X3554Y906D01*
X3552Y905D01*
X3550Y905D01*
X3544Y906D01*
X3539Y906D01*
X3534Y907D01*
X3529Y908D01*
X3525Y909D01*
X3521Y910D01*
X3517Y911D01*
X3513Y913D01*
X3510Y914D01*
X3507Y916D01*
X3505Y917D01*
X3503Y918D01*
X3501Y919D01*
X3500Y920D01*
X3500Y920D01*
X3499Y921D01*
X3496Y924D01*
X3492Y927D01*
X3486Y934D01*
X3481Y942D01*
X3477Y950D01*
X3476Y953D01*
X3474Y957D01*
X3473Y960D01*
X3472Y962D01*
X3471Y964D01*
X3471Y966D01*
X3471Y967D01*
X3471Y967D01*
X3508Y979D01*
X3510Y971D01*
X3513Y965D01*
X3515Y960D01*
X3518Y955D01*
X3520Y952D01*
X3522Y950D01*
X3524Y949D01*
X3524Y948D01*
X3529Y945D01*
X3533Y942D01*
X3538Y941D01*
X3541Y939D01*
X3545Y939D01*
X3548Y939D01*
X3549Y938D01*
X3551Y938D01*
X3554Y939D01*
X3558Y939D01*
X3565Y941D01*
X3571Y943D01*
X3575Y946D01*
X3579Y949D01*
X3582Y951D01*
X3583Y952D01*
X3584Y953D01*
X3584Y953D01*
X3584Y953D01*
X3587Y957D01*
X3589Y960D01*
X3590Y964D01*
X3592Y968D01*
X3594Y977D01*
X3596Y985D01*
X3596Y989D01*
X3597Y993D01*
X3597Y997D01*
X3597Y1000D01*
X3597Y1002D01*
X3597Y1004D01*
X3597Y1005D01*
X3597Y1006D01*
X3597Y1012D01*
X3597Y1018D01*
X3596Y1023D01*
X3595Y1028D01*
X3594Y1032D01*
X3593Y1037D01*
X3592Y1040D01*
X3591Y1044D01*
X3590Y1046D01*
X3589Y1049D01*
X3587Y1051D01*
X3586Y1052D01*
X3585Y1054D01*
X3585Y1055D01*
X3584Y1055D01*
X3584Y1055D01*
X3582Y1058D01*
X3579Y1061D01*
X3576Y1063D01*
X3573Y1064D01*
X3567Y1067D01*
X3562Y1069D01*
X3557Y1070D01*
X3555Y1070D01*
X3553Y1071D01*
X3552Y1071D01*
X3550Y1071D01*
X3544Y1071D01*
X3539Y1070D01*
X3535Y1068D01*
X3531Y1067D01*
X3528Y1065D01*
X3526Y1063D01*
X3524Y1062D01*
X3524Y1062D01*
X3520Y1059D01*
X3517Y1055D01*
X3514Y1051D01*
X3512Y1047D01*
X3511Y1044D01*
X3510Y1041D01*
X3510Y1040D01*
X3510Y1039D01*
X3509Y1039D01*
X3509Y1039D01*
X3471Y1048D01*
X3474Y1056D01*
X3477Y1063D01*
X3480Y1069D01*
X3483Y1074D01*
X3486Y1078D01*
X3487Y1080D01*
X3489Y1081D01*
X3489Y1082D01*
X3490Y1083D01*
X3490Y1083D01*
X3491Y1083D01*
X3495Y1087D01*
X3500Y1090D01*
X3504Y1093D01*
X3509Y1095D01*
X3514Y1097D01*
X3518Y1099D01*
X3523Y1100D01*
X3528Y1101D01*
X3532Y1102D01*
X3536Y1103D01*
X3539Y1103D01*
X3542Y1104D01*
X3544Y1104D01*
X3548Y1104D01*
X3555Y1104D01*
X3555Y1104D02*
G37*
G36*
X4375Y909D02*
X4336Y909D01*
X4336Y981D01*
X4302Y981D01*
X4298Y981D01*
X4294Y981D01*
X4290Y981D01*
X4287Y982D01*
X4284Y982D01*
X4281Y982D01*
X4279Y982D01*
X4277Y983D01*
X4275Y983D01*
X4274Y983D01*
X4272Y983D01*
X4272Y983D01*
X4271Y983D01*
X4267Y985D01*
X4264Y986D01*
X4260Y987D01*
X4257Y989D01*
X4255Y990D01*
X4253Y991D01*
X4252Y992D01*
X4251Y993D01*
X4247Y995D01*
X4244Y998D01*
X4241Y1002D01*
X4239Y1004D01*
X4237Y1007D01*
X4236Y1009D01*
X4235Y1011D01*
X4235Y1011D01*
X4233Y1016D01*
X4231Y1021D01*
X4230Y1026D01*
X4229Y1031D01*
X4228Y1035D01*
X4228Y1037D01*
X4228Y1038D01*
X4228Y1040D01*
X4228Y1040D01*
X4228Y1041D01*
X4228Y1041D01*
X4229Y1049D01*
X4230Y1057D01*
X4232Y1063D01*
X4234Y1068D01*
X4235Y1071D01*
X4236Y1073D01*
X4237Y1074D01*
X4238Y1076D01*
X4238Y1077D01*
X4239Y1078D01*
X4239Y1078D01*
X4239Y1078D01*
X4244Y1083D01*
X4248Y1088D01*
X4253Y1091D01*
X4257Y1093D01*
X4261Y1095D01*
X4264Y1096D01*
X4265Y1097D01*
X4266Y1097D01*
X4267Y1097D01*
X4267Y1097D01*
X4269Y1098D01*
X4272Y1098D01*
X4275Y1099D01*
X4279Y1099D01*
X4286Y1099D01*
X4294Y1100D01*
X4301Y1100D01*
X4304Y1100D01*
X4375Y1100D01*
X4375Y909D01*
X4375Y909D02*
G37*
G36*
X4198Y909D02*
X4159Y909D01*
X4159Y1100D01*
X4198Y1100D01*
X4198Y909D01*
X4198Y909D02*
G37*
G36*
X2662Y909D02*
X2579Y909D01*
X2574Y909D01*
X2566Y909D01*
X2563Y909D01*
X2558Y909D01*
X2556Y909D01*
X2553Y909D01*
X2552Y910D01*
X2551Y910D01*
X2545Y911D01*
X2540Y912D01*
X2536Y913D01*
X2532Y915D01*
X2529Y916D01*
X2526Y918D01*
X2525Y919D01*
X2525Y919D01*
X2521Y922D01*
X2518Y925D01*
X2515Y928D01*
X2512Y932D01*
X2510Y934D01*
X2509Y937D01*
X2508Y938D01*
X2508Y939D01*
X2506Y943D01*
X2504Y948D01*
X2503Y952D01*
X2503Y956D01*
X2502Y959D01*
X2502Y962D01*
X2502Y963D01*
X2502Y964D01*
X2502Y964D01*
X2502Y970D01*
X2503Y976D01*
X2505Y980D01*
X2507Y985D01*
X2508Y988D01*
X2510Y991D01*
X2511Y992D01*
X2511Y993D01*
X2515Y997D01*
X2519Y1001D01*
X2524Y1004D01*
X2528Y1006D01*
X2532Y1008D01*
X2535Y1009D01*
X2536Y1010D01*
X2537Y1010D01*
X2538Y1010D01*
X2538Y1010D01*
X2534Y1013D01*
X2530Y1015D01*
X2526Y1018D01*
X2524Y1021D01*
X2522Y1023D01*
X2520Y1025D01*
X2519Y1027D01*
X2519Y1027D01*
X2516Y1032D01*
X2514Y1036D01*
X2513Y1040D01*
X2512Y1044D01*
X2512Y1047D01*
X2511Y1050D01*
X2511Y1051D01*
X2511Y1052D01*
X2511Y1052D01*
X2512Y1056D01*
X2512Y1061D01*
X2513Y1064D01*
X2514Y1068D01*
X2515Y1070D01*
X2517Y1073D01*
X2517Y1074D01*
X2517Y1074D01*
X2520Y1078D01*
X2522Y1081D01*
X2525Y1084D01*
X2527Y1086D01*
X2529Y1088D01*
X2531Y1089D01*
X2532Y1090D01*
X2532Y1090D01*
X2535Y1093D01*
X2539Y1094D01*
X2542Y1096D01*
X2545Y1097D01*
X2548Y1098D01*
X2550Y1098D01*
X2551Y1098D01*
X2552Y1098D01*
X2557Y1099D01*
X2562Y1099D01*
X2567Y1100D01*
X2573Y1100D01*
X2578Y1100D01*
X2662Y1100D01*
X2662Y909D01*
X2662Y909D02*
G37*
G36*
X2474Y1068D02*
X2385Y1068D01*
X2486Y944D01*
X2486Y909D01*
X2330Y909D01*
X2330Y941D01*
X2439Y941D01*
X2334Y1070D01*
X2334Y1100D01*
X2474Y1100D01*
X2474Y1068D01*
X2474Y1068D02*
G37*
G36*
X1873Y979D02*
X1873Y947D01*
X1794Y947D01*
X1794Y909D01*
X1759Y909D01*
X1759Y947D01*
X1735Y947D01*
X1735Y979D01*
X1759Y979D01*
X1759Y1101D01*
X1790Y1101D01*
X1873Y979D01*
X1873Y979D02*
G37*
G36*
X3061Y1101D02*
X3065Y1101D01*
X3070Y1099D01*
X3074Y1098D01*
X3078Y1097D01*
X3082Y1095D01*
X3085Y1093D01*
X3088Y1091D01*
X3090Y1089D01*
X3093Y1088D01*
X3095Y1086D01*
X3096Y1085D01*
X3097Y1083D01*
X3098Y1082D01*
X3099Y1082D01*
X3099Y1081D01*
X3102Y1077D01*
X3105Y1071D01*
X3108Y1065D01*
X3110Y1059D01*
X3112Y1053D01*
X3113Y1046D01*
X3114Y1040D01*
X3115Y1034D01*
X3116Y1027D01*
X3116Y1022D01*
X3117Y1017D01*
X3117Y1012D01*
X3118Y1009D01*
X3118Y1006D01*
X3118Y1005D01*
X3118Y1004D01*
X3118Y1004D01*
X3118Y1003D01*
X3117Y993D01*
X3117Y984D01*
X3116Y976D01*
X3115Y968D01*
X3114Y961D01*
X3112Y955D01*
X3111Y949D01*
X3109Y944D01*
X3108Y940D01*
X3106Y936D01*
X3105Y933D01*
X3103Y931D01*
X3102Y929D01*
X3102Y927D01*
X3101Y927D01*
X3101Y926D01*
X3097Y922D01*
X3094Y919D01*
X3090Y916D01*
X3086Y914D01*
X3083Y912D01*
X3079Y910D01*
X3075Y909D01*
X3072Y908D01*
X3068Y907D01*
X3065Y906D01*
X3062Y906D01*
X3060Y905D01*
X3058Y905D01*
X3057Y905D01*
X3056Y905D01*
X3051Y905D01*
X3046Y906D01*
X3041Y907D01*
X3037Y908D01*
X3033Y909D01*
X3030Y911D01*
X3026Y913D01*
X3023Y915D01*
X3021Y917D01*
X3018Y919D01*
X3016Y920D01*
X3015Y922D01*
X3014Y923D01*
X3013Y924D01*
X3012Y924D01*
X3012Y925D01*
X3009Y929D01*
X3006Y935D01*
X3003Y941D01*
X3001Y947D01*
X2999Y953D01*
X2998Y960D01*
X2997Y967D01*
X2995Y973D01*
X2995Y979D01*
X2994Y985D01*
X2994Y990D01*
X2994Y994D01*
X2993Y998D01*
X2993Y1001D01*
X2993Y1002D01*
X2993Y1003D01*
X2993Y1003D01*
X2993Y1003D01*
X2994Y1013D01*
X2994Y1022D01*
X2995Y1031D01*
X2996Y1038D01*
X2998Y1045D01*
X2999Y1052D01*
X3001Y1058D01*
X3003Y1063D01*
X3004Y1067D01*
X3006Y1071D01*
X3008Y1074D01*
X3009Y1077D01*
X3010Y1079D01*
X3011Y1080D01*
X3012Y1081D01*
X3012Y1081D01*
X3015Y1085D01*
X3018Y1088D01*
X3022Y1091D01*
X3026Y1093D01*
X3029Y1095D01*
X3033Y1096D01*
X3036Y1098D01*
X3040Y1099D01*
X3043Y1100D01*
X3046Y1100D01*
X3049Y1101D01*
X3051Y1101D01*
X3053Y1101D01*
X3056Y1101D01*
X3061Y1101D01*
X3061Y1101D02*
G37*
G36*
X1958Y1101D02*
X1963Y1101D01*
X1968Y1099D01*
X1972Y1098D01*
X1976Y1097D01*
X1979Y1095D01*
X1982Y1093D01*
X1986Y1091D01*
X1988Y1089D01*
X1990Y1088D01*
X1992Y1086D01*
X1994Y1085D01*
X1995Y1083D01*
X1996Y1082D01*
X1997Y1082D01*
X1997Y1081D01*
X2000Y1077D01*
X2003Y1071D01*
X2005Y1065D01*
X2008Y1059D01*
X2009Y1053D01*
X2011Y1046D01*
X2012Y1040D01*
X2013Y1034D01*
X2014Y1027D01*
X2014Y1022D01*
X2015Y1017D01*
X2015Y1012D01*
X2015Y1009D01*
X2015Y1006D01*
X2015Y1005D01*
X2015Y1004D01*
X2015Y1004D01*
X2015Y1003D01*
X2015Y993D01*
X2015Y984D01*
X2014Y976D01*
X2013Y968D01*
X2012Y961D01*
X2010Y955D01*
X2008Y949D01*
X2007Y944D01*
X2005Y940D01*
X2004Y936D01*
X2002Y933D01*
X2001Y931D01*
X2000Y929D01*
X1999Y927D01*
X1999Y927D01*
X1999Y926D01*
X1995Y922D01*
X1992Y919D01*
X1988Y916D01*
X1984Y914D01*
X1981Y912D01*
X1977Y910D01*
X1973Y909D01*
X1969Y908D01*
X1966Y907D01*
X1963Y906D01*
X1960Y906D01*
X1958Y905D01*
X1956Y905D01*
X1954Y905D01*
X1953Y905D01*
X1948Y905D01*
X1944Y906D01*
X1939Y907D01*
X1935Y908D01*
X1931Y909D01*
X1927Y911D01*
X1924Y913D01*
X1921Y915D01*
X1919Y917D01*
X1916Y919D01*
X1914Y920D01*
X1913Y922D01*
X1912Y923D01*
X1911Y924D01*
X1910Y924D01*
X1910Y925D01*
X1907Y929D01*
X1904Y935D01*
X1901Y941D01*
X1899Y947D01*
X1897Y953D01*
X1896Y960D01*
X1894Y967D01*
X1893Y973D01*
X1893Y979D01*
X1892Y985D01*
X1892Y990D01*
X1891Y994D01*
X1891Y998D01*
X1891Y1001D01*
X1891Y1002D01*
X1891Y1003D01*
X1891Y1003D01*
X1891Y1003D01*
X1891Y1013D01*
X1892Y1022D01*
X1893Y1031D01*
X1894Y1038D01*
X1895Y1045D01*
X1897Y1052D01*
X1899Y1058D01*
X1900Y1063D01*
X1902Y1067D01*
X1904Y1071D01*
X1905Y1074D01*
X1907Y1077D01*
X1908Y1079D01*
X1909Y1080D01*
X1910Y1081D01*
X1910Y1081D01*
X1913Y1085D01*
X1916Y1088D01*
X1920Y1091D01*
X1923Y1093D01*
X1927Y1095D01*
X1931Y1096D01*
X1934Y1098D01*
X1938Y1099D01*
X1941Y1100D01*
X1944Y1100D01*
X1946Y1101D01*
X1949Y1101D01*
X1951Y1101D01*
X1953Y1101D01*
X1958Y1101D01*
X1958Y1101D02*
G37*
G36*
X1661Y1101D02*
X1665Y1101D01*
X1670Y1100D01*
X1674Y1099D01*
X1678Y1098D01*
X1681Y1097D01*
X1684Y1096D01*
X1687Y1094D01*
X1690Y1093D01*
X1692Y1092D01*
X1694Y1091D01*
X1695Y1089D01*
X1697Y1089D01*
X1697Y1088D01*
X1698Y1088D01*
X1698Y1087D01*
X1701Y1085D01*
X1703Y1082D01*
X1705Y1079D01*
X1707Y1076D01*
X1710Y1070D01*
X1711Y1064D01*
X1712Y1059D01*
X1713Y1057D01*
X1713Y1055D01*
X1713Y1054D01*
X1713Y1053D01*
X1713Y1052D01*
X1713Y1052D01*
X1713Y1047D01*
X1712Y1043D01*
X1711Y1039D01*
X1710Y1035D01*
X1709Y1032D01*
X1708Y1031D01*
X1707Y1029D01*
X1707Y1029D01*
X1704Y1025D01*
X1701Y1022D01*
X1697Y1019D01*
X1694Y1016D01*
X1691Y1015D01*
X1688Y1013D01*
X1687Y1012D01*
X1686Y1012D01*
X1686Y1012D01*
X1692Y1009D01*
X1697Y1006D01*
X1701Y1003D01*
X1704Y999D01*
X1707Y996D01*
X1709Y994D01*
X1710Y993D01*
X1710Y992D01*
X1710Y992D01*
X1713Y987D01*
X1715Y982D01*
X1716Y977D01*
X1717Y973D01*
X1718Y969D01*
X1718Y966D01*
X1718Y965D01*
X1718Y964D01*
X1718Y963D01*
X1718Y963D01*
X1718Y958D01*
X1717Y953D01*
X1716Y949D01*
X1715Y944D01*
X1713Y940D01*
X1712Y937D01*
X1710Y933D01*
X1708Y930D01*
X1706Y928D01*
X1704Y925D01*
X1702Y923D01*
X1701Y922D01*
X1699Y920D01*
X1698Y919D01*
X1698Y919D01*
X1697Y919D01*
X1694Y916D01*
X1690Y914D01*
X1687Y912D01*
X1683Y911D01*
X1676Y908D01*
X1669Y907D01*
X1666Y906D01*
X1663Y906D01*
X1661Y906D01*
X1658Y905D01*
X1656Y905D01*
X1654Y905D01*
X1649Y905D01*
X1644Y906D01*
X1639Y907D01*
X1635Y908D01*
X1631Y909D01*
X1627Y910D01*
X1624Y912D01*
X1621Y913D01*
X1618Y915D01*
X1616Y916D01*
X1613Y918D01*
X1612Y919D01*
X1610Y920D01*
X1610Y921D01*
X1609Y921D01*
X1609Y922D01*
X1606Y925D01*
X1603Y928D01*
X1601Y932D01*
X1599Y935D01*
X1597Y939D01*
X1596Y943D01*
X1594Y950D01*
X1593Y953D01*
X1592Y955D01*
X1592Y958D01*
X1592Y960D01*
X1592Y962D01*
X1592Y964D01*
X1592Y965D01*
X1592Y965D01*
X1592Y971D01*
X1593Y976D01*
X1594Y981D01*
X1596Y985D01*
X1597Y988D01*
X1599Y991D01*
X1600Y993D01*
X1600Y993D01*
X1603Y998D01*
X1607Y1001D01*
X1611Y1005D01*
X1615Y1007D01*
X1619Y1009D01*
X1622Y1011D01*
X1623Y1012D01*
X1623Y1012D01*
X1624Y1012D01*
X1624Y1012D01*
X1620Y1014D01*
X1616Y1017D01*
X1613Y1019D01*
X1610Y1022D01*
X1608Y1024D01*
X1606Y1026D01*
X1605Y1027D01*
X1605Y1028D01*
X1602Y1032D01*
X1601Y1036D01*
X1599Y1040D01*
X1599Y1044D01*
X1598Y1047D01*
X1598Y1050D01*
X1598Y1051D01*
X1598Y1052D01*
X1598Y1052D01*
X1598Y1056D01*
X1598Y1060D01*
X1600Y1067D01*
X1602Y1072D01*
X1605Y1078D01*
X1608Y1082D01*
X1609Y1083D01*
X1610Y1085D01*
X1612Y1086D01*
X1612Y1087D01*
X1613Y1087D01*
X1613Y1087D01*
X1616Y1090D01*
X1619Y1092D01*
X1623Y1094D01*
X1626Y1096D01*
X1633Y1098D01*
X1640Y1100D01*
X1643Y1100D01*
X1646Y1101D01*
X1649Y1101D01*
X1651Y1101D01*
X1653Y1101D01*
X1656Y1101D01*
X1661Y1101D01*
X1661Y1101D02*
G37*
G36*
X3289Y604D02*
X3253Y604D01*
X3253Y730D01*
X3175Y604D01*
X3136Y604D01*
X3136Y796D01*
X3172Y796D01*
X3172Y667D01*
X3251Y796D01*
X3289Y796D01*
X3289Y604D01*
X3289Y604D02*
G37*
G36*
X1815Y604D02*
X1779Y604D01*
X1779Y730D01*
X1702Y604D01*
X1663Y604D01*
X1663Y796D01*
X1699Y796D01*
X1699Y667D01*
X1778Y796D01*
X1815Y796D01*
X1815Y604D01*
X1815Y604D02*
G37*
G36*
X3020Y799D02*
X3027Y798D01*
X3033Y797D01*
X3040Y795D01*
X3045Y793D01*
X3051Y791D01*
X3056Y789D01*
X3060Y786D01*
X3064Y784D01*
X3067Y781D01*
X3071Y779D01*
X3073Y777D01*
X3075Y775D01*
X3076Y774D01*
X3077Y773D01*
X3077Y773D01*
X3082Y767D01*
X3085Y762D01*
X3089Y756D01*
X3092Y750D01*
X3094Y744D01*
X3096Y738D01*
X3098Y731D01*
X3099Y726D01*
X3100Y720D01*
X3101Y715D01*
X3101Y710D01*
X3102Y706D01*
X3102Y703D01*
X3102Y700D01*
X3102Y699D01*
X3102Y698D01*
X3102Y698D01*
X3102Y690D01*
X3101Y682D01*
X3100Y675D01*
X3098Y668D01*
X3097Y662D01*
X3094Y656D01*
X3092Y650D01*
X3090Y646D01*
X3088Y641D01*
X3085Y637D01*
X3083Y634D01*
X3082Y631D01*
X3080Y630D01*
X3079Y628D01*
X3078Y627D01*
X3078Y627D01*
X3073Y622D01*
X3068Y618D01*
X3063Y615D01*
X3057Y612D01*
X3052Y609D01*
X3047Y607D01*
X3042Y605D01*
X3037Y604D01*
X3033Y603D01*
X3028Y602D01*
X3025Y602D01*
X3021Y601D01*
X3019Y601D01*
X3017Y601D01*
X3015Y601D01*
X3009Y601D01*
X3004Y601D01*
X2999Y602D01*
X2994Y603D01*
X2990Y604D01*
X2985Y605D01*
X2982Y607D01*
X2978Y608D01*
X2975Y610D01*
X2972Y611D01*
X2970Y612D01*
X2968Y613D01*
X2966Y615D01*
X2965Y615D01*
X2964Y616D01*
X2964Y616D01*
X2961Y619D01*
X2957Y622D01*
X2951Y630D01*
X2946Y638D01*
X2942Y645D01*
X2941Y649D01*
X2939Y652D01*
X2938Y655D01*
X2937Y657D01*
X2936Y660D01*
X2936Y661D01*
X2935Y662D01*
X2935Y663D01*
X2973Y674D01*
X2975Y667D01*
X2978Y661D01*
X2980Y655D01*
X2983Y651D01*
X2985Y648D01*
X2987Y645D01*
X2989Y644D01*
X2989Y643D01*
X2994Y640D01*
X2998Y638D01*
X3002Y636D01*
X3006Y635D01*
X3010Y634D01*
X3013Y634D01*
X3014Y634D01*
X3015Y634D01*
X3019Y634D01*
X3023Y634D01*
X3030Y636D01*
X3035Y638D01*
X3040Y641D01*
X3044Y644D01*
X3047Y646D01*
X3048Y648D01*
X3049Y648D01*
X3049Y649D01*
X3049Y649D01*
X3051Y652D01*
X3053Y656D01*
X3055Y659D01*
X3057Y664D01*
X3059Y672D01*
X3061Y681D01*
X3061Y685D01*
X3061Y689D01*
X3062Y692D01*
X3062Y695D01*
X3062Y697D01*
X3062Y699D01*
X3062Y701D01*
X3062Y701D01*
X3062Y707D01*
X3062Y713D01*
X3061Y718D01*
X3060Y723D01*
X3059Y728D01*
X3058Y732D01*
X3057Y736D01*
X3056Y739D01*
X3054Y742D01*
X3053Y744D01*
X3052Y746D01*
X3051Y748D01*
X3050Y749D01*
X3050Y750D01*
X3049Y751D01*
X3049Y751D01*
X3047Y754D01*
X3044Y756D01*
X3041Y758D01*
X3038Y760D01*
X3032Y762D01*
X3027Y764D01*
X3022Y766D01*
X3020Y766D01*
X3018Y766D01*
X3016Y766D01*
X3015Y766D01*
X3009Y766D01*
X3004Y765D01*
X3000Y764D01*
X2996Y762D01*
X2993Y760D01*
X2990Y759D01*
X2989Y758D01*
X2989Y757D01*
X2985Y754D01*
X2982Y750D01*
X2979Y746D01*
X2977Y743D01*
X2976Y739D01*
X2975Y737D01*
X2974Y736D01*
X2974Y735D01*
X2974Y734D01*
X2974Y734D01*
X2936Y743D01*
X2939Y751D01*
X2942Y758D01*
X2945Y764D01*
X2948Y769D01*
X2951Y773D01*
X2952Y775D01*
X2953Y776D01*
X2954Y777D01*
X2955Y778D01*
X2955Y779D01*
X2956Y779D01*
X2960Y782D01*
X2964Y785D01*
X2969Y788D01*
X2974Y790D01*
X2979Y793D01*
X2983Y794D01*
X2988Y796D01*
X2992Y797D01*
X2997Y798D01*
X3000Y798D01*
X3004Y799D01*
X3007Y799D01*
X3009Y799D01*
X3013Y799D01*
X3020Y799D01*
X3020Y799D02*
G37*
G36*
X1945Y799D02*
X1954Y798D01*
X1958Y797D01*
X1962Y796D01*
X1966Y795D01*
X1969Y795D01*
X1971Y793D01*
X1974Y793D01*
X1976Y792D01*
X1978Y791D01*
X1979Y790D01*
X1981Y790D01*
X1981Y790D01*
X1981Y790D01*
X1990Y785D01*
X1994Y782D01*
X1997Y779D01*
X2000Y776D01*
X2004Y773D01*
X2006Y770D01*
X2009Y767D01*
X2011Y764D01*
X2013Y762D01*
X2014Y759D01*
X2016Y757D01*
X2017Y756D01*
X2017Y755D01*
X2018Y754D01*
X2018Y754D01*
X2020Y749D01*
X2022Y745D01*
X2025Y736D01*
X2027Y726D01*
X2029Y718D01*
X2029Y715D01*
X2030Y711D01*
X2030Y708D01*
X2030Y705D01*
X2030Y703D01*
X2030Y702D01*
X2030Y701D01*
X2030Y700D01*
X2030Y690D01*
X2029Y681D01*
X2027Y672D01*
X2026Y668D01*
X2025Y664D01*
X2024Y661D01*
X2023Y658D01*
X2022Y656D01*
X2021Y653D01*
X2020Y652D01*
X2020Y650D01*
X2019Y649D01*
X2019Y649D01*
X2015Y641D01*
X2009Y634D01*
X2004Y627D01*
X1998Y622D01*
X1996Y620D01*
X1993Y618D01*
X1991Y616D01*
X1989Y615D01*
X1988Y614D01*
X1987Y613D01*
X1986Y613D01*
X1986Y613D01*
X1981Y611D01*
X1977Y609D01*
X1968Y606D01*
X1959Y603D01*
X1951Y602D01*
X1947Y602D01*
X1944Y601D01*
X1941Y601D01*
X1938Y601D01*
X1936Y600D01*
X1933Y600D01*
X1924Y601D01*
X1916Y602D01*
X1908Y603D01*
X1901Y605D01*
X1898Y606D01*
X1895Y607D01*
X1893Y607D01*
X1890Y608D01*
X1889Y608D01*
X1888Y609D01*
X1887Y609D01*
X1887Y609D01*
X1878Y613D01*
X1871Y616D01*
X1865Y620D01*
X1860Y623D01*
X1856Y626D01*
X1855Y627D01*
X1853Y628D01*
X1853Y629D01*
X1852Y629D01*
X1851Y630D01*
X1851Y707D01*
X1935Y707D01*
X1935Y674D01*
X1890Y674D01*
X1890Y650D01*
X1894Y647D01*
X1897Y645D01*
X1901Y643D01*
X1904Y641D01*
X1907Y640D01*
X1909Y639D01*
X1911Y638D01*
X1911Y638D01*
X1911Y638D01*
X1916Y636D01*
X1920Y635D01*
X1924Y634D01*
X1928Y634D01*
X1931Y634D01*
X1933Y633D01*
X1936Y633D01*
X1940Y634D01*
X1945Y634D01*
X1948Y635D01*
X1952Y636D01*
X1959Y639D01*
X1962Y640D01*
X1965Y642D01*
X1967Y644D01*
X1969Y645D01*
X1971Y647D01*
X1973Y648D01*
X1974Y649D01*
X1975Y650D01*
X1975Y650D01*
X1976Y651D01*
X1978Y654D01*
X1981Y658D01*
X1982Y662D01*
X1984Y666D01*
X1987Y674D01*
X1989Y683D01*
X1989Y687D01*
X1990Y690D01*
X1990Y693D01*
X1990Y697D01*
X1990Y699D01*
X1990Y701D01*
X1990Y702D01*
X1990Y702D01*
X1990Y708D01*
X1990Y713D01*
X1989Y718D01*
X1988Y723D01*
X1987Y727D01*
X1986Y731D01*
X1984Y735D01*
X1983Y738D01*
X1982Y741D01*
X1981Y743D01*
X1979Y745D01*
X1978Y747D01*
X1977Y748D01*
X1976Y749D01*
X1976Y750D01*
X1976Y750D01*
X1973Y753D01*
X1970Y756D01*
X1966Y757D01*
X1963Y759D01*
X1960Y761D01*
X1956Y762D01*
X1950Y764D01*
X1947Y765D01*
X1944Y766D01*
X1942Y766D01*
X1940Y766D01*
X1938Y766D01*
X1935Y766D01*
X1929Y766D01*
X1924Y765D01*
X1919Y764D01*
X1915Y762D01*
X1912Y761D01*
X1910Y759D01*
X1908Y758D01*
X1908Y758D01*
X1904Y755D01*
X1900Y751D01*
X1898Y747D01*
X1896Y744D01*
X1894Y741D01*
X1893Y738D01*
X1892Y736D01*
X1892Y736D01*
X1892Y736D01*
X1854Y743D01*
X1855Y748D01*
X1856Y752D01*
X1858Y757D01*
X1860Y761D01*
X1862Y764D01*
X1864Y768D01*
X1867Y771D01*
X1869Y774D01*
X1871Y776D01*
X1873Y778D01*
X1875Y780D01*
X1876Y782D01*
X1878Y783D01*
X1879Y784D01*
X1879Y784D01*
X1880Y784D01*
X1884Y787D01*
X1888Y789D01*
X1892Y791D01*
X1897Y793D01*
X1906Y796D01*
X1915Y797D01*
X1919Y798D01*
X1923Y798D01*
X1927Y799D01*
X1930Y799D01*
X1932Y799D01*
X1935Y799D01*
X1945Y799D01*
X1945Y799D02*
G37*
G36*
X4375Y604D02*
X4336Y604D01*
X4336Y684D01*
X4324Y684D01*
X4320Y684D01*
X4316Y684D01*
X4314Y683D01*
X4311Y683D01*
X4310Y682D01*
X4309Y682D01*
X4309Y682D01*
X4307Y681D01*
X4305Y680D01*
X4303Y678D01*
X4301Y677D01*
X4299Y676D01*
X4298Y675D01*
X4298Y674D01*
X4297Y674D01*
X4296Y672D01*
X4295Y671D01*
X4292Y667D01*
X4288Y662D01*
X4285Y657D01*
X4282Y653D01*
X4280Y651D01*
X4279Y649D01*
X4278Y648D01*
X4277Y647D01*
X4277Y646D01*
X4277Y646D01*
X4249Y604D01*
X4203Y604D01*
X4226Y641D01*
X4229Y645D01*
X4231Y649D01*
X4233Y652D01*
X4236Y656D01*
X4238Y658D01*
X4239Y661D01*
X4243Y665D01*
X4245Y669D01*
X4247Y671D01*
X4248Y672D01*
X4248Y672D01*
X4251Y676D01*
X4255Y679D01*
X4258Y681D01*
X4262Y684D01*
X4264Y686D01*
X4267Y687D01*
X4268Y688D01*
X4269Y689D01*
X4269Y689D01*
X4264Y689D01*
X4260Y690D01*
X4256Y692D01*
X4252Y693D01*
X4249Y694D01*
X4246Y696D01*
X4243Y697D01*
X4240Y699D01*
X4238Y700D01*
X4236Y702D01*
X4234Y703D01*
X4233Y704D01*
X4232Y705D01*
X4231Y706D01*
X4231Y706D01*
X4231Y706D01*
X4229Y709D01*
X4227Y712D01*
X4223Y718D01*
X4221Y724D01*
X4220Y729D01*
X4219Y734D01*
X4218Y736D01*
X4218Y738D01*
X4218Y740D01*
X4218Y741D01*
X4218Y742D01*
X4218Y742D01*
X4218Y748D01*
X4220Y754D01*
X4221Y759D01*
X4222Y763D01*
X4224Y767D01*
X4225Y770D01*
X4226Y770D01*
X4226Y771D01*
X4227Y772D01*
X4227Y772D01*
X4230Y777D01*
X4234Y780D01*
X4237Y784D01*
X4241Y786D01*
X4244Y788D01*
X4247Y789D01*
X4248Y790D01*
X4249Y790D01*
X4249Y790D01*
X4252Y791D01*
X4255Y792D01*
X4262Y793D01*
X4269Y794D01*
X4276Y795D01*
X4280Y795D01*
X4283Y795D01*
X4286Y795D01*
X4288Y796D01*
X4375Y796D01*
X4375Y604D01*
X4375Y604D02*
G37*
G36*
X4182Y604D02*
X4036Y604D01*
X4036Y636D01*
X4143Y636D01*
X4143Y689D01*
X4047Y689D01*
X4047Y721D01*
X4143Y721D01*
X4143Y763D01*
X4039Y763D01*
X4039Y796D01*
X4182Y796D01*
X4182Y604D01*
X4182Y604D02*
G37*
G36*
X4003Y604D02*
X3964Y604D01*
X3964Y685D01*
X3884Y685D01*
X3884Y718D01*
X3964Y718D01*
X3964Y763D01*
X3871Y763D01*
X3871Y796D01*
X4003Y796D01*
X4003Y604D01*
X4003Y604D02*
G37*
G36*
X3839Y604D02*
X3693Y604D01*
X3693Y636D01*
X3800Y636D01*
X3800Y689D01*
X3704Y689D01*
X3704Y721D01*
X3800Y721D01*
X3800Y763D01*
X3697Y763D01*
X3697Y796D01*
X3839Y796D01*
X3839Y604D01*
X3839Y604D02*
G37*
G36*
X3661Y604D02*
X3622Y604D01*
X3622Y684D01*
X3609Y684D01*
X3605Y684D01*
X3602Y684D01*
X3599Y683D01*
X3597Y683D01*
X3596Y682D01*
X3595Y682D01*
X3595Y682D01*
X3592Y681D01*
X3590Y680D01*
X3588Y678D01*
X3586Y677D01*
X3585Y676D01*
X3584Y675D01*
X3583Y674D01*
X3583Y674D01*
X3582Y672D01*
X3580Y671D01*
X3577Y667D01*
X3574Y662D01*
X3571Y657D01*
X3567Y653D01*
X3566Y651D01*
X3565Y649D01*
X3564Y648D01*
X3563Y647D01*
X3563Y646D01*
X3562Y646D01*
X3535Y604D01*
X3488Y604D01*
X3512Y641D01*
X3514Y645D01*
X3517Y649D01*
X3519Y652D01*
X3521Y656D01*
X3523Y658D01*
X3525Y661D01*
X3528Y665D01*
X3531Y669D01*
X3532Y671D01*
X3534Y672D01*
X3534Y672D01*
X3537Y676D01*
X3541Y679D01*
X3544Y681D01*
X3547Y684D01*
X3550Y686D01*
X3552Y687D01*
X3554Y688D01*
X3554Y689D01*
X3554Y689D01*
X3550Y689D01*
X3546Y690D01*
X3542Y692D01*
X3538Y693D01*
X3534Y694D01*
X3531Y696D01*
X3528Y697D01*
X3526Y699D01*
X3524Y700D01*
X3522Y702D01*
X3520Y703D01*
X3519Y704D01*
X3518Y705D01*
X3517Y706D01*
X3517Y706D01*
X3516Y706D01*
X3514Y709D01*
X3512Y712D01*
X3509Y718D01*
X3507Y724D01*
X3505Y729D01*
X3504Y734D01*
X3504Y736D01*
X3504Y738D01*
X3504Y740D01*
X3504Y741D01*
X3504Y742D01*
X3504Y742D01*
X3504Y748D01*
X3505Y754D01*
X3507Y759D01*
X3508Y763D01*
X3510Y767D01*
X3511Y770D01*
X3512Y770D01*
X3512Y771D01*
X3512Y772D01*
X3512Y772D01*
X3516Y777D01*
X3519Y780D01*
X3523Y784D01*
X3526Y786D01*
X3530Y788D01*
X3532Y789D01*
X3534Y790D01*
X3534Y790D01*
X3534Y790D01*
X3537Y791D01*
X3540Y792D01*
X3547Y793D01*
X3555Y794D01*
X3562Y795D01*
X3566Y795D01*
X3569Y795D01*
X3572Y795D01*
X3574Y796D01*
X3661Y796D01*
X3661Y604D01*
X3661Y604D02*
G37*
G36*
X3467Y604D02*
X3321Y604D01*
X3321Y636D01*
X3428Y636D01*
X3428Y689D01*
X3332Y689D01*
X3332Y721D01*
X3428Y721D01*
X3428Y763D01*
X3325Y763D01*
X3325Y796D01*
X3467Y796D01*
X3467Y604D01*
X3467Y604D02*
G37*
G36*
X2902Y604D02*
X2756Y604D01*
X2756Y636D01*
X2863Y636D01*
X2863Y689D01*
X2767Y689D01*
X2767Y721D01*
X2863Y721D01*
X2863Y763D01*
X2760Y763D01*
X2760Y796D01*
X2902Y796D01*
X2902Y604D01*
X2902Y604D02*
G37*
G36*
X2649Y604D02*
X2576Y604D01*
X2569Y604D01*
X2562Y605D01*
X2556Y605D01*
X2551Y606D01*
X2547Y607D01*
X2544Y607D01*
X2543Y608D01*
X2543Y608D01*
X2542Y608D01*
X2542Y608D01*
X2536Y610D01*
X2530Y613D01*
X2526Y615D01*
X2522Y618D01*
X2519Y620D01*
X2517Y621D01*
X2515Y623D01*
X2515Y623D01*
X2510Y628D01*
X2506Y634D01*
X2502Y640D01*
X2500Y645D01*
X2497Y650D01*
X2496Y652D01*
X2496Y654D01*
X2495Y655D01*
X2495Y656D01*
X2494Y657D01*
X2494Y657D01*
X2492Y664D01*
X2491Y671D01*
X2490Y677D01*
X2489Y684D01*
X2489Y687D01*
X2489Y690D01*
X2489Y692D01*
X2488Y694D01*
X2488Y696D01*
X2488Y697D01*
X2488Y698D01*
X2488Y698D01*
X2489Y708D01*
X2489Y716D01*
X2490Y720D01*
X2490Y724D01*
X2491Y728D01*
X2491Y731D01*
X2492Y733D01*
X2493Y736D01*
X2493Y738D01*
X2494Y740D01*
X2494Y741D01*
X2494Y742D01*
X2495Y743D01*
X2495Y743D01*
X2497Y750D01*
X2500Y756D01*
X2503Y761D01*
X2506Y766D01*
X2509Y769D01*
X2511Y772D01*
X2512Y774D01*
X2513Y774D01*
X2513Y774D01*
X2518Y779D01*
X2522Y782D01*
X2527Y785D01*
X2532Y788D01*
X2536Y790D01*
X2539Y791D01*
X2540Y791D01*
X2541Y792D01*
X2541Y792D01*
X2542Y792D01*
X2547Y793D01*
X2553Y794D01*
X2559Y795D01*
X2565Y795D01*
X2570Y795D01*
X2572Y796D01*
X2649Y796D01*
X2649Y604D01*
X2649Y604D02*
G37*
G36*
X2455Y604D02*
X2310Y604D01*
X2310Y636D01*
X2417Y636D01*
X2417Y689D01*
X2320Y689D01*
X2320Y721D01*
X2417Y721D01*
X2417Y763D01*
X2313Y763D01*
X2313Y796D01*
X2455Y796D01*
X2455Y604D01*
X2455Y604D02*
G37*
G36*
X2099Y604D02*
X2061Y604D01*
X2061Y796D01*
X2099Y796D01*
X2099Y604D01*
X2099Y604D02*
G37*
G36*
X2218Y799D02*
X2225Y798D01*
X2231Y797D01*
X2237Y796D01*
X2240Y795D01*
X2242Y795D01*
X2243Y794D01*
X2245Y793D01*
X2246Y793D01*
X2247Y793D01*
X2248Y792D01*
X2248Y792D01*
X2253Y790D01*
X2258Y787D01*
X2262Y783D01*
X2266Y780D01*
X2268Y777D01*
X2270Y775D01*
X2271Y774D01*
X2272Y773D01*
X2272Y773D01*
X2274Y768D01*
X2276Y763D01*
X2278Y759D01*
X2279Y754D01*
X2279Y751D01*
X2280Y748D01*
X2280Y747D01*
X2280Y746D01*
X2280Y746D01*
X2280Y746D01*
X2279Y741D01*
X2279Y737D01*
X2278Y734D01*
X2277Y730D01*
X2274Y723D01*
X2271Y718D01*
X2269Y715D01*
X2268Y713D01*
X2266Y711D01*
X2265Y710D01*
X2264Y708D01*
X2263Y708D01*
X2262Y707D01*
X2262Y707D01*
X2260Y705D01*
X2257Y703D01*
X2254Y701D01*
X2250Y699D01*
X2243Y696D01*
X2236Y693D01*
X2232Y692D01*
X2229Y691D01*
X2226Y690D01*
X2224Y689D01*
X2222Y689D01*
X2220Y688D01*
X2219Y688D01*
X2219Y688D01*
X2214Y687D01*
X2210Y686D01*
X2207Y685D01*
X2203Y684D01*
X2201Y683D01*
X2198Y683D01*
X2196Y682D01*
X2194Y681D01*
X2192Y681D01*
X2191Y680D01*
X2189Y680D01*
X2188Y679D01*
X2188Y679D01*
X2184Y678D01*
X2181Y677D01*
X2179Y675D01*
X2177Y674D01*
X2176Y673D01*
X2175Y672D01*
X2174Y671D01*
X2174Y671D01*
X2172Y669D01*
X2171Y667D01*
X2171Y665D01*
X2170Y664D01*
X2170Y662D01*
X2170Y661D01*
X2170Y660D01*
X2170Y659D01*
X2170Y656D01*
X2171Y652D01*
X2173Y649D01*
X2174Y646D01*
X2176Y644D01*
X2178Y642D01*
X2179Y641D01*
X2179Y641D01*
X2183Y638D01*
X2188Y636D01*
X2192Y635D01*
X2197Y634D01*
X2201Y634D01*
X2204Y633D01*
X2207Y633D01*
X2214Y633D01*
X2219Y634D01*
X2224Y636D01*
X2228Y638D01*
X2231Y639D01*
X2234Y641D01*
X2235Y642D01*
X2236Y642D01*
X2239Y646D01*
X2242Y650D01*
X2245Y655D01*
X2246Y659D01*
X2248Y664D01*
X2249Y667D01*
X2249Y668D01*
X2249Y669D01*
X2249Y670D01*
X2249Y670D01*
X2287Y666D01*
X2286Y661D01*
X2285Y655D01*
X2283Y650D01*
X2282Y645D01*
X2280Y641D01*
X2278Y636D01*
X2276Y633D01*
X2274Y630D01*
X2272Y627D01*
X2270Y624D01*
X2269Y622D01*
X2267Y620D01*
X2266Y619D01*
X2265Y618D01*
X2264Y617D01*
X2264Y617D01*
X2260Y614D01*
X2256Y611D01*
X2251Y609D01*
X2247Y607D01*
X2242Y606D01*
X2238Y605D01*
X2228Y603D01*
X2224Y602D01*
X2220Y601D01*
X2217Y601D01*
X2214Y601D01*
X2212Y600D01*
X2208Y600D01*
X2199Y601D01*
X2191Y602D01*
X2184Y603D01*
X2181Y603D01*
X2178Y604D01*
X2175Y605D01*
X2173Y605D01*
X2171Y606D01*
X2169Y606D01*
X2168Y607D01*
X2167Y607D01*
X2167Y607D01*
X2166Y607D01*
X2160Y610D01*
X2155Y614D01*
X2151Y617D01*
X2147Y621D01*
X2144Y624D01*
X2142Y626D01*
X2141Y628D01*
X2140Y628D01*
X2140Y629D01*
X2137Y634D01*
X2135Y639D01*
X2133Y645D01*
X2132Y650D01*
X2131Y654D01*
X2131Y656D01*
X2131Y657D01*
X2131Y658D01*
X2131Y659D01*
X2131Y659D01*
X2131Y660D01*
X2131Y666D01*
X2132Y672D01*
X2133Y677D01*
X2135Y682D01*
X2136Y685D01*
X2138Y688D01*
X2138Y690D01*
X2139Y690D01*
X2142Y695D01*
X2145Y698D01*
X2149Y702D01*
X2152Y705D01*
X2155Y707D01*
X2158Y708D01*
X2159Y710D01*
X2160Y710D01*
X2160Y710D01*
X2163Y711D01*
X2166Y713D01*
X2172Y715D01*
X2179Y717D01*
X2186Y720D01*
X2189Y720D01*
X2192Y721D01*
X2195Y722D01*
X2197Y723D01*
X2199Y723D01*
X2200Y723D01*
X2201Y724D01*
X2202Y724D01*
X2207Y725D01*
X2211Y726D01*
X2215Y727D01*
X2219Y728D01*
X2222Y729D01*
X2225Y731D01*
X2228Y732D01*
X2230Y733D01*
X2232Y733D01*
X2233Y734D01*
X2235Y735D01*
X2235Y735D01*
X2237Y736D01*
X2237Y736D01*
X2239Y738D01*
X2240Y740D01*
X2241Y742D01*
X2242Y744D01*
X2242Y746D01*
X2243Y747D01*
X2243Y748D01*
X2243Y748D01*
X2242Y751D01*
X2242Y753D01*
X2241Y755D01*
X2240Y757D01*
X2238Y758D01*
X2237Y759D01*
X2237Y760D01*
X2236Y760D01*
X2233Y762D01*
X2228Y764D01*
X2224Y766D01*
X2220Y766D01*
X2216Y767D01*
X2213Y767D01*
X2210Y767D01*
X2205Y767D01*
X2200Y766D01*
X2195Y765D01*
X2192Y764D01*
X2189Y763D01*
X2187Y762D01*
X2186Y761D01*
X2186Y761D01*
X2183Y758D01*
X2181Y754D01*
X2179Y751D01*
X2177Y747D01*
X2176Y744D01*
X2176Y742D01*
X2175Y740D01*
X2175Y740D01*
X2175Y739D01*
X2136Y741D01*
X2137Y746D01*
X2138Y750D01*
X2139Y755D01*
X2140Y759D01*
X2141Y762D01*
X2143Y766D01*
X2145Y769D01*
X2146Y772D01*
X2148Y775D01*
X2150Y777D01*
X2152Y779D01*
X2153Y780D01*
X2154Y782D01*
X2155Y782D01*
X2156Y783D01*
X2156Y783D01*
X2159Y786D01*
X2163Y789D01*
X2167Y791D01*
X2172Y793D01*
X2176Y794D01*
X2181Y795D01*
X2190Y797D01*
X2194Y798D01*
X2197Y798D01*
X2201Y799D01*
X2204Y799D01*
X2207Y799D01*
X2210Y799D01*
X2218Y799D01*
X2218Y799D02*
G37*
%LPC*%
G36*
X3421Y2000D02*
X3417Y2000D01*
X3409Y2000D01*
X3403Y1997D01*
X3398Y1993D01*
X3395Y1988D01*
X3394Y1984D01*
X3392Y1980D01*
X3392Y1977D01*
X3392Y1977D01*
X3393Y1968D01*
X3396Y1962D01*
X3400Y1957D01*
X3404Y1954D01*
X3410Y1952D01*
X3413Y1951D01*
X3416Y1951D01*
X3417Y1951D01*
X3424Y1952D01*
X3430Y1954D01*
X3434Y1957D01*
X3435Y1958D01*
X3440Y1965D01*
X3442Y1971D01*
X3443Y1975D01*
X3443Y1976D01*
X3443Y1977D01*
X3441Y1985D01*
X3438Y1991D01*
X3435Y1994D01*
X3429Y1997D01*
X3425Y1999D01*
X3421Y2000D01*
X3421Y2000D02*
G37*
%LPD*%
G36*
X3429Y1958D02*
X3424Y1958D01*
X3424Y1973D01*
X3418Y1973D01*
X3410Y1958D01*
X3404Y1958D01*
X3413Y1973D01*
X3410Y1974D01*
X3408Y1975D01*
X3405Y1978D01*
X3404Y1982D01*
X3404Y1983D01*
X3404Y1983D01*
X3405Y1987D01*
X3407Y1989D01*
X3410Y1992D01*
X3415Y1994D01*
X3429Y1994D01*
X3429Y1958D01*
X3429Y1958D02*
G37*
%LPC*%
G36*
X3424Y1988D02*
X3415Y1988D01*
X3412Y1988D01*
X3411Y1986D01*
X3410Y1984D01*
X3410Y1983D01*
X3411Y1980D01*
X3412Y1978D01*
X3415Y1977D01*
X3424Y1977D01*
X3424Y1988D01*
X3424Y1988D02*
G37*
G36*
X3716Y1928D02*
X3714Y1928D01*
X3708Y1927D01*
X3704Y1925D01*
X3700Y1922D01*
X3696Y1919D01*
X3693Y1916D01*
X3691Y1913D01*
X3689Y1911D01*
X3688Y1910D01*
X3546Y1687D01*
X3596Y1615D01*
X3600Y1610D01*
X3604Y1607D01*
X3609Y1604D01*
X3612Y1603D01*
X3615Y1601D01*
X3618Y1601D01*
X3620Y1601D01*
X3625Y1601D01*
X3629Y1604D01*
X3633Y1607D01*
X3637Y1611D01*
X3640Y1614D01*
X3642Y1618D01*
X3643Y1620D01*
X3644Y1621D01*
X3785Y1845D01*
X3739Y1911D01*
X3734Y1917D01*
X3730Y1920D01*
X3725Y1923D01*
X3722Y1926D01*
X3719Y1927D01*
X3716Y1928D01*
X3716Y1928D02*
G37*
G36*
X3797Y1385D02*
X3731Y1385D01*
X3725Y1384D01*
X3721Y1382D01*
X3717Y1378D01*
X3715Y1375D01*
X3714Y1371D01*
X3713Y1368D01*
X3713Y1365D01*
X3713Y1365D01*
X3713Y1359D01*
X3714Y1352D01*
X3715Y1348D01*
X3717Y1344D01*
X3720Y1342D01*
X3723Y1340D01*
X3725Y1339D01*
X3797Y1339D01*
X3797Y1385D01*
X3797Y1385D02*
G37*
G36*
X2990Y1385D02*
X2918Y1385D01*
X2914Y1384D01*
X2910Y1382D01*
X2908Y1378D01*
X2906Y1375D01*
X2905Y1371D01*
X2904Y1368D01*
X2904Y1365D01*
X2904Y1365D01*
X2904Y1357D01*
X2905Y1351D01*
X2906Y1347D01*
X2908Y1343D01*
X2910Y1341D01*
X2912Y1339D01*
X2914Y1339D01*
X2990Y1339D01*
X2990Y1385D01*
X2990Y1385D02*
G37*
G36*
X3593Y1385D02*
X3543Y1385D01*
X3539Y1383D01*
X3534Y1381D01*
X3530Y1378D01*
X3529Y1377D01*
X3529Y1376D01*
X3526Y1373D01*
X3524Y1368D01*
X3522Y1359D01*
X3521Y1354D01*
X3521Y1351D01*
X3521Y1348D01*
X3521Y1348D01*
X3521Y1328D01*
X3521Y1321D01*
X3522Y1316D01*
X3523Y1311D01*
X3525Y1307D01*
X3529Y1300D01*
X3533Y1296D01*
X3538Y1294D01*
X3541Y1292D01*
X3544Y1291D01*
X3598Y1291D01*
X3602Y1293D01*
X3607Y1295D01*
X3610Y1297D01*
X3611Y1299D01*
X3612Y1302D01*
X3613Y1307D01*
X3614Y1317D01*
X3614Y1321D01*
X3614Y1324D01*
X3614Y1327D01*
X3614Y1328D01*
X3614Y1348D01*
X3614Y1355D01*
X3614Y1361D01*
X3612Y1366D01*
X3612Y1370D01*
X3610Y1373D01*
X3609Y1375D01*
X3609Y1376D01*
X3606Y1379D01*
X3603Y1381D01*
X3597Y1384D01*
X3593Y1385D01*
X3593Y1385D02*
G37*
G36*
X4240Y458D02*
X4211Y458D01*
X4209Y458D01*
X4206Y458D01*
X4204Y458D01*
X4200Y458D01*
X4197Y458D01*
X4195Y457D01*
X4194Y457D01*
X4194Y457D01*
X4191Y456D01*
X4188Y455D01*
X4185Y454D01*
X4183Y452D01*
X4181Y451D01*
X4180Y450D01*
X4179Y449D01*
X4179Y449D01*
X4176Y446D01*
X4175Y443D01*
X4174Y440D01*
X4173Y437D01*
X4172Y435D01*
X4172Y433D01*
X4172Y432D01*
X4172Y431D01*
X4172Y428D01*
X4173Y425D01*
X4174Y423D01*
X4174Y421D01*
X4175Y419D01*
X4176Y417D01*
X4176Y416D01*
X4177Y416D01*
X4178Y414D01*
X4180Y412D01*
X4182Y410D01*
X4184Y409D01*
X4186Y408D01*
X4187Y407D01*
X4188Y407D01*
X4189Y407D01*
X4190Y406D01*
X4192Y406D01*
X4197Y405D01*
X4202Y404D01*
X4207Y404D01*
X4212Y404D01*
X4214Y404D01*
X4240Y404D01*
X4240Y458D01*
X4240Y458D02*
G37*
G36*
X3868Y459D02*
X3830Y459D01*
X3827Y459D01*
X3820Y459D01*
X3818Y458D01*
X3815Y458D01*
X3814Y458D01*
X3813Y458D01*
X3810Y458D01*
X3807Y457D01*
X3805Y456D01*
X3802Y455D01*
X3801Y454D01*
X3800Y452D01*
X3799Y452D01*
X3799Y452D01*
X3797Y449D01*
X3796Y447D01*
X3795Y445D01*
X3794Y442D01*
X3794Y440D01*
X3794Y439D01*
X3794Y437D01*
X3794Y437D01*
X3794Y434D01*
X3795Y431D01*
X3796Y428D01*
X3797Y426D01*
X3798Y424D01*
X3799Y423D01*
X3799Y422D01*
X3800Y422D01*
X3802Y420D01*
X3804Y419D01*
X3807Y417D01*
X3809Y417D01*
X3812Y416D01*
X3813Y416D01*
X3815Y415D01*
X3816Y415D01*
X3818Y415D01*
X3826Y415D01*
X3831Y415D01*
X3868Y415D01*
X3868Y459D01*
X3868Y459D02*
G37*
G36*
X3868Y383D02*
X3828Y383D01*
X3824Y383D01*
X3821Y382D01*
X3818Y382D01*
X3815Y382D01*
X3812Y382D01*
X3810Y381D01*
X3808Y381D01*
X3807Y381D01*
X3805Y381D01*
X3803Y380D01*
X3803Y380D01*
X3800Y379D01*
X3798Y378D01*
X3796Y376D01*
X3794Y375D01*
X3793Y373D01*
X3792Y372D01*
X3791Y372D01*
X3791Y371D01*
X3790Y369D01*
X3789Y366D01*
X3788Y364D01*
X3787Y362D01*
X3787Y360D01*
X3787Y358D01*
X3787Y357D01*
X3787Y357D01*
X3787Y353D01*
X3787Y350D01*
X3788Y347D01*
X3789Y345D01*
X3790Y343D01*
X3791Y341D01*
X3792Y340D01*
X3792Y340D01*
X3794Y338D01*
X3797Y337D01*
X3799Y335D01*
X3801Y334D01*
X3803Y334D01*
X3805Y333D01*
X3806Y333D01*
X3806Y333D01*
X3807Y332D01*
X3809Y332D01*
X3813Y332D01*
X3817Y332D01*
X3821Y332D01*
X3826Y332D01*
X3868Y332D01*
X3868Y383D01*
X3868Y383D02*
G37*
G36*
X3564Y446D02*
X3538Y375D01*
X3590Y375D01*
X3564Y446D01*
X3564Y446D02*
G37*
G36*
X2449Y446D02*
X2422Y375D01*
X2475Y375D01*
X2449Y446D01*
X2449Y446D02*
G37*
G36*
X4336Y1068D02*
X4307Y1068D01*
X4305Y1068D01*
X4302Y1068D01*
X4300Y1067D01*
X4296Y1067D01*
X4293Y1067D01*
X4291Y1067D01*
X4290Y1067D01*
X4290Y1067D01*
X4287Y1066D01*
X4283Y1065D01*
X4281Y1063D01*
X4279Y1062D01*
X4277Y1060D01*
X4275Y1059D01*
X4275Y1058D01*
X4274Y1058D01*
X4272Y1055D01*
X4271Y1052D01*
X4270Y1049D01*
X4269Y1047D01*
X4268Y1044D01*
X4268Y1042D01*
X4268Y1041D01*
X4268Y1040D01*
X4268Y1037D01*
X4269Y1035D01*
X4269Y1032D01*
X4270Y1030D01*
X4271Y1028D01*
X4272Y1027D01*
X4272Y1026D01*
X4272Y1026D01*
X4274Y1023D01*
X4276Y1021D01*
X4278Y1020D01*
X4280Y1018D01*
X4282Y1017D01*
X4283Y1017D01*
X4284Y1016D01*
X4285Y1016D01*
X4286Y1016D01*
X4288Y1015D01*
X4293Y1014D01*
X4298Y1014D01*
X4303Y1014D01*
X4308Y1014D01*
X4310Y1013D01*
X4336Y1013D01*
X4336Y1068D01*
X4336Y1068D02*
G37*
G36*
X2623Y1068D02*
X2585Y1068D01*
X2582Y1068D01*
X2575Y1068D01*
X2573Y1068D01*
X2570Y1068D01*
X2569Y1068D01*
X2569Y1068D01*
X2565Y1067D01*
X2562Y1066D01*
X2560Y1065D01*
X2558Y1064D01*
X2556Y1063D01*
X2555Y1062D01*
X2554Y1061D01*
X2554Y1061D01*
X2552Y1059D01*
X2551Y1056D01*
X2550Y1054D01*
X2549Y1052D01*
X2549Y1050D01*
X2549Y1048D01*
X2549Y1047D01*
X2549Y1047D01*
X2549Y1043D01*
X2550Y1040D01*
X2551Y1038D01*
X2552Y1035D01*
X2553Y1034D01*
X2554Y1032D01*
X2554Y1032D01*
X2555Y1031D01*
X2557Y1029D01*
X2559Y1028D01*
X2562Y1027D01*
X2564Y1026D01*
X2567Y1025D01*
X2569Y1025D01*
X2570Y1025D01*
X2571Y1025D01*
X2573Y1024D01*
X2582Y1024D01*
X2586Y1024D01*
X2623Y1024D01*
X2623Y1068D01*
X2623Y1068D02*
G37*
G36*
X2623Y992D02*
X2583Y992D01*
X2579Y992D01*
X2576Y992D01*
X2573Y992D01*
X2570Y991D01*
X2567Y991D01*
X2566Y991D01*
X2564Y991D01*
X2562Y990D01*
X2560Y990D01*
X2559Y989D01*
X2558Y989D01*
X2556Y988D01*
X2553Y987D01*
X2551Y986D01*
X2549Y984D01*
X2548Y983D01*
X2547Y982D01*
X2546Y981D01*
X2546Y981D01*
X2545Y978D01*
X2544Y976D01*
X2543Y973D01*
X2542Y971D01*
X2542Y969D01*
X2542Y967D01*
X2542Y966D01*
X2542Y966D01*
X2542Y962D01*
X2543Y959D01*
X2543Y956D01*
X2544Y954D01*
X2546Y952D01*
X2546Y951D01*
X2547Y950D01*
X2547Y950D01*
X2549Y948D01*
X2552Y946D01*
X2554Y945D01*
X2556Y944D01*
X2558Y943D01*
X2560Y942D01*
X2561Y942D01*
X2561Y942D01*
X2562Y942D01*
X2564Y942D01*
X2568Y942D01*
X2572Y941D01*
X2577Y941D01*
X2581Y941D01*
X2623Y941D01*
X2623Y992D01*
X2623Y992D02*
G37*
G36*
X1794Y1045D02*
X1794Y979D01*
X1839Y979D01*
X1794Y1045D01*
X1794Y1045D02*
G37*
G36*
X3057Y1071D02*
X3056Y1071D01*
X3053Y1071D01*
X3051Y1070D01*
X3049Y1070D01*
X3047Y1069D01*
X3046Y1068D01*
X3045Y1067D01*
X3044Y1067D01*
X3044Y1067D01*
X3042Y1065D01*
X3041Y1062D01*
X3039Y1059D01*
X3038Y1057D01*
X3037Y1054D01*
X3036Y1052D01*
X3036Y1050D01*
X3036Y1050D01*
X3036Y1050D01*
X3035Y1047D01*
X3034Y1044D01*
X3034Y1040D01*
X3033Y1037D01*
X3033Y1029D01*
X3033Y1022D01*
X3032Y1018D01*
X3032Y1014D01*
X3032Y1011D01*
X3032Y1009D01*
X3032Y1006D01*
X3032Y1004D01*
X3032Y1003D01*
X3032Y1003D01*
X3032Y997D01*
X3032Y991D01*
X3032Y986D01*
X3033Y981D01*
X3033Y977D01*
X3033Y973D01*
X3034Y969D01*
X3034Y966D01*
X3034Y963D01*
X3035Y961D01*
X3035Y959D01*
X3035Y958D01*
X3036Y957D01*
X3036Y955D01*
X3036Y955D01*
X3036Y955D01*
X3037Y951D01*
X3038Y948D01*
X3040Y945D01*
X3041Y943D01*
X3042Y942D01*
X3043Y940D01*
X3044Y940D01*
X3044Y940D01*
X3046Y938D01*
X3048Y937D01*
X3050Y937D01*
X3052Y936D01*
X3053Y936D01*
X3054Y935D01*
X3056Y935D01*
X3058Y936D01*
X3060Y936D01*
X3062Y937D01*
X3064Y938D01*
X3065Y938D01*
X3066Y939D01*
X3067Y939D01*
X3067Y940D01*
X3069Y942D01*
X3071Y944D01*
X3072Y947D01*
X3073Y950D01*
X3074Y952D01*
X3075Y954D01*
X3075Y956D01*
X3076Y956D01*
X3076Y959D01*
X3077Y962D01*
X3077Y965D01*
X3077Y969D01*
X3078Y977D01*
X3078Y985D01*
X3079Y988D01*
X3079Y992D01*
X3079Y995D01*
X3079Y998D01*
X3079Y1000D01*
X3079Y1002D01*
X3079Y1003D01*
X3079Y1003D01*
X3079Y1009D01*
X3079Y1015D01*
X3079Y1020D01*
X3078Y1025D01*
X3078Y1029D01*
X3078Y1033D01*
X3077Y1037D01*
X3077Y1040D01*
X3077Y1043D01*
X3076Y1045D01*
X3076Y1047D01*
X3076Y1049D01*
X3076Y1050D01*
X3076Y1051D01*
X3075Y1051D01*
X3075Y1051D01*
X3074Y1055D01*
X3073Y1058D01*
X3072Y1061D01*
X3070Y1063D01*
X3069Y1065D01*
X3068Y1066D01*
X3068Y1066D01*
X3067Y1067D01*
X3066Y1068D01*
X3063Y1069D01*
X3061Y1070D01*
X3059Y1070D01*
X3058Y1071D01*
X3057Y1071D01*
X3057Y1071D02*
G37*
G36*
X1954Y1071D02*
X1953Y1071D01*
X1951Y1071D01*
X1949Y1070D01*
X1947Y1070D01*
X1945Y1069D01*
X1944Y1068D01*
X1943Y1067D01*
X1942Y1067D01*
X1942Y1067D01*
X1940Y1065D01*
X1938Y1062D01*
X1937Y1059D01*
X1936Y1057D01*
X1935Y1054D01*
X1934Y1052D01*
X1934Y1050D01*
X1933Y1050D01*
X1933Y1050D01*
X1933Y1047D01*
X1932Y1044D01*
X1932Y1040D01*
X1931Y1037D01*
X1931Y1029D01*
X1930Y1022D01*
X1930Y1018D01*
X1930Y1014D01*
X1930Y1011D01*
X1930Y1009D01*
X1930Y1006D01*
X1930Y1004D01*
X1930Y1003D01*
X1930Y1003D01*
X1930Y997D01*
X1930Y991D01*
X1930Y986D01*
X1930Y981D01*
X1931Y977D01*
X1931Y973D01*
X1931Y969D01*
X1932Y966D01*
X1932Y963D01*
X1933Y961D01*
X1933Y959D01*
X1933Y958D01*
X1933Y957D01*
X1933Y955D01*
X1934Y955D01*
X1934Y955D01*
X1935Y951D01*
X1936Y948D01*
X1938Y945D01*
X1939Y943D01*
X1940Y942D01*
X1941Y940D01*
X1941Y940D01*
X1942Y940D01*
X1944Y938D01*
X1946Y937D01*
X1948Y937D01*
X1949Y936D01*
X1951Y936D01*
X1952Y935D01*
X1953Y935D01*
X1956Y936D01*
X1958Y936D01*
X1960Y937D01*
X1962Y938D01*
X1963Y938D01*
X1964Y939D01*
X1965Y939D01*
X1965Y940D01*
X1967Y942D01*
X1968Y944D01*
X1970Y947D01*
X1971Y950D01*
X1972Y952D01*
X1973Y954D01*
X1973Y956D01*
X1973Y956D01*
X1974Y959D01*
X1974Y962D01*
X1975Y965D01*
X1975Y969D01*
X1976Y977D01*
X1976Y985D01*
X1976Y988D01*
X1976Y992D01*
X1977Y995D01*
X1977Y998D01*
X1977Y1000D01*
X1977Y1002D01*
X1977Y1003D01*
X1977Y1003D01*
X1977Y1009D01*
X1976Y1015D01*
X1976Y1020D01*
X1976Y1025D01*
X1976Y1029D01*
X1976Y1033D01*
X1975Y1037D01*
X1975Y1040D01*
X1974Y1043D01*
X1974Y1045D01*
X1974Y1047D01*
X1974Y1049D01*
X1973Y1050D01*
X1973Y1051D01*
X1973Y1051D01*
X1973Y1051D01*
X1972Y1055D01*
X1971Y1058D01*
X1969Y1061D01*
X1968Y1063D01*
X1967Y1065D01*
X1966Y1066D01*
X1966Y1066D01*
X1965Y1067D01*
X1963Y1068D01*
X1961Y1069D01*
X1959Y1070D01*
X1957Y1070D01*
X1956Y1071D01*
X1954Y1071D01*
X1954Y1071D02*
G37*
G36*
X1657Y1072D02*
X1655Y1072D01*
X1652Y1072D01*
X1648Y1071D01*
X1646Y1070D01*
X1643Y1069D01*
X1641Y1068D01*
X1640Y1067D01*
X1639Y1066D01*
X1639Y1066D01*
X1636Y1063D01*
X1635Y1061D01*
X1634Y1058D01*
X1633Y1055D01*
X1633Y1053D01*
X1632Y1051D01*
X1632Y1050D01*
X1632Y1049D01*
X1633Y1045D01*
X1633Y1042D01*
X1634Y1039D01*
X1635Y1037D01*
X1637Y1034D01*
X1638Y1033D01*
X1638Y1032D01*
X1639Y1032D01*
X1641Y1030D01*
X1644Y1028D01*
X1647Y1027D01*
X1649Y1027D01*
X1652Y1026D01*
X1654Y1026D01*
X1656Y1026D01*
X1659Y1026D01*
X1663Y1027D01*
X1665Y1028D01*
X1668Y1029D01*
X1670Y1030D01*
X1671Y1031D01*
X1672Y1032D01*
X1672Y1032D01*
X1674Y1034D01*
X1676Y1037D01*
X1677Y1040D01*
X1677Y1043D01*
X1678Y1045D01*
X1678Y1047D01*
X1678Y1049D01*
X1678Y1049D01*
X1678Y1053D01*
X1677Y1056D01*
X1676Y1059D01*
X1675Y1062D01*
X1674Y1063D01*
X1673Y1065D01*
X1672Y1066D01*
X1672Y1066D01*
X1670Y1068D01*
X1667Y1070D01*
X1664Y1071D01*
X1661Y1071D01*
X1659Y1072D01*
X1657Y1072D01*
X1657Y1072D02*
G37*
G36*
X1657Y997D02*
X1655Y997D01*
X1651Y996D01*
X1647Y995D01*
X1644Y994D01*
X1641Y993D01*
X1639Y991D01*
X1637Y990D01*
X1636Y989D01*
X1636Y988D01*
X1633Y985D01*
X1631Y981D01*
X1630Y978D01*
X1629Y974D01*
X1628Y971D01*
X1628Y969D01*
X1628Y967D01*
X1628Y967D01*
X1628Y967D01*
X1628Y961D01*
X1629Y956D01*
X1630Y952D01*
X1632Y949D01*
X1633Y946D01*
X1635Y944D01*
X1635Y943D01*
X1636Y943D01*
X1639Y940D01*
X1642Y938D01*
X1645Y937D01*
X1648Y936D01*
X1651Y935D01*
X1653Y935D01*
X1654Y935D01*
X1659Y935D01*
X1663Y936D01*
X1666Y937D01*
X1669Y939D01*
X1671Y940D01*
X1672Y942D01*
X1674Y943D01*
X1674Y943D01*
X1676Y947D01*
X1678Y950D01*
X1680Y954D01*
X1681Y958D01*
X1681Y962D01*
X1682Y965D01*
X1682Y966D01*
X1682Y967D01*
X1682Y967D01*
X1682Y967D01*
X1681Y971D01*
X1681Y975D01*
X1680Y978D01*
X1678Y981D01*
X1677Y984D01*
X1676Y986D01*
X1676Y987D01*
X1675Y987D01*
X1672Y990D01*
X1669Y993D01*
X1666Y994D01*
X1663Y996D01*
X1660Y996D01*
X1657Y997D01*
X1657Y997D02*
G37*
G36*
X4336Y763D02*
X4292Y763D01*
X4289Y763D01*
X4283Y763D01*
X4281Y763D01*
X4279Y763D01*
X4278Y762D01*
X4278Y762D01*
X4275Y762D01*
X4272Y761D01*
X4269Y759D01*
X4267Y758D01*
X4265Y757D01*
X4264Y756D01*
X4264Y755D01*
X4263Y755D01*
X4262Y752D01*
X4260Y750D01*
X4259Y747D01*
X4259Y745D01*
X4258Y743D01*
X4258Y741D01*
X4258Y740D01*
X4258Y739D01*
X4258Y736D01*
X4259Y733D01*
X4259Y731D01*
X4260Y729D01*
X4261Y727D01*
X4262Y726D01*
X4262Y725D01*
X4262Y725D01*
X4264Y723D01*
X4265Y721D01*
X4269Y719D01*
X4270Y718D01*
X4272Y717D01*
X4273Y717D01*
X4273Y717D01*
X4274Y716D01*
X4277Y716D01*
X4279Y716D01*
X4281Y715D01*
X4287Y715D01*
X4293Y715D01*
X4298Y715D01*
X4336Y715D01*
X4336Y763D01*
X4336Y763D02*
G37*
G36*
X3622Y763D02*
X3577Y763D01*
X3575Y763D01*
X3569Y763D01*
X3566Y763D01*
X3565Y763D01*
X3564Y762D01*
X3564Y762D01*
X3560Y762D01*
X3557Y761D01*
X3555Y759D01*
X3553Y758D01*
X3551Y757D01*
X3550Y756D01*
X3549Y755D01*
X3549Y755D01*
X3547Y752D01*
X3546Y750D01*
X3545Y747D01*
X3544Y745D01*
X3544Y743D01*
X3544Y741D01*
X3544Y740D01*
X3544Y739D01*
X3544Y736D01*
X3544Y733D01*
X3545Y731D01*
X3546Y729D01*
X3546Y727D01*
X3547Y726D01*
X3548Y725D01*
X3548Y725D01*
X3549Y723D01*
X3551Y721D01*
X3555Y719D01*
X3556Y718D01*
X3557Y717D01*
X3558Y717D01*
X3559Y717D01*
X3560Y716D01*
X3562Y716D01*
X3564Y716D01*
X3567Y715D01*
X3573Y715D01*
X3579Y715D01*
X3584Y715D01*
X3622Y715D01*
X3622Y763D01*
X3622Y763D02*
G37*
G36*
X2610Y763D02*
X2585Y763D01*
X2581Y763D01*
X2578Y763D01*
X2575Y763D01*
X2572Y763D01*
X2570Y762D01*
X2568Y762D01*
X2565Y762D01*
X2563Y762D01*
X2561Y761D01*
X2561Y761D01*
X2557Y760D01*
X2554Y759D01*
X2551Y757D01*
X2548Y756D01*
X2546Y754D01*
X2544Y753D01*
X2544Y752D01*
X2543Y752D01*
X2541Y749D01*
X2539Y746D01*
X2537Y743D01*
X2535Y741D01*
X2534Y738D01*
X2533Y736D01*
X2533Y734D01*
X2532Y734D01*
X2532Y734D01*
X2531Y729D01*
X2530Y723D01*
X2529Y718D01*
X2529Y712D01*
X2528Y707D01*
X2528Y705D01*
X2528Y703D01*
X2528Y702D01*
X2528Y701D01*
X2528Y700D01*
X2528Y700D01*
X2528Y692D01*
X2529Y685D01*
X2530Y679D01*
X2530Y674D01*
X2531Y670D01*
X2531Y668D01*
X2532Y667D01*
X2532Y666D01*
X2532Y665D01*
X2532Y665D01*
X2532Y664D01*
X2534Y660D01*
X2535Y656D01*
X2537Y653D01*
X2539Y651D01*
X2540Y649D01*
X2541Y647D01*
X2542Y646D01*
X2542Y646D01*
X2545Y644D01*
X2547Y643D01*
X2550Y641D01*
X2552Y640D01*
X2554Y639D01*
X2556Y639D01*
X2557Y638D01*
X2558Y638D01*
X2561Y638D01*
X2564Y637D01*
X2568Y637D01*
X2572Y637D01*
X2576Y636D01*
X2610Y636D01*
X2610Y763D01*
X2610Y763D02*
G37*
%LPD*%
D14*
X103640Y-55780D02*
X103640Y-56370D01*
X103640Y-55780D02*
X103893Y-55780D01*
X103977Y-55808D01*
X104005Y-55836D01*
X104034Y-55892D01*
X104034Y-55948D01*
X104005Y-56005D01*
X103977Y-56033D01*
X103893Y-56061D01*
X103640Y-56061D02*
X103893Y-56061D01*
X103977Y-56089D01*
X104005Y-56117D01*
X104034Y-56173D01*
X104034Y-56258D01*
X104005Y-56314D01*
X103977Y-56342D01*
X103893Y-56370D01*
X103640Y-56370D01*
X104306Y-55976D02*
X104250Y-56005D01*
X104194Y-56061D01*
X104166Y-56145D01*
X104166Y-56201D01*
X104194Y-56286D01*
X104250Y-56342D01*
X104306Y-56370D01*
X104391Y-56370D01*
X104447Y-56342D01*
X104503Y-56286D01*
X104531Y-56201D01*
X104531Y-56145D01*
X104503Y-56061D01*
X104447Y-56005D01*
X104391Y-55976D01*
X104306Y-55976D01*
X104745Y-55780D02*
X104745Y-56258D01*
X104773Y-56342D01*
X104829Y-56370D01*
X104886Y-56370D01*
X104661Y-55976D02*
X104857Y-55976D01*
X105054Y-55780D02*
X105054Y-56258D01*
X105082Y-56342D01*
X105139Y-56370D01*
X105195Y-56370D01*
X104970Y-55976D02*
X105167Y-55976D01*
X105420Y-55976D02*
X105363Y-56005D01*
X105307Y-56061D01*
X105279Y-56145D01*
X105279Y-56201D01*
X105307Y-56286D01*
X105363Y-56342D01*
X105420Y-56370D01*
X105504Y-56370D01*
X105560Y-56342D01*
X105617Y-56286D01*
X105645Y-56201D01*
X105645Y-56145D01*
X105617Y-56061D01*
X105560Y-56005D01*
X105504Y-55976D01*
X105420Y-55976D01*
X105774Y-55976D02*
X105774Y-56370D01*
X105774Y-56089D02*
X105858Y-56005D01*
X105915Y-55976D01*
X105999Y-55976D01*
X106055Y-56005D01*
X106083Y-56089D01*
X106083Y-56370D01*
X106083Y-56089D02*
X106168Y-56005D01*
X106224Y-55976D01*
X106308Y-55976D01*
X106364Y-56005D01*
X106392Y-56089D01*
X106392Y-56370D01*
X107211Y-55780D02*
X107154Y-55808D01*
X107098Y-55864D01*
X107070Y-55920D01*
X107042Y-56005D01*
X107042Y-56145D01*
X107070Y-56229D01*
X107098Y-56286D01*
X107154Y-56342D01*
X107211Y-56370D01*
X107323Y-56370D01*
X107379Y-56342D01*
X107436Y-56286D01*
X107464Y-56229D01*
X107492Y-56145D01*
X107492Y-56005D01*
X107464Y-55920D01*
X107436Y-55864D01*
X107379Y-55808D01*
X107323Y-55780D01*
X107211Y-55780D01*
X107630Y-55976D02*
X107798Y-56370D01*
X107967Y-55976D02*
X107798Y-56370D01*
X108063Y-56145D02*
X108400Y-56145D01*
X108400Y-56089D01*
X108372Y-56033D01*
X108344Y-56005D01*
X108287Y-55976D01*
X108203Y-55976D01*
X108147Y-56005D01*
X108091Y-56061D01*
X108063Y-56145D01*
X108063Y-56201D01*
X108091Y-56286D01*
X108147Y-56342D01*
X108203Y-56370D01*
X108287Y-56370D01*
X108344Y-56342D01*
X108400Y-56286D01*
X108526Y-55976D02*
X108526Y-56370D01*
X108526Y-56145D02*
X108555Y-56061D01*
X108611Y-56005D01*
X108667Y-55976D01*
X108751Y-55976D01*
X108805Y-55780D02*
X108805Y-56370D01*
X109266Y-55976D02*
X109266Y-56370D01*
X109266Y-56061D02*
X109210Y-56005D01*
X109153Y-55976D01*
X109069Y-55976D01*
X109013Y-56005D01*
X108957Y-56061D01*
X108929Y-56145D01*
X108929Y-56201D01*
X108957Y-56286D01*
X109013Y-56342D01*
X109069Y-56370D01*
X109153Y-56370D01*
X109210Y-56342D01*
X109266Y-56286D01*
X109451Y-55976D02*
X109620Y-56370D01*
X109789Y-55976D02*
X109620Y-56370D01*
X109564Y-56482D01*
X109508Y-56539D01*
X109451Y-56567D01*
X109423Y-56567D01*
D15*
X0Y0D02*
X0Y6102D01*
X0Y0D02*
X8150Y0D01*
X8150Y6102D01*
X0Y6102D02*
X8150Y6102D01*
D51*
X2558Y2611D02*
G03*
X2558Y2611I-40J0D01*
G01*
X2085Y2611D02*
G03*
X2085Y2611I-40J0D01*
G01*
X3030Y2611D02*
G03*
X3030Y2611I-40J0D01*
G01*
X3503Y2611D02*
G03*
X3503Y2611I-40J0D01*
G01*
X2558Y3084D02*
G03*
X2558Y3084I-40J0D01*
G01*
X2085Y3084D02*
G03*
X2085Y3084I-40J0D01*
G01*
X3030Y3084D02*
G03*
X3030Y3084I-40J0D01*
G01*
X3503Y3084D02*
G03*
X3503Y3084I-40J0D01*
G01*
X2558Y3556D02*
G03*
X2558Y3556I-40J0D01*
G01*
X2085Y3556D02*
G03*
X2085Y3556I-40J0D01*
G01*
X3030Y3556D02*
G03*
X3030Y3556I-40J0D01*
G01*
X3503Y3556D02*
G03*
X3503Y3556I-40J0D01*
G01*
X3503Y4029D02*
G03*
X3503Y4029I-40J0D01*
G01*
X3030Y4029D02*
G03*
X3030Y4029I-40J0D01*
G01*
X2085Y4029D02*
G03*
X2085Y4029I-40J0D01*
G01*
X2558Y4029D02*
G03*
X2558Y4029I-40J0D01*
G01*
D53*
X2271Y1410D02*
G03*
X2271Y1410I-191J0D01*
G01*
X1575Y3560D02*
G03*
X1575Y3560I-191J0D01*
G01*
X2518Y4029D02*
X2518Y2611D01*
X2990Y2611D02*
X2990Y4029D01*
X3463Y2611D02*
X3463Y4029D01*
X2045Y2611D02*
X2045Y4029D01*
X3463Y4029D01*
X2045Y2611D02*
X3463Y2611D01*
X2045Y3084D02*
X3463Y3084D01*
X2045Y3556D02*
X3463Y3556D01*
M02*
