G04*
G04 #@! TF.GenerationSoftware,Altium Limited,Altium Designer,22.4.2 (48)*
G04*
G04 Layer_Physical_Order=3*
G04 Layer_Color=16440176*
%FSLAX24Y24*%
%MOIN*%
G70*
G04*
G04 #@! TF.SameCoordinates,234F8549-8FEE-4F9A-8B0D-93BDF39202AA*
G04*
G04*
G04 #@! TF.FilePolarity,Positive*
G04*
G01*
G75*
%ADD13C,0.0050*%
%ADD14C,0.0059*%
%ADD15C,0.0039*%
%ADD50C,0.0160*%
%ADD52C,0.0060*%
%ADD59C,0.0120*%
%ADD60C,0.0140*%
%ADD61C,0.0160*%
G36*
X6584Y4706D02*
X5819Y3941D01*
X5819Y2099D01*
X5759Y2063D01*
X5721Y2070D01*
X5663Y2059D01*
X5614Y2026D01*
X5581Y1977D01*
X5569Y1919D01*
X5569Y1821D01*
X5581Y1763D01*
X5614Y1714D01*
X5663Y1681D01*
X5721Y1670D01*
X5759Y1677D01*
X5819Y1642D01*
X5819Y80D01*
X564Y80D01*
X564Y80D01*
X564Y80D01*
X516Y128D01*
X516Y205D01*
X516Y256D01*
X516Y256D01*
X516Y266D01*
X516Y266D01*
X516Y266D01*
X509Y288D01*
X504Y314D01*
X501Y319D01*
X472Y363D01*
X423Y396D01*
X365Y407D01*
X157Y407D01*
X80Y484D01*
X80Y5676D01*
X124Y5720D01*
X159Y5720D01*
X209Y5687D01*
X266Y5676D01*
X365Y5676D01*
X423Y5687D01*
X472Y5720D01*
X504Y5769D01*
X516Y5827D01*
X504Y5885D01*
X494Y5900D01*
X494Y5980D01*
X536Y6022D01*
X6584Y6022D01*
X6584Y4706D01*
X6584Y4706D02*
G37*
%LPC*%
G36*
X2458Y5729D02*
X2419Y5721D01*
X2386Y5699D01*
X2364Y5666D01*
X2356Y5627D01*
X2364Y5588D01*
X2386Y5555D01*
X2419Y5533D01*
X2458Y5525D01*
X2497Y5533D01*
X2530Y5555D01*
X2552Y5588D01*
X2560Y5627D01*
X2552Y5666D01*
X2530Y5699D01*
X2497Y5721D01*
X2458Y5729D01*
X2458Y5729D02*
G37*
G36*
X2156Y5729D02*
X2117Y5721D01*
X2084Y5699D01*
X2062Y5666D01*
X2054Y5627D01*
X2062Y5588D01*
X2084Y5555D01*
X2117Y5533D01*
X2156Y5525D01*
X2195Y5533D01*
X2228Y5555D01*
X2250Y5588D01*
X2258Y5627D01*
X2250Y5666D01*
X2228Y5699D01*
X2195Y5721D01*
X2156Y5729D01*
X2156Y5729D02*
G37*
G36*
X3275Y5682D02*
X3228Y5673D01*
X3188Y5647D01*
X3162Y5607D01*
X3153Y5560D01*
X3162Y5513D01*
X3188Y5474D01*
X3228Y5447D01*
X3275Y5438D01*
X3322Y5447D01*
X3361Y5474D01*
X3388Y5513D01*
X3397Y5560D01*
X3388Y5607D01*
X3361Y5647D01*
X3322Y5673D01*
X3275Y5682D01*
X3275Y5682D02*
G37*
G36*
X2786Y5573D02*
X2739Y5564D01*
X2699Y5538D01*
X2673Y5498D01*
X2664Y5451D01*
X2673Y5404D01*
X2699Y5365D01*
X2739Y5338D01*
X2786Y5329D01*
X2833Y5338D01*
X2872Y5365D01*
X2899Y5404D01*
X2908Y5451D01*
X2899Y5498D01*
X2872Y5538D01*
X2833Y5564D01*
X2786Y5573D01*
X2786Y5573D02*
G37*
G36*
X3318Y5952D02*
X1919Y5952D01*
X1891Y5947D01*
X1868Y5932D01*
X1648Y5711D01*
X1313Y5711D01*
X1312Y5712D01*
X1279Y5734D01*
X1240Y5742D01*
X1201Y5734D01*
X1168Y5712D01*
X1146Y5679D01*
X1138Y5640D01*
X1146Y5601D01*
X1168Y5568D01*
X1201Y5546D01*
X1240Y5538D01*
X1279Y5546D01*
X1312Y5568D01*
X1313Y5569D01*
X1677Y5569D01*
X1705Y5574D01*
X1728Y5590D01*
X1948Y5810D01*
X3289Y5810D01*
X3669Y5430D01*
X3669Y5003D01*
X3668Y5002D01*
X3646Y4969D01*
X3638Y4930D01*
X3646Y4891D01*
X3646Y4880D01*
X3833Y4693D01*
X3833Y4464D01*
X3781Y4412D01*
X3780Y4412D01*
X3741Y4404D01*
X3708Y4382D01*
X3686Y4349D01*
X3678Y4310D01*
X3678Y3619D01*
X3678Y3619D01*
X3560Y3500D01*
X3544Y3477D01*
X3539Y3450D01*
X3539Y2578D01*
X3492Y2531D01*
X2028Y2531D01*
X1931Y2628D01*
X1931Y4134D01*
X1926Y4161D01*
X1910Y4184D01*
X1866Y4229D01*
X1866Y4230D01*
X1858Y4269D01*
X1836Y4302D01*
X1803Y4324D01*
X1764Y4332D01*
X1725Y4324D01*
X1692Y4302D01*
X1670Y4269D01*
X1662Y4230D01*
X1670Y4191D01*
X1692Y4158D01*
X1725Y4136D01*
X1764Y4128D01*
X1789Y4078D01*
X1789Y3561D01*
X1739Y3512D01*
X1558Y3512D01*
X1489Y3444D01*
X1489Y3228D01*
X1488Y3222D01*
X1489Y3215D01*
X1363Y3088D01*
X1349Y3067D01*
X1344Y3042D01*
X1344Y2642D01*
X1344Y2462D01*
X1183Y2301D01*
X633Y2301D01*
X532Y2402D01*
X499Y2424D01*
X460Y2432D01*
X421Y2424D01*
X388Y2402D01*
X366Y2369D01*
X358Y2330D01*
X358Y1941D01*
X273Y1857D01*
X247Y1817D01*
X238Y1770D01*
X238Y936D01*
X247Y890D01*
X247Y890D01*
X273Y850D01*
X760Y363D01*
X760Y363D01*
X760Y363D01*
X781Y349D01*
X799Y337D01*
X799Y337D01*
X800Y337D01*
X825Y332D01*
X846Y328D01*
X846Y328D01*
X846Y328D01*
X1190Y328D01*
X1213Y332D01*
X1237Y337D01*
X1237Y337D01*
X1237Y337D01*
X1254Y349D01*
X1277Y364D01*
X1327Y413D01*
X1333Y423D01*
X2155Y423D01*
X2202Y432D01*
X2242Y459D01*
X2357Y573D01*
X2383Y613D01*
X2392Y660D01*
X2392Y810D01*
X2383Y857D01*
X2357Y897D01*
X2317Y923D01*
X2270Y932D01*
X2223Y923D01*
X2183Y897D01*
X2157Y857D01*
X2148Y810D01*
X2148Y711D01*
X2104Y667D01*
X1766Y667D01*
X1732Y701D01*
X1732Y1169D01*
X1897Y1333D01*
X1923Y1373D01*
X1932Y1420D01*
X1923Y1467D01*
X1897Y1507D01*
X1857Y1533D01*
X1810Y1542D01*
X1763Y1533D01*
X1723Y1507D01*
X1523Y1307D01*
X1497Y1267D01*
X1488Y1220D01*
X1488Y911D01*
X1410Y833D01*
X1030Y833D01*
X802Y1061D01*
X802Y1729D01*
X867Y1793D01*
X880Y1813D01*
X893Y1833D01*
X893Y1833D01*
X893Y1833D01*
X895Y1841D01*
X970Y1841D01*
X1022Y1789D01*
X1022Y1705D01*
X971Y1654D01*
X938Y1632D01*
X916Y1599D01*
X908Y1560D01*
X916Y1521D01*
X916Y1380D01*
X998Y1298D01*
X1134Y1298D01*
X1170Y1334D01*
X1354Y1334D01*
X1379Y1339D01*
X1401Y1353D01*
X1856Y1808D01*
X1870Y1830D01*
X1875Y1855D01*
X1875Y2207D01*
X1957Y2289D01*
X2695Y2289D01*
X2712Y2247D01*
X2716Y2229D01*
X2696Y2199D01*
X2688Y2160D01*
X2696Y2121D01*
X2718Y2088D01*
X2751Y2066D01*
X2780Y2060D01*
X2780Y1572D01*
X2720Y1532D01*
X2701Y1536D01*
X2654Y1526D01*
X2615Y1500D01*
X2588Y1460D01*
X2579Y1413D01*
X2588Y1367D01*
X2615Y1327D01*
X2654Y1300D01*
X2701Y1291D01*
X2720Y1295D01*
X2770Y1262D01*
X2774Y1200D01*
X2707Y1133D01*
X2691Y1144D01*
X2652Y1152D01*
X2613Y1144D01*
X2580Y1122D01*
X2558Y1089D01*
X2550Y1050D01*
X2558Y1011D01*
X2580Y978D01*
X2613Y956D01*
X2652Y948D01*
X2851Y948D01*
X2889Y910D01*
X2889Y540D01*
X2894Y513D01*
X2910Y490D01*
X3090Y310D01*
X3113Y294D01*
X3140Y289D01*
X3823Y289D01*
X3850Y294D01*
X3873Y310D01*
X3927Y364D01*
X3930Y363D01*
X3969Y371D01*
X4002Y393D01*
X4024Y426D01*
X4032Y465D01*
X4024Y504D01*
X4002Y537D01*
X3969Y559D01*
X3930Y567D01*
X3891Y559D01*
X3858Y537D01*
X3836Y504D01*
X3828Y466D01*
X3793Y431D01*
X3170Y431D01*
X3031Y570D01*
X3031Y2179D01*
X3031Y2326D01*
X3094Y2389D01*
X3330Y2389D01*
X3540Y2180D01*
X4010Y1710D01*
X4429Y1290D01*
X4429Y690D01*
X4321Y582D01*
X4320Y582D01*
X4281Y574D01*
X4248Y552D01*
X4226Y519D01*
X4218Y480D01*
X4226Y441D01*
X4248Y408D01*
X4281Y386D01*
X4320Y378D01*
X5472Y378D01*
X5572Y478D01*
X5594Y511D01*
X5602Y550D01*
X5594Y589D01*
X5572Y622D01*
X5539Y644D01*
X5500Y652D01*
X5499Y652D01*
X4913Y1238D01*
X4913Y1403D01*
X4907Y1430D01*
X4892Y1453D01*
X4410Y1935D01*
X3881Y2464D01*
X3881Y3072D01*
X3940Y3118D01*
X3979Y3126D01*
X4012Y3148D01*
X4034Y3181D01*
X4042Y3220D01*
X4042Y3221D01*
X4184Y3363D01*
X4200Y3387D01*
X4205Y3414D01*
X4205Y5457D01*
X4206Y5458D01*
X4228Y5491D01*
X4236Y5530D01*
X4228Y5569D01*
X4206Y5602D01*
X4106Y5702D01*
X3816Y5702D01*
X3810Y5706D01*
X3771Y5714D01*
X3732Y5706D01*
X3726Y5702D01*
X3599Y5702D01*
X3581Y5720D01*
X3581Y5720D01*
X3580Y5720D01*
X3369Y5932D01*
X3345Y5947D01*
X3318Y5952D01*
X3318Y5952D02*
G37*
G36*
X850Y5752D02*
X811Y5744D01*
X778Y5722D01*
X756Y5689D01*
X748Y5650D01*
X613Y5515D01*
X456Y5515D01*
X417Y5508D01*
X384Y5486D01*
X362Y5452D01*
X354Y5413D01*
X354Y5020D01*
X354Y5020D01*
X362Y4981D01*
X384Y4948D01*
X417Y4926D01*
X456Y4918D01*
X495Y4926D01*
X528Y4948D01*
X529Y4948D01*
X1130Y4948D01*
X1219Y4860D01*
X1242Y4844D01*
X1269Y4839D01*
X2784Y4839D01*
X2833Y4790D01*
X2857Y4774D01*
X2884Y4769D01*
X3200Y4769D01*
X3478Y4491D01*
X3478Y4490D01*
X3486Y4451D01*
X3508Y4418D01*
X3541Y4396D01*
X3580Y4388D01*
X3619Y4396D01*
X3652Y4418D01*
X3674Y4451D01*
X3682Y4490D01*
X3674Y4529D01*
X3652Y4562D01*
X3619Y4584D01*
X3580Y4592D01*
X3579Y4592D01*
X3365Y4806D01*
X3365Y4980D01*
X3360Y5007D01*
X3344Y5031D01*
X3214Y5160D01*
X3191Y5176D01*
X3164Y5181D01*
X2360Y5181D01*
X2296Y5245D01*
X2296Y5352D01*
X2236Y5412D01*
X2064Y5412D01*
X2064Y5412D01*
X2064Y5412D01*
X2022Y5412D01*
X1791Y5181D01*
X1416Y5181D01*
X951Y5646D01*
X952Y5650D01*
X944Y5689D01*
X922Y5722D01*
X889Y5744D01*
X850Y5752D01*
X850Y5752D02*
G37*
G36*
X456Y4792D02*
X417Y4784D01*
X384Y4762D01*
X362Y4729D01*
X354Y4690D01*
X356Y4681D01*
X356Y4183D01*
X283Y4110D01*
X268Y4087D01*
X263Y4060D01*
X263Y3961D01*
X268Y3934D01*
X283Y3910D01*
X354Y3840D01*
X354Y3839D01*
X362Y3800D01*
X384Y3767D01*
X417Y3745D01*
X456Y3737D01*
X495Y3745D01*
X528Y3767D01*
X598Y3763D01*
X607Y3757D01*
X654Y3748D01*
X701Y3757D01*
X740Y3784D01*
X767Y3823D01*
X776Y3870D01*
X767Y3917D01*
X740Y3957D01*
X701Y3983D01*
X654Y3992D01*
X607Y3983D01*
X567Y3957D01*
X565Y3953D01*
X535Y3919D01*
X495Y3933D01*
X456Y3941D01*
X419Y3983D01*
X419Y4045D01*
X803Y4428D01*
X958Y4428D01*
X960Y4426D01*
X985Y4368D01*
X971Y4347D01*
X962Y4300D01*
X962Y4181D01*
X887Y4107D01*
X861Y4067D01*
X852Y4020D01*
X852Y3755D01*
X861Y3708D01*
X887Y3669D01*
X1012Y3544D01*
X1052Y3517D01*
X1058Y3516D01*
X1078Y3451D01*
X1008Y3381D01*
X608Y3381D01*
X562Y3440D01*
X554Y3479D01*
X532Y3512D01*
X499Y3534D01*
X460Y3542D01*
X421Y3534D01*
X388Y3512D01*
X366Y3479D01*
X358Y3440D01*
X366Y3401D01*
X386Y3371D01*
X388Y3368D01*
X398Y3312D01*
X376Y3279D01*
X368Y3240D01*
X358Y3230D01*
X358Y2660D01*
X366Y2621D01*
X388Y2588D01*
X421Y2566D01*
X460Y2558D01*
X502Y2558D01*
X592Y2648D01*
X921Y2648D01*
X957Y2683D01*
X983Y2723D01*
X992Y2770D01*
X992Y3003D01*
X1075Y3086D01*
X1114Y3078D01*
X1153Y3086D01*
X1186Y3108D01*
X1208Y3141D01*
X1216Y3180D01*
X1216Y3387D01*
X1299Y3471D01*
X1315Y3494D01*
X1320Y3521D01*
X1320Y3720D01*
X1315Y3748D01*
X1299Y3771D01*
X1269Y3801D01*
X1265Y3806D01*
X1267Y3820D01*
X1264Y3834D01*
X1264Y3854D01*
X1260Y3859D01*
X1237Y3892D01*
X1206Y3913D01*
X1206Y4300D01*
X1197Y4347D01*
X1183Y4368D01*
X1208Y4426D01*
X1210Y4428D01*
X2093Y4428D01*
X2148Y4410D01*
X2156Y4371D01*
X2178Y4338D01*
X2211Y4316D01*
X2250Y4308D01*
X2289Y4316D01*
X2322Y4338D01*
X2344Y4371D01*
X2346Y4379D01*
X2411Y4398D01*
X2468Y4341D01*
X2468Y4340D01*
X2476Y4301D01*
X2498Y4268D01*
X2531Y4246D01*
X2570Y4238D01*
X2871Y4238D01*
X2899Y4266D01*
X2932Y4288D01*
X2954Y4321D01*
X2962Y4360D01*
X2954Y4399D01*
X2932Y4432D01*
X2899Y4454D01*
X2860Y4462D01*
X2859Y4462D01*
X2566Y4755D01*
X2543Y4771D01*
X2515Y4776D01*
X507Y4776D01*
X495Y4784D01*
X456Y4792D01*
X456Y4792D02*
G37*
G36*
X4414Y5592D02*
X4375Y5584D01*
X4342Y5562D01*
X4320Y5529D01*
X4312Y5490D01*
X4320Y5451D01*
X4342Y5418D01*
X4343Y5417D01*
X4343Y4516D01*
X4348Y4489D01*
X4363Y4466D01*
X4718Y4111D01*
X4718Y4110D01*
X4726Y4071D01*
X4748Y4038D01*
X4781Y4016D01*
X4820Y4008D01*
X4859Y4016D01*
X4892Y4038D01*
X4914Y4071D01*
X4922Y4110D01*
X4914Y4149D01*
X4892Y4182D01*
X4859Y4204D01*
X4820Y4212D01*
X4819Y4212D01*
X4485Y4546D01*
X4485Y5417D01*
X4486Y5418D01*
X4508Y5451D01*
X4516Y5490D01*
X4508Y5529D01*
X4486Y5562D01*
X4453Y5584D01*
X4414Y5592D01*
X4414Y5592D02*
G37*
G36*
X5488Y3620D02*
X5032Y3620D01*
X4999Y3606D01*
X4974Y3581D01*
X4960Y3548D01*
X4960Y3192D01*
X4974Y3159D01*
X4999Y3134D01*
X5032Y3120D01*
X5488Y3120D01*
X5521Y3134D01*
X5546Y3159D01*
X5560Y3192D01*
X5560Y3548D01*
X5546Y3581D01*
X5521Y3606D01*
X5488Y3620D01*
X5488Y3620D02*
G37*
G36*
X4590Y3122D02*
X4543Y3113D01*
X4503Y3087D01*
X4477Y3047D01*
X4468Y3000D01*
X4477Y2953D01*
X4503Y2913D01*
X4543Y2887D01*
X4590Y2878D01*
X4637Y2887D01*
X4677Y2913D01*
X4703Y2953D01*
X4712Y3000D01*
X4703Y3047D01*
X4677Y3087D01*
X4637Y3113D01*
X4590Y3122D01*
X4590Y3122D02*
G37*
G36*
X1170Y2732D02*
X1131Y2724D01*
X1098Y2702D01*
X1076Y2669D01*
X1068Y2630D01*
X1076Y2591D01*
X1098Y2558D01*
X1131Y2536D01*
X1170Y2528D01*
X1209Y2536D01*
X1242Y2558D01*
X1264Y2591D01*
X1272Y2630D01*
X1264Y2669D01*
X1242Y2702D01*
X1209Y2724D01*
X1170Y2732D01*
X1170Y2732D02*
G37*
G36*
X2510Y2222D02*
X2471Y2214D01*
X2438Y2192D01*
X2416Y2159D01*
X2413Y2144D01*
X2250Y1980D01*
X2234Y1957D01*
X2229Y1930D01*
X2229Y1838D01*
X2170Y1792D01*
X2131Y1784D01*
X2098Y1762D01*
X2037Y1778D01*
X2029Y1783D01*
X1983Y1792D01*
X1936Y1783D01*
X1896Y1757D01*
X1869Y1717D01*
X1860Y1670D01*
X1869Y1623D01*
X1896Y1583D01*
X1936Y1557D01*
X1983Y1548D01*
X2029Y1557D01*
X2039Y1563D01*
X2099Y1531D01*
X2099Y1435D01*
X1930Y1266D01*
X1914Y1243D01*
X1909Y1215D01*
X1909Y913D01*
X1908Y912D01*
X1886Y879D01*
X1878Y840D01*
X1886Y801D01*
X1908Y768D01*
X1941Y746D01*
X1980Y738D01*
X2019Y746D01*
X2052Y768D01*
X2074Y801D01*
X2082Y840D01*
X2082Y928D01*
X2272Y1118D01*
X2272Y1265D01*
X2350Y1343D01*
X2366Y1367D01*
X2371Y1394D01*
X2371Y1900D01*
X2492Y2022D01*
X2510Y2018D01*
X2549Y2026D01*
X2582Y2048D01*
X2604Y2081D01*
X2612Y2120D01*
X2604Y2159D01*
X2582Y2192D01*
X2549Y2214D01*
X2510Y2222D01*
X2510Y2222D02*
G37*
G36*
X5167Y2056D02*
X5120Y2046D01*
X5080Y2020D01*
X5054Y1980D01*
X5044Y1933D01*
X5054Y1886D01*
X5080Y1847D01*
X5120Y1820D01*
X5167Y1811D01*
X5214Y1820D01*
X5253Y1847D01*
X5280Y1886D01*
X5289Y1933D01*
X5280Y1980D01*
X5253Y2020D01*
X5214Y2046D01*
X5167Y2056D01*
X5167Y2056D02*
G37*
G36*
X5100Y1562D02*
X5053Y1553D01*
X5013Y1527D01*
X4987Y1487D01*
X4978Y1440D01*
X4987Y1393D01*
X5013Y1353D01*
X5053Y1327D01*
X5100Y1318D01*
X5147Y1327D01*
X5187Y1353D01*
X5213Y1393D01*
X5222Y1440D01*
X5213Y1487D01*
X5187Y1527D01*
X5147Y1553D01*
X5100Y1562D01*
X5100Y1562D02*
G37*
%LPD*%
G36*
X780Y1970D02*
X780Y1880D01*
X680Y1780D01*
X680Y1010D01*
X1030Y660D01*
X1180Y660D01*
X1240Y600D01*
X1240Y500D01*
X1190Y450D01*
X846Y450D01*
X360Y936D01*
X360Y1770D01*
X620Y2030D01*
X720Y2030D01*
X780Y1970D01*
X780Y1970D02*
G37*
D13*
X1410Y3042D02*
X1590Y3222D01*
X1505Y2895D02*
X1600Y2990D01*
X1010Y1560D02*
X1387Y1560D01*
X1719Y1892D01*
X1354Y1400D02*
X1809Y1855D01*
X1719Y1892D02*
X1719Y2333D01*
X1505Y2675D02*
X1809Y2370D01*
X1809Y1855D02*
X1809Y2370D01*
X1410Y2642D02*
X1719Y2333D01*
X1040Y1400D02*
X1354Y1400D01*
X1505Y2675D02*
X1505Y2895D01*
X1410Y2642D02*
X1410Y3042D01*
D14*
X103735Y-56018D02*
X103988Y-56018D01*
X104072Y-55990D01*
X104100Y-55962D01*
X104129Y-55906D01*
X104129Y-55821D01*
X104100Y-55765D01*
X104072Y-55737D01*
X103988Y-55709D01*
X103735Y-55709D01*
X103735Y-56299D01*
X104401Y-55906D02*
X104345Y-55934D01*
X104289Y-55990D01*
X104261Y-56074D01*
X104261Y-56131D01*
X104289Y-56215D01*
X104345Y-56271D01*
X104401Y-56299D01*
X104486Y-56299D01*
X104542Y-56271D01*
X104598Y-56215D01*
X104626Y-56131D01*
X104626Y-56074D01*
X104598Y-55990D01*
X104542Y-55934D01*
X104486Y-55906D01*
X104401Y-55906D01*
X104755Y-55906D02*
X104868Y-56299D01*
X104980Y-55906D02*
X104868Y-56299D01*
X104980Y-55906D02*
X105093Y-56299D01*
X105205Y-55906D02*
X105093Y-56299D01*
X105343Y-56074D02*
X105680Y-56074D01*
X105680Y-56018D01*
X105652Y-55962D01*
X105624Y-55934D01*
X105568Y-55906D01*
X105484Y-55906D01*
X105427Y-55934D01*
X105371Y-55990D01*
X105343Y-56074D01*
X105343Y-56131D01*
X105371Y-56215D01*
X105427Y-56271D01*
X105484Y-56299D01*
X105568Y-56299D01*
X105624Y-56271D01*
X105680Y-56215D01*
X105807Y-55906D02*
X105807Y-56299D01*
X105807Y-56074D02*
X105835Y-55990D01*
X105891Y-55934D01*
X105948Y-55906D01*
X106032Y-55906D01*
D15*
X0Y0D02*
X0Y6102D01*
X0Y0D02*
X8150Y0D01*
X8150Y6102D01*
X0Y6102D02*
X8150Y6102D01*
D50*
X974Y3755D02*
X1099Y3630D01*
X1084Y4130D02*
X1084Y4300D01*
X974Y3755D02*
X974Y4020D01*
X1084Y4130D01*
X2270Y660D02*
X2270Y810D01*
X2155Y545D02*
X2270Y660D01*
X1715Y545D02*
X2155Y545D01*
X1610Y1220D02*
X1810Y1420D01*
X1610Y650D02*
X1610Y1220D01*
X1505Y545D02*
X1715Y545D01*
X1149Y545D02*
X1505Y545D01*
X1610Y650D01*
X1715Y545D01*
D52*
X3710Y2393D02*
X3710Y3360D01*
X3810Y2434D02*
X3810Y3274D01*
X3810Y2434D02*
X3890Y2354D01*
X3610Y2351D02*
X3610Y3450D01*
X3940Y3220D02*
X4134Y3414D01*
X3810Y3274D02*
X3930Y3394D01*
X1760Y2557D02*
X1760Y3250D01*
X1860Y2599D02*
X1860Y4134D01*
X2779Y2360D02*
X2960Y2179D01*
X2960Y540D02*
X2960Y2179D01*
X2790Y2160D02*
X2851Y2099D01*
X1980Y1215D02*
X2170Y1405D01*
X1980Y840D02*
X1980Y1215D01*
X2170Y1160D02*
X2170Y1264D01*
X2300Y1394D01*
X2300Y1930D02*
X2500Y2130D01*
X4414Y4516D02*
X4414Y5490D01*
X4414Y4516D02*
X4820Y4110D01*
X1386Y5110D02*
X3164Y5110D01*
X3771Y5612D02*
X3904Y5479D01*
X3974Y5600D02*
X4004Y5570D01*
X4004Y4344D02*
X4004Y5570D01*
X3904Y4434D02*
X3904Y5479D01*
X3780Y4310D02*
X3904Y4434D01*
X3781Y4121D02*
X4004Y4344D01*
X3740Y4930D02*
X3740Y5459D01*
X3318Y5881D02*
X3740Y5459D01*
X1919Y5881D02*
X3318Y5881D01*
X1677Y5640D02*
X1919Y5881D01*
X1240Y5640D02*
X1677Y5640D01*
X4134Y3414D02*
X4134Y5530D01*
X4741Y929D02*
X4741Y1362D01*
X4741Y929D02*
X5130Y540D01*
X4641Y579D02*
X4641Y1320D01*
X4641Y579D02*
X4720Y500D01*
X4060Y1760D02*
X4500Y1320D01*
X4500Y660D02*
X4500Y1320D01*
X4320Y480D02*
X4500Y660D01*
X4160Y1801D02*
X4641Y1320D01*
X4260Y1843D02*
X4741Y1362D01*
X4360Y1884D02*
X4841Y1403D01*
X4841Y1209D02*
X4841Y1403D01*
X4841Y1209D02*
X5500Y550D01*
X3781Y3855D02*
X3781Y4121D01*
X334Y4060D02*
X773Y4499D01*
X1165Y3804D02*
X1165Y3820D01*
X1594Y2010D02*
X1594Y2260D01*
X1524Y1940D02*
X1594Y2010D01*
X1390Y1940D02*
X1524Y1940D01*
X1450Y2070D02*
X1464Y2070D01*
X1290Y2230D02*
X1450Y2070D01*
X1249Y3521D02*
X1249Y3720D01*
X1165Y3804D02*
X1249Y3720D01*
X1957Y2360D02*
X2779Y2360D01*
X2851Y1176D02*
X2851Y2099D01*
X2725Y1050D02*
X2851Y1176D01*
X2652Y1050D02*
X2725Y1050D01*
X2161Y4499D02*
X2250Y4410D01*
X773Y4499D02*
X2161Y4499D01*
X659Y4605D02*
X2305Y4605D01*
X471Y4705D02*
X2515Y4705D01*
X456Y4690D02*
X471Y4705D01*
X2515Y4705D02*
X2860Y4360D01*
X474Y4420D02*
X659Y4605D01*
X2305Y4605D02*
X2570Y4340D01*
X334Y3961D02*
X334Y4060D01*
X334Y3961D02*
X350Y3945D01*
X540Y3310D02*
X1038Y3310D01*
X1249Y3521D01*
X1269Y4910D02*
X2814Y4910D01*
X1159Y5020D02*
X1269Y4910D01*
X456Y5020D02*
X1159Y5020D01*
X1311Y5010D02*
X2914Y5010D01*
X1201Y5120D02*
X1311Y5010D01*
X749Y5120D02*
X1201Y5120D01*
X850Y5646D02*
X1386Y5110D01*
X3164Y5110D02*
X3294Y4980D01*
X3294Y4776D02*
X3294Y4980D01*
X3294Y4776D02*
X3580Y4490D01*
X3034Y4840D02*
X3134Y4940D01*
X2884Y4840D02*
X3034Y4840D01*
X2814Y4910D02*
X2884Y4840D01*
X456Y5413D02*
X749Y5120D01*
X2914Y5010D02*
X2954Y4970D01*
X560Y2230D02*
X1290Y2230D01*
X1215Y2115D02*
X1390Y1940D01*
X545Y2115D02*
X1215Y2115D01*
X1760Y2557D02*
X1957Y2360D01*
X1999Y2460D02*
X3360Y2460D01*
X1860Y2599D02*
X1999Y2460D01*
X480Y2050D02*
X545Y2115D01*
X460Y2762D02*
X878Y3180D01*
X460Y2660D02*
X460Y2762D01*
X470Y3240D02*
X540Y3310D01*
X1600Y3410D02*
X1760Y3250D01*
X878Y3180D02*
X1114Y3180D01*
X1764Y4230D02*
X1860Y4134D01*
X3930Y3394D02*
X3930Y3997D01*
X350Y3945D02*
X456Y3839D01*
X3710Y3360D02*
X3790Y3440D01*
X3890Y2354D02*
X4360Y1884D01*
X3710Y2393D02*
X3790Y2313D01*
X3610Y2351D02*
X4160Y1801D01*
X4160Y1801D02*
X4160Y1801D01*
X3790Y2313D02*
X4260Y1843D01*
X3590Y2230D02*
X4060Y1760D01*
X3360Y2460D02*
X3590Y2230D01*
X3610Y3450D02*
X3780Y3620D01*
X2960Y540D02*
X3140Y360D01*
X2170Y1405D02*
X2170Y1690D01*
X850Y5646D02*
X850Y5650D01*
X2300Y1394D02*
X2300Y1930D01*
X3928Y465D02*
X3930Y465D01*
X3140Y360D02*
X3823Y360D01*
X3928Y465D01*
X460Y2330D02*
X560Y2230D01*
D59*
X6324Y5680D02*
D03*
X6324Y5400D02*
D03*
X6324Y5120D02*
D03*
X5184Y5960D02*
D03*
X5564Y5960D02*
D03*
X5944Y5960D02*
D03*
X5900Y4640D02*
D03*
X5384Y4080D02*
D03*
X5384Y4400D02*
D03*
X5384Y4240D02*
D03*
X5944Y4840D02*
D03*
X6134Y4840D02*
D03*
X5564Y4560D02*
D03*
X5754Y4560D02*
D03*
X5754Y4840D02*
D03*
X5754Y4700D02*
D03*
X5564Y4840D02*
D03*
X5564Y4700D02*
D03*
X4994Y5960D02*
D03*
X4994Y5120D02*
D03*
X4994Y5400D02*
D03*
X4994Y5680D02*
D03*
X5374Y5960D02*
D03*
X5374Y5120D02*
D03*
X5374Y5400D02*
D03*
X5374Y5680D02*
D03*
X5754Y5960D02*
D03*
X5754Y5120D02*
D03*
X5754Y5400D02*
D03*
X5754Y5680D02*
D03*
X6134Y5680D02*
D03*
X6134Y5400D02*
D03*
X6134Y5120D02*
D03*
X6514Y4980D02*
D03*
X6514Y5120D02*
D03*
X6514Y5260D02*
D03*
X6514Y5400D02*
D03*
X6514Y5540D02*
D03*
X6514Y5680D02*
D03*
X6514Y5820D02*
D03*
X5384Y4880D02*
D03*
X5144Y2760D02*
D03*
X1060Y1100D02*
D03*
X1060Y900D02*
D03*
X3360Y2270D02*
D03*
X3940Y3220D02*
D03*
X1590Y3222D02*
D03*
X1600Y2990D02*
D03*
X2790Y2160D02*
D03*
X2170Y1160D02*
D03*
X2337Y1194D02*
D03*
X4819Y4618D02*
D03*
X4820Y4110D02*
D03*
X4962Y4569D02*
D03*
X4964Y4420D02*
D03*
X3771Y5612D02*
D03*
X3974Y5600D02*
D03*
X1888Y5462D02*
D03*
X2032Y5515D02*
D03*
X1903Y5608D02*
D03*
X1764Y5536D02*
D03*
X2879Y5629D02*
D03*
X2662Y5611D02*
D03*
X2984Y5530D02*
D03*
X3078Y5426D02*
D03*
X4134Y5530D02*
D03*
X4264Y5390D02*
D03*
X4287Y5603D02*
D03*
X3781Y3855D02*
D03*
X904Y4210D02*
D03*
X1165Y3820D02*
D03*
X1014Y3710D02*
D03*
X974Y4880D02*
D03*
X1464Y2070D02*
D03*
X5754Y2930D02*
D03*
X5624Y4050D02*
D03*
X5544Y3940D02*
D03*
X5624Y3330D02*
D03*
X2570Y610D02*
D03*
X2652Y1050D02*
D03*
X2690Y1210D02*
D03*
X2820Y880D02*
D03*
X4254Y1163D02*
D03*
X474Y4420D02*
D03*
X479Y4010D02*
D03*
X2454Y720D02*
D03*
X1849Y1195D02*
D03*
X456Y3839D02*
D03*
X474Y3660D02*
D03*
X5545Y719D02*
D03*
X5404Y860D02*
D03*
X5545Y1001D02*
D03*
X3414Y4460D02*
D03*
X3165Y4461D02*
D03*
X1694Y3720D02*
D03*
X1914Y4320D02*
D03*
X2094Y4320D02*
D03*
X2394Y4320D02*
D03*
X3574Y4320D02*
D03*
X3304Y4320D02*
D03*
X3024Y4320D02*
D03*
X5654Y4300D02*
D03*
X4854Y4799D02*
D03*
X4660Y5160D02*
D03*
X4660Y5600D02*
D03*
X5249Y4410D02*
D03*
X4964Y4720D02*
D03*
X5174Y4720D02*
D03*
X5174Y4560D02*
D03*
X4894Y1660D02*
D03*
X4764Y1700D02*
D03*
X5084Y1620D02*
D03*
X5006Y2130D02*
D03*
X5604Y2100D02*
D03*
X5624Y2260D02*
D03*
X5508Y1816D02*
D03*
X5444Y2110D02*
D03*
X5444Y2260D02*
D03*
X4904Y3190D02*
D03*
X4974Y2390D02*
D03*
X5282Y2110D02*
D03*
X5394Y1930D02*
D03*
X5754Y650D02*
D03*
X5754Y330D02*
D03*
X5754Y970D02*
D03*
X5754Y1290D02*
D03*
X5754Y1610D02*
D03*
X5754Y2290D02*
D03*
X5754Y2610D02*
D03*
X5754Y2770D02*
D03*
X5624Y3180D02*
D03*
X6514Y5960D02*
D03*
X6324Y5960D02*
D03*
X6134Y5960D02*
D03*
X6034Y4710D02*
D03*
X6034Y4530D02*
D03*
X6208Y4664D02*
D03*
X6344Y4762D02*
D03*
X6404Y4620D02*
D03*
X6506Y4762D02*
D03*
X6270Y4486D02*
D03*
X6135Y4351D02*
D03*
X5934Y4370D02*
D03*
X6001Y4217D02*
D03*
X5877Y4093D02*
D03*
X1694Y4070D02*
D03*
X3744Y4470D02*
D03*
X574Y5630D02*
D03*
X1124Y4850D02*
D03*
X4414Y5490D02*
D03*
X2954Y4970D02*
D03*
X1119Y2460D02*
D03*
X910Y2360D02*
D03*
X860Y1620D02*
D03*
X920Y1770D02*
D03*
X1010Y1560D02*
D03*
X480Y2050D02*
D03*
X1040Y1400D02*
D03*
X984Y3440D02*
D03*
X1114Y3630D02*
D03*
X470Y3240D02*
D03*
X1098Y2827D02*
D03*
X1600Y3410D02*
D03*
X1114Y3180D02*
D03*
X460Y2660D02*
D03*
X1764Y4230D02*
D03*
X1694Y3900D02*
D03*
X5714Y4150D02*
D03*
X5384Y4560D02*
D03*
X5384Y4720D02*
D03*
X3134Y4940D02*
D03*
X3574Y4950D02*
D03*
X4810Y5600D02*
D03*
X3930Y3997D02*
D03*
X5819Y4240D02*
D03*
X5784Y4370D02*
D03*
X3790Y3440D02*
D03*
X1594Y2260D02*
D03*
X2640Y2220D02*
D03*
X2384Y2220D02*
D03*
X5200Y1280D02*
D03*
X4984Y1760D02*
D03*
X3476Y2160D02*
D03*
X4674Y1810D02*
D03*
X4834Y1810D02*
D03*
X4820Y2180D02*
D03*
X4670Y2180D02*
D03*
X4040Y1430D02*
D03*
X4040Y1279D02*
D03*
X3940Y2930D02*
D03*
X2210Y2220D02*
D03*
X3100Y2270D02*
D03*
X2170Y1690D02*
D03*
X850Y5650D02*
D03*
X1240Y5640D02*
D03*
X1080Y5600D02*
D03*
X4720Y500D02*
D03*
X5500Y550D02*
D03*
X5130Y540D02*
D03*
X5034Y3680D02*
D03*
X5024Y4030D02*
D03*
X4874Y3950D02*
D03*
X5024Y4160D02*
D03*
X5104Y4360D02*
D03*
X4774Y2980D02*
D03*
X4610Y3610D02*
D03*
X4520Y2180D02*
D03*
X4540Y2570D02*
D03*
X2250Y4410D02*
D03*
X2680Y500D02*
D03*
X2510Y2120D02*
D03*
X5179Y4240D02*
D03*
X5174Y4070D02*
D03*
X5134Y2220D02*
D03*
X5282Y2260D02*
D03*
X5014Y3060D02*
D03*
X4894Y3330D02*
D03*
X4894Y3460D02*
D03*
X4914Y3600D02*
D03*
X470Y540D02*
D03*
X560Y430D02*
D03*
X240Y480D02*
D03*
X4114Y1168D02*
D03*
X4370Y780D02*
D03*
X4370Y940D02*
D03*
X4320Y480D02*
D03*
X3800Y570D02*
D03*
X3434Y570D02*
D03*
X4040Y594D02*
D03*
X3930Y465D02*
D03*
X4040Y1010D02*
D03*
X4210Y606D02*
D03*
X3104Y1440D02*
D03*
X3104Y1230D02*
D03*
X3100Y710D02*
D03*
X3103Y880D02*
D03*
X1980Y840D02*
D03*
X3240Y2170D02*
D03*
X1810Y1420D02*
D03*
X2400Y1310D02*
D03*
X2860Y4360D02*
D03*
X2570Y4340D02*
D03*
X3580Y4490D02*
D03*
X3780Y4310D02*
D03*
X3740Y4930D02*
D03*
X4934Y2260D02*
D03*
X4954Y2760D02*
D03*
X5179Y3690D02*
D03*
X4654Y3470D02*
D03*
X4674Y3270D02*
D03*
X4520Y3510D02*
D03*
X3780Y3620D02*
D03*
X3880Y1590D02*
D03*
X3720Y1600D02*
D03*
X3603Y570D02*
D03*
X434Y5630D02*
D03*
X150Y5640D02*
D03*
X564Y5760D02*
D03*
X560Y5960D02*
D03*
X460Y2330D02*
D03*
X456Y4690D02*
D03*
X456Y5020D02*
D03*
X456Y5413D02*
D03*
X5319Y2390D02*
D03*
X5479Y2410D02*
D03*
X5549Y2540D02*
D03*
X5549Y2700D02*
D03*
X4810Y4950D02*
D03*
X4810Y5160D02*
D03*
X4810Y5380D02*
D03*
X3300Y1610D02*
D03*
X4370Y1100D02*
D03*
D60*
X2518Y3556D02*
D03*
X2045Y3556D02*
D03*
X2045Y4029D02*
D03*
X2518Y4029D02*
D03*
X2045Y2611D02*
D03*
X2518Y2611D02*
D03*
X2990Y2611D02*
D03*
X2990Y3556D02*
D03*
X2990Y4029D02*
D03*
X2518Y3084D02*
D03*
X2045Y3084D02*
D03*
X2990Y3084D02*
D03*
X3463Y3556D02*
D03*
X3463Y4029D02*
D03*
X3463Y3084D02*
D03*
X3463Y2611D02*
D03*
D61*
X1084Y4300D02*
D03*
X686Y1934D02*
D03*
X540Y1790D02*
D03*
X2270Y810D02*
D03*
X952Y545D02*
D03*
X1149Y545D02*
D03*
M02*
