G04*
G04 #@! TF.GenerationSoftware,Altium Limited,Altium Designer,22.4.2 (48)*
G04*
G04 Layer_Color=32896*
%FSLAX24Y24*%
%MOIN*%
G70*
G04*
G04 #@! TF.SameCoordinates,234F8549-8FEE-4F9A-8B0D-93BDF39202AA*
G04*
G04*
G04 #@! TF.FilePolarity,Positive*
G04*
G01*
G75*
%ADD14C,0.0059*%
%ADD15C,0.0039*%
%ADD51C,0.0100*%
%ADD65C,0.0070*%
%ADD66C,0.0118*%
%ADD67C,0.0070*%
D14*
X103820Y-55750D02*
X103820Y-56340D01*
X103820Y-55750D02*
X104185Y-55750D01*
X103820Y-56031D02*
X104045Y-56031D01*
X104703Y-56340D02*
X104478Y-55750D01*
X104253Y-56340D01*
X104337Y-56143D02*
X104618Y-56143D01*
X104841Y-55750D02*
X104841Y-56340D01*
X104841Y-55750D02*
X105094Y-55750D01*
X105178Y-55778D01*
X105206Y-55806D01*
X105234Y-55862D01*
X105234Y-55918D01*
X105206Y-55974D01*
X105178Y-56003D01*
X105094Y-56031D01*
X104841Y-56031D02*
X105094Y-56031D01*
X105178Y-56059D01*
X105206Y-56087D01*
X105234Y-56143D01*
X105234Y-56228D01*
X105206Y-56284D01*
X105178Y-56312D01*
X105094Y-56340D01*
X104841Y-56340D01*
X106027Y-55637D02*
X105971Y-55693D01*
X105915Y-55778D01*
X105858Y-55890D01*
X105830Y-56031D01*
X105830Y-56143D01*
X105858Y-56284D01*
X105915Y-56396D01*
X105971Y-56481D01*
X106027Y-56537D01*
X105971Y-55693D02*
X105915Y-55806D01*
X105886Y-55890D01*
X105858Y-56031D01*
X105858Y-56143D01*
X105886Y-56284D01*
X105915Y-56368D01*
X105971Y-56481D01*
X106140Y-55750D02*
X106140Y-56340D01*
X106140Y-55750D02*
X106364Y-56340D01*
X106589Y-55750D02*
X106364Y-56340D01*
X106589Y-55750D02*
X106589Y-56340D01*
X107039Y-55750D02*
X106758Y-56143D01*
X107180Y-56143D01*
X107039Y-55750D02*
X107039Y-56340D01*
X107284Y-55637D02*
X107340Y-55693D01*
X107396Y-55778D01*
X107453Y-55890D01*
X107481Y-56031D01*
X107481Y-56143D01*
X107453Y-56284D01*
X107396Y-56396D01*
X107340Y-56481D01*
X107284Y-56537D01*
X107340Y-55693D02*
X107396Y-55806D01*
X107424Y-55890D01*
X107453Y-56031D01*
X107453Y-56143D01*
X107424Y-56284D01*
X107396Y-56368D01*
X107340Y-56481D01*
D15*
X0Y0D02*
X0Y6102D01*
X0Y0D02*
X8150Y0D01*
X8150Y6102D01*
X0Y6102D02*
X8150Y6102D01*
D51*
X113269Y10876D02*
X113269Y12376D01*
X114769Y12376D01*
X113269Y10876D02*
X114769Y10876D01*
X106577Y12376D02*
X108077Y12376D01*
X106577Y10876D02*
X108077Y10876D01*
X114769Y10876D02*
X114769Y12376D01*
X108077Y10876D02*
X108077Y12376D01*
X106577Y10876D02*
X106577Y12376D01*
X86619Y2506D02*
X86619Y4006D01*
X86619Y4715D02*
X86619Y6215D01*
X86619Y8959D02*
X86619Y10459D01*
X86619Y20549D02*
X86619Y22049D01*
X88119Y2506D02*
X88119Y4006D01*
X88119Y4715D02*
X88119Y6215D01*
X88119Y8959D02*
X88119Y10459D01*
X88119Y20549D02*
X88119Y22049D01*
X91021Y-11546D02*
X91021Y-10046D01*
X94619Y-147D02*
X94619Y1353D01*
X97619Y20549D02*
X97619Y22049D01*
X98679Y-11546D02*
X98679Y-10046D01*
X99119Y20549D02*
X99119Y22049D01*
X106577Y12896D02*
X106577Y14396D01*
X106619Y16731D02*
X106619Y18231D01*
X106619Y20549D02*
X106619Y22049D01*
X108077Y12896D02*
X108077Y14396D01*
X108119Y20549D02*
X108119Y22049D01*
X114769Y12896D02*
X114769Y14396D01*
X117183Y-11546D02*
X117183Y-10046D01*
X119619Y-147D02*
X119619Y1353D01*
X86619Y6880D02*
X86619Y8380D01*
X88119Y6880D02*
X88119Y8380D01*
X98619Y-5147D02*
X98619Y-3647D01*
X98619Y-2647D02*
X98619Y-1147D01*
X106619Y14821D02*
X106619Y16321D01*
X106619Y18640D02*
X106619Y20140D01*
X115019Y15421D02*
X115019Y16021D01*
X115619Y14821D02*
X115619Y16321D01*
X119619Y-5147D02*
X119619Y-3647D01*
X119619Y-2647D02*
X119619Y-1147D01*
X119119Y14821D02*
X119119Y16321D01*
X97619Y20549D02*
X99119Y20549D01*
X97619Y22049D02*
X99119Y22049D01*
X106577Y12896D02*
X108077Y12896D01*
X106577Y14396D02*
X108077Y14396D01*
X106619Y20549D02*
X108119Y20549D01*
X106619Y22049D02*
X108119Y22049D01*
X113269Y12896D02*
X114769Y12896D01*
X113269Y14396D02*
X114769Y14396D01*
X114719Y15121D02*
X115319Y15121D01*
X114719Y15721D02*
X115319Y15721D01*
X110426Y-11546D02*
X110426Y-10046D01*
X110119Y16731D02*
X110119Y18231D01*
X113269Y12896D02*
X113269Y14396D01*
X110119Y14821D02*
X110119Y16321D01*
X110119Y18640D02*
X110119Y20140D01*
X86619Y2506D02*
X88119Y2506D01*
X86619Y4006D02*
X88119Y4006D01*
X86619Y6215D02*
X88119Y6215D01*
X86619Y6880D02*
X88119Y6880D01*
X86619Y8380D02*
X88119Y8380D01*
X86619Y8959D02*
X88119Y8959D01*
X86619Y10459D02*
X88119Y10459D01*
X86619Y20549D02*
X88119Y20549D01*
X86619Y22049D02*
X88119Y22049D01*
X91021Y-11546D02*
X98679Y-11546D01*
X91021Y-10046D02*
X98679Y-10046D01*
X106619Y14821D02*
X110119Y14821D01*
X106619Y16731D02*
X110119Y16731D01*
X106619Y18231D02*
X110119Y18231D01*
X106619Y20140D02*
X110119Y20140D01*
X115619Y14821D02*
X119119Y14821D01*
X86619Y4715D02*
X88119Y4715D01*
X86869Y20799D02*
X87869Y21799D01*
X86869Y21799D02*
X87869Y20799D01*
X106619Y16321D02*
X110119Y16321D01*
X106619Y18640D02*
X110119Y18640D01*
X115619Y16321D02*
X119119Y16321D01*
X110426Y-11546D02*
X117183Y-11546D01*
X110426Y-10046D02*
X117183Y-10046D01*
X98619Y-5147D02*
X119619Y-5147D01*
X98619Y-3647D02*
X119619Y-3647D01*
X98619Y-2647D02*
X119619Y-2647D01*
X98619Y-1147D02*
X119619Y-1147D01*
X94619Y1353D02*
X119619Y1353D01*
X94619Y-147D02*
X119619Y-147D01*
X106859Y21779D02*
X107859Y20779D01*
X106859Y20779D02*
X107859Y21779D01*
D65*
X86695Y11999D02*
X86961Y11299D01*
X87228Y11999D02*
X86961Y11299D01*
X87318Y11999D02*
X87318Y11299D01*
X87998Y11299D02*
X87731Y11999D01*
X87464Y11299D01*
X87564Y11532D02*
X87898Y11532D01*
X88944Y11999D02*
X88944Y11299D01*
X88711Y11999D02*
X89177Y11999D01*
X89694Y11999D02*
X89261Y11999D01*
X89261Y11299D01*
X89694Y11299D01*
X89261Y11665D02*
X89527Y11665D01*
X89811Y11999D02*
X89811Y11299D01*
X89811Y11999D02*
X90277Y11299D01*
X90277Y11999D02*
X90277Y11299D01*
X90704Y11999D02*
X90704Y11299D01*
X90471Y11999D02*
X90937Y11999D01*
X91020Y11999D02*
X91020Y11299D01*
X91167Y11999D02*
X91167Y11299D01*
X91167Y11999D02*
X91634Y11299D01*
X91634Y11999D02*
X91634Y11299D01*
X92327Y11832D02*
X92293Y11899D01*
X92227Y11965D01*
X92160Y11999D01*
X92027Y11999D01*
X91960Y11965D01*
X91894Y11899D01*
X91860Y11832D01*
X91827Y11732D01*
X91827Y11565D01*
X91860Y11465D01*
X91894Y11399D01*
X91960Y11332D01*
X92027Y11299D01*
X92160Y11299D01*
X92227Y11332D01*
X92293Y11399D01*
X92327Y11465D01*
X92327Y11565D01*
X92160Y11565D02*
X92327Y11565D01*
X93237Y11999D02*
X93170Y11965D01*
X93103Y11899D01*
X93070Y11832D01*
X93037Y11732D01*
X93037Y11565D01*
X93070Y11465D01*
X93103Y11399D01*
X93170Y11332D01*
X93237Y11299D01*
X93370Y11299D01*
X93437Y11332D01*
X93503Y11399D01*
X93537Y11465D01*
X93570Y11565D01*
X93570Y11732D01*
X93537Y11832D01*
X93503Y11899D01*
X93437Y11965D01*
X93370Y11999D01*
X93237Y11999D01*
X93733Y11999D02*
X93733Y11299D01*
X93733Y11999D02*
X94200Y11299D01*
X94200Y11999D02*
X94200Y11299D01*
X94943Y11999D02*
X94943Y11299D01*
X94943Y11999D02*
X95243Y11999D01*
X95343Y11965D01*
X95376Y11932D01*
X95409Y11865D01*
X95409Y11799D01*
X95376Y11732D01*
X95343Y11699D01*
X95243Y11665D01*
X94943Y11665D02*
X95243Y11665D01*
X95343Y11632D01*
X95376Y11599D01*
X95409Y11532D01*
X95409Y11432D01*
X95376Y11365D01*
X95343Y11332D01*
X95243Y11299D01*
X94943Y11299D01*
X95766Y11999D02*
X95699Y11965D01*
X95633Y11899D01*
X95599Y11832D01*
X95566Y11732D01*
X95566Y11565D01*
X95599Y11465D01*
X95633Y11399D01*
X95699Y11332D01*
X95766Y11299D01*
X95899Y11299D01*
X95966Y11332D01*
X96033Y11399D01*
X96066Y11465D01*
X96099Y11565D01*
X96099Y11732D01*
X96066Y11832D01*
X96033Y11899D01*
X95966Y11965D01*
X95899Y11999D01*
X95766Y11999D01*
X96496Y11999D02*
X96496Y11299D01*
X96263Y11999D02*
X96729Y11999D01*
X96812Y11999D02*
X96812Y11299D01*
X97279Y11999D02*
X97279Y11299D01*
X96812Y11665D02*
X97279Y11665D01*
X98489Y11899D02*
X98422Y11965D01*
X98322Y11999D01*
X98189Y11999D01*
X98089Y11965D01*
X98022Y11899D01*
X98022Y11832D01*
X98056Y11765D01*
X98089Y11732D01*
X98156Y11699D01*
X98355Y11632D01*
X98422Y11599D01*
X98455Y11565D01*
X98489Y11499D01*
X98489Y11399D01*
X98422Y11332D01*
X98322Y11299D01*
X98189Y11299D01*
X98089Y11332D01*
X98022Y11399D01*
X98645Y11999D02*
X98645Y11299D01*
X98792Y11999D02*
X98792Y11299D01*
X98792Y11999D02*
X99025Y11999D01*
X99125Y11965D01*
X99192Y11899D01*
X99225Y11832D01*
X99259Y11732D01*
X99259Y11565D01*
X99225Y11465D01*
X99192Y11399D01*
X99125Y11332D01*
X99025Y11299D01*
X98792Y11299D01*
X99848Y11999D02*
X99415Y11999D01*
X99415Y11299D01*
X99848Y11299D01*
X99415Y11665D02*
X99682Y11665D01*
X115829Y11999D02*
X115829Y11299D01*
X115829Y11999D02*
X116295Y11299D01*
X116295Y11999D02*
X116295Y11299D01*
X116688Y11999D02*
X116622Y11965D01*
X116555Y11899D01*
X116522Y11832D01*
X116488Y11732D01*
X116488Y11565D01*
X116522Y11465D01*
X116555Y11399D01*
X116622Y11332D01*
X116688Y11299D01*
X116822Y11299D01*
X116888Y11332D01*
X116955Y11399D01*
X116988Y11465D01*
X117022Y11565D01*
X117022Y11732D01*
X116988Y11832D01*
X116955Y11899D01*
X116888Y11965D01*
X116822Y11999D01*
X116688Y11999D01*
X109136Y11999D02*
X109402Y11665D01*
X109402Y11299D01*
X109669Y11999D02*
X109402Y11665D01*
X110192Y11999D02*
X109759Y11999D01*
X109759Y11299D01*
X110192Y11299D01*
X109759Y11665D02*
X110025Y11665D01*
X110775Y11899D02*
X110709Y11965D01*
X110609Y11999D01*
X110475Y11999D01*
X110375Y11965D01*
X110309Y11899D01*
X110309Y11832D01*
X110342Y11765D01*
X110375Y11732D01*
X110442Y11699D01*
X110642Y11632D01*
X110709Y11599D01*
X110742Y11565D01*
X110775Y11499D01*
X110775Y11399D01*
X110709Y11332D01*
X110609Y11299D01*
X110475Y11299D01*
X110375Y11332D01*
X110309Y11399D01*
X107087Y17674D02*
X107154Y17707D01*
X107254Y17807D01*
X107254Y17107D01*
X107800Y17807D02*
X107734Y17774D01*
X107667Y17707D01*
X107634Y17641D01*
X107600Y17541D01*
X107600Y17374D01*
X107634Y17274D01*
X107667Y17207D01*
X107734Y17141D01*
X107800Y17107D01*
X107934Y17107D01*
X108000Y17141D01*
X108067Y17207D01*
X108100Y17274D01*
X108133Y17374D01*
X108133Y17541D01*
X108100Y17641D01*
X108067Y17707D01*
X108000Y17774D01*
X107934Y17807D01*
X107800Y17807D01*
X108763Y17807D02*
X108297Y17107D01*
X108297Y17807D02*
X108763Y17807D01*
X108297Y17107D02*
X108763Y17107D01*
X91792Y-10412D02*
X91692Y-10445D01*
X91626Y-10545D01*
X91592Y-10712D01*
X91592Y-10812D01*
X91626Y-10978D01*
X91692Y-11078D01*
X91792Y-11112D01*
X91859Y-11112D01*
X91959Y-11078D01*
X92025Y-10978D01*
X92059Y-10812D01*
X92059Y-10712D01*
X92025Y-10545D01*
X91959Y-10445D01*
X91859Y-10412D01*
X91792Y-10412D01*
X92615Y-10412D02*
X92282Y-10412D01*
X92249Y-10712D01*
X92282Y-10678D01*
X92382Y-10645D01*
X92482Y-10645D01*
X92582Y-10678D01*
X92649Y-10745D01*
X92682Y-10845D01*
X92682Y-10912D01*
X92649Y-11012D01*
X92582Y-11078D01*
X92482Y-11112D01*
X92382Y-11112D01*
X92282Y-11078D01*
X92249Y-11045D01*
X92215Y-10978D01*
X92839Y-10812D02*
X93438Y-10812D01*
X98453Y21649D02*
X98119Y21183D01*
X98619Y21183D01*
X98453Y21649D02*
X98453Y20949D01*
X110869Y15688D02*
X110869Y15221D01*
X110869Y15554D02*
X110969Y15654D01*
X111036Y15688D01*
X111136Y15688D01*
X111203Y15654D01*
X111236Y15554D01*
X111236Y15221D01*
X111236Y15554D02*
X111336Y15654D01*
X111403Y15688D01*
X111503Y15688D01*
X111569Y15654D01*
X111603Y15554D01*
X111603Y15221D01*
X111823Y15688D02*
X111823Y15221D01*
X111823Y15554D02*
X111923Y15654D01*
X111989Y15688D01*
X112089Y15688D01*
X112156Y15654D01*
X112189Y15554D01*
X112189Y15221D01*
X112189Y15554D02*
X112289Y15654D01*
X112356Y15688D01*
X112456Y15688D01*
X112522Y15654D01*
X112556Y15554D01*
X112556Y15221D01*
X107819Y15921D02*
X107719Y15888D01*
X107653Y15788D01*
X107619Y15621D01*
X107619Y15521D01*
X107653Y15354D01*
X107719Y15254D01*
X107819Y15221D01*
X107886Y15221D01*
X107986Y15254D01*
X108053Y15354D01*
X108086Y15521D01*
X108086Y15621D01*
X108053Y15788D01*
X107986Y15888D01*
X107886Y15921D01*
X107819Y15921D01*
X108276Y15288D02*
X108243Y15254D01*
X108276Y15221D01*
X108309Y15254D01*
X108276Y15288D01*
X108629Y15921D02*
X108529Y15888D01*
X108496Y15821D01*
X108496Y15754D01*
X108529Y15688D01*
X108596Y15654D01*
X108729Y15621D01*
X108829Y15588D01*
X108896Y15521D01*
X108929Y15454D01*
X108929Y15354D01*
X108896Y15288D01*
X108863Y15254D01*
X108763Y15221D01*
X108629Y15221D01*
X108529Y15254D01*
X108496Y15288D01*
X108463Y15354D01*
X108463Y15454D01*
X108496Y15521D01*
X108563Y15588D01*
X108663Y15621D01*
X108796Y15654D01*
X108863Y15688D01*
X108896Y15754D01*
X108896Y15821D01*
X108863Y15888D01*
X108763Y15921D01*
X108629Y15921D01*
X116619Y15788D02*
X116686Y15821D01*
X116786Y15921D01*
X116786Y15221D01*
X117333Y15921D02*
X117233Y15888D01*
X117166Y15788D01*
X117133Y15621D01*
X117133Y15521D01*
X117166Y15354D01*
X117233Y15254D01*
X117333Y15221D01*
X117399Y15221D01*
X117499Y15254D01*
X117566Y15354D01*
X117599Y15521D01*
X117599Y15621D01*
X117566Y15788D01*
X117499Y15888D01*
X117399Y15921D01*
X117333Y15921D01*
X120469Y15921D02*
X119869Y15221D01*
X120036Y15921D02*
X120103Y15854D01*
X120103Y15788D01*
X120069Y15721D01*
X120003Y15688D01*
X119936Y15688D01*
X119869Y15754D01*
X119869Y15821D01*
X119903Y15888D01*
X119969Y15921D01*
X120036Y15921D01*
X120103Y15888D01*
X120203Y15854D01*
X120303Y15854D01*
X120403Y15888D01*
X120469Y15921D01*
X120336Y15454D02*
X120269Y15421D01*
X120236Y15354D01*
X120236Y15288D01*
X120303Y15221D01*
X120369Y15221D01*
X120436Y15254D01*
X120469Y15321D01*
X120469Y15388D01*
X120403Y15454D01*
X120336Y15454D01*
X78624Y10278D02*
X78624Y9579D01*
X78624Y10278D02*
X79057Y10278D01*
X78624Y9945D02*
X78890Y9945D01*
X79137Y10278D02*
X79137Y9579D01*
X79284Y10278D02*
X79284Y9579D01*
X79284Y10278D02*
X79750Y9579D01*
X79750Y10278D02*
X79750Y9579D01*
X79944Y10278D02*
X79944Y9579D01*
X80557Y10178D02*
X80490Y10245D01*
X80390Y10278D01*
X80257Y10278D01*
X80157Y10245D01*
X80090Y10178D01*
X80090Y10112D01*
X80123Y10045D01*
X80157Y10012D01*
X80223Y9979D01*
X80423Y9912D01*
X80490Y9879D01*
X80523Y9845D01*
X80557Y9779D01*
X80557Y9679D01*
X80490Y9612D01*
X80390Y9579D01*
X80257Y9579D01*
X80157Y9612D01*
X80090Y9679D01*
X80713Y10278D02*
X80713Y9579D01*
X81180Y10278D02*
X81180Y9579D01*
X80713Y9945D02*
X81180Y9945D01*
X81407Y10045D02*
X81373Y10012D01*
X81407Y9979D01*
X81440Y10012D01*
X81407Y10045D01*
X81407Y9645D02*
X81373Y9612D01*
X81407Y9579D01*
X81440Y9612D01*
X81407Y9645D01*
X78619Y23362D02*
X78619Y22662D01*
X78619Y23362D02*
X78886Y22662D01*
X79153Y23362D02*
X78886Y22662D01*
X79153Y23362D02*
X79153Y22662D01*
X79886Y22662D02*
X79619Y23362D01*
X79353Y22662D01*
X79453Y22895D02*
X79786Y22895D01*
X80282Y23362D02*
X80282Y22662D01*
X80049Y23362D02*
X80516Y23362D01*
X81032Y23362D02*
X80599Y23362D01*
X80599Y22662D01*
X81032Y22662D01*
X80599Y23029D02*
X80866Y23029D01*
X81149Y23362D02*
X81149Y22662D01*
X81149Y23362D02*
X81449Y23362D01*
X81549Y23329D01*
X81582Y23295D01*
X81615Y23229D01*
X81615Y23162D01*
X81582Y23095D01*
X81549Y23062D01*
X81449Y23029D01*
X81149Y23029D01*
X81382Y23029D02*
X81615Y22662D01*
X81772Y23362D02*
X81772Y22662D01*
X82452Y22662D02*
X82185Y23362D01*
X81919Y22662D01*
X82019Y22895D02*
X82352Y22895D01*
X82615Y23362D02*
X82615Y22662D01*
X83015Y22662D01*
X83125Y23129D02*
X83092Y23095D01*
X83125Y23062D01*
X83158Y23095D01*
X83125Y23129D01*
X83125Y22729D02*
X83092Y22695D01*
X83125Y22662D01*
X83158Y22695D01*
X83125Y22729D01*
X105765Y-10778D02*
X106065Y-10778D01*
X106165Y-10745D01*
X106199Y-10712D01*
X106232Y-10645D01*
X106232Y-10545D01*
X106199Y-10478D01*
X106165Y-10445D01*
X106065Y-10412D01*
X105765Y-10412D01*
X105765Y-11112D01*
X106889Y-10578D02*
X106855Y-10512D01*
X106789Y-10445D01*
X106722Y-10412D01*
X106589Y-10412D01*
X106522Y-10445D01*
X106455Y-10512D01*
X106422Y-10578D01*
X106389Y-10678D01*
X106389Y-10845D01*
X106422Y-10945D01*
X106455Y-11012D01*
X106522Y-11078D01*
X106589Y-11112D01*
X106722Y-11112D01*
X106789Y-11078D01*
X106855Y-11012D01*
X106889Y-10945D01*
X107085Y-10412D02*
X107085Y-11112D01*
X107085Y-10412D02*
X107385Y-10412D01*
X107485Y-10445D01*
X107518Y-10478D01*
X107552Y-10545D01*
X107552Y-10612D01*
X107518Y-10678D01*
X107485Y-10712D01*
X107385Y-10745D01*
X107085Y-10745D02*
X107385Y-10745D01*
X107485Y-10778D01*
X107518Y-10812D01*
X107552Y-10878D01*
X107552Y-10978D01*
X107518Y-11045D01*
X107485Y-11078D01*
X107385Y-11112D01*
X107085Y-11112D01*
X108258Y-10412D02*
X108258Y-11112D01*
X108258Y-10412D02*
X108558Y-10412D01*
X108658Y-10445D01*
X108691Y-10478D01*
X108725Y-10545D01*
X108725Y-10612D01*
X108691Y-10678D01*
X108658Y-10712D01*
X108558Y-10745D01*
X108258Y-10745D01*
X108492Y-10745D02*
X108725Y-11112D01*
X109315Y-10412D02*
X108881Y-10412D01*
X108881Y-11112D01*
X109315Y-11112D01*
X108881Y-10745D02*
X109148Y-10745D01*
X109431Y-10412D02*
X109698Y-11112D01*
X109965Y-10412D02*
X109698Y-11112D01*
X109136Y14019D02*
X109402Y13685D01*
X109402Y13319D01*
X109669Y14019D02*
X109402Y13685D01*
X110192Y14019D02*
X109759Y14019D01*
X109759Y13319D01*
X110192Y13319D01*
X109759Y13685D02*
X110025Y13685D01*
X110775Y13919D02*
X110709Y13985D01*
X110609Y14019D01*
X110475Y14019D01*
X110375Y13985D01*
X110309Y13919D01*
X110309Y13852D01*
X110342Y13785D01*
X110375Y13752D01*
X110442Y13719D01*
X110642Y13652D01*
X110709Y13619D01*
X110742Y13585D01*
X110775Y13519D01*
X110775Y13419D01*
X110709Y13352D01*
X110609Y13319D01*
X110475Y13319D01*
X110375Y13352D01*
X110309Y13419D01*
X115829Y14019D02*
X115829Y13319D01*
X115829Y14019D02*
X116295Y13319D01*
X116295Y14019D02*
X116295Y13319D01*
X116688Y14019D02*
X116622Y13985D01*
X116555Y13919D01*
X116522Y13852D01*
X116488Y13752D01*
X116488Y13585D01*
X116522Y13485D01*
X116555Y13419D01*
X116622Y13352D01*
X116688Y13319D01*
X116822Y13319D01*
X116888Y13352D01*
X116955Y13419D01*
X116988Y13485D01*
X117022Y13585D01*
X117022Y13752D01*
X116988Y13852D01*
X116955Y13919D01*
X116888Y13985D01*
X116822Y14019D01*
X116688Y14019D01*
X79330Y-17214D02*
X79064Y-16514D01*
X78797Y-17214D01*
X78897Y-16981D02*
X79230Y-16981D01*
X79493Y-16514D02*
X79493Y-17214D01*
X79493Y-16514D02*
X79960Y-17214D01*
X79960Y-16514D02*
X79960Y-17214D01*
X80153Y-16514D02*
X80420Y-16847D01*
X80420Y-17214D01*
X80687Y-16514D02*
X80420Y-16847D01*
X81860Y-17214D02*
X81593Y-16514D01*
X81326Y-17214D01*
X81426Y-16981D02*
X81760Y-16981D01*
X82023Y-16514D02*
X82023Y-17214D01*
X82423Y-17214D01*
X82733Y-16514D02*
X82733Y-17214D01*
X82499Y-16514D02*
X82966Y-16514D01*
X83483Y-16514D02*
X83049Y-16514D01*
X83049Y-17214D01*
X83483Y-17214D01*
X83049Y-16847D02*
X83316Y-16847D01*
X83599Y-16514D02*
X83599Y-17214D01*
X83599Y-16514D02*
X83899Y-16514D01*
X83999Y-16547D01*
X84032Y-16581D01*
X84066Y-16647D01*
X84066Y-16714D01*
X84032Y-16781D01*
X83999Y-16814D01*
X83899Y-16847D01*
X83599Y-16847D01*
X83833Y-16847D02*
X84066Y-17214D01*
X84222Y-16514D02*
X84222Y-17214D01*
X84222Y-16514D02*
X84689Y-17214D01*
X84689Y-16514D02*
X84689Y-17214D01*
X85416Y-17214D02*
X85149Y-16514D01*
X84882Y-17214D01*
X84982Y-16981D02*
X85316Y-16981D01*
X85812Y-16514D02*
X85812Y-17214D01*
X85579Y-16514D02*
X86045Y-16514D01*
X86129Y-16514D02*
X86129Y-17214D01*
X86275Y-16514D02*
X86542Y-17214D01*
X86809Y-16514D02*
X86542Y-17214D01*
X87332Y-16514D02*
X86899Y-16514D01*
X86899Y-17214D01*
X87332Y-17214D01*
X86899Y-16847D02*
X87165Y-16847D01*
X87915Y-16614D02*
X87848Y-16547D01*
X87748Y-16514D01*
X87615Y-16514D01*
X87515Y-16547D01*
X87448Y-16614D01*
X87448Y-16681D01*
X87482Y-16747D01*
X87515Y-16781D01*
X87582Y-16814D01*
X87782Y-16881D01*
X87848Y-16914D01*
X87882Y-16947D01*
X87915Y-17014D01*
X87915Y-17114D01*
X87848Y-17181D01*
X87748Y-17214D01*
X87615Y-17214D01*
X87515Y-17181D01*
X87448Y-17114D01*
X88855Y-16514D02*
X88855Y-17214D01*
X88622Y-16514D02*
X89088Y-16514D01*
X89371Y-16514D02*
X89305Y-16547D01*
X89238Y-16614D01*
X89205Y-16681D01*
X89171Y-16781D01*
X89171Y-16947D01*
X89205Y-17047D01*
X89238Y-17114D01*
X89305Y-17181D01*
X89371Y-17214D01*
X89505Y-17214D01*
X89571Y-17181D01*
X89638Y-17114D01*
X89671Y-17047D01*
X89705Y-16947D01*
X89705Y-16781D01*
X89671Y-16681D01*
X89638Y-16614D01*
X89571Y-16547D01*
X89505Y-16514D01*
X89371Y-16514D01*
X90651Y-16514D02*
X90651Y-17214D01*
X90418Y-16514D02*
X90884Y-16514D01*
X90968Y-16514D02*
X90968Y-17214D01*
X91434Y-16514D02*
X91434Y-17214D01*
X90968Y-16847D02*
X91434Y-16847D01*
X92061Y-16514D02*
X91628Y-16514D01*
X91628Y-17214D01*
X92061Y-17214D01*
X91628Y-16847D02*
X91894Y-16847D01*
X93261Y-17214D02*
X92994Y-16514D01*
X92727Y-17214D01*
X92827Y-16981D02*
X93161Y-16981D01*
X93424Y-16514D02*
X93424Y-17214D01*
X93424Y-16514D02*
X93724Y-16514D01*
X93824Y-16547D01*
X93857Y-16581D01*
X93890Y-16647D01*
X93890Y-16714D01*
X93857Y-16781D01*
X93824Y-16814D01*
X93724Y-16847D01*
X93424Y-16847D02*
X93724Y-16847D01*
X93824Y-16881D01*
X93857Y-16914D01*
X93890Y-16981D01*
X93890Y-17081D01*
X93857Y-17147D01*
X93824Y-17181D01*
X93724Y-17214D01*
X93424Y-17214D01*
X94247Y-16514D02*
X94180Y-16547D01*
X94114Y-16614D01*
X94080Y-16681D01*
X94047Y-16781D01*
X94047Y-16947D01*
X94080Y-17047D01*
X94114Y-17114D01*
X94180Y-17181D01*
X94247Y-17214D01*
X94380Y-17214D01*
X94447Y-17181D01*
X94514Y-17114D01*
X94547Y-17047D01*
X94580Y-16947D01*
X94580Y-16781D01*
X94547Y-16681D01*
X94514Y-16614D01*
X94447Y-16547D01*
X94380Y-16514D01*
X94247Y-16514D01*
X94744Y-16514D02*
X95010Y-17214D01*
X95277Y-16514D02*
X95010Y-17214D01*
X95800Y-16514D02*
X95367Y-16514D01*
X95367Y-17214D01*
X95800Y-17214D01*
X95367Y-16847D02*
X95633Y-16847D01*
X96933Y-16614D02*
X96866Y-16547D01*
X96766Y-16514D01*
X96633Y-16514D01*
X96533Y-16547D01*
X96466Y-16614D01*
X96466Y-16681D01*
X96500Y-16747D01*
X96533Y-16781D01*
X96600Y-16814D01*
X96800Y-16881D01*
X96866Y-16914D01*
X96900Y-16947D01*
X96933Y-17014D01*
X96933Y-17114D01*
X96866Y-17181D01*
X96766Y-17214D01*
X96633Y-17214D01*
X96533Y-17181D01*
X96466Y-17114D01*
X97090Y-16881D02*
X97390Y-16881D01*
X97490Y-16847D01*
X97523Y-16814D01*
X97556Y-16747D01*
X97556Y-16647D01*
X97523Y-16581D01*
X97490Y-16547D01*
X97390Y-16514D01*
X97090Y-16514D01*
X97090Y-17214D01*
X98146Y-16514D02*
X97713Y-16514D01*
X97713Y-17214D01*
X98146Y-17214D01*
X97713Y-16847D02*
X97979Y-16847D01*
X98763Y-16681D02*
X98729Y-16614D01*
X98663Y-16547D01*
X98596Y-16514D01*
X98463Y-16514D01*
X98396Y-16547D01*
X98329Y-16614D01*
X98296Y-16681D01*
X98263Y-16781D01*
X98263Y-16947D01*
X98296Y-17047D01*
X98329Y-17114D01*
X98396Y-17181D01*
X98463Y-17214D01*
X98596Y-17214D01*
X98663Y-17181D01*
X98729Y-17114D01*
X98763Y-17047D01*
X98959Y-16514D02*
X98959Y-17214D01*
X99106Y-16514D02*
X99106Y-17214D01*
X99106Y-16514D02*
X99539Y-16514D01*
X99106Y-16847D02*
X99373Y-16847D01*
X99619Y-16514D02*
X99619Y-17214D01*
X100266Y-16681D02*
X100232Y-16614D01*
X100166Y-16547D01*
X100099Y-16514D01*
X99966Y-16514D01*
X99899Y-16547D01*
X99832Y-16614D01*
X99799Y-16681D01*
X99766Y-16781D01*
X99766Y-16947D01*
X99799Y-17047D01*
X99832Y-17114D01*
X99899Y-17181D01*
X99966Y-17214D01*
X100099Y-17214D01*
X100166Y-17181D01*
X100232Y-17114D01*
X100266Y-17047D01*
X100996Y-17214D02*
X100729Y-16514D01*
X100462Y-17214D01*
X100562Y-16981D02*
X100896Y-16981D01*
X101392Y-16514D02*
X101392Y-17214D01*
X101159Y-16514D02*
X101625Y-16514D01*
X101709Y-16514D02*
X101709Y-17214D01*
X102055Y-16514D02*
X101989Y-16547D01*
X101922Y-16614D01*
X101889Y-16681D01*
X101855Y-16781D01*
X101855Y-16947D01*
X101889Y-17047D01*
X101922Y-17114D01*
X101989Y-17181D01*
X102055Y-17214D01*
X102189Y-17214D01*
X102255Y-17181D01*
X102322Y-17114D01*
X102355Y-17047D01*
X102389Y-16947D01*
X102389Y-16781D01*
X102355Y-16681D01*
X102322Y-16614D01*
X102255Y-16547D01*
X102189Y-16514D01*
X102055Y-16514D01*
X102552Y-16514D02*
X102552Y-17214D01*
X102552Y-16514D02*
X103018Y-17214D01*
X103018Y-16514D02*
X103018Y-17214D01*
X103678Y-16614D02*
X103612Y-16547D01*
X103512Y-16514D01*
X103378Y-16514D01*
X103278Y-16547D01*
X103212Y-16614D01*
X103212Y-16681D01*
X103245Y-16747D01*
X103278Y-16781D01*
X103345Y-16814D01*
X103545Y-16881D01*
X103612Y-16914D01*
X103645Y-16947D01*
X103678Y-17014D01*
X103678Y-17114D01*
X103612Y-17181D01*
X103512Y-17214D01*
X103378Y-17214D01*
X103278Y-17181D01*
X103212Y-17114D01*
X104385Y-16514D02*
X104385Y-17214D01*
X104385Y-16514D02*
X104651Y-17214D01*
X104918Y-16514D02*
X104651Y-17214D01*
X104918Y-16514D02*
X104918Y-17214D01*
X105118Y-16514D02*
X105118Y-17014D01*
X105151Y-17114D01*
X105218Y-17181D01*
X105318Y-17214D01*
X105385Y-17214D01*
X105485Y-17181D01*
X105551Y-17114D01*
X105585Y-17014D01*
X105585Y-16514D01*
X106244Y-16614D02*
X106178Y-16547D01*
X106078Y-16514D01*
X105944Y-16514D01*
X105844Y-16547D01*
X105778Y-16614D01*
X105778Y-16681D01*
X105811Y-16747D01*
X105844Y-16781D01*
X105911Y-16814D01*
X106111Y-16881D01*
X106178Y-16914D01*
X106211Y-16947D01*
X106244Y-17014D01*
X106244Y-17114D01*
X106178Y-17181D01*
X106078Y-17214D01*
X105944Y-17214D01*
X105844Y-17181D01*
X105778Y-17114D01*
X106634Y-16514D02*
X106634Y-17214D01*
X106401Y-16514D02*
X106868Y-16514D01*
X107501Y-16514D02*
X107501Y-17214D01*
X107501Y-16514D02*
X107934Y-16514D01*
X107501Y-16847D02*
X107767Y-16847D01*
X108014Y-16514D02*
X108014Y-17214D01*
X108161Y-16514D02*
X108161Y-17214D01*
X108161Y-16514D02*
X108461Y-16514D01*
X108561Y-16547D01*
X108594Y-16581D01*
X108627Y-16647D01*
X108627Y-16714D01*
X108594Y-16781D01*
X108561Y-16814D01*
X108461Y-16847D01*
X108161Y-16847D01*
X108394Y-16847D02*
X108627Y-17214D01*
X109250Y-16614D02*
X109184Y-16547D01*
X109084Y-16514D01*
X108950Y-16514D01*
X108850Y-16547D01*
X108784Y-16614D01*
X108784Y-16681D01*
X108817Y-16747D01*
X108850Y-16781D01*
X108917Y-16814D01*
X109117Y-16881D01*
X109184Y-16914D01*
X109217Y-16947D01*
X109250Y-17014D01*
X109250Y-17114D01*
X109184Y-17181D01*
X109084Y-17214D01*
X108950Y-17214D01*
X108850Y-17181D01*
X108784Y-17114D01*
X109640Y-16514D02*
X109640Y-17214D01*
X109407Y-16514D02*
X109874Y-16514D01*
X110507Y-16514D02*
X110507Y-17214D01*
X110507Y-16514D02*
X110807Y-16514D01*
X110907Y-16547D01*
X110940Y-16581D01*
X110973Y-16647D01*
X110973Y-16714D01*
X110940Y-16781D01*
X110907Y-16814D01*
X110807Y-16847D01*
X110507Y-16847D02*
X110807Y-16847D01*
X110907Y-16881D01*
X110940Y-16914D01*
X110973Y-16981D01*
X110973Y-17081D01*
X110940Y-17147D01*
X110907Y-17181D01*
X110807Y-17214D01*
X110507Y-17214D01*
X111563Y-16514D02*
X111130Y-16514D01*
X111130Y-17214D01*
X111563Y-17214D01*
X111130Y-16847D02*
X111397Y-16847D01*
X112763Y-17214D02*
X112496Y-16514D01*
X112230Y-17214D01*
X112330Y-16981D02*
X112663Y-16981D01*
X112926Y-16881D02*
X113226Y-16881D01*
X113326Y-16847D01*
X113360Y-16814D01*
X113393Y-16747D01*
X113393Y-16647D01*
X113360Y-16581D01*
X113326Y-16547D01*
X113226Y-16514D01*
X112926Y-16514D01*
X112926Y-17214D01*
X113549Y-16881D02*
X113849Y-16881D01*
X113949Y-16847D01*
X113983Y-16814D01*
X114016Y-16747D01*
X114016Y-16647D01*
X113983Y-16581D01*
X113949Y-16547D01*
X113849Y-16514D01*
X113549Y-16514D01*
X113549Y-17214D01*
X114173Y-16514D02*
X114173Y-17214D01*
X114173Y-16514D02*
X114473Y-16514D01*
X114573Y-16547D01*
X114606Y-16581D01*
X114639Y-16647D01*
X114639Y-16714D01*
X114606Y-16781D01*
X114573Y-16814D01*
X114473Y-16847D01*
X114173Y-16847D01*
X114406Y-16847D02*
X114639Y-17214D01*
X114996Y-16514D02*
X114929Y-16547D01*
X114863Y-16614D01*
X114829Y-16681D01*
X114796Y-16781D01*
X114796Y-16947D01*
X114829Y-17047D01*
X114863Y-17114D01*
X114929Y-17181D01*
X114996Y-17214D01*
X115129Y-17214D01*
X115196Y-17181D01*
X115262Y-17114D01*
X115296Y-17047D01*
X115329Y-16947D01*
X115329Y-16781D01*
X115296Y-16681D01*
X115262Y-16614D01*
X115196Y-16547D01*
X115129Y-16514D01*
X114996Y-16514D01*
X115492Y-16514D02*
X115759Y-17214D01*
X116026Y-16514D02*
X115759Y-17214D01*
X116549Y-16514D02*
X116116Y-16514D01*
X116116Y-17214D01*
X116549Y-17214D01*
X116116Y-16847D02*
X116382Y-16847D01*
X116665Y-16514D02*
X116665Y-17214D01*
X116665Y-16514D02*
X116899Y-16514D01*
X116999Y-16547D01*
X117065Y-16614D01*
X117099Y-16681D01*
X117132Y-16781D01*
X117132Y-16947D01*
X117099Y-17047D01*
X117065Y-17114D01*
X116999Y-17181D01*
X116899Y-17214D01*
X116665Y-17214D01*
X117322Y-17147D02*
X117289Y-17181D01*
X117322Y-17214D01*
X117355Y-17181D01*
X117322Y-17147D01*
X79523Y-13646D02*
X79256Y-12946D01*
X78989Y-13646D01*
X79089Y-13413D02*
X79423Y-13413D01*
X79686Y-12946D02*
X79686Y-13646D01*
X80086Y-13646D01*
X80163Y-12946D02*
X80163Y-13646D01*
X80562Y-13646D01*
X81189Y-12946D02*
X81189Y-13446D01*
X81222Y-13546D01*
X81289Y-13613D01*
X81389Y-13646D01*
X81456Y-13646D01*
X81556Y-13613D01*
X81622Y-13546D01*
X81656Y-13446D01*
X81656Y-12946D01*
X81849Y-12946D02*
X81849Y-13646D01*
X82249Y-13646D01*
X82875Y-12946D02*
X82875Y-13646D01*
X83275Y-13646D01*
X83552Y-12946D02*
X83485Y-12980D01*
X83419Y-13046D01*
X83385Y-13113D01*
X83352Y-13213D01*
X83352Y-13380D01*
X83385Y-13480D01*
X83419Y-13546D01*
X83485Y-13613D01*
X83552Y-13646D01*
X83685Y-13646D01*
X83752Y-13613D01*
X83818Y-13546D01*
X83852Y-13480D01*
X83885Y-13380D01*
X83885Y-13213D01*
X83852Y-13113D01*
X83818Y-13046D01*
X83752Y-12980D01*
X83685Y-12946D01*
X83552Y-12946D01*
X84548Y-13113D02*
X84515Y-13046D01*
X84448Y-12980D01*
X84382Y-12946D01*
X84248Y-12946D01*
X84182Y-12980D01*
X84115Y-13046D01*
X84082Y-13113D01*
X84048Y-13213D01*
X84048Y-13380D01*
X84082Y-13480D01*
X84115Y-13546D01*
X84182Y-13613D01*
X84248Y-13646D01*
X84382Y-13646D01*
X84448Y-13613D01*
X84515Y-13546D01*
X84548Y-13480D01*
X84548Y-13380D01*
X84382Y-13380D02*
X84548Y-13380D01*
X84908Y-12946D02*
X84842Y-12980D01*
X84775Y-13046D01*
X84742Y-13113D01*
X84708Y-13213D01*
X84708Y-13380D01*
X84742Y-13480D01*
X84775Y-13546D01*
X84842Y-13613D01*
X84908Y-13646D01*
X85042Y-13646D01*
X85108Y-13613D01*
X85175Y-13546D01*
X85208Y-13480D01*
X85241Y-13380D01*
X85241Y-13213D01*
X85208Y-13113D01*
X85175Y-13046D01*
X85108Y-12980D01*
X85042Y-12946D01*
X84908Y-12946D01*
X85471Y-13613D02*
X85438Y-13646D01*
X85405Y-13613D01*
X85438Y-13580D01*
X85471Y-13613D01*
X85471Y-13680D01*
X85438Y-13746D01*
X85405Y-13780D01*
X86175Y-12946D02*
X86175Y-13646D01*
X86175Y-12946D02*
X86441Y-13646D01*
X86708Y-12946D02*
X86441Y-13646D01*
X86708Y-12946D02*
X86708Y-13646D01*
X87441Y-13646D02*
X87174Y-12946D01*
X86908Y-13646D01*
X87008Y-13413D02*
X87341Y-13413D01*
X87604Y-12946D02*
X87604Y-13646D01*
X87604Y-12946D02*
X88071Y-13646D01*
X88071Y-12946D02*
X88071Y-13646D01*
X88264Y-12946D02*
X88264Y-13446D01*
X88297Y-13546D01*
X88364Y-13613D01*
X88464Y-13646D01*
X88531Y-13646D01*
X88631Y-13613D01*
X88697Y-13546D01*
X88731Y-13446D01*
X88731Y-12946D01*
X88924Y-12946D02*
X88924Y-13646D01*
X88924Y-12946D02*
X89357Y-12946D01*
X88924Y-13280D02*
X89191Y-13280D01*
X89970Y-13646D02*
X89704Y-12946D01*
X89437Y-13646D01*
X89537Y-13413D02*
X89870Y-13413D01*
X90634Y-13113D02*
X90600Y-13046D01*
X90534Y-12980D01*
X90467Y-12946D01*
X90334Y-12946D01*
X90267Y-12980D01*
X90200Y-13046D01*
X90167Y-13113D01*
X90134Y-13213D01*
X90134Y-13380D01*
X90167Y-13480D01*
X90200Y-13546D01*
X90267Y-13613D01*
X90334Y-13646D01*
X90467Y-13646D01*
X90534Y-13613D01*
X90600Y-13546D01*
X90634Y-13480D01*
X91064Y-12946D02*
X91064Y-13646D01*
X90830Y-12946D02*
X91297Y-12946D01*
X91380Y-12946D02*
X91380Y-13446D01*
X91413Y-13546D01*
X91480Y-13613D01*
X91580Y-13646D01*
X91647Y-13646D01*
X91747Y-13613D01*
X91813Y-13546D01*
X91847Y-13446D01*
X91847Y-12946D01*
X92040Y-12946D02*
X92040Y-13646D01*
X92040Y-12946D02*
X92340Y-12946D01*
X92440Y-12980D01*
X92473Y-13013D01*
X92507Y-13080D01*
X92507Y-13146D01*
X92473Y-13213D01*
X92440Y-13246D01*
X92340Y-13280D01*
X92040Y-13280D01*
X92273Y-13280D02*
X92507Y-13646D01*
X93096Y-12946D02*
X92663Y-12946D01*
X92663Y-13646D01*
X93096Y-13646D01*
X92663Y-13280D02*
X92930Y-13280D01*
X93213Y-12946D02*
X93213Y-13646D01*
X93213Y-12946D02*
X93513Y-12946D01*
X93613Y-12980D01*
X93646Y-13013D01*
X93680Y-13080D01*
X93680Y-13146D01*
X93646Y-13213D01*
X93613Y-13246D01*
X93513Y-13280D01*
X93213Y-13280D01*
X93446Y-13280D02*
X93680Y-13646D01*
X93870Y-13013D02*
X93836Y-12980D01*
X93870Y-12946D01*
X93903Y-12980D01*
X93903Y-13046D01*
X93870Y-13113D01*
X93836Y-13146D01*
X94523Y-13046D02*
X94456Y-12980D01*
X94356Y-12946D01*
X94223Y-12946D01*
X94123Y-12980D01*
X94056Y-13046D01*
X94056Y-13113D01*
X94090Y-13180D01*
X94123Y-13213D01*
X94190Y-13246D01*
X94389Y-13313D01*
X94456Y-13346D01*
X94489Y-13380D01*
X94523Y-13446D01*
X94523Y-13546D01*
X94456Y-13613D01*
X94356Y-13646D01*
X94223Y-13646D01*
X94123Y-13613D01*
X94056Y-13546D01*
X95229Y-12946D02*
X95229Y-13646D01*
X95376Y-12946D02*
X95376Y-13646D01*
X95376Y-12946D02*
X95609Y-12946D01*
X95709Y-12980D01*
X95776Y-13046D01*
X95809Y-13113D01*
X95843Y-13213D01*
X95843Y-13380D01*
X95809Y-13480D01*
X95776Y-13546D01*
X95709Y-13613D01*
X95609Y-13646D01*
X95376Y-13646D01*
X96066Y-13613D02*
X96032Y-13646D01*
X95999Y-13613D01*
X96032Y-13580D01*
X96066Y-13613D01*
X96066Y-13680D01*
X96032Y-13746D01*
X95999Y-13780D01*
X97302Y-13646D02*
X97036Y-12946D01*
X96769Y-13646D01*
X96869Y-13413D02*
X97202Y-13413D01*
X97465Y-12946D02*
X97465Y-13646D01*
X97465Y-12946D02*
X97932Y-13646D01*
X97932Y-12946D02*
X97932Y-13646D01*
X98125Y-12946D02*
X98125Y-13646D01*
X98125Y-12946D02*
X98359Y-12946D01*
X98459Y-12980D01*
X98525Y-13046D01*
X98559Y-13113D01*
X98592Y-13213D01*
X98592Y-13380D01*
X98559Y-13480D01*
X98525Y-13546D01*
X98459Y-13613D01*
X98359Y-13646D01*
X98125Y-13646D01*
X99298Y-12946D02*
X99298Y-13646D01*
X99298Y-12946D02*
X99532Y-12946D01*
X99632Y-12980D01*
X99698Y-13046D01*
X99732Y-13113D01*
X99765Y-13213D01*
X99765Y-13380D01*
X99732Y-13480D01*
X99698Y-13546D01*
X99632Y-13613D01*
X99532Y-13646D01*
X99298Y-13646D01*
X100455Y-13646D02*
X100188Y-12946D01*
X99922Y-13646D01*
X100022Y-13413D02*
X100355Y-13413D01*
X100851Y-12946D02*
X100851Y-13646D01*
X100618Y-12946D02*
X101085Y-12946D01*
X101601Y-12946D02*
X101168Y-12946D01*
X101168Y-13646D01*
X101601Y-13646D01*
X101168Y-13280D02*
X101435Y-13280D01*
X102768Y-13113D02*
X102734Y-13046D01*
X102668Y-12980D01*
X102601Y-12946D01*
X102468Y-12946D01*
X102401Y-12980D01*
X102334Y-13046D01*
X102301Y-13113D01*
X102268Y-13213D01*
X102268Y-13380D01*
X102301Y-13480D01*
X102334Y-13546D01*
X102401Y-13613D01*
X102468Y-13646D01*
X102601Y-13646D01*
X102668Y-13613D01*
X102734Y-13546D01*
X102768Y-13480D01*
X103164Y-12946D02*
X103098Y-12980D01*
X103031Y-13046D01*
X102998Y-13113D01*
X102964Y-13213D01*
X102964Y-13380D01*
X102998Y-13480D01*
X103031Y-13546D01*
X103098Y-13613D01*
X103164Y-13646D01*
X103298Y-13646D01*
X103364Y-13613D01*
X103431Y-13546D01*
X103464Y-13480D01*
X103498Y-13380D01*
X103498Y-13213D01*
X103464Y-13113D01*
X103431Y-13046D01*
X103364Y-12980D01*
X103298Y-12946D01*
X103164Y-12946D01*
X103661Y-12946D02*
X103661Y-13646D01*
X103661Y-12946D02*
X103894Y-12946D01*
X103994Y-12980D01*
X104061Y-13046D01*
X104094Y-13113D01*
X104127Y-13213D01*
X104127Y-13380D01*
X104094Y-13480D01*
X104061Y-13546D01*
X103994Y-13613D01*
X103894Y-13646D01*
X103661Y-13646D01*
X104717Y-12946D02*
X104284Y-12946D01*
X104284Y-13646D01*
X104717Y-13646D01*
X104284Y-13280D02*
X104551Y-13280D01*
X105300Y-13046D02*
X105234Y-12980D01*
X105134Y-12946D01*
X105001Y-12946D01*
X104901Y-12980D01*
X104834Y-13046D01*
X104834Y-13113D01*
X104867Y-13180D01*
X104901Y-13213D01*
X104967Y-13246D01*
X105167Y-13313D01*
X105234Y-13346D01*
X105267Y-13380D01*
X105300Y-13446D01*
X105300Y-13546D01*
X105234Y-13613D01*
X105134Y-13646D01*
X105001Y-13646D01*
X104901Y-13613D01*
X104834Y-13546D01*
X106474Y-13046D02*
X106407Y-12980D01*
X106307Y-12946D01*
X106174Y-12946D01*
X106074Y-12980D01*
X106007Y-13046D01*
X106007Y-13113D01*
X106040Y-13180D01*
X106074Y-13213D01*
X106140Y-13246D01*
X106340Y-13313D01*
X106407Y-13346D01*
X106440Y-13380D01*
X106474Y-13446D01*
X106474Y-13546D01*
X106407Y-13613D01*
X106307Y-13646D01*
X106174Y-13646D01*
X106074Y-13613D01*
X106007Y-13546D01*
X106630Y-12946D02*
X106630Y-13646D01*
X107097Y-12946D02*
X107097Y-13646D01*
X106630Y-13280D02*
X107097Y-13280D01*
X107823Y-13646D02*
X107557Y-12946D01*
X107290Y-13646D01*
X107390Y-13413D02*
X107723Y-13413D01*
X107987Y-12946D02*
X107987Y-13646D01*
X108386Y-13646D01*
X108463Y-12946D02*
X108463Y-13646D01*
X108863Y-13646D01*
X109490Y-12946D02*
X109490Y-13646D01*
X109490Y-12946D02*
X109790Y-12946D01*
X109889Y-12980D01*
X109923Y-13013D01*
X109956Y-13080D01*
X109956Y-13146D01*
X109923Y-13213D01*
X109889Y-13246D01*
X109790Y-13280D01*
X109490Y-13280D02*
X109790Y-13280D01*
X109889Y-13313D01*
X109923Y-13346D01*
X109956Y-13413D01*
X109956Y-13513D01*
X109923Y-13580D01*
X109889Y-13613D01*
X109790Y-13646D01*
X109490Y-13646D01*
X110546Y-12946D02*
X110113Y-12946D01*
X110113Y-13646D01*
X110546Y-13646D01*
X110113Y-13280D02*
X110379Y-13280D01*
X111213Y-13313D02*
X111512Y-13313D01*
X111612Y-13280D01*
X111646Y-13246D01*
X111679Y-13180D01*
X111679Y-13080D01*
X111646Y-13013D01*
X111612Y-12980D01*
X111512Y-12946D01*
X111213Y-12946D01*
X111213Y-13646D01*
X111836Y-12946D02*
X111836Y-13646D01*
X112236Y-13646D01*
X112846Y-13646D02*
X112579Y-12946D01*
X112312Y-13646D01*
X112412Y-13413D02*
X112746Y-13413D01*
X113509Y-13113D02*
X113475Y-13046D01*
X113409Y-12980D01*
X113342Y-12946D01*
X113209Y-12946D01*
X113142Y-12980D01*
X113075Y-13046D01*
X113042Y-13113D01*
X113009Y-13213D01*
X113009Y-13380D01*
X113042Y-13480D01*
X113075Y-13546D01*
X113142Y-13613D01*
X113209Y-13646D01*
X113342Y-13646D01*
X113409Y-13613D01*
X113475Y-13546D01*
X113509Y-13480D01*
X114139Y-12946D02*
X113705Y-12946D01*
X113705Y-13646D01*
X114139Y-13646D01*
X113705Y-13280D02*
X113972Y-13280D01*
X114255Y-12946D02*
X114255Y-13646D01*
X114255Y-12946D02*
X114489Y-12946D01*
X114588Y-12980D01*
X114655Y-13046D01*
X114688Y-13113D01*
X114722Y-13213D01*
X114722Y-13380D01*
X114688Y-13480D01*
X114655Y-13546D01*
X114588Y-13613D01*
X114489Y-13646D01*
X114255Y-13646D01*
X79189Y-14446D02*
X79123Y-14480D01*
X79056Y-14546D01*
X79023Y-14613D01*
X78989Y-14713D01*
X78989Y-14880D01*
X79023Y-14980D01*
X79056Y-15046D01*
X79123Y-15113D01*
X79189Y-15146D01*
X79323Y-15146D01*
X79389Y-15113D01*
X79456Y-15046D01*
X79489Y-14980D01*
X79523Y-14880D01*
X79523Y-14713D01*
X79489Y-14613D01*
X79456Y-14546D01*
X79389Y-14480D01*
X79323Y-14446D01*
X79189Y-14446D01*
X79686Y-14446D02*
X79686Y-15146D01*
X79686Y-14446D02*
X80153Y-15146D01*
X80153Y-14446D02*
X80153Y-15146D01*
X81129Y-14446D02*
X81129Y-15146D01*
X80896Y-14446D02*
X81362Y-14446D01*
X81446Y-14446D02*
X81446Y-15146D01*
X81912Y-14446D02*
X81912Y-15146D01*
X81446Y-14780D02*
X81912Y-14780D01*
X82539Y-14446D02*
X82105Y-14446D01*
X82105Y-15146D01*
X82539Y-15146D01*
X82105Y-14780D02*
X82372Y-14780D01*
X83205Y-14446D02*
X83205Y-15146D01*
X83205Y-14446D02*
X83505Y-14446D01*
X83605Y-14480D01*
X83638Y-14513D01*
X83672Y-14580D01*
X83672Y-14646D01*
X83638Y-14713D01*
X83605Y-14746D01*
X83505Y-14780D01*
X83205Y-14780D02*
X83505Y-14780D01*
X83605Y-14813D01*
X83638Y-14846D01*
X83672Y-14913D01*
X83672Y-15013D01*
X83638Y-15080D01*
X83605Y-15113D01*
X83505Y-15146D01*
X83205Y-15146D01*
X84028Y-14446D02*
X83962Y-14480D01*
X83895Y-14546D01*
X83862Y-14613D01*
X83828Y-14713D01*
X83828Y-14880D01*
X83862Y-14980D01*
X83895Y-15046D01*
X83962Y-15113D01*
X84028Y-15146D01*
X84162Y-15146D01*
X84228Y-15113D01*
X84295Y-15046D01*
X84328Y-14980D01*
X84362Y-14880D01*
X84362Y-14713D01*
X84328Y-14613D01*
X84295Y-14546D01*
X84228Y-14480D01*
X84162Y-14446D01*
X84028Y-14446D01*
X84758Y-14446D02*
X84758Y-15146D01*
X84525Y-14446D02*
X84992Y-14446D01*
X85308Y-14446D02*
X85308Y-15146D01*
X85075Y-14446D02*
X85541Y-14446D01*
X85825Y-14446D02*
X85758Y-14480D01*
X85691Y-14546D01*
X85658Y-14613D01*
X85625Y-14713D01*
X85625Y-14880D01*
X85658Y-14980D01*
X85691Y-15046D01*
X85758Y-15113D01*
X85825Y-15146D01*
X85958Y-15146D01*
X86025Y-15113D01*
X86091Y-15046D01*
X86125Y-14980D01*
X86158Y-14880D01*
X86158Y-14713D01*
X86125Y-14613D01*
X86091Y-14546D01*
X86025Y-14480D01*
X85958Y-14446D01*
X85825Y-14446D01*
X86321Y-14446D02*
X86321Y-15146D01*
X86321Y-14446D02*
X86588Y-15146D01*
X86854Y-14446D02*
X86588Y-15146D01*
X86854Y-14446D02*
X86854Y-15146D01*
X88071Y-14546D02*
X88004Y-14480D01*
X87904Y-14446D01*
X87771Y-14446D01*
X87671Y-14480D01*
X87604Y-14546D01*
X87604Y-14613D01*
X87638Y-14680D01*
X87671Y-14713D01*
X87738Y-14746D01*
X87938Y-14813D01*
X88004Y-14846D01*
X88038Y-14880D01*
X88071Y-14946D01*
X88071Y-15046D01*
X88004Y-15113D01*
X87904Y-15146D01*
X87771Y-15146D01*
X87671Y-15113D01*
X87604Y-15046D01*
X88227Y-14446D02*
X88227Y-15146D01*
X88374Y-14446D02*
X88374Y-15146D01*
X88374Y-14446D02*
X88607Y-14446D01*
X88707Y-14480D01*
X88774Y-14546D01*
X88807Y-14613D01*
X88841Y-14713D01*
X88841Y-14880D01*
X88807Y-14980D01*
X88774Y-15046D01*
X88707Y-15113D01*
X88607Y-15146D01*
X88374Y-15146D01*
X89431Y-14446D02*
X88997Y-14446D01*
X88997Y-15146D01*
X89431Y-15146D01*
X88997Y-14780D02*
X89264Y-14780D01*
X90097Y-14446D02*
X90097Y-14946D01*
X90130Y-15046D01*
X90197Y-15113D01*
X90297Y-15146D01*
X90364Y-15146D01*
X90464Y-15113D01*
X90530Y-15046D01*
X90564Y-14946D01*
X90564Y-14446D01*
X90757Y-14446D02*
X90757Y-15146D01*
X90757Y-14446D02*
X91223Y-15146D01*
X91223Y-14446D02*
X91223Y-15146D01*
X91417Y-14446D02*
X91417Y-15146D01*
X91817Y-15146D01*
X92327Y-14446D02*
X91893Y-14446D01*
X91893Y-15146D01*
X92327Y-15146D01*
X91893Y-14780D02*
X92160Y-14780D01*
X92910Y-14546D02*
X92843Y-14480D01*
X92743Y-14446D01*
X92610Y-14446D01*
X92510Y-14480D01*
X92443Y-14546D01*
X92443Y-14613D01*
X92477Y-14680D01*
X92510Y-14713D01*
X92577Y-14746D01*
X92776Y-14813D01*
X92843Y-14846D01*
X92876Y-14880D01*
X92910Y-14946D01*
X92910Y-15046D01*
X92843Y-15113D01*
X92743Y-15146D01*
X92610Y-15146D01*
X92510Y-15113D01*
X92443Y-15046D01*
X93533Y-14546D02*
X93466Y-14480D01*
X93366Y-14446D01*
X93233Y-14446D01*
X93133Y-14480D01*
X93066Y-14546D01*
X93066Y-14613D01*
X93100Y-14680D01*
X93133Y-14713D01*
X93200Y-14746D01*
X93400Y-14813D01*
X93466Y-14846D01*
X93500Y-14880D01*
X93533Y-14946D01*
X93533Y-15046D01*
X93466Y-15113D01*
X93366Y-15146D01*
X93233Y-15146D01*
X93133Y-15113D01*
X93066Y-15046D01*
X94439Y-14446D02*
X94373Y-14480D01*
X94306Y-14546D01*
X94273Y-14613D01*
X94240Y-14713D01*
X94240Y-14880D01*
X94273Y-14980D01*
X94306Y-15046D01*
X94373Y-15113D01*
X94439Y-15146D01*
X94573Y-15146D01*
X94639Y-15113D01*
X94706Y-15046D01*
X94739Y-14980D01*
X94773Y-14880D01*
X94773Y-14713D01*
X94739Y-14613D01*
X94706Y-14546D01*
X94639Y-14480D01*
X94573Y-14446D01*
X94439Y-14446D01*
X95169Y-14446D02*
X95169Y-15146D01*
X94936Y-14446D02*
X95403Y-14446D01*
X95486Y-14446D02*
X95486Y-15146D01*
X95952Y-14446D02*
X95952Y-15146D01*
X95486Y-14780D02*
X95952Y-14780D01*
X96579Y-14446D02*
X96146Y-14446D01*
X96146Y-15146D01*
X96579Y-15146D01*
X96146Y-14780D02*
X96412Y-14780D01*
X96696Y-14446D02*
X96696Y-15146D01*
X96696Y-14446D02*
X96996Y-14446D01*
X97096Y-14480D01*
X97129Y-14513D01*
X97162Y-14580D01*
X97162Y-14646D01*
X97129Y-14713D01*
X97096Y-14746D01*
X96996Y-14780D01*
X96696Y-14780D01*
X96929Y-14780D02*
X97162Y-15146D01*
X97319Y-14446D02*
X97485Y-15146D01*
X97652Y-14446D02*
X97485Y-15146D01*
X97652Y-14446D02*
X97819Y-15146D01*
X97985Y-14446D02*
X97819Y-15146D01*
X98125Y-14446D02*
X98125Y-15146D01*
X98739Y-14546D02*
X98672Y-14480D01*
X98572Y-14446D01*
X98439Y-14446D01*
X98339Y-14480D01*
X98272Y-14546D01*
X98272Y-14613D01*
X98305Y-14680D01*
X98339Y-14713D01*
X98405Y-14746D01*
X98605Y-14813D01*
X98672Y-14846D01*
X98705Y-14880D01*
X98739Y-14946D01*
X98739Y-15046D01*
X98672Y-15113D01*
X98572Y-15146D01*
X98439Y-15146D01*
X98339Y-15113D01*
X98272Y-15046D01*
X99328Y-14446D02*
X98895Y-14446D01*
X98895Y-15146D01*
X99328Y-15146D01*
X98895Y-14780D02*
X99162Y-14780D01*
X99995Y-14446D02*
X99995Y-15146D01*
X100142Y-14446D02*
X100142Y-15146D01*
X100142Y-14446D02*
X100608Y-15146D01*
X100608Y-14446D02*
X100608Y-15146D01*
X100801Y-14446D02*
X100801Y-15146D01*
X100801Y-14446D02*
X101035Y-14446D01*
X101135Y-14480D01*
X101201Y-14546D01*
X101235Y-14613D01*
X101268Y-14713D01*
X101268Y-14880D01*
X101235Y-14980D01*
X101201Y-15046D01*
X101135Y-15113D01*
X101035Y-15146D01*
X100801Y-15146D01*
X101425Y-14446D02*
X101425Y-15146D01*
X102071Y-14613D02*
X102038Y-14546D01*
X101971Y-14480D01*
X101905Y-14446D01*
X101771Y-14446D01*
X101705Y-14480D01*
X101638Y-14546D01*
X101605Y-14613D01*
X101571Y-14713D01*
X101571Y-14880D01*
X101605Y-14980D01*
X101638Y-15046D01*
X101705Y-15113D01*
X101771Y-15146D01*
X101905Y-15146D01*
X101971Y-15113D01*
X102038Y-15046D01*
X102071Y-14980D01*
X102801Y-15146D02*
X102534Y-14446D01*
X102268Y-15146D01*
X102368Y-14913D02*
X102701Y-14913D01*
X103198Y-14446D02*
X103198Y-15146D01*
X102964Y-14446D02*
X103431Y-14446D01*
X103947Y-14446D02*
X103514Y-14446D01*
X103514Y-15146D01*
X103947Y-15146D01*
X103514Y-14780D02*
X103781Y-14780D01*
X104064Y-14446D02*
X104064Y-15146D01*
X104064Y-14446D02*
X104297Y-14446D01*
X104397Y-14480D01*
X104464Y-14546D01*
X104497Y-14613D01*
X104531Y-14713D01*
X104531Y-14880D01*
X104497Y-14980D01*
X104464Y-15046D01*
X104397Y-15113D01*
X104297Y-15146D01*
X104064Y-15146D01*
X104721Y-15080D02*
X104687Y-15113D01*
X104721Y-15146D01*
X104754Y-15113D01*
X104721Y-15080D01*
X78989Y-10446D02*
X78989Y-10946D01*
X79023Y-11046D01*
X79089Y-11113D01*
X79189Y-11146D01*
X79256Y-11146D01*
X79356Y-11113D01*
X79423Y-11046D01*
X79456Y-10946D01*
X79456Y-10446D01*
X80116Y-10546D02*
X80049Y-10480D01*
X79949Y-10446D01*
X79816Y-10446D01*
X79716Y-10480D01*
X79649Y-10546D01*
X79649Y-10613D01*
X79683Y-10680D01*
X79716Y-10713D01*
X79783Y-10746D01*
X79983Y-10813D01*
X80049Y-10846D01*
X80083Y-10880D01*
X80116Y-10946D01*
X80116Y-11046D01*
X80049Y-11113D01*
X79949Y-11146D01*
X79816Y-11146D01*
X79716Y-11113D01*
X79649Y-11046D01*
X80706Y-10446D02*
X80273Y-10446D01*
X80273Y-11146D01*
X80706Y-11146D01*
X80273Y-10780D02*
X80539Y-10780D01*
X81905Y-11146D02*
X81639Y-10446D01*
X81372Y-11146D01*
X81472Y-10913D02*
X81806Y-10913D01*
X82069Y-10446D02*
X82069Y-11146D01*
X82069Y-10446D02*
X82369Y-10446D01*
X82469Y-10480D01*
X82502Y-10513D01*
X82535Y-10580D01*
X82535Y-10646D01*
X82502Y-10713D01*
X82469Y-10746D01*
X82369Y-10780D01*
X82069Y-10780D01*
X82302Y-10780D02*
X82535Y-11146D01*
X82925Y-10446D02*
X82925Y-11146D01*
X82692Y-10446D02*
X83159Y-10446D01*
X83242Y-10446D02*
X83409Y-11146D01*
X83575Y-10446D02*
X83409Y-11146D01*
X83575Y-10446D02*
X83742Y-11146D01*
X83908Y-10446D02*
X83742Y-11146D01*
X84248Y-10446D02*
X84182Y-10480D01*
X84115Y-10546D01*
X84082Y-10613D01*
X84048Y-10713D01*
X84048Y-10880D01*
X84082Y-10980D01*
X84115Y-11046D01*
X84182Y-11113D01*
X84248Y-11146D01*
X84382Y-11146D01*
X84448Y-11113D01*
X84515Y-11046D01*
X84548Y-10980D01*
X84582Y-10880D01*
X84582Y-10713D01*
X84548Y-10613D01*
X84515Y-10546D01*
X84448Y-10480D01*
X84382Y-10446D01*
X84248Y-10446D01*
X84745Y-10446D02*
X84745Y-11146D01*
X84745Y-10446D02*
X85045Y-10446D01*
X85145Y-10480D01*
X85178Y-10513D01*
X85211Y-10580D01*
X85211Y-10646D01*
X85178Y-10713D01*
X85145Y-10746D01*
X85045Y-10780D01*
X84745Y-10780D01*
X84978Y-10780D02*
X85211Y-11146D01*
X85368Y-10446D02*
X85368Y-11146D01*
X85835Y-10446D02*
X85368Y-10913D01*
X85535Y-10746D02*
X85835Y-11146D01*
X87008Y-10546D02*
X86941Y-10480D01*
X86841Y-10446D01*
X86708Y-10446D01*
X86608Y-10480D01*
X86541Y-10546D01*
X86541Y-10613D01*
X86574Y-10680D01*
X86608Y-10713D01*
X86674Y-10746D01*
X86874Y-10813D01*
X86941Y-10846D01*
X86974Y-10880D01*
X87008Y-10946D01*
X87008Y-11046D01*
X86941Y-11113D01*
X86841Y-11146D01*
X86708Y-11146D01*
X86608Y-11113D01*
X86541Y-11046D01*
X87598Y-10446D02*
X87164Y-10446D01*
X87164Y-11146D01*
X87598Y-11146D01*
X87164Y-10780D02*
X87431Y-10780D01*
X87948Y-10446D02*
X87948Y-11146D01*
X87714Y-10446D02*
X88181Y-10446D01*
X88814Y-10446D02*
X88814Y-11146D01*
X88814Y-10446D02*
X89281Y-11146D01*
X89281Y-10446D02*
X89281Y-11146D01*
X89674Y-10446D02*
X89607Y-10480D01*
X89541Y-10546D01*
X89507Y-10613D01*
X89474Y-10713D01*
X89474Y-10880D01*
X89507Y-10980D01*
X89541Y-11046D01*
X89607Y-11113D01*
X89674Y-11146D01*
X89807Y-11146D01*
X89874Y-11113D01*
X89940Y-11046D01*
X89974Y-10980D01*
X90007Y-10880D01*
X90007Y-10713D01*
X89974Y-10613D01*
X89940Y-10546D01*
X89874Y-10480D01*
X89807Y-10446D01*
X89674Y-10446D01*
X90204Y-11080D02*
X90170Y-11113D01*
X90204Y-11146D01*
X90237Y-11113D01*
X90204Y-11080D01*
X87086Y-1648D02*
X87019Y-1581D01*
X86919Y-1548D01*
X86786Y-1548D01*
X86686Y-1581D01*
X86619Y-1648D01*
X86619Y-1714D01*
X86653Y-1781D01*
X86686Y-1814D01*
X86753Y-1847D01*
X86953Y-1914D01*
X87019Y-1947D01*
X87053Y-1981D01*
X87086Y-2047D01*
X87086Y-2147D01*
X87019Y-2214D01*
X86919Y-2247D01*
X86786Y-2247D01*
X86686Y-2214D01*
X86619Y-2147D01*
X87443Y-1548D02*
X87376Y-1581D01*
X87309Y-1648D01*
X87276Y-1714D01*
X87243Y-1814D01*
X87243Y-1981D01*
X87276Y-2081D01*
X87309Y-2147D01*
X87376Y-2214D01*
X87443Y-2247D01*
X87576Y-2247D01*
X87643Y-2214D01*
X87709Y-2147D01*
X87743Y-2081D01*
X87776Y-1981D01*
X87776Y-1814D01*
X87743Y-1714D01*
X87709Y-1648D01*
X87643Y-1581D01*
X87576Y-1548D01*
X87443Y-1548D01*
X87939Y-1548D02*
X87939Y-2247D01*
X88339Y-2247D01*
X88416Y-1548D02*
X88416Y-2247D01*
X88416Y-1548D02*
X88649Y-1548D01*
X88749Y-1581D01*
X88816Y-1648D01*
X88849Y-1714D01*
X88882Y-1814D01*
X88882Y-1981D01*
X88849Y-2081D01*
X88816Y-2147D01*
X88749Y-2214D01*
X88649Y-2247D01*
X88416Y-2247D01*
X89472Y-1548D02*
X89039Y-1548D01*
X89039Y-2247D01*
X89472Y-2247D01*
X89039Y-1881D02*
X89306Y-1881D01*
X89589Y-1548D02*
X89589Y-2247D01*
X89589Y-1548D02*
X89889Y-1548D01*
X89989Y-1581D01*
X90022Y-1614D01*
X90055Y-1681D01*
X90055Y-1747D01*
X90022Y-1814D01*
X89989Y-1847D01*
X89889Y-1881D01*
X89589Y-1881D01*
X89822Y-1881D02*
X90055Y-2247D01*
X90212Y-1548D02*
X90212Y-2247D01*
X90212Y-1548D02*
X90479Y-2247D01*
X90745Y-1548D02*
X90479Y-2247D01*
X90745Y-1548D02*
X90745Y-2247D01*
X91478Y-2247D02*
X91212Y-1548D01*
X90945Y-2247D01*
X91045Y-2014D02*
X91378Y-2014D01*
X92108Y-1648D02*
X92042Y-1581D01*
X91942Y-1548D01*
X91808Y-1548D01*
X91708Y-1581D01*
X91642Y-1648D01*
X91642Y-1714D01*
X91675Y-1781D01*
X91708Y-1814D01*
X91775Y-1847D01*
X91975Y-1914D01*
X92042Y-1947D01*
X92075Y-1981D01*
X92108Y-2047D01*
X92108Y-2147D01*
X92042Y-2214D01*
X91942Y-2247D01*
X91808Y-2247D01*
X91708Y-2214D01*
X91642Y-2147D01*
X92265Y-1548D02*
X92265Y-2247D01*
X92731Y-1548D02*
X92265Y-2014D01*
X92432Y-1847D02*
X92731Y-2247D01*
X93938Y-1714D02*
X93905Y-1648D01*
X93838Y-1581D01*
X93771Y-1548D01*
X93638Y-1548D01*
X93571Y-1581D01*
X93505Y-1648D01*
X93471Y-1714D01*
X93438Y-1814D01*
X93438Y-1981D01*
X93471Y-2081D01*
X93505Y-2147D01*
X93571Y-2214D01*
X93638Y-2247D01*
X93771Y-2247D01*
X93838Y-2214D01*
X93905Y-2147D01*
X93938Y-2081D01*
X94334Y-1548D02*
X94268Y-1581D01*
X94201Y-1648D01*
X94168Y-1714D01*
X94135Y-1814D01*
X94135Y-1981D01*
X94168Y-2081D01*
X94201Y-2147D01*
X94268Y-2214D01*
X94334Y-2247D01*
X94468Y-2247D01*
X94534Y-2214D01*
X94601Y-2147D01*
X94634Y-2081D01*
X94668Y-1981D01*
X94668Y-1814D01*
X94634Y-1714D01*
X94601Y-1648D01*
X94534Y-1581D01*
X94468Y-1548D01*
X94334Y-1548D01*
X94831Y-1548D02*
X94831Y-2247D01*
X95231Y-2247D01*
X95508Y-1548D02*
X95441Y-1581D01*
X95374Y-1648D01*
X95341Y-1714D01*
X95308Y-1814D01*
X95308Y-1981D01*
X95341Y-2081D01*
X95374Y-2147D01*
X95441Y-2214D01*
X95508Y-2247D01*
X95641Y-2247D01*
X95708Y-2214D01*
X95774Y-2147D01*
X95807Y-2081D01*
X95841Y-1981D01*
X95841Y-1814D01*
X95807Y-1714D01*
X95774Y-1648D01*
X95708Y-1581D01*
X95641Y-1548D01*
X95508Y-1548D01*
X96004Y-1548D02*
X96004Y-2247D01*
X96004Y-1548D02*
X96304Y-1548D01*
X96404Y-1581D01*
X96437Y-1614D01*
X96471Y-1681D01*
X96471Y-1747D01*
X96437Y-1814D01*
X96404Y-1847D01*
X96304Y-1881D01*
X96004Y-1881D01*
X96237Y-1881D02*
X96471Y-2247D01*
X99619Y-1714D02*
X99586Y-1648D01*
X99519Y-1581D01*
X99453Y-1548D01*
X99319Y-1548D01*
X99253Y-1581D01*
X99186Y-1648D01*
X99153Y-1714D01*
X99119Y-1814D01*
X99119Y-1981D01*
X99153Y-2081D01*
X99186Y-2147D01*
X99253Y-2214D01*
X99319Y-2247D01*
X99453Y-2247D01*
X99519Y-2214D01*
X99586Y-2147D01*
X99619Y-2081D01*
X99619Y-1981D01*
X99453Y-1981D02*
X99619Y-1981D01*
X99779Y-1548D02*
X99779Y-2247D01*
X99779Y-1548D02*
X100079Y-1548D01*
X100179Y-1581D01*
X100213Y-1614D01*
X100246Y-1681D01*
X100246Y-1747D01*
X100213Y-1814D01*
X100179Y-1847D01*
X100079Y-1881D01*
X99779Y-1881D01*
X100013Y-1881D02*
X100246Y-2247D01*
X100836Y-1548D02*
X100403Y-1548D01*
X100403Y-2247D01*
X100836Y-2247D01*
X100403Y-1881D02*
X100669Y-1881D01*
X101386Y-1548D02*
X100952Y-1548D01*
X100952Y-2247D01*
X101386Y-2247D01*
X100952Y-1881D02*
X101219Y-1881D01*
X101502Y-1548D02*
X101502Y-2247D01*
X101502Y-1548D02*
X101969Y-2247D01*
X101969Y-1548D02*
X101969Y-2247D01*
X102712Y-1548D02*
X102712Y-2247D01*
X103179Y-1548D02*
X103179Y-2247D01*
X102712Y-1881D02*
X103179Y-1881D01*
X103372Y-1548D02*
X103372Y-2247D01*
X104018Y-1714D02*
X103985Y-1648D01*
X103918Y-1581D01*
X103852Y-1548D01*
X103718Y-1548D01*
X103652Y-1581D01*
X103585Y-1648D01*
X103552Y-1714D01*
X103519Y-1814D01*
X103519Y-1981D01*
X103552Y-2081D01*
X103585Y-2147D01*
X103652Y-2214D01*
X103718Y-2247D01*
X103852Y-2247D01*
X103918Y-2214D01*
X103985Y-2147D01*
X104018Y-2081D01*
X104018Y-1981D01*
X103852Y-1981D02*
X104018Y-1981D01*
X104178Y-1548D02*
X104178Y-2247D01*
X104645Y-1548D02*
X104645Y-2247D01*
X104178Y-1881D02*
X104645Y-1881D01*
X105888Y-1714D02*
X105855Y-1648D01*
X105788Y-1581D01*
X105721Y-1548D01*
X105588Y-1548D01*
X105521Y-1581D01*
X105455Y-1648D01*
X105421Y-1714D01*
X105388Y-1814D01*
X105388Y-1981D01*
X105421Y-2081D01*
X105455Y-2147D01*
X105521Y-2214D01*
X105588Y-2247D01*
X105721Y-2247D01*
X105788Y-2214D01*
X105855Y-2147D01*
X105888Y-2081D01*
X105888Y-1981D01*
X105721Y-1981D02*
X105888Y-1981D01*
X106048Y-1548D02*
X106048Y-2247D01*
X106448Y-2247D01*
X106725Y-1548D02*
X106658Y-1581D01*
X106591Y-1648D01*
X106558Y-1714D01*
X106525Y-1814D01*
X106525Y-1981D01*
X106558Y-2081D01*
X106591Y-2147D01*
X106658Y-2214D01*
X106725Y-2247D01*
X106858Y-2247D01*
X106924Y-2214D01*
X106991Y-2147D01*
X107024Y-2081D01*
X107058Y-1981D01*
X107058Y-1814D01*
X107024Y-1714D01*
X106991Y-1648D01*
X106924Y-1581D01*
X106858Y-1548D01*
X106725Y-1548D01*
X107688Y-1648D02*
X107621Y-1581D01*
X107521Y-1548D01*
X107388Y-1548D01*
X107288Y-1581D01*
X107221Y-1648D01*
X107221Y-1714D01*
X107254Y-1781D01*
X107288Y-1814D01*
X107354Y-1847D01*
X107554Y-1914D01*
X107621Y-1947D01*
X107654Y-1981D01*
X107688Y-2047D01*
X107688Y-2147D01*
X107621Y-2214D01*
X107521Y-2247D01*
X107388Y-2247D01*
X107288Y-2214D01*
X107221Y-2147D01*
X108311Y-1648D02*
X108244Y-1581D01*
X108144Y-1548D01*
X108011Y-1548D01*
X107911Y-1581D01*
X107844Y-1648D01*
X107844Y-1714D01*
X107878Y-1781D01*
X107911Y-1814D01*
X107978Y-1847D01*
X108178Y-1914D01*
X108244Y-1947D01*
X108278Y-1981D01*
X108311Y-2047D01*
X108311Y-2147D01*
X108244Y-2214D01*
X108144Y-2247D01*
X108011Y-2247D01*
X107911Y-2214D01*
X107844Y-2147D01*
X95119Y952D02*
X95119Y253D01*
X95119Y952D02*
X95353Y952D01*
X95453Y919D01*
X95519Y852D01*
X95553Y786D01*
X95586Y686D01*
X95586Y519D01*
X95553Y419D01*
X95519Y353D01*
X95453Y286D01*
X95353Y253D01*
X95119Y253D01*
X95743Y952D02*
X96009Y619D01*
X96009Y253D01*
X96276Y952D02*
X96009Y619D01*
X96366Y952D02*
X96366Y253D01*
X96366Y952D02*
X96832Y253D01*
X96832Y952D02*
X96832Y253D01*
X97559Y253D02*
X97292Y952D01*
X97026Y253D01*
X97126Y486D02*
X97459Y486D01*
X98222Y786D02*
X98189Y852D01*
X98122Y919D01*
X98055Y952D01*
X97922Y952D01*
X97856Y919D01*
X97789Y852D01*
X97756Y786D01*
X97722Y686D01*
X97722Y519D01*
X97756Y419D01*
X97789Y353D01*
X97856Y286D01*
X97922Y253D01*
X98055Y253D01*
X98122Y286D01*
X98189Y353D01*
X98222Y419D01*
X98419Y952D02*
X98419Y253D01*
X98885Y952D02*
X98885Y253D01*
X98419Y619D02*
X98885Y619D01*
X99512Y952D02*
X99079Y952D01*
X99079Y253D01*
X99512Y253D01*
X99079Y619D02*
X99345Y619D01*
X99628Y952D02*
X99628Y253D01*
X99628Y952D02*
X99895Y253D01*
X100162Y952D02*
X99895Y253D01*
X100162Y952D02*
X100162Y253D01*
X101345Y952D02*
X100912Y952D01*
X100912Y253D01*
X101345Y253D01*
X100912Y619D02*
X101178Y619D01*
X101461Y586D02*
X101761Y586D01*
X101861Y619D01*
X101895Y653D01*
X101928Y719D01*
X101928Y819D01*
X101895Y886D01*
X101861Y919D01*
X101761Y952D01*
X101461Y952D01*
X101461Y253D01*
X102085Y952D02*
X102085Y253D01*
X102731Y786D02*
X102698Y852D01*
X102631Y919D01*
X102565Y952D01*
X102431Y952D01*
X102365Y919D01*
X102298Y852D01*
X102265Y786D01*
X102231Y686D01*
X102231Y519D01*
X102265Y419D01*
X102298Y353D01*
X102365Y286D01*
X102431Y253D01*
X102565Y253D01*
X102631Y286D01*
X102698Y353D01*
X102731Y419D01*
X103511Y786D02*
X103511Y819D01*
X103544Y886D01*
X103578Y919D01*
X103644Y952D01*
X103778Y952D01*
X103844Y919D01*
X103878Y886D01*
X103911Y819D01*
X103911Y753D01*
X103878Y686D01*
X103811Y586D01*
X103478Y253D01*
X103944Y253D01*
X104301Y952D02*
X104201Y919D01*
X104134Y819D01*
X104101Y653D01*
X104101Y553D01*
X104134Y386D01*
X104201Y286D01*
X104301Y253D01*
X104367Y253D01*
X104467Y286D01*
X104534Y386D01*
X104567Y553D01*
X104567Y653D01*
X104534Y819D01*
X104467Y919D01*
X104367Y952D01*
X104301Y952D01*
X104924Y952D02*
X104824Y919D01*
X104757Y819D01*
X104724Y653D01*
X104724Y553D01*
X104757Y386D01*
X104824Y286D01*
X104924Y253D01*
X104991Y253D01*
X105091Y286D01*
X105157Y386D01*
X105191Y553D01*
X105191Y653D01*
X105157Y819D01*
X105091Y919D01*
X104991Y952D01*
X104924Y952D01*
X105897Y952D02*
X105897Y253D01*
X106297Y253D01*
X106374Y586D02*
X106674Y586D01*
X106774Y619D01*
X106807Y653D01*
X106840Y719D01*
X106840Y819D01*
X106807Y886D01*
X106774Y919D01*
X106674Y952D01*
X106374Y952D01*
X106374Y253D01*
X106997Y952D02*
X106997Y253D01*
X107893Y952D02*
X107827Y919D01*
X107760Y852D01*
X107727Y786D01*
X107693Y686D01*
X107693Y519D01*
X107727Y419D01*
X107760Y353D01*
X107827Y286D01*
X107893Y253D01*
X108027Y253D01*
X108093Y286D01*
X108160Y353D01*
X108193Y419D01*
X108227Y519D01*
X108227Y686D01*
X108193Y786D01*
X108160Y852D01*
X108093Y919D01*
X108027Y952D01*
X107893Y952D01*
X108390Y952D02*
X108390Y253D01*
X108390Y952D02*
X108690Y952D01*
X108790Y919D01*
X108823Y886D01*
X108857Y819D01*
X108857Y753D01*
X108823Y686D01*
X108790Y653D01*
X108690Y619D01*
X108390Y619D01*
X108623Y619D02*
X108857Y253D01*
X109996Y952D02*
X109563Y952D01*
X109563Y253D01*
X109996Y253D01*
X109563Y619D02*
X109830Y619D01*
X110313Y952D02*
X110246Y919D01*
X110180Y852D01*
X110146Y786D01*
X110113Y686D01*
X110113Y519D01*
X110146Y419D01*
X110180Y353D01*
X110246Y286D01*
X110313Y253D01*
X110446Y253D01*
X110513Y286D01*
X110579Y353D01*
X110613Y419D01*
X110646Y519D01*
X110646Y686D01*
X110613Y786D01*
X110579Y852D01*
X110513Y919D01*
X110446Y952D01*
X110313Y952D01*
X110413Y386D02*
X110613Y186D01*
X110809Y952D02*
X110809Y453D01*
X110843Y353D01*
X110909Y286D01*
X111009Y253D01*
X111076Y253D01*
X111176Y286D01*
X111243Y353D01*
X111276Y453D01*
X111276Y952D01*
X111469Y952D02*
X111469Y253D01*
X111616Y952D02*
X111883Y253D01*
X112149Y952D02*
X111883Y253D01*
X112772Y253D02*
X112506Y952D01*
X112239Y253D01*
X112339Y486D02*
X112672Y486D01*
X112936Y952D02*
X112936Y253D01*
X113336Y253D01*
X113845Y952D02*
X113412Y952D01*
X113412Y253D01*
X113845Y253D01*
X113412Y619D02*
X113679Y619D01*
X113962Y952D02*
X113962Y253D01*
X113962Y952D02*
X114429Y253D01*
X114429Y952D02*
X114429Y253D01*
X114855Y952D02*
X114855Y253D01*
X114622Y952D02*
X115089Y952D01*
X87086Y852D02*
X87019Y919D01*
X86919Y952D01*
X86786Y952D01*
X86686Y919D01*
X86619Y852D01*
X86619Y786D01*
X86653Y719D01*
X86686Y686D01*
X86753Y653D01*
X86953Y586D01*
X87019Y553D01*
X87053Y519D01*
X87086Y453D01*
X87086Y353D01*
X87019Y286D01*
X86919Y253D01*
X86786Y253D01*
X86686Y286D01*
X86619Y353D01*
X87443Y952D02*
X87376Y919D01*
X87309Y852D01*
X87276Y786D01*
X87243Y686D01*
X87243Y519D01*
X87276Y419D01*
X87309Y353D01*
X87376Y286D01*
X87443Y253D01*
X87576Y253D01*
X87643Y286D01*
X87709Y353D01*
X87743Y419D01*
X87776Y519D01*
X87776Y686D01*
X87743Y786D01*
X87709Y852D01*
X87643Y919D01*
X87576Y952D01*
X87443Y952D01*
X87939Y952D02*
X87939Y253D01*
X88339Y253D01*
X88416Y952D02*
X88416Y253D01*
X88416Y952D02*
X88649Y952D01*
X88749Y919D01*
X88816Y852D01*
X88849Y786D01*
X88882Y686D01*
X88882Y519D01*
X88849Y419D01*
X88816Y353D01*
X88749Y286D01*
X88649Y253D01*
X88416Y253D01*
X89472Y952D02*
X89039Y952D01*
X89039Y253D01*
X89472Y253D01*
X89039Y619D02*
X89306Y619D01*
X89589Y952D02*
X89589Y253D01*
X89589Y952D02*
X89889Y952D01*
X89989Y919D01*
X90022Y886D01*
X90055Y819D01*
X90055Y753D01*
X90022Y686D01*
X89989Y653D01*
X89889Y619D01*
X89589Y619D01*
X89822Y619D02*
X90055Y253D01*
X90212Y952D02*
X90212Y253D01*
X90212Y952D02*
X90479Y253D01*
X90745Y952D02*
X90479Y253D01*
X90745Y952D02*
X90745Y253D01*
X91478Y253D02*
X91212Y952D01*
X90945Y253D01*
X91045Y486D02*
X91378Y486D01*
X92108Y852D02*
X92042Y919D01*
X91942Y952D01*
X91808Y952D01*
X91708Y919D01*
X91642Y852D01*
X91642Y786D01*
X91675Y719D01*
X91708Y686D01*
X91775Y653D01*
X91975Y586D01*
X92042Y553D01*
X92075Y519D01*
X92108Y453D01*
X92108Y353D01*
X92042Y286D01*
X91942Y253D01*
X91808Y253D01*
X91708Y286D01*
X91642Y353D01*
X92265Y952D02*
X92265Y253D01*
X92731Y952D02*
X92265Y486D01*
X92432Y653D02*
X92731Y253D01*
X88869Y2856D02*
X88869Y2156D01*
X89016Y2856D02*
X89016Y2156D01*
X89016Y2856D02*
X89483Y2156D01*
X89483Y2856D02*
X89483Y2156D01*
X89676Y2856D02*
X89676Y2156D01*
X89676Y2856D02*
X89909Y2856D01*
X90009Y2823D01*
X90076Y2756D01*
X90109Y2689D01*
X90143Y2589D01*
X90143Y2423D01*
X90109Y2323D01*
X90076Y2256D01*
X90009Y2189D01*
X89909Y2156D01*
X89676Y2156D01*
X90299Y2856D02*
X90299Y2156D01*
X90946Y2689D02*
X90912Y2756D01*
X90846Y2823D01*
X90779Y2856D01*
X90646Y2856D01*
X90579Y2823D01*
X90512Y2756D01*
X90479Y2689D01*
X90446Y2589D01*
X90446Y2423D01*
X90479Y2323D01*
X90512Y2256D01*
X90579Y2189D01*
X90646Y2156D01*
X90779Y2156D01*
X90846Y2189D01*
X90912Y2256D01*
X90946Y2323D01*
X91676Y2156D02*
X91409Y2856D01*
X91142Y2156D01*
X91242Y2389D02*
X91576Y2389D01*
X92072Y2856D02*
X92072Y2156D01*
X91839Y2856D02*
X92305Y2856D01*
X92822Y2856D02*
X92389Y2856D01*
X92389Y2156D01*
X92822Y2156D01*
X92389Y2523D02*
X92655Y2523D01*
X92939Y2856D02*
X92939Y2156D01*
X92939Y2856D02*
X93172Y2856D01*
X93272Y2823D01*
X93338Y2756D01*
X93372Y2689D01*
X93405Y2589D01*
X93405Y2423D01*
X93372Y2323D01*
X93338Y2256D01*
X93272Y2189D01*
X93172Y2156D01*
X92939Y2156D01*
X93595Y2223D02*
X93562Y2189D01*
X93595Y2156D01*
X93628Y2189D01*
X93595Y2223D01*
X94332Y2723D02*
X94398Y2756D01*
X94498Y2856D01*
X94498Y2156D01*
X94845Y2623D02*
X94845Y2289D01*
X94878Y2189D01*
X94945Y2156D01*
X95045Y2156D01*
X95111Y2189D01*
X95211Y2289D01*
X95211Y2623D02*
X95211Y2156D01*
X95395Y2623D02*
X95395Y2156D01*
X95395Y2489D02*
X95495Y2589D01*
X95561Y2623D01*
X95661Y2623D01*
X95728Y2589D01*
X95761Y2489D01*
X95761Y2156D01*
X95761Y2489D02*
X95861Y2589D01*
X95928Y2623D01*
X96028Y2623D01*
X96095Y2589D01*
X96128Y2489D01*
X96128Y2156D01*
X97398Y2689D02*
X97364Y2756D01*
X97298Y2823D01*
X97231Y2856D01*
X97098Y2856D01*
X97031Y2823D01*
X96964Y2756D01*
X96931Y2689D01*
X96898Y2589D01*
X96898Y2423D01*
X96931Y2323D01*
X96964Y2256D01*
X97031Y2189D01*
X97098Y2156D01*
X97231Y2156D01*
X97298Y2189D01*
X97364Y2256D01*
X97398Y2323D01*
X97398Y2423D01*
X97231Y2423D02*
X97398Y2423D01*
X97758Y2856D02*
X97691Y2823D01*
X97624Y2756D01*
X97591Y2689D01*
X97558Y2589D01*
X97558Y2423D01*
X97591Y2323D01*
X97624Y2256D01*
X97691Y2189D01*
X97758Y2156D01*
X97891Y2156D01*
X97958Y2189D01*
X98024Y2256D01*
X98057Y2323D01*
X98091Y2423D01*
X98091Y2589D01*
X98057Y2689D01*
X98024Y2756D01*
X97958Y2823D01*
X97891Y2856D01*
X97758Y2856D01*
X98254Y2856D02*
X98254Y2156D01*
X98654Y2156D01*
X98731Y2856D02*
X98731Y2156D01*
X98731Y2856D02*
X98964Y2856D01*
X99064Y2823D01*
X99131Y2756D01*
X99164Y2689D01*
X99197Y2589D01*
X99197Y2423D01*
X99164Y2323D01*
X99131Y2256D01*
X99064Y2189D01*
X98964Y2156D01*
X98731Y2156D01*
X100104Y2856D02*
X100037Y2823D01*
X99970Y2756D01*
X99937Y2689D01*
X99904Y2589D01*
X99904Y2423D01*
X99937Y2323D01*
X99970Y2256D01*
X100037Y2189D01*
X100104Y2156D01*
X100237Y2156D01*
X100304Y2189D01*
X100370Y2256D01*
X100404Y2323D01*
X100437Y2423D01*
X100437Y2589D01*
X100404Y2689D01*
X100370Y2756D01*
X100304Y2823D01*
X100237Y2856D01*
X100104Y2856D01*
X100600Y2856D02*
X100867Y2156D01*
X101133Y2856D02*
X100867Y2156D01*
X101657Y2856D02*
X101223Y2856D01*
X101223Y2156D01*
X101657Y2156D01*
X101223Y2523D02*
X101490Y2523D01*
X101773Y2856D02*
X101773Y2156D01*
X101773Y2856D02*
X102073Y2856D01*
X102173Y2823D01*
X102207Y2789D01*
X102240Y2723D01*
X102240Y2656D01*
X102207Y2589D01*
X102173Y2556D01*
X102073Y2523D01*
X101773Y2523D01*
X102007Y2523D02*
X102240Y2156D01*
X103346Y2856D02*
X103013Y2856D01*
X102980Y2556D01*
X103013Y2589D01*
X103113Y2623D01*
X103213Y2623D01*
X103313Y2589D01*
X103380Y2523D01*
X103413Y2423D01*
X103413Y2356D01*
X103380Y2256D01*
X103313Y2189D01*
X103213Y2156D01*
X103113Y2156D01*
X103013Y2189D01*
X102980Y2223D01*
X102946Y2289D01*
X103570Y2456D02*
X104170Y2456D01*
X104376Y2723D02*
X104443Y2756D01*
X104543Y2856D01*
X104543Y2156D01*
X105089Y2856D02*
X104989Y2823D01*
X104923Y2723D01*
X104889Y2556D01*
X104889Y2456D01*
X104923Y2289D01*
X104989Y2189D01*
X105089Y2156D01*
X105156Y2156D01*
X105256Y2189D01*
X105323Y2289D01*
X105356Y2456D01*
X105356Y2556D01*
X105323Y2723D01*
X105256Y2823D01*
X105156Y2856D01*
X105089Y2856D01*
X106062Y2623D02*
X106062Y2289D01*
X106096Y2189D01*
X106162Y2156D01*
X106262Y2156D01*
X106329Y2189D01*
X106429Y2289D01*
X106429Y2623D02*
X106429Y2156D01*
X106612Y2623D02*
X106612Y2156D01*
X106612Y2489D02*
X106712Y2589D01*
X106779Y2623D01*
X106879Y2623D01*
X106946Y2589D01*
X106979Y2489D01*
X106979Y2156D01*
X106979Y2489D02*
X107079Y2589D01*
X107146Y2623D01*
X107246Y2623D01*
X107312Y2589D01*
X107346Y2489D01*
X107346Y2156D01*
X108115Y2856D02*
X108115Y2156D01*
X108115Y2856D02*
X108582Y2156D01*
X108582Y2856D02*
X108582Y2156D01*
X108775Y2856D02*
X108775Y2156D01*
X109422Y2689D02*
X109388Y2756D01*
X109322Y2823D01*
X109255Y2856D01*
X109122Y2856D01*
X109055Y2823D01*
X108988Y2756D01*
X108955Y2689D01*
X108922Y2589D01*
X108922Y2423D01*
X108955Y2323D01*
X108988Y2256D01*
X109055Y2189D01*
X109122Y2156D01*
X109255Y2156D01*
X109322Y2189D01*
X109388Y2256D01*
X109422Y2323D01*
X109618Y2856D02*
X109618Y2156D01*
X110085Y2856D02*
X109618Y2389D01*
X109785Y2556D02*
X110085Y2156D01*
X110675Y2856D02*
X110242Y2856D01*
X110242Y2156D01*
X110675Y2156D01*
X110242Y2523D02*
X110508Y2523D01*
X110791Y2856D02*
X110791Y2156D01*
X111191Y2156D01*
X88869Y5815D02*
X88869Y5115D01*
X89016Y5815D02*
X89016Y5115D01*
X89016Y5815D02*
X89283Y5115D01*
X89549Y5815D02*
X89283Y5115D01*
X89549Y5815D02*
X89549Y5115D01*
X89749Y5815D02*
X89749Y5115D01*
X89749Y5815D02*
X90016Y5115D01*
X90282Y5815D02*
X90016Y5115D01*
X90282Y5815D02*
X90282Y5115D01*
X90916Y5815D02*
X90482Y5815D01*
X90482Y5115D01*
X90916Y5115D01*
X90482Y5481D02*
X90749Y5481D01*
X91032Y5815D02*
X91032Y5115D01*
X91032Y5815D02*
X91332Y5815D01*
X91432Y5781D01*
X91466Y5748D01*
X91499Y5681D01*
X91499Y5615D01*
X91466Y5548D01*
X91432Y5515D01*
X91332Y5481D01*
X91032Y5481D01*
X91266Y5481D02*
X91499Y5115D01*
X92122Y5715D02*
X92055Y5781D01*
X91955Y5815D01*
X91822Y5815D01*
X91722Y5781D01*
X91656Y5715D01*
X91656Y5648D01*
X91689Y5581D01*
X91722Y5548D01*
X91789Y5515D01*
X91989Y5448D01*
X92055Y5415D01*
X92089Y5381D01*
X92122Y5315D01*
X92122Y5215D01*
X92055Y5148D01*
X91955Y5115D01*
X91822Y5115D01*
X91722Y5148D01*
X91656Y5215D01*
X92279Y5815D02*
X92279Y5115D01*
X92625Y5815D02*
X92559Y5781D01*
X92492Y5715D01*
X92459Y5648D01*
X92425Y5548D01*
X92425Y5381D01*
X92459Y5281D01*
X92492Y5215D01*
X92559Y5148D01*
X92625Y5115D01*
X92759Y5115D01*
X92825Y5148D01*
X92892Y5215D01*
X92925Y5281D01*
X92959Y5381D01*
X92959Y5548D01*
X92925Y5648D01*
X92892Y5715D01*
X92825Y5781D01*
X92759Y5815D01*
X92625Y5815D01*
X93122Y5815D02*
X93122Y5115D01*
X93122Y5815D02*
X93588Y5115D01*
X93588Y5815D02*
X93588Y5115D01*
X94565Y5815D02*
X94565Y5115D01*
X94332Y5815D02*
X94798Y5815D01*
X94881Y5815D02*
X94881Y5115D01*
X95028Y5815D02*
X95028Y5115D01*
X95028Y5815D02*
X95495Y5115D01*
X95495Y5815D02*
X95495Y5115D01*
X88860Y10160D02*
X88860Y9460D01*
X89260Y9460D01*
X89770Y10160D02*
X89337Y10160D01*
X89337Y9460D01*
X89770Y9460D01*
X89337Y9827D02*
X89603Y9827D01*
X90420Y9460D02*
X90153Y10160D01*
X89886Y9460D01*
X89986Y9694D02*
X90320Y9694D01*
X90583Y10160D02*
X90583Y9460D01*
X90583Y10160D02*
X90816Y10160D01*
X90916Y10127D01*
X90983Y10060D01*
X91016Y9994D01*
X91050Y9894D01*
X91050Y9727D01*
X91016Y9627D01*
X90983Y9560D01*
X90916Y9494D01*
X90816Y9460D01*
X90583Y9460D01*
X91206Y9760D02*
X91806Y9760D01*
X92013Y10160D02*
X92013Y9460D01*
X92013Y10160D02*
X92446Y10160D01*
X92013Y9827D02*
X92279Y9827D01*
X92526Y10160D02*
X92526Y9460D01*
X92526Y10160D02*
X92826Y10160D01*
X92926Y10127D01*
X92959Y10094D01*
X92992Y10027D01*
X92992Y9960D01*
X92959Y9894D01*
X92926Y9860D01*
X92826Y9827D01*
X92526Y9827D01*
X92759Y9827D02*
X92992Y9460D01*
X93582Y10160D02*
X93149Y10160D01*
X93149Y9460D01*
X93582Y9460D01*
X93149Y9827D02*
X93416Y9827D01*
X94132Y10160D02*
X93699Y10160D01*
X93699Y9460D01*
X94132Y9460D01*
X93699Y9827D02*
X93966Y9827D01*
X94799Y10160D02*
X94799Y9460D01*
X95265Y10160D02*
X95265Y9460D01*
X94799Y9827D02*
X95265Y9827D01*
X95659Y10160D02*
X95592Y10127D01*
X95525Y10060D01*
X95492Y9994D01*
X95459Y9894D01*
X95459Y9727D01*
X95492Y9627D01*
X95525Y9560D01*
X95592Y9494D01*
X95659Y9460D01*
X95792Y9460D01*
X95859Y9494D01*
X95925Y9560D01*
X95958Y9627D01*
X95992Y9727D01*
X95992Y9894D01*
X95958Y9994D01*
X95925Y10060D01*
X95859Y10127D01*
X95792Y10160D01*
X95659Y10160D01*
X96388Y10160D02*
X96388Y9460D01*
X96155Y10160D02*
X96622Y10160D01*
X97788Y9460D02*
X97521Y10160D01*
X97255Y9460D01*
X97355Y9694D02*
X97688Y9694D01*
X97951Y10160D02*
X97951Y9460D01*
X98098Y10160D02*
X98098Y9460D01*
X98098Y10160D02*
X98398Y10160D01*
X98498Y10127D01*
X98531Y10094D01*
X98565Y10027D01*
X98565Y9960D01*
X98531Y9894D01*
X98498Y9860D01*
X98398Y9827D01*
X98098Y9827D01*
X98331Y9827D02*
X98565Y9460D01*
X99271Y10160D02*
X99271Y9460D01*
X99671Y9460D01*
X100181Y10160D02*
X99748Y10160D01*
X99748Y9460D01*
X100181Y9460D01*
X99748Y9827D02*
X100014Y9827D01*
X100298Y10160D02*
X100564Y9460D01*
X100831Y10160D02*
X100564Y9460D01*
X101354Y10160D02*
X100921Y10160D01*
X100921Y9460D01*
X101354Y9460D01*
X100921Y9827D02*
X101187Y9827D01*
X101471Y10160D02*
X101471Y9460D01*
X101871Y9460D01*
X101947Y10160D02*
X101947Y9460D01*
X102094Y10160D02*
X102094Y9460D01*
X102094Y10160D02*
X102560Y9460D01*
X102560Y10160D02*
X102560Y9460D01*
X103254Y9994D02*
X103220Y10060D01*
X103154Y10127D01*
X103087Y10160D01*
X102954Y10160D01*
X102887Y10127D01*
X102820Y10060D01*
X102787Y9994D01*
X102754Y9894D01*
X102754Y9727D01*
X102787Y9627D01*
X102820Y9560D01*
X102887Y9494D01*
X102954Y9460D01*
X103087Y9460D01*
X103154Y9494D01*
X103220Y9560D01*
X103254Y9627D01*
X103254Y9727D01*
X103087Y9727D02*
X103254Y9727D01*
X87195Y13852D02*
X87161Y13919D01*
X87095Y13985D01*
X87028Y14019D01*
X86895Y14019D01*
X86828Y13985D01*
X86761Y13919D01*
X86728Y13852D01*
X86695Y13752D01*
X86695Y13585D01*
X86728Y13485D01*
X86761Y13419D01*
X86828Y13352D01*
X86895Y13319D01*
X87028Y13319D01*
X87095Y13352D01*
X87161Y13419D01*
X87195Y13485D01*
X87591Y14019D02*
X87524Y13985D01*
X87458Y13919D01*
X87424Y13852D01*
X87391Y13752D01*
X87391Y13585D01*
X87424Y13485D01*
X87458Y13419D01*
X87524Y13352D01*
X87591Y13319D01*
X87724Y13319D01*
X87791Y13352D01*
X87858Y13419D01*
X87891Y13485D01*
X87924Y13585D01*
X87924Y13752D01*
X87891Y13852D01*
X87858Y13919D01*
X87791Y13985D01*
X87724Y14019D01*
X87591Y14019D01*
X88088Y13652D02*
X88388Y13652D01*
X88488Y13685D01*
X88521Y13719D01*
X88554Y13785D01*
X88554Y13885D01*
X88521Y13952D01*
X88488Y13985D01*
X88388Y14019D01*
X88088Y14019D01*
X88088Y13319D01*
X88711Y13652D02*
X89011Y13652D01*
X89111Y13685D01*
X89144Y13719D01*
X89177Y13785D01*
X89177Y13885D01*
X89144Y13952D01*
X89111Y13985D01*
X89011Y14019D01*
X88711Y14019D01*
X88711Y13319D01*
X89767Y14019D02*
X89334Y14019D01*
X89334Y13319D01*
X89767Y13319D01*
X89334Y13685D02*
X89601Y13685D01*
X89884Y14019D02*
X89884Y13319D01*
X89884Y14019D02*
X90184Y14019D01*
X90284Y13985D01*
X90317Y13952D01*
X90351Y13885D01*
X90351Y13819D01*
X90317Y13752D01*
X90284Y13719D01*
X90184Y13685D01*
X89884Y13685D01*
X90117Y13685D02*
X90351Y13319D01*
X91290Y14019D02*
X91290Y13319D01*
X91057Y14019D02*
X91524Y14019D01*
X91607Y14019D02*
X91607Y13319D01*
X92073Y14019D02*
X92073Y13319D01*
X91607Y13685D02*
X92073Y13685D01*
X92267Y14019D02*
X92267Y13319D01*
X92847Y14019D02*
X92413Y14019D01*
X92413Y13319D01*
X92847Y13319D01*
X92413Y13685D02*
X92680Y13685D01*
X92963Y14019D02*
X93230Y13319D01*
X93497Y14019D02*
X93230Y13319D01*
X93587Y14019D02*
X93587Y13319D01*
X93733Y14019D02*
X93733Y13319D01*
X93733Y14019D02*
X94200Y13319D01*
X94200Y14019D02*
X94200Y13319D01*
X94893Y13852D02*
X94860Y13919D01*
X94793Y13985D01*
X94726Y14019D01*
X94593Y14019D01*
X94526Y13985D01*
X94460Y13919D01*
X94426Y13852D01*
X94393Y13752D01*
X94393Y13585D01*
X94426Y13485D01*
X94460Y13419D01*
X94526Y13352D01*
X94593Y13319D01*
X94726Y13319D01*
X94793Y13352D01*
X94860Y13419D01*
X94893Y13485D01*
X94893Y13585D01*
X94726Y13585D02*
X94893Y13585D01*
X96136Y13319D02*
X95869Y14019D01*
X95603Y13319D01*
X95703Y13552D02*
X96036Y13552D01*
X96299Y14019D02*
X96299Y13319D01*
X96699Y13319D01*
X96776Y14019D02*
X96776Y13319D01*
X97176Y13319D01*
X97452Y14019D02*
X97386Y13985D01*
X97319Y13919D01*
X97286Y13852D01*
X97252Y13752D01*
X97252Y13585D01*
X97286Y13485D01*
X97319Y13419D01*
X97386Y13352D01*
X97452Y13319D01*
X97586Y13319D01*
X97652Y13352D01*
X97719Y13419D01*
X97752Y13485D01*
X97786Y13585D01*
X97786Y13752D01*
X97752Y13852D01*
X97719Y13919D01*
X97652Y13985D01*
X97586Y14019D01*
X97452Y14019D01*
X97949Y14019D02*
X98116Y13319D01*
X98282Y14019D02*
X98116Y13319D01*
X98282Y14019D02*
X98449Y13319D01*
X98615Y14019D02*
X98449Y13319D01*
X99189Y14019D02*
X98755Y14019D01*
X98755Y13319D01*
X99189Y13319D01*
X98755Y13685D02*
X99022Y13685D01*
X99305Y14019D02*
X99305Y13319D01*
X99305Y14019D02*
X99539Y14019D01*
X99639Y13985D01*
X99705Y13919D01*
X99739Y13852D01*
X99772Y13752D01*
X99772Y13585D01*
X99739Y13485D01*
X99705Y13419D01*
X99639Y13352D01*
X99539Y13319D01*
X99305Y13319D01*
X87119Y17664D02*
X87086Y17730D01*
X87019Y17797D01*
X86953Y17830D01*
X86819Y17830D01*
X86753Y17797D01*
X86686Y17730D01*
X86653Y17664D01*
X86619Y17564D01*
X86619Y17397D01*
X86653Y17297D01*
X86686Y17231D01*
X86753Y17164D01*
X86819Y17131D01*
X86953Y17131D01*
X87019Y17164D01*
X87086Y17231D01*
X87119Y17297D01*
X87316Y17597D02*
X87316Y17264D01*
X87349Y17164D01*
X87416Y17131D01*
X87516Y17131D01*
X87583Y17164D01*
X87683Y17264D01*
X87683Y17597D02*
X87683Y17131D01*
X88416Y17830D02*
X88582Y17131D01*
X88749Y17830D02*
X88582Y17131D01*
X88749Y17830D02*
X88916Y17131D01*
X89082Y17830D02*
X88916Y17131D01*
X89655Y17830D02*
X89222Y17830D01*
X89222Y17131D01*
X89655Y17131D01*
X89222Y17497D02*
X89489Y17497D01*
X89772Y17830D02*
X89772Y17131D01*
X90419Y17664D02*
X90385Y17730D01*
X90319Y17797D01*
X90252Y17830D01*
X90119Y17830D01*
X90052Y17797D01*
X89985Y17730D01*
X89952Y17664D01*
X89919Y17564D01*
X89919Y17397D01*
X89952Y17297D01*
X89985Y17231D01*
X90052Y17164D01*
X90119Y17131D01*
X90252Y17131D01*
X90319Y17164D01*
X90385Y17231D01*
X90419Y17297D01*
X90419Y17397D01*
X90252Y17397D02*
X90419Y17397D01*
X90579Y17830D02*
X90579Y17131D01*
X91045Y17830D02*
X91045Y17131D01*
X90579Y17497D02*
X91045Y17497D01*
X91472Y17830D02*
X91472Y17131D01*
X91238Y17830D02*
X91705Y17830D01*
X92338Y17830D02*
X92338Y17131D01*
X92485Y17830D02*
X92485Y17131D01*
X92485Y17830D02*
X92951Y17131D01*
X92951Y17830D02*
X92951Y17131D01*
X93378Y17830D02*
X93378Y17131D01*
X93145Y17830D02*
X93611Y17830D01*
X94128Y17830D02*
X93695Y17830D01*
X93695Y17131D01*
X94128Y17131D01*
X93695Y17497D02*
X93961Y17497D01*
X94244Y17830D02*
X94244Y17131D01*
X94244Y17830D02*
X94544Y17830D01*
X94644Y17797D01*
X94678Y17764D01*
X94711Y17697D01*
X94711Y17630D01*
X94678Y17564D01*
X94644Y17530D01*
X94544Y17497D01*
X94244Y17497D01*
X94478Y17497D02*
X94711Y17131D01*
X94868Y17830D02*
X94868Y17131D01*
X94868Y17830D02*
X95334Y17131D01*
X95334Y17830D02*
X95334Y17131D01*
X96061Y17131D02*
X95794Y17830D01*
X95528Y17131D01*
X95628Y17364D02*
X95961Y17364D01*
X96224Y17830D02*
X96224Y17131D01*
X96624Y17131D01*
X97251Y17830D02*
X97251Y17131D01*
X97650Y17131D01*
X98260Y17131D02*
X97994Y17830D01*
X97727Y17131D01*
X97827Y17364D02*
X98160Y17364D01*
X98424Y17830D02*
X98690Y17497D01*
X98690Y17131D01*
X98957Y17830D02*
X98690Y17497D01*
X99480Y17830D02*
X99047Y17830D01*
X99047Y17131D01*
X99480Y17131D01*
X99047Y17497D02*
X99313Y17497D01*
X99597Y17830D02*
X99597Y17131D01*
X99597Y17830D02*
X99897Y17830D01*
X99997Y17797D01*
X100030Y17764D01*
X100063Y17697D01*
X100063Y17630D01*
X100030Y17564D01*
X99997Y17530D01*
X99897Y17497D01*
X99597Y17497D01*
X99830Y17497D02*
X100063Y17131D01*
X100686Y17730D02*
X100620Y17797D01*
X100520Y17830D01*
X100387Y17830D01*
X100287Y17797D01*
X100220Y17730D01*
X100220Y17664D01*
X100253Y17597D01*
X100287Y17564D01*
X100353Y17530D01*
X100553Y17464D01*
X100620Y17430D01*
X100653Y17397D01*
X100686Y17331D01*
X100686Y17231D01*
X100620Y17164D01*
X100520Y17131D01*
X100387Y17131D01*
X100287Y17164D01*
X100220Y17231D01*
X110869Y17830D02*
X110869Y17131D01*
X110869Y17830D02*
X111303Y17830D01*
X110869Y17497D02*
X111136Y17497D01*
X111383Y17830D02*
X111383Y17131D01*
X111529Y17830D02*
X111529Y17131D01*
X111529Y17830D02*
X111996Y17131D01*
X111996Y17830D02*
X111996Y17131D01*
X112189Y17830D02*
X112189Y17131D01*
X112802Y17730D02*
X112736Y17797D01*
X112636Y17830D01*
X112502Y17830D01*
X112402Y17797D01*
X112336Y17730D01*
X112336Y17664D01*
X112369Y17597D01*
X112402Y17564D01*
X112469Y17530D01*
X112669Y17464D01*
X112736Y17430D01*
X112769Y17397D01*
X112802Y17331D01*
X112802Y17231D01*
X112736Y17164D01*
X112636Y17131D01*
X112502Y17131D01*
X112402Y17164D01*
X112336Y17231D01*
X112959Y17830D02*
X112959Y17131D01*
X113426Y17830D02*
X113426Y17131D01*
X112959Y17497D02*
X113426Y17497D01*
X114052Y17830D02*
X113619Y17830D01*
X113619Y17131D01*
X114052Y17131D01*
X113619Y17497D02*
X113885Y17497D01*
X114169Y17830D02*
X114169Y17131D01*
X114169Y17830D02*
X114402Y17830D01*
X114502Y17797D01*
X114569Y17730D01*
X114602Y17664D01*
X114635Y17564D01*
X114635Y17397D01*
X114602Y17297D01*
X114569Y17231D01*
X114502Y17164D01*
X114402Y17131D01*
X114169Y17131D01*
X109242Y21529D02*
X109208Y21596D01*
X109142Y21662D01*
X109075Y21696D01*
X108942Y21696D01*
X108875Y21662D01*
X108809Y21596D01*
X108775Y21529D01*
X108742Y21429D01*
X108742Y21263D01*
X108775Y21163D01*
X108809Y21096D01*
X108875Y21029D01*
X108942Y20996D01*
X109075Y20996D01*
X109142Y21029D01*
X109208Y21096D01*
X109242Y21163D01*
X109638Y21696D02*
X109572Y21662D01*
X109505Y21596D01*
X109472Y21529D01*
X109438Y21429D01*
X109438Y21263D01*
X109472Y21163D01*
X109505Y21096D01*
X109572Y21029D01*
X109638Y20996D01*
X109772Y20996D01*
X109838Y21029D01*
X109905Y21096D01*
X109938Y21163D01*
X109972Y21263D01*
X109972Y21429D01*
X109938Y21529D01*
X109905Y21596D01*
X109838Y21662D01*
X109772Y21696D01*
X109638Y21696D01*
X110135Y21696D02*
X110135Y20996D01*
X110135Y21696D02*
X110602Y20996D01*
X110602Y21696D02*
X110602Y20996D01*
X111028Y21696D02*
X111028Y20996D01*
X110795Y21696D02*
X111261Y21696D01*
X111345Y21696D02*
X111345Y20996D01*
X111345Y21696D02*
X111645Y21696D01*
X111745Y21662D01*
X111778Y21629D01*
X111811Y21562D01*
X111811Y21496D01*
X111778Y21429D01*
X111745Y21396D01*
X111645Y21363D01*
X111345Y21363D01*
X111578Y21363D02*
X111811Y20996D01*
X112168Y21696D02*
X112101Y21662D01*
X112035Y21596D01*
X112001Y21529D01*
X111968Y21429D01*
X111968Y21263D01*
X112001Y21163D01*
X112035Y21096D01*
X112101Y21029D01*
X112168Y20996D01*
X112301Y20996D01*
X112368Y21029D01*
X112434Y21096D01*
X112468Y21163D01*
X112501Y21263D01*
X112501Y21429D01*
X112468Y21529D01*
X112434Y21596D01*
X112368Y21662D01*
X112301Y21696D01*
X112168Y21696D01*
X112664Y21696D02*
X112664Y20996D01*
X113064Y20996D01*
X113141Y21696D02*
X113141Y20996D01*
X113541Y20996D01*
X114051Y21696D02*
X113618Y21696D01*
X113618Y20996D01*
X114051Y20996D01*
X113618Y21363D02*
X113884Y21363D01*
X114167Y21696D02*
X114167Y20996D01*
X114167Y21696D02*
X114401Y21696D01*
X114501Y21662D01*
X114567Y21596D01*
X114601Y21529D01*
X114634Y21429D01*
X114634Y21263D01*
X114601Y21163D01*
X114567Y21096D01*
X114501Y21029D01*
X114401Y20996D01*
X114167Y20996D01*
X115340Y21696D02*
X115340Y20996D01*
X115487Y21696D02*
X115487Y20996D01*
X115487Y21696D02*
X115754Y20996D01*
X116020Y21696D02*
X115754Y20996D01*
X116020Y21696D02*
X116020Y20996D01*
X116220Y21329D02*
X116520Y21329D01*
X116620Y21363D01*
X116654Y21396D01*
X116687Y21462D01*
X116687Y21562D01*
X116654Y21629D01*
X116620Y21662D01*
X116520Y21696D01*
X116220Y21696D01*
X116220Y20996D01*
X117277Y21696D02*
X116844Y21696D01*
X116844Y20996D01*
X117277Y20996D01*
X116844Y21363D02*
X117110Y21363D01*
X117393Y21696D02*
X117393Y20996D01*
X117393Y21696D02*
X117627Y21696D01*
X117727Y21662D01*
X117793Y21596D01*
X117827Y21529D01*
X117860Y21429D01*
X117860Y21263D01*
X117827Y21163D01*
X117793Y21096D01*
X117727Y21029D01*
X117627Y20996D01*
X117393Y20996D01*
X118550Y20996D02*
X118283Y21696D01*
X118017Y20996D01*
X118117Y21229D02*
X118450Y21229D01*
X118713Y21696D02*
X118713Y20996D01*
X118713Y21696D02*
X119180Y20996D01*
X119180Y21696D02*
X119180Y20996D01*
X119873Y21529D02*
X119840Y21596D01*
X119773Y21662D01*
X119706Y21696D01*
X119573Y21696D01*
X119506Y21662D01*
X119440Y21596D01*
X119406Y21529D01*
X119373Y21429D01*
X119373Y21263D01*
X119406Y21163D01*
X119440Y21096D01*
X119506Y21029D01*
X119573Y20996D01*
X119706Y20996D01*
X119773Y21029D01*
X119840Y21096D01*
X119873Y21163D01*
X120503Y21696D02*
X120069Y21696D01*
X120069Y20996D01*
X120503Y20996D01*
X120069Y21363D02*
X120336Y21363D01*
X99869Y21649D02*
X99869Y20949D01*
X100269Y20949D01*
X100879Y20949D02*
X100613Y21649D01*
X100346Y20949D01*
X100446Y21183D02*
X100779Y21183D01*
X101043Y21649D02*
X101309Y21316D01*
X101309Y20949D01*
X101576Y21649D02*
X101309Y21316D01*
X102099Y21649D02*
X101666Y21649D01*
X101666Y20949D01*
X102099Y20949D01*
X101666Y21316D02*
X101932Y21316D01*
X102216Y21649D02*
X102216Y20949D01*
X102216Y21649D02*
X102516Y21649D01*
X102616Y21616D01*
X102649Y21583D01*
X102682Y21516D01*
X102682Y21449D01*
X102649Y21383D01*
X102616Y21349D01*
X102516Y21316D01*
X102216Y21316D01*
X102449Y21316D02*
X102682Y20949D01*
X103305Y21549D02*
X103239Y21616D01*
X103139Y21649D01*
X103005Y21649D01*
X102905Y21616D01*
X102839Y21549D01*
X102839Y21483D01*
X102872Y21416D01*
X102905Y21383D01*
X102972Y21349D01*
X103172Y21283D01*
X103239Y21249D01*
X103272Y21216D01*
X103305Y21149D01*
X103305Y21049D01*
X103239Y20983D01*
X103139Y20949D01*
X103005Y20949D01*
X102905Y20983D01*
X102839Y21049D01*
X88869Y21649D02*
X88869Y20949D01*
X88869Y21649D02*
X89136Y20949D01*
X89403Y21649D02*
X89136Y20949D01*
X89403Y21649D02*
X89403Y20949D01*
X89603Y21649D02*
X89603Y21149D01*
X89636Y21049D01*
X89703Y20983D01*
X89803Y20949D01*
X89869Y20949D01*
X89969Y20983D01*
X90036Y21049D01*
X90069Y21149D01*
X90069Y21649D01*
X90262Y21649D02*
X90262Y20949D01*
X90662Y20949D01*
X90972Y21649D02*
X90972Y20949D01*
X90739Y21649D02*
X91206Y21649D01*
X91289Y21649D02*
X91289Y20949D01*
X91436Y21649D02*
X91436Y20949D01*
X91835Y20949D01*
X92445Y20949D02*
X92179Y21649D01*
X91912Y20949D01*
X92012Y21183D02*
X92345Y21183D01*
X92609Y21649D02*
X92875Y21316D01*
X92875Y20949D01*
X93142Y21649D02*
X92875Y21316D01*
X93665Y21649D02*
X93232Y21649D01*
X93232Y20949D01*
X93665Y20949D01*
X93232Y21316D02*
X93498Y21316D01*
X93782Y21649D02*
X93782Y20949D01*
X93782Y21649D02*
X94082Y21649D01*
X94182Y21616D01*
X94215Y21583D01*
X94248Y21516D01*
X94248Y21449D01*
X94215Y21383D01*
X94182Y21349D01*
X94082Y21316D01*
X93782Y21316D01*
X94015Y21316D02*
X94248Y20949D01*
X86619Y23362D02*
X86619Y22662D01*
X86619Y23362D02*
X87053Y23362D01*
X86619Y23029D02*
X86886Y23029D01*
X87133Y23362D02*
X87133Y22662D01*
X87133Y23362D02*
X87433Y23362D01*
X87533Y23329D01*
X87566Y23295D01*
X87599Y23229D01*
X87599Y23162D01*
X87566Y23095D01*
X87533Y23062D01*
X87433Y23029D01*
X87133Y23029D01*
X87366Y23029D02*
X87599Y22662D01*
X87756Y22962D02*
X88356Y22962D01*
X88896Y23362D02*
X88562Y22895D01*
X89062Y22895D01*
X88896Y23362D02*
X88896Y22662D01*
X89902Y23129D02*
X89835Y23095D01*
X89769Y23029D01*
X89735Y22929D01*
X89735Y22862D01*
X89769Y22762D01*
X89835Y22695D01*
X89902Y22662D01*
X90002Y22662D01*
X90069Y22695D01*
X90135Y22762D01*
X90169Y22862D01*
X90169Y22929D01*
X90135Y23029D01*
X90069Y23095D01*
X90002Y23129D01*
X89902Y23129D01*
X90322Y23129D02*
X90322Y22662D01*
X90322Y22929D02*
X90355Y23029D01*
X90422Y23095D01*
X90489Y23129D01*
X90589Y23129D01*
X91635Y23362D02*
X91202Y23362D01*
X91202Y22662D01*
X91635Y22662D01*
X91202Y23029D02*
X91468Y23029D01*
X92152Y23129D02*
X92152Y22429D01*
X92152Y23029D02*
X92085Y23095D01*
X92018Y23129D01*
X91918Y23129D01*
X91852Y23095D01*
X91785Y23029D01*
X91752Y22929D01*
X91752Y22862D01*
X91785Y22762D01*
X91852Y22695D01*
X91918Y22662D01*
X92018Y22662D01*
X92085Y22695D01*
X92152Y22762D01*
X92338Y23129D02*
X92338Y22795D01*
X92372Y22695D01*
X92438Y22662D01*
X92538Y22662D01*
X92605Y22695D01*
X92705Y22795D01*
X92705Y23129D02*
X92705Y22662D01*
X92955Y23362D02*
X92988Y23329D01*
X93021Y23362D01*
X92988Y23395D01*
X92955Y23362D01*
X92988Y23129D02*
X92988Y22662D01*
X93145Y23129D02*
X93345Y22662D01*
X93545Y23129D02*
X93345Y22662D01*
X94058Y23129D02*
X94058Y22662D01*
X94058Y23029D02*
X93991Y23095D01*
X93925Y23129D01*
X93825Y23129D01*
X93758Y23095D01*
X93691Y23029D01*
X93658Y22929D01*
X93658Y22862D01*
X93691Y22762D01*
X93758Y22695D01*
X93825Y22662D01*
X93925Y22662D01*
X93991Y22695D01*
X94058Y22762D01*
X94244Y23362D02*
X94244Y22662D01*
X94391Y22929D02*
X94791Y22929D01*
X94791Y22995D01*
X94758Y23062D01*
X94724Y23095D01*
X94658Y23129D01*
X94558Y23129D01*
X94491Y23095D01*
X94424Y23029D01*
X94391Y22929D01*
X94391Y22862D01*
X94424Y22762D01*
X94491Y22695D01*
X94558Y22662D01*
X94658Y22662D01*
X94724Y22695D01*
X94791Y22762D01*
X94941Y23129D02*
X94941Y22662D01*
X94941Y22995D02*
X95041Y23095D01*
X95108Y23129D01*
X95208Y23129D01*
X95274Y23095D01*
X95308Y22995D01*
X95308Y22662D01*
X95591Y23362D02*
X95591Y22795D01*
X95624Y22695D01*
X95691Y22662D01*
X95758Y22662D01*
X95491Y23129D02*
X95724Y23129D01*
X78819Y25181D02*
X78753Y25147D01*
X78686Y25081D01*
X78653Y25014D01*
X78619Y24914D01*
X78619Y24748D01*
X78653Y24648D01*
X78686Y24581D01*
X78753Y24514D01*
X78819Y24481D01*
X78953Y24481D01*
X79019Y24514D01*
X79086Y24581D01*
X79119Y24648D01*
X79153Y24748D01*
X79153Y24914D01*
X79119Y25014D01*
X79086Y25081D01*
X79019Y25147D01*
X78953Y25181D01*
X78819Y25181D01*
X79316Y25181D02*
X79316Y24481D01*
X79316Y25181D02*
X79749Y25181D01*
X79316Y24848D02*
X79583Y24848D01*
X80912Y24481D02*
X80646Y25181D01*
X80379Y24481D01*
X80479Y24714D02*
X80812Y24714D01*
X82125Y25014D02*
X82092Y25081D01*
X82025Y25147D01*
X81959Y25181D01*
X81825Y25181D01*
X81759Y25147D01*
X81692Y25081D01*
X81659Y25014D01*
X81625Y24914D01*
X81625Y24748D01*
X81659Y24648D01*
X81692Y24581D01*
X81759Y24514D01*
X81825Y24481D01*
X81959Y24481D01*
X82025Y24514D01*
X82092Y24581D01*
X82125Y24648D01*
X82322Y25181D02*
X82322Y24481D01*
X82722Y24481D01*
X83332Y24481D02*
X83065Y25181D01*
X82799Y24481D01*
X82899Y24714D02*
X83232Y24714D01*
X83962Y25081D02*
X83895Y25147D01*
X83795Y25181D01*
X83662Y25181D01*
X83562Y25147D01*
X83495Y25081D01*
X83495Y25014D01*
X83528Y24948D01*
X83562Y24914D01*
X83628Y24881D01*
X83828Y24814D01*
X83895Y24781D01*
X83928Y24748D01*
X83962Y24681D01*
X83962Y24581D01*
X83895Y24514D01*
X83795Y24481D01*
X83662Y24481D01*
X83562Y24514D01*
X83495Y24581D01*
X84585Y25081D02*
X84518Y25147D01*
X84418Y25181D01*
X84285Y25181D01*
X84185Y25147D01*
X84118Y25081D01*
X84118Y25014D01*
X84152Y24948D01*
X84185Y24914D01*
X84252Y24881D01*
X84452Y24814D01*
X84518Y24781D01*
X84552Y24748D01*
X84585Y24681D01*
X84585Y24581D01*
X84518Y24514D01*
X84418Y24481D01*
X84285Y24481D01*
X84185Y24514D01*
X84118Y24581D01*
X85325Y25014D02*
X85325Y25048D01*
X85358Y25114D01*
X85391Y25147D01*
X85458Y25181D01*
X85591Y25181D01*
X85658Y25147D01*
X85691Y25114D01*
X85725Y25048D01*
X85725Y24981D01*
X85691Y24914D01*
X85625Y24814D01*
X85291Y24481D01*
X85758Y24481D01*
X86464Y24814D02*
X86764Y24814D01*
X86864Y24848D01*
X86898Y24881D01*
X86931Y24948D01*
X86931Y25048D01*
X86898Y25114D01*
X86864Y25147D01*
X86764Y25181D01*
X86464Y25181D01*
X86464Y24481D01*
X87588Y25014D02*
X87554Y25081D01*
X87488Y25147D01*
X87421Y25181D01*
X87288Y25181D01*
X87221Y25147D01*
X87154Y25081D01*
X87121Y25014D01*
X87088Y24914D01*
X87088Y24748D01*
X87121Y24648D01*
X87154Y24581D01*
X87221Y24514D01*
X87288Y24481D01*
X87421Y24481D01*
X87488Y24514D01*
X87554Y24581D01*
X87588Y24648D01*
X87784Y25181D02*
X87784Y24481D01*
X87784Y25181D02*
X88084Y25181D01*
X88184Y25147D01*
X88217Y25114D01*
X88251Y25048D01*
X88251Y24981D01*
X88217Y24914D01*
X88184Y24881D01*
X88084Y24848D01*
X87784Y24848D02*
X88084Y24848D01*
X88184Y24814D01*
X88217Y24781D01*
X88251Y24714D01*
X88251Y24614D01*
X88217Y24548D01*
X88184Y24514D01*
X88084Y24481D01*
X87784Y24481D01*
X88957Y24814D02*
X89257Y24814D01*
X89357Y24848D01*
X89390Y24881D01*
X89424Y24948D01*
X89424Y25048D01*
X89390Y25114D01*
X89357Y25147D01*
X89257Y25181D01*
X88957Y25181D01*
X88957Y24481D01*
X90014Y25181D02*
X89580Y25181D01*
X89580Y24481D01*
X90014Y24481D01*
X89580Y24848D02*
X89847Y24848D01*
X90130Y25181D02*
X90130Y24481D01*
X90130Y25181D02*
X90430Y25181D01*
X90530Y25147D01*
X90564Y25114D01*
X90597Y25048D01*
X90597Y24981D01*
X90564Y24914D01*
X90530Y24881D01*
X90430Y24848D01*
X90130Y24848D01*
X90364Y24848D02*
X90597Y24481D01*
X91837Y24481D02*
X91570Y25181D01*
X91303Y24481D01*
X91403Y24714D02*
X91737Y24714D01*
X92000Y25181D02*
X92000Y24481D01*
X92000Y25181D02*
X92466Y24481D01*
X92466Y25181D02*
X92466Y24481D01*
X93126Y25081D02*
X93060Y25147D01*
X92960Y25181D01*
X92826Y25181D01*
X92726Y25147D01*
X92660Y25081D01*
X92660Y25014D01*
X92693Y24948D01*
X92726Y24914D01*
X92793Y24881D01*
X92993Y24814D01*
X93060Y24781D01*
X93093Y24748D01*
X93126Y24681D01*
X93126Y24581D01*
X93060Y24514D01*
X92960Y24481D01*
X92826Y24481D01*
X92726Y24514D01*
X92660Y24581D01*
X93283Y25181D02*
X93283Y24481D01*
X93430Y24381D02*
X93896Y25181D01*
X93943Y25181D02*
X93943Y24481D01*
X94089Y24814D02*
X94389Y24814D01*
X94489Y24848D01*
X94523Y24881D01*
X94556Y24948D01*
X94556Y25048D01*
X94523Y25114D01*
X94489Y25147D01*
X94389Y25181D01*
X94089Y25181D01*
X94089Y24481D01*
X95213Y25014D02*
X95179Y25081D01*
X95113Y25147D01*
X95046Y25181D01*
X94913Y25181D01*
X94846Y25147D01*
X94779Y25081D01*
X94746Y25014D01*
X94713Y24914D01*
X94713Y24748D01*
X94746Y24648D01*
X94779Y24581D01*
X94846Y24514D01*
X94913Y24481D01*
X95046Y24481D01*
X95113Y24514D01*
X95179Y24581D01*
X95213Y24648D01*
X95409Y24781D02*
X96009Y24781D01*
X96749Y24481D02*
X96482Y25181D01*
X96216Y24481D01*
X96316Y24714D02*
X96649Y24714D01*
X96912Y24781D02*
X97512Y24781D01*
X98119Y25081D02*
X98085Y25147D01*
X97985Y25181D01*
X97919Y25181D01*
X97819Y25147D01*
X97752Y25048D01*
X97719Y24881D01*
X97719Y24714D01*
X97752Y24581D01*
X97819Y24514D01*
X97919Y24481D01*
X97952Y24481D01*
X98052Y24514D01*
X98119Y24581D01*
X98152Y24681D01*
X98152Y24714D01*
X98119Y24814D01*
X98052Y24881D01*
X97952Y24914D01*
X97919Y24914D01*
X97819Y24881D01*
X97752Y24814D01*
X97719Y24714D01*
X98505Y25181D02*
X98405Y25147D01*
X98339Y25048D01*
X98305Y24881D01*
X98305Y24781D01*
X98339Y24614D01*
X98405Y24514D01*
X98505Y24481D01*
X98572Y24481D01*
X98672Y24514D01*
X98738Y24614D01*
X98772Y24781D01*
X98772Y24881D01*
X98738Y25048D01*
X98672Y25147D01*
X98572Y25181D01*
X98505Y25181D01*
X99128Y25181D02*
X99028Y25147D01*
X98962Y25048D01*
X98928Y24881D01*
X98928Y24781D01*
X98962Y24614D01*
X99028Y24514D01*
X99128Y24481D01*
X99195Y24481D01*
X99295Y24514D01*
X99362Y24614D01*
X99395Y24781D01*
X99395Y24881D01*
X99362Y25048D01*
X99295Y25147D01*
X99195Y25181D01*
X99128Y25181D01*
X100052Y25014D02*
X100018Y25081D01*
X99952Y25147D01*
X99885Y25181D01*
X99752Y25181D01*
X99685Y25147D01*
X99618Y25081D01*
X99585Y25014D01*
X99552Y24914D01*
X99552Y24748D01*
X99585Y24648D01*
X99618Y24581D01*
X99685Y24514D01*
X99752Y24481D01*
X99885Y24481D01*
X99952Y24514D01*
X100018Y24581D01*
X100052Y24648D01*
X100052Y24748D01*
X99885Y24748D02*
X100052Y24748D01*
X100245Y24548D02*
X100211Y24514D01*
X100245Y24481D01*
X100278Y24514D01*
X100245Y24548D01*
X78853Y26681D02*
X78853Y25981D01*
X78619Y26681D02*
X79086Y26681D01*
X79169Y26681D02*
X79169Y25981D01*
X79636Y26681D02*
X79636Y25981D01*
X79169Y26348D02*
X79636Y26348D01*
X79829Y26681D02*
X79829Y25981D01*
X80442Y26581D02*
X80376Y26647D01*
X80276Y26681D01*
X80142Y26681D01*
X80042Y26647D01*
X79976Y26581D01*
X79976Y26514D01*
X80009Y26448D01*
X80042Y26414D01*
X80109Y26381D01*
X80309Y26314D01*
X80376Y26281D01*
X80409Y26248D01*
X80442Y26181D01*
X80442Y26081D01*
X80376Y26014D01*
X80276Y25981D01*
X80142Y25981D01*
X80042Y26014D01*
X79976Y26081D01*
X81149Y26314D02*
X81449Y26314D01*
X81549Y26348D01*
X81582Y26381D01*
X81615Y26448D01*
X81615Y26548D01*
X81582Y26614D01*
X81549Y26647D01*
X81449Y26681D01*
X81149Y26681D01*
X81149Y25981D01*
X82272Y26514D02*
X82239Y26581D01*
X82172Y26647D01*
X82105Y26681D01*
X81972Y26681D01*
X81905Y26647D01*
X81839Y26581D01*
X81805Y26514D01*
X81772Y26414D01*
X81772Y26248D01*
X81805Y26148D01*
X81839Y26081D01*
X81905Y26014D01*
X81972Y25981D01*
X82105Y25981D01*
X82172Y26014D01*
X82239Y26081D01*
X82272Y26148D01*
X82469Y26681D02*
X82469Y25981D01*
X82469Y26681D02*
X82769Y26681D01*
X82869Y26647D01*
X82902Y26614D01*
X82935Y26548D01*
X82935Y26481D01*
X82902Y26414D01*
X82869Y26381D01*
X82769Y26348D01*
X82469Y26348D02*
X82769Y26348D01*
X82869Y26314D01*
X82902Y26281D01*
X82935Y26214D01*
X82935Y26114D01*
X82902Y26048D01*
X82869Y26014D01*
X82769Y25981D01*
X82469Y25981D01*
X83875Y26681D02*
X83875Y25981D01*
X83642Y26681D02*
X84108Y26681D01*
X84392Y26681D02*
X84325Y26647D01*
X84258Y26581D01*
X84225Y26514D01*
X84192Y26414D01*
X84192Y26248D01*
X84225Y26148D01*
X84258Y26081D01*
X84325Y26014D01*
X84392Y25981D01*
X84525Y25981D01*
X84592Y26014D01*
X84658Y26081D01*
X84691Y26148D01*
X84725Y26248D01*
X84725Y26414D01*
X84691Y26514D01*
X84658Y26581D01*
X84592Y26647D01*
X84525Y26681D01*
X84392Y26681D01*
X85438Y26681D02*
X85438Y25981D01*
X85438Y26681D02*
X85738Y26681D01*
X85838Y26647D01*
X85871Y26614D01*
X85905Y26548D01*
X85905Y26481D01*
X85871Y26414D01*
X85838Y26381D01*
X85738Y26348D01*
X85438Y26348D02*
X85738Y26348D01*
X85838Y26314D01*
X85871Y26281D01*
X85905Y26214D01*
X85905Y26114D01*
X85871Y26048D01*
X85838Y26014D01*
X85738Y25981D01*
X85438Y25981D01*
X86494Y26681D02*
X86061Y26681D01*
X86061Y25981D01*
X86494Y25981D01*
X86061Y26348D02*
X86328Y26348D01*
X87161Y26681D02*
X87161Y25981D01*
X87161Y26681D02*
X87428Y25981D01*
X87694Y26681D02*
X87428Y25981D01*
X87694Y26681D02*
X87694Y25981D01*
X88427Y25981D02*
X88161Y26681D01*
X87894Y25981D01*
X87994Y26214D02*
X88327Y26214D01*
X88591Y26681D02*
X88591Y25981D01*
X88591Y26681D02*
X89057Y25981D01*
X89057Y26681D02*
X89057Y25981D01*
X89251Y26681D02*
X89251Y26181D01*
X89284Y26081D01*
X89350Y26014D01*
X89450Y25981D01*
X89517Y25981D01*
X89617Y26014D01*
X89684Y26081D01*
X89717Y26181D01*
X89717Y26681D01*
X89910Y26681D02*
X89910Y25981D01*
X89910Y26681D02*
X90344Y26681D01*
X89910Y26348D02*
X90177Y26348D01*
X90957Y25981D02*
X90690Y26681D01*
X90424Y25981D01*
X90524Y26214D02*
X90857Y26214D01*
X91620Y26514D02*
X91587Y26581D01*
X91520Y26647D01*
X91453Y26681D01*
X91320Y26681D01*
X91253Y26647D01*
X91187Y26581D01*
X91153Y26514D01*
X91120Y26414D01*
X91120Y26248D01*
X91153Y26148D01*
X91187Y26081D01*
X91253Y26014D01*
X91320Y25981D01*
X91453Y25981D01*
X91520Y26014D01*
X91587Y26081D01*
X91620Y26148D01*
X92050Y26681D02*
X92050Y25981D01*
X91817Y26681D02*
X92283Y26681D01*
X92367Y26681D02*
X92367Y26181D01*
X92400Y26081D01*
X92466Y26014D01*
X92566Y25981D01*
X92633Y25981D01*
X92733Y26014D01*
X92800Y26081D01*
X92833Y26181D01*
X92833Y26681D01*
X93026Y26681D02*
X93026Y25981D01*
X93026Y26681D02*
X93326Y26681D01*
X93426Y26647D01*
X93460Y26614D01*
X93493Y26548D01*
X93493Y26481D01*
X93460Y26414D01*
X93426Y26381D01*
X93326Y26348D01*
X93026Y26348D01*
X93260Y26348D02*
X93493Y25981D01*
X94083Y26681D02*
X93650Y26681D01*
X93650Y25981D01*
X94083Y25981D01*
X93650Y26348D02*
X93916Y26348D01*
X94199Y26681D02*
X94199Y25981D01*
X94199Y26681D02*
X94433Y26681D01*
X94533Y26647D01*
X94599Y26581D01*
X94633Y26514D01*
X94666Y26414D01*
X94666Y26248D01*
X94633Y26148D01*
X94599Y26081D01*
X94533Y26014D01*
X94433Y25981D01*
X94199Y25981D01*
X95606Y26681D02*
X95606Y25981D01*
X95373Y26681D02*
X95839Y26681D01*
X96122Y26681D02*
X96056Y26647D01*
X95989Y26581D01*
X95956Y26514D01*
X95922Y26414D01*
X95922Y26248D01*
X95956Y26148D01*
X95989Y26081D01*
X96056Y26014D01*
X96122Y25981D01*
X96256Y25981D01*
X96322Y26014D01*
X96389Y26081D01*
X96422Y26148D01*
X96456Y26248D01*
X96456Y26414D01*
X96422Y26514D01*
X96389Y26581D01*
X96322Y26647D01*
X96256Y26681D01*
X96122Y26681D01*
X97169Y26681D02*
X97169Y25981D01*
X97169Y26681D02*
X97435Y25981D01*
X97702Y26681D02*
X97435Y25981D01*
X97702Y26681D02*
X97702Y25981D01*
X98335Y26681D02*
X97902Y26681D01*
X97902Y25981D01*
X98335Y25981D01*
X97902Y26348D02*
X98169Y26348D01*
X98885Y26681D02*
X98452Y26681D01*
X98452Y25981D01*
X98885Y25981D01*
X98452Y26348D02*
X98718Y26348D01*
X99235Y26681D02*
X99235Y25981D01*
X99002Y26681D02*
X99468Y26681D01*
X100635Y25981D02*
X100368Y26681D01*
X100102Y25981D01*
X100202Y26214D02*
X100535Y26214D01*
X100798Y26681D02*
X100798Y25981D01*
X101198Y25981D01*
X101275Y26681D02*
X101275Y25981D01*
X101675Y25981D01*
X102834Y25981D02*
X102568Y26681D01*
X102301Y25981D01*
X102401Y26214D02*
X102734Y26214D01*
X103497Y26514D02*
X103464Y26581D01*
X103397Y26647D01*
X103331Y26681D01*
X103198Y26681D01*
X103131Y26647D01*
X103064Y26581D01*
X103031Y26514D01*
X102998Y26414D01*
X102998Y26248D01*
X103031Y26148D01*
X103064Y26081D01*
X103131Y26014D01*
X103198Y25981D01*
X103331Y25981D01*
X103397Y26014D01*
X103464Y26081D01*
X103497Y26148D01*
X104194Y26514D02*
X104161Y26581D01*
X104094Y26647D01*
X104027Y26681D01*
X103894Y26681D01*
X103827Y26647D01*
X103761Y26581D01*
X103727Y26514D01*
X103694Y26414D01*
X103694Y26248D01*
X103727Y26148D01*
X103761Y26081D01*
X103827Y26014D01*
X103894Y25981D01*
X104027Y25981D01*
X104094Y26014D01*
X104161Y26081D01*
X104194Y26148D01*
X104824Y26681D02*
X104391Y26681D01*
X104391Y25981D01*
X104824Y25981D01*
X104391Y26348D02*
X104657Y26348D01*
X104940Y26314D02*
X105240Y26314D01*
X105340Y26348D01*
X105374Y26381D01*
X105407Y26448D01*
X105407Y26548D01*
X105374Y26614D01*
X105340Y26647D01*
X105240Y26681D01*
X104940Y26681D01*
X104940Y25981D01*
X105797Y26681D02*
X105797Y25981D01*
X105564Y26681D02*
X106030Y26681D01*
X106647Y25981D02*
X106380Y26681D01*
X106114Y25981D01*
X106214Y26214D02*
X106547Y26214D01*
X106810Y26681D02*
X106810Y25981D01*
X106810Y26681D02*
X107277Y25981D01*
X107277Y26681D02*
X107277Y25981D01*
X107970Y26514D02*
X107937Y26581D01*
X107870Y26647D01*
X107803Y26681D01*
X107670Y26681D01*
X107603Y26647D01*
X107537Y26581D01*
X107503Y26514D01*
X107470Y26414D01*
X107470Y26248D01*
X107503Y26148D01*
X107537Y26081D01*
X107603Y26014D01*
X107670Y25981D01*
X107803Y25981D01*
X107870Y26014D01*
X107937Y26081D01*
X107970Y26148D01*
X108600Y26681D02*
X108166Y26681D01*
X108166Y25981D01*
X108600Y25981D01*
X108166Y26348D02*
X108433Y26348D01*
X109266Y26681D02*
X109266Y25981D01*
X109666Y25981D01*
X110176Y26681D02*
X109743Y26681D01*
X109743Y25981D01*
X110176Y25981D01*
X109743Y26348D02*
X110009Y26348D01*
X110293Y26681D02*
X110559Y25981D01*
X110826Y26681D02*
X110559Y25981D01*
X111349Y26681D02*
X110916Y26681D01*
X110916Y25981D01*
X111349Y25981D01*
X110916Y26348D02*
X111182Y26348D01*
X111466Y26681D02*
X111466Y25981D01*
X111866Y25981D01*
X112409Y26581D02*
X112342Y26647D01*
X112242Y26681D01*
X112109Y26681D01*
X112009Y26647D01*
X111942Y26581D01*
X111942Y26514D01*
X111976Y26448D01*
X112009Y26414D01*
X112076Y26381D01*
X112276Y26314D01*
X112342Y26281D01*
X112376Y26248D01*
X112409Y26181D01*
X112409Y26081D01*
X112342Y26014D01*
X112242Y25981D01*
X112109Y25981D01*
X112009Y26014D01*
X111942Y26081D01*
X89336Y4256D02*
X89269Y4323D01*
X89169Y4356D01*
X89036Y4356D01*
X88936Y4323D01*
X88869Y4256D01*
X88869Y4189D01*
X88903Y4123D01*
X88936Y4089D01*
X89003Y4056D01*
X89203Y3989D01*
X89269Y3956D01*
X89303Y3923D01*
X89336Y3856D01*
X89336Y3756D01*
X89269Y3689D01*
X89169Y3656D01*
X89036Y3656D01*
X88936Y3689D01*
X88869Y3756D01*
X89493Y4356D02*
X89493Y3656D01*
X89493Y4356D02*
X89759Y3656D01*
X90026Y4356D02*
X89759Y3656D01*
X90026Y4356D02*
X90026Y3656D01*
X90426Y4356D02*
X90359Y4323D01*
X90292Y4256D01*
X90259Y4189D01*
X90226Y4089D01*
X90226Y3923D01*
X90259Y3823D01*
X90292Y3756D01*
X90359Y3689D01*
X90426Y3656D01*
X90559Y3656D01*
X90626Y3689D01*
X90692Y3756D01*
X90726Y3823D01*
X90759Y3923D01*
X90759Y4089D01*
X90726Y4189D01*
X90692Y4256D01*
X90626Y4323D01*
X90559Y4356D01*
X90426Y4356D01*
X90922Y4356D02*
X90922Y3656D01*
X90922Y4356D02*
X91222Y4356D01*
X91322Y4323D01*
X91356Y4289D01*
X91389Y4223D01*
X91389Y4156D01*
X91356Y4089D01*
X91322Y4056D01*
X91222Y4023D01*
X90922Y4023D02*
X91222Y4023D01*
X91322Y3989D01*
X91356Y3956D01*
X91389Y3889D01*
X91389Y3789D01*
X91356Y3723D01*
X91322Y3689D01*
X91222Y3656D01*
X90922Y3656D01*
X92045Y4189D02*
X92012Y4256D01*
X91945Y4323D01*
X91879Y4356D01*
X91746Y4356D01*
X91679Y4323D01*
X91612Y4256D01*
X91579Y4189D01*
X91546Y4089D01*
X91546Y3923D01*
X91579Y3823D01*
X91612Y3756D01*
X91679Y3689D01*
X91746Y3656D01*
X91879Y3656D01*
X91945Y3689D01*
X92012Y3756D01*
X92045Y3823D01*
X92792Y4356D02*
X92959Y3656D01*
X93125Y4356D02*
X92959Y3656D01*
X93125Y4356D02*
X93292Y3656D01*
X93458Y4356D02*
X93292Y3656D01*
X93598Y4356D02*
X93598Y3656D01*
X93978Y4356D02*
X93978Y3656D01*
X93745Y4356D02*
X94212Y4356D01*
X94295Y4356D02*
X94295Y3656D01*
X94762Y4356D02*
X94762Y3656D01*
X94295Y4023D02*
X94762Y4023D01*
X95971Y4256D02*
X95905Y4323D01*
X95805Y4356D01*
X95671Y4356D01*
X95571Y4323D01*
X95505Y4256D01*
X95505Y4189D01*
X95538Y4123D01*
X95571Y4089D01*
X95638Y4056D01*
X95838Y3989D01*
X95905Y3956D01*
X95938Y3923D01*
X95971Y3856D01*
X95971Y3756D01*
X95905Y3689D01*
X95805Y3656D01*
X95671Y3656D01*
X95571Y3689D01*
X95505Y3756D01*
X96561Y4356D02*
X96128Y4356D01*
X96128Y3656D01*
X96561Y3656D01*
X96128Y4023D02*
X96395Y4023D01*
X96678Y4356D02*
X96678Y3656D01*
X97078Y3656D01*
X97588Y4356D02*
X97154Y4356D01*
X97154Y3656D01*
X97588Y3656D01*
X97154Y4023D02*
X97421Y4023D01*
X98204Y4189D02*
X98171Y4256D01*
X98104Y4323D01*
X98037Y4356D01*
X97904Y4356D01*
X97838Y4323D01*
X97771Y4256D01*
X97738Y4189D01*
X97704Y4089D01*
X97704Y3923D01*
X97738Y3823D01*
X97771Y3756D01*
X97838Y3689D01*
X97904Y3656D01*
X98037Y3656D01*
X98104Y3689D01*
X98171Y3756D01*
X98204Y3823D01*
X98634Y4356D02*
X98634Y3656D01*
X98401Y4356D02*
X98867Y4356D01*
X98951Y4356D02*
X98951Y3656D01*
X99097Y4356D02*
X99364Y3656D01*
X99630Y4356D02*
X99364Y3656D01*
X100154Y4356D02*
X99720Y4356D01*
X99720Y3656D01*
X100154Y3656D01*
X99720Y4023D02*
X99987Y4023D01*
X101320Y4189D02*
X101287Y4256D01*
X101220Y4323D01*
X101153Y4356D01*
X101020Y4356D01*
X100954Y4323D01*
X100887Y4256D01*
X100854Y4189D01*
X100820Y4089D01*
X100820Y3923D01*
X100854Y3823D01*
X100887Y3756D01*
X100954Y3689D01*
X101020Y3656D01*
X101153Y3656D01*
X101220Y3689D01*
X101287Y3756D01*
X101320Y3823D01*
X101320Y3923D01*
X101153Y3923D02*
X101320Y3923D01*
X101680Y4356D02*
X101613Y4323D01*
X101547Y4256D01*
X101513Y4189D01*
X101480Y4089D01*
X101480Y3923D01*
X101513Y3823D01*
X101547Y3756D01*
X101613Y3689D01*
X101680Y3656D01*
X101813Y3656D01*
X101880Y3689D01*
X101947Y3756D01*
X101980Y3823D01*
X102013Y3923D01*
X102013Y4089D01*
X101980Y4189D01*
X101947Y4256D01*
X101880Y4323D01*
X101813Y4356D01*
X101680Y4356D01*
X102177Y4356D02*
X102177Y3656D01*
X102577Y3656D01*
X102653Y4356D02*
X102653Y3656D01*
X102653Y4356D02*
X102886Y4356D01*
X102986Y4323D01*
X103053Y4256D01*
X103086Y4189D01*
X103120Y4089D01*
X103120Y3923D01*
X103086Y3823D01*
X103053Y3756D01*
X102986Y3689D01*
X102886Y3656D01*
X102653Y3656D01*
X103826Y3989D02*
X104126Y3989D01*
X104226Y4023D01*
X104259Y4056D01*
X104293Y4123D01*
X104293Y4223D01*
X104259Y4289D01*
X104226Y4323D01*
X104126Y4356D01*
X103826Y4356D01*
X103826Y3656D01*
X104449Y4356D02*
X104449Y3656D01*
X104849Y3656D01*
X105459Y3656D02*
X105193Y4356D01*
X104926Y3656D01*
X105026Y3889D02*
X105359Y3889D01*
X105856Y4356D02*
X105856Y3656D01*
X105623Y4356D02*
X106089Y4356D01*
X106172Y4356D02*
X106172Y3656D01*
X106319Y4356D02*
X106319Y3656D01*
X106319Y4356D02*
X106786Y3656D01*
X106786Y4356D02*
X106786Y3656D01*
X107479Y4189D02*
X107445Y4256D01*
X107379Y4323D01*
X107312Y4356D01*
X107179Y4356D01*
X107112Y4323D01*
X107046Y4256D01*
X107012Y4189D01*
X106979Y4089D01*
X106979Y3923D01*
X107012Y3823D01*
X107046Y3756D01*
X107112Y3689D01*
X107179Y3656D01*
X107312Y3656D01*
X107379Y3689D01*
X107445Y3756D01*
X107479Y3823D01*
X107479Y3923D01*
X107312Y3923D02*
X107479Y3923D01*
X108389Y4356D02*
X108322Y4323D01*
X108255Y4256D01*
X108222Y4189D01*
X108189Y4089D01*
X108189Y3923D01*
X108222Y3823D01*
X108255Y3756D01*
X108322Y3689D01*
X108389Y3656D01*
X108522Y3656D01*
X108589Y3689D01*
X108655Y3756D01*
X108689Y3823D01*
X108722Y3923D01*
X108722Y4089D01*
X108689Y4189D01*
X108655Y4256D01*
X108589Y4323D01*
X108522Y4356D01*
X108389Y4356D01*
X108885Y4356D02*
X108885Y3656D01*
X108885Y4356D02*
X109352Y3656D01*
X109352Y4356D02*
X109352Y3656D01*
X110095Y4356D02*
X110095Y3656D01*
X110495Y3656D01*
X111105Y3656D02*
X110838Y4356D01*
X110571Y3656D01*
X110671Y3889D02*
X111005Y3889D01*
X111268Y4356D02*
X111268Y3656D01*
X111268Y4356D02*
X111735Y3656D01*
X111735Y4356D02*
X111735Y3656D01*
X111928Y4356D02*
X111928Y3656D01*
X111928Y4356D02*
X112161Y4356D01*
X112261Y4323D01*
X112328Y4256D01*
X112361Y4189D01*
X112394Y4089D01*
X112394Y3923D01*
X112361Y3823D01*
X112328Y3756D01*
X112261Y3689D01*
X112161Y3656D01*
X111928Y3656D01*
X113018Y4256D02*
X112951Y4323D01*
X112851Y4356D01*
X112718Y4356D01*
X112618Y4323D01*
X112551Y4256D01*
X112551Y4189D01*
X112584Y4123D01*
X112618Y4089D01*
X112684Y4056D01*
X112884Y3989D01*
X112951Y3956D01*
X112984Y3923D01*
X113018Y3856D01*
X113018Y3756D01*
X112951Y3689D01*
X112851Y3656D01*
X112718Y3656D01*
X112618Y3689D01*
X112551Y3756D01*
X99119Y-4048D02*
X99286Y-4747D01*
X99453Y-4048D02*
X99286Y-4747D01*
X99453Y-4048D02*
X99619Y-4747D01*
X99786Y-4048D02*
X99619Y-4747D01*
X99926Y-4048D02*
X99926Y-4747D01*
X100393Y-4048D02*
X100393Y-4747D01*
X99926Y-4381D02*
X100393Y-4381D01*
X100586Y-4048D02*
X100586Y-4747D01*
X100966Y-4048D02*
X100966Y-4747D01*
X100732Y-4048D02*
X101199Y-4048D01*
X101716Y-4048D02*
X101282Y-4048D01*
X101282Y-4747D01*
X101716Y-4747D01*
X101282Y-4381D02*
X101549Y-4381D01*
X87086Y-4148D02*
X87019Y-4081D01*
X86919Y-4048D01*
X86786Y-4048D01*
X86686Y-4081D01*
X86619Y-4148D01*
X86619Y-4214D01*
X86653Y-4281D01*
X86686Y-4314D01*
X86753Y-4347D01*
X86953Y-4414D01*
X87019Y-4447D01*
X87053Y-4481D01*
X87086Y-4547D01*
X87086Y-4647D01*
X87019Y-4714D01*
X86919Y-4747D01*
X86786Y-4747D01*
X86686Y-4714D01*
X86619Y-4647D01*
X87243Y-4048D02*
X87243Y-4747D01*
X87389Y-4048D02*
X87389Y-4747D01*
X87789Y-4747D01*
X87866Y-4048D02*
X87866Y-4747D01*
X88332Y-4048D02*
X87866Y-4514D01*
X88032Y-4347D02*
X88332Y-4747D01*
X88956Y-4148D02*
X88889Y-4081D01*
X88789Y-4048D01*
X88656Y-4048D01*
X88556Y-4081D01*
X88489Y-4148D01*
X88489Y-4214D01*
X88522Y-4281D01*
X88556Y-4314D01*
X88622Y-4347D01*
X88822Y-4414D01*
X88889Y-4447D01*
X88922Y-4481D01*
X88956Y-4547D01*
X88956Y-4647D01*
X88889Y-4714D01*
X88789Y-4747D01*
X88656Y-4747D01*
X88556Y-4714D01*
X88489Y-4647D01*
X89612Y-4214D02*
X89579Y-4148D01*
X89512Y-4081D01*
X89446Y-4048D01*
X89312Y-4048D01*
X89246Y-4081D01*
X89179Y-4148D01*
X89146Y-4214D01*
X89112Y-4314D01*
X89112Y-4481D01*
X89146Y-4581D01*
X89179Y-4647D01*
X89246Y-4714D01*
X89312Y-4747D01*
X89446Y-4747D01*
X89512Y-4714D01*
X89579Y-4647D01*
X89612Y-4581D01*
X89809Y-4048D02*
X89809Y-4747D01*
X89809Y-4048D02*
X90109Y-4048D01*
X90209Y-4081D01*
X90242Y-4114D01*
X90275Y-4181D01*
X90275Y-4247D01*
X90242Y-4314D01*
X90209Y-4347D01*
X90109Y-4381D01*
X89809Y-4381D01*
X90042Y-4381D02*
X90275Y-4747D01*
X90865Y-4048D02*
X90432Y-4048D01*
X90432Y-4747D01*
X90865Y-4747D01*
X90432Y-4381D02*
X90699Y-4381D01*
X91415Y-4048D02*
X90982Y-4048D01*
X90982Y-4747D01*
X91415Y-4747D01*
X90982Y-4381D02*
X91248Y-4381D01*
X91532Y-4048D02*
X91532Y-4747D01*
X91532Y-4048D02*
X91998Y-4747D01*
X91998Y-4048D02*
X91998Y-4747D01*
X93241Y-4214D02*
X93208Y-4148D01*
X93141Y-4081D01*
X93075Y-4048D01*
X92941Y-4048D01*
X92875Y-4081D01*
X92808Y-4148D01*
X92775Y-4214D01*
X92741Y-4314D01*
X92741Y-4481D01*
X92775Y-4581D01*
X92808Y-4647D01*
X92875Y-4714D01*
X92941Y-4747D01*
X93075Y-4747D01*
X93141Y-4714D01*
X93208Y-4647D01*
X93241Y-4581D01*
X93638Y-4048D02*
X93571Y-4081D01*
X93505Y-4148D01*
X93471Y-4214D01*
X93438Y-4314D01*
X93438Y-4481D01*
X93471Y-4581D01*
X93505Y-4647D01*
X93571Y-4714D01*
X93638Y-4747D01*
X93771Y-4747D01*
X93838Y-4714D01*
X93905Y-4647D01*
X93938Y-4581D01*
X93971Y-4481D01*
X93971Y-4314D01*
X93938Y-4214D01*
X93905Y-4148D01*
X93838Y-4081D01*
X93771Y-4048D01*
X93638Y-4048D01*
X94135Y-4048D02*
X94135Y-4747D01*
X94534Y-4747D01*
X94811Y-4048D02*
X94744Y-4081D01*
X94678Y-4148D01*
X94644Y-4214D01*
X94611Y-4314D01*
X94611Y-4481D01*
X94644Y-4581D01*
X94678Y-4647D01*
X94744Y-4714D01*
X94811Y-4747D01*
X94944Y-4747D01*
X95011Y-4714D01*
X95078Y-4647D01*
X95111Y-4581D01*
X95144Y-4481D01*
X95144Y-4314D01*
X95111Y-4214D01*
X95078Y-4148D01*
X95011Y-4081D01*
X94944Y-4048D01*
X94811Y-4048D01*
X95308Y-4048D02*
X95308Y-4747D01*
X95308Y-4048D02*
X95608Y-4048D01*
X95708Y-4081D01*
X95741Y-4114D01*
X95774Y-4181D01*
X95774Y-4247D01*
X95741Y-4314D01*
X95708Y-4347D01*
X95608Y-4381D01*
X95308Y-4381D01*
X95541Y-4381D02*
X95774Y-4747D01*
X89303Y7980D02*
X88869Y7980D01*
X88869Y7280D01*
X89303Y7280D01*
X88869Y7647D02*
X89136Y7647D01*
X89419Y7980D02*
X89419Y7280D01*
X89419Y7980D02*
X89886Y7280D01*
X89886Y7980D02*
X89886Y7280D01*
X90079Y7980D02*
X90079Y7280D01*
X90726Y7813D02*
X90692Y7880D01*
X90626Y7947D01*
X90559Y7980D01*
X90426Y7980D01*
X90359Y7947D01*
X90292Y7880D01*
X90259Y7813D01*
X90226Y7713D01*
X90226Y7547D01*
X90259Y7447D01*
X90292Y7380D01*
X90359Y7314D01*
X90426Y7280D01*
X90559Y7280D01*
X90626Y7314D01*
X90692Y7380D01*
X90726Y7447D01*
X90726Y7547D01*
X90559Y7547D02*
X90726Y7547D01*
X86619Y15921D02*
X86619Y15221D01*
X86619Y15921D02*
X87053Y15921D01*
X86619Y15588D02*
X86886Y15588D01*
X87133Y15921D02*
X87133Y15221D01*
X87279Y15921D02*
X87279Y15221D01*
X87279Y15921D02*
X87746Y15221D01*
X87746Y15921D02*
X87746Y15221D01*
X87939Y15921D02*
X87939Y15221D01*
X88552Y15821D02*
X88486Y15888D01*
X88386Y15921D01*
X88252Y15921D01*
X88152Y15888D01*
X88086Y15821D01*
X88086Y15754D01*
X88119Y15688D01*
X88152Y15654D01*
X88219Y15621D01*
X88419Y15554D01*
X88486Y15521D01*
X88519Y15488D01*
X88552Y15421D01*
X88552Y15321D01*
X88486Y15254D01*
X88386Y15221D01*
X88252Y15221D01*
X88152Y15254D01*
X88086Y15321D01*
X88709Y15921D02*
X88709Y15221D01*
X89176Y15921D02*
X89176Y15221D01*
X88709Y15588D02*
X89176Y15588D01*
X89802Y15921D02*
X89369Y15921D01*
X89369Y15221D01*
X89802Y15221D01*
X89369Y15588D02*
X89635Y15588D01*
X89919Y15921D02*
X89919Y15221D01*
X89919Y15921D02*
X90152Y15921D01*
X90252Y15888D01*
X90319Y15821D01*
X90352Y15754D01*
X90385Y15654D01*
X90385Y15488D01*
X90352Y15388D01*
X90319Y15321D01*
X90252Y15254D01*
X90152Y15221D01*
X89919Y15221D01*
X91292Y15921D02*
X91225Y15888D01*
X91158Y15821D01*
X91125Y15754D01*
X91092Y15654D01*
X91092Y15488D01*
X91125Y15388D01*
X91158Y15321D01*
X91225Y15254D01*
X91292Y15221D01*
X91425Y15221D01*
X91492Y15254D01*
X91558Y15321D01*
X91592Y15388D01*
X91625Y15488D01*
X91625Y15654D01*
X91592Y15754D01*
X91558Y15821D01*
X91492Y15888D01*
X91425Y15921D01*
X91292Y15921D01*
X91788Y15921D02*
X92055Y15221D01*
X92322Y15921D02*
X92055Y15221D01*
X92845Y15921D02*
X92412Y15921D01*
X92412Y15221D01*
X92845Y15221D01*
X92412Y15588D02*
X92678Y15588D01*
X92961Y15921D02*
X92961Y15221D01*
X92961Y15921D02*
X93261Y15921D01*
X93361Y15888D01*
X93395Y15854D01*
X93428Y15788D01*
X93428Y15721D01*
X93395Y15654D01*
X93361Y15621D01*
X93261Y15588D01*
X92961Y15588D01*
X93195Y15588D02*
X93428Y15221D01*
X94118Y15221D02*
X93851Y15921D01*
X93585Y15221D01*
X93685Y15454D02*
X94018Y15454D01*
X94281Y15921D02*
X94281Y15221D01*
X94681Y15221D01*
X94758Y15921D02*
X94758Y15221D01*
X95158Y15221D01*
X96017Y15921D02*
X96017Y15221D01*
X95784Y15921D02*
X96251Y15921D01*
X96334Y15921D02*
X96334Y15221D01*
X96801Y15921D02*
X96801Y15221D01*
X96334Y15588D02*
X96801Y15588D01*
X96994Y15921D02*
X96994Y15221D01*
X97640Y15754D02*
X97607Y15821D01*
X97540Y15888D01*
X97474Y15921D01*
X97340Y15921D01*
X97274Y15888D01*
X97207Y15821D01*
X97174Y15754D01*
X97141Y15654D01*
X97141Y15488D01*
X97174Y15388D01*
X97207Y15321D01*
X97274Y15254D01*
X97340Y15221D01*
X97474Y15221D01*
X97540Y15254D01*
X97607Y15321D01*
X97640Y15388D01*
X97837Y15921D02*
X97837Y15221D01*
X98304Y15921D02*
X97837Y15454D01*
X98004Y15621D02*
X98304Y15221D01*
X98460Y15921D02*
X98460Y15221D01*
X98460Y15921D02*
X98927Y15221D01*
X98927Y15921D02*
X98927Y15221D01*
X99553Y15921D02*
X99120Y15921D01*
X99120Y15221D01*
X99553Y15221D01*
X99120Y15588D02*
X99387Y15588D01*
X100137Y15821D02*
X100070Y15888D01*
X99970Y15921D01*
X99837Y15921D01*
X99737Y15888D01*
X99670Y15821D01*
X99670Y15754D01*
X99703Y15688D01*
X99737Y15654D01*
X99803Y15621D01*
X100003Y15554D01*
X100070Y15521D01*
X100103Y15488D01*
X100137Y15421D01*
X100137Y15321D01*
X100070Y15254D01*
X99970Y15221D01*
X99837Y15221D01*
X99737Y15254D01*
X99670Y15321D01*
X100760Y15821D02*
X100693Y15888D01*
X100593Y15921D01*
X100460Y15921D01*
X100360Y15888D01*
X100293Y15821D01*
X100293Y15754D01*
X100327Y15688D01*
X100360Y15654D01*
X100427Y15621D01*
X100626Y15554D01*
X100693Y15521D01*
X100726Y15488D01*
X100760Y15421D01*
X100760Y15321D01*
X100693Y15254D01*
X100593Y15221D01*
X100460Y15221D01*
X100360Y15254D01*
X100293Y15321D01*
X110869Y19740D02*
X110869Y19040D01*
X110869Y19740D02*
X111303Y19740D01*
X110869Y19407D02*
X111136Y19407D01*
X111383Y19740D02*
X111383Y19040D01*
X111529Y19740D02*
X111529Y19040D01*
X111529Y19740D02*
X111996Y19040D01*
X111996Y19740D02*
X111996Y19040D01*
X112189Y19740D02*
X112189Y19040D01*
X112802Y19640D02*
X112736Y19707D01*
X112636Y19740D01*
X112502Y19740D01*
X112402Y19707D01*
X112336Y19640D01*
X112336Y19573D01*
X112369Y19507D01*
X112402Y19473D01*
X112469Y19440D01*
X112669Y19373D01*
X112736Y19340D01*
X112769Y19307D01*
X112802Y19240D01*
X112802Y19140D01*
X112736Y19073D01*
X112636Y19040D01*
X112502Y19040D01*
X112402Y19073D01*
X112336Y19140D01*
X112959Y19740D02*
X112959Y19040D01*
X113426Y19740D02*
X113426Y19040D01*
X112959Y19407D02*
X113426Y19407D01*
X114052Y19740D02*
X113619Y19740D01*
X113619Y19040D01*
X114052Y19040D01*
X113619Y19407D02*
X113885Y19407D01*
X114169Y19740D02*
X114169Y19040D01*
X114169Y19740D02*
X114402Y19740D01*
X114502Y19707D01*
X114569Y19640D01*
X114602Y19573D01*
X114635Y19473D01*
X114635Y19307D01*
X114602Y19207D01*
X114569Y19140D01*
X114502Y19073D01*
X114402Y19040D01*
X114169Y19040D01*
X87119Y19573D02*
X87086Y19640D01*
X87019Y19707D01*
X86953Y19740D01*
X86819Y19740D01*
X86753Y19707D01*
X86686Y19640D01*
X86653Y19573D01*
X86619Y19473D01*
X86619Y19307D01*
X86653Y19207D01*
X86686Y19140D01*
X86753Y19073D01*
X86819Y19040D01*
X86953Y19040D01*
X87019Y19073D01*
X87086Y19140D01*
X87119Y19207D01*
X87316Y19507D02*
X87316Y19173D01*
X87349Y19073D01*
X87416Y19040D01*
X87516Y19040D01*
X87583Y19073D01*
X87683Y19173D01*
X87683Y19507D02*
X87683Y19040D01*
X88416Y19740D02*
X88582Y19040D01*
X88749Y19740D02*
X88582Y19040D01*
X88749Y19740D02*
X88916Y19040D01*
X89082Y19740D02*
X88916Y19040D01*
X89655Y19740D02*
X89222Y19740D01*
X89222Y19040D01*
X89655Y19040D01*
X89222Y19407D02*
X89489Y19407D01*
X89772Y19740D02*
X89772Y19040D01*
X90419Y19573D02*
X90385Y19640D01*
X90319Y19707D01*
X90252Y19740D01*
X90119Y19740D01*
X90052Y19707D01*
X89985Y19640D01*
X89952Y19573D01*
X89919Y19473D01*
X89919Y19307D01*
X89952Y19207D01*
X89985Y19140D01*
X90052Y19073D01*
X90119Y19040D01*
X90252Y19040D01*
X90319Y19073D01*
X90385Y19140D01*
X90419Y19207D01*
X90419Y19307D01*
X90252Y19307D02*
X90419Y19307D01*
X90579Y19740D02*
X90579Y19040D01*
X91045Y19740D02*
X91045Y19040D01*
X90579Y19407D02*
X91045Y19407D01*
X91472Y19740D02*
X91472Y19040D01*
X91238Y19740D02*
X91705Y19740D01*
X92771Y19740D02*
X92338Y19740D01*
X92338Y19040D01*
X92771Y19040D01*
X92338Y19407D02*
X92605Y19407D01*
X92888Y19740D02*
X93355Y19040D01*
X93355Y19740D02*
X92888Y19040D01*
X93745Y19740D02*
X93745Y19040D01*
X93511Y19740D02*
X93978Y19740D01*
X94494Y19740D02*
X94061Y19740D01*
X94061Y19040D01*
X94494Y19040D01*
X94061Y19407D02*
X94328Y19407D01*
X94611Y19740D02*
X94611Y19040D01*
X94611Y19740D02*
X94911Y19740D01*
X95011Y19707D01*
X95044Y19673D01*
X95078Y19607D01*
X95078Y19540D01*
X95044Y19473D01*
X95011Y19440D01*
X94911Y19407D01*
X94611Y19407D01*
X94844Y19407D02*
X95078Y19040D01*
X95234Y19740D02*
X95234Y19040D01*
X95234Y19740D02*
X95701Y19040D01*
X95701Y19740D02*
X95701Y19040D01*
X96427Y19040D02*
X96161Y19740D01*
X95894Y19040D01*
X95994Y19273D02*
X96327Y19273D01*
X96591Y19740D02*
X96591Y19040D01*
X96991Y19040D01*
X97617Y19740D02*
X97617Y19040D01*
X98017Y19040D01*
X98627Y19040D02*
X98360Y19740D01*
X98094Y19040D01*
X98194Y19273D02*
X98527Y19273D01*
X98790Y19740D02*
X99057Y19407D01*
X99057Y19040D01*
X99323Y19740D02*
X99057Y19407D01*
X99847Y19740D02*
X99413Y19740D01*
X99413Y19040D01*
X99847Y19040D01*
X99413Y19407D02*
X99680Y19407D01*
X99963Y19740D02*
X99963Y19040D01*
X99963Y19740D02*
X100263Y19740D01*
X100363Y19707D01*
X100397Y19673D01*
X100430Y19607D01*
X100430Y19540D01*
X100397Y19473D01*
X100363Y19440D01*
X100263Y19407D01*
X99963Y19407D01*
X100197Y19407D02*
X100430Y19040D01*
X101053Y19640D02*
X100986Y19707D01*
X100886Y19740D01*
X100753Y19740D01*
X100653Y19707D01*
X100586Y19640D01*
X100586Y19573D01*
X100620Y19507D01*
X100653Y19473D01*
X100720Y19440D01*
X100920Y19373D01*
X100986Y19340D01*
X101020Y19307D01*
X101053Y19240D01*
X101053Y19140D01*
X100986Y19073D01*
X100886Y19040D01*
X100753Y19040D01*
X100653Y19073D01*
X100586Y19140D01*
X79523Y-8646D02*
X79256Y-7946D01*
X78989Y-8646D01*
X79089Y-8413D02*
X79423Y-8413D01*
X79686Y-7946D02*
X79686Y-8646D01*
X80086Y-8646D01*
X80163Y-7946D02*
X80163Y-8646D01*
X80562Y-8646D01*
X81189Y-7946D02*
X81189Y-8646D01*
X81656Y-7946D02*
X81656Y-8646D01*
X81189Y-8280D02*
X81656Y-8280D01*
X82049Y-7946D02*
X81982Y-7980D01*
X81916Y-8046D01*
X81882Y-8113D01*
X81849Y-8213D01*
X81849Y-8380D01*
X81882Y-8480D01*
X81916Y-8546D01*
X81982Y-8613D01*
X82049Y-8646D01*
X82182Y-8646D01*
X82249Y-8613D01*
X82315Y-8546D01*
X82349Y-8480D01*
X82382Y-8380D01*
X82382Y-8213D01*
X82349Y-8113D01*
X82315Y-8046D01*
X82249Y-7980D01*
X82182Y-7946D01*
X82049Y-7946D01*
X82545Y-7946D02*
X82545Y-8646D01*
X82945Y-8646D01*
X83455Y-7946D02*
X83022Y-7946D01*
X83022Y-8646D01*
X83455Y-8646D01*
X83022Y-8280D02*
X83289Y-8280D01*
X84038Y-8046D02*
X83972Y-7980D01*
X83872Y-7946D01*
X83738Y-7946D01*
X83638Y-7980D01*
X83572Y-8046D01*
X83572Y-8113D01*
X83605Y-8180D01*
X83638Y-8213D01*
X83705Y-8246D01*
X83905Y-8313D01*
X83972Y-8346D01*
X84005Y-8380D01*
X84038Y-8446D01*
X84038Y-8546D01*
X83972Y-8613D01*
X83872Y-8646D01*
X83738Y-8646D01*
X83638Y-8613D01*
X83572Y-8546D01*
X84978Y-7946D02*
X84978Y-8646D01*
X84745Y-7946D02*
X85211Y-7946D01*
X85495Y-7946D02*
X85428Y-7980D01*
X85361Y-8046D01*
X85328Y-8113D01*
X85295Y-8213D01*
X85295Y-8380D01*
X85328Y-8480D01*
X85361Y-8546D01*
X85428Y-8613D01*
X85495Y-8646D01*
X85628Y-8646D01*
X85695Y-8613D01*
X85761Y-8546D01*
X85795Y-8480D01*
X85828Y-8380D01*
X85828Y-8213D01*
X85795Y-8113D01*
X85761Y-8046D01*
X85695Y-7980D01*
X85628Y-7946D01*
X85495Y-7946D01*
X86541Y-7946D02*
X86541Y-8646D01*
X86541Y-7946D02*
X86841Y-7946D01*
X86941Y-7980D01*
X86974Y-8013D01*
X87008Y-8080D01*
X87008Y-8146D01*
X86974Y-8213D01*
X86941Y-8246D01*
X86841Y-8280D01*
X86541Y-8280D02*
X86841Y-8280D01*
X86941Y-8313D01*
X86974Y-8346D01*
X87008Y-8413D01*
X87008Y-8513D01*
X86974Y-8580D01*
X86941Y-8613D01*
X86841Y-8646D01*
X86541Y-8646D01*
X87598Y-7946D02*
X87164Y-7946D01*
X87164Y-8646D01*
X87598Y-8646D01*
X87164Y-8280D02*
X87431Y-8280D01*
X88264Y-7946D02*
X88264Y-8646D01*
X88664Y-8646D01*
X88941Y-7946D02*
X88874Y-7980D01*
X88807Y-8046D01*
X88774Y-8113D01*
X88741Y-8213D01*
X88741Y-8380D01*
X88774Y-8480D01*
X88807Y-8546D01*
X88874Y-8613D01*
X88941Y-8646D01*
X89074Y-8646D01*
X89141Y-8613D01*
X89207Y-8546D01*
X89241Y-8480D01*
X89274Y-8380D01*
X89274Y-8213D01*
X89241Y-8113D01*
X89207Y-8046D01*
X89141Y-7980D01*
X89074Y-7946D01*
X88941Y-7946D01*
X89937Y-8113D02*
X89904Y-8046D01*
X89837Y-7980D01*
X89770Y-7946D01*
X89637Y-7946D01*
X89571Y-7980D01*
X89504Y-8046D01*
X89471Y-8113D01*
X89437Y-8213D01*
X89437Y-8380D01*
X89471Y-8480D01*
X89504Y-8546D01*
X89571Y-8613D01*
X89637Y-8646D01*
X89770Y-8646D01*
X89837Y-8613D01*
X89904Y-8546D01*
X89937Y-8480D01*
X90667Y-8646D02*
X90400Y-7946D01*
X90134Y-8646D01*
X90234Y-8413D02*
X90567Y-8413D01*
X91064Y-7946D02*
X91064Y-8646D01*
X90830Y-7946D02*
X91297Y-7946D01*
X91813Y-7946D02*
X91380Y-7946D01*
X91380Y-8646D01*
X91813Y-8646D01*
X91380Y-8280D02*
X91647Y-8280D01*
X91930Y-7946D02*
X91930Y-8646D01*
X91930Y-7946D02*
X92163Y-7946D01*
X92263Y-7980D01*
X92330Y-8046D01*
X92363Y-8113D01*
X92397Y-8213D01*
X92397Y-8380D01*
X92363Y-8480D01*
X92330Y-8546D01*
X92263Y-8613D01*
X92163Y-8646D01*
X91930Y-8646D01*
X93103Y-7946D02*
X93103Y-8646D01*
X93103Y-7946D02*
X93403Y-7946D01*
X93503Y-7980D01*
X93536Y-8013D01*
X93570Y-8080D01*
X93570Y-8146D01*
X93536Y-8213D01*
X93503Y-8246D01*
X93403Y-8280D01*
X93103Y-8280D02*
X93403Y-8280D01*
X93503Y-8313D01*
X93536Y-8346D01*
X93570Y-8413D01*
X93570Y-8513D01*
X93536Y-8580D01*
X93503Y-8613D01*
X93403Y-8646D01*
X93103Y-8646D01*
X93726Y-7946D02*
X93993Y-8280D01*
X93993Y-8646D01*
X94260Y-7946D02*
X93993Y-8280D01*
X95133Y-7946D02*
X95133Y-8646D01*
X94899Y-7946D02*
X95366Y-7946D01*
X95449Y-7946D02*
X95449Y-8646D01*
X95916Y-7946D02*
X95916Y-8646D01*
X95449Y-8280D02*
X95916Y-8280D01*
X96542Y-7946D02*
X96109Y-7946D01*
X96109Y-8646D01*
X96542Y-8646D01*
X96109Y-8280D02*
X96376Y-8280D01*
X97709Y-8113D02*
X97675Y-8046D01*
X97609Y-7980D01*
X97542Y-7946D01*
X97409Y-7946D01*
X97342Y-7980D01*
X97276Y-8046D01*
X97242Y-8113D01*
X97209Y-8213D01*
X97209Y-8380D01*
X97242Y-8480D01*
X97276Y-8546D01*
X97342Y-8613D01*
X97409Y-8646D01*
X97542Y-8646D01*
X97609Y-8613D01*
X97675Y-8546D01*
X97709Y-8480D01*
X98105Y-7946D02*
X98039Y-7980D01*
X97972Y-8046D01*
X97939Y-8113D01*
X97905Y-8213D01*
X97905Y-8380D01*
X97939Y-8480D01*
X97972Y-8546D01*
X98039Y-8613D01*
X98105Y-8646D01*
X98239Y-8646D01*
X98305Y-8613D01*
X98372Y-8546D01*
X98405Y-8480D01*
X98439Y-8380D01*
X98439Y-8213D01*
X98405Y-8113D01*
X98372Y-8046D01*
X98305Y-7980D01*
X98239Y-7946D01*
X98105Y-7946D01*
X98802Y-7946D02*
X98735Y-7980D01*
X98669Y-8046D01*
X98635Y-8113D01*
X98602Y-8213D01*
X98602Y-8380D01*
X98635Y-8480D01*
X98669Y-8546D01*
X98735Y-8613D01*
X98802Y-8646D01*
X98935Y-8646D01*
X99002Y-8613D01*
X99068Y-8546D01*
X99102Y-8480D01*
X99135Y-8380D01*
X99135Y-8213D01*
X99102Y-8113D01*
X99068Y-8046D01*
X99002Y-7980D01*
X98935Y-7946D01*
X98802Y-7946D01*
X99298Y-7946D02*
X99298Y-8646D01*
X99298Y-7946D02*
X99598Y-7946D01*
X99698Y-7980D01*
X99732Y-8013D01*
X99765Y-8080D01*
X99765Y-8146D01*
X99732Y-8213D01*
X99698Y-8246D01*
X99598Y-8280D01*
X99298Y-8280D01*
X99532Y-8280D02*
X99765Y-8646D01*
X99922Y-7946D02*
X99922Y-8646D01*
X99922Y-7946D02*
X100155Y-7946D01*
X100255Y-7980D01*
X100322Y-8046D01*
X100355Y-8113D01*
X100388Y-8213D01*
X100388Y-8380D01*
X100355Y-8480D01*
X100322Y-8546D01*
X100255Y-8613D01*
X100155Y-8646D01*
X99922Y-8646D01*
X100545Y-7946D02*
X100545Y-8646D01*
X100691Y-7946D02*
X100691Y-8646D01*
X100691Y-7946D02*
X101158Y-8646D01*
X101158Y-7946D02*
X101158Y-8646D01*
X101885Y-8646D02*
X101618Y-7946D01*
X101351Y-8646D01*
X101451Y-8413D02*
X101785Y-8413D01*
X102281Y-7946D02*
X102281Y-8646D01*
X102048Y-7946D02*
X102514Y-7946D01*
X103031Y-7946D02*
X102598Y-7946D01*
X102598Y-8646D01*
X103031Y-8646D01*
X102598Y-8280D02*
X102864Y-8280D01*
X103614Y-8046D02*
X103548Y-7980D01*
X103448Y-7946D01*
X103314Y-7946D01*
X103214Y-7980D01*
X103148Y-8046D01*
X103148Y-8113D01*
X103181Y-8180D01*
X103214Y-8213D01*
X103281Y-8246D01*
X103481Y-8313D01*
X103548Y-8346D01*
X103581Y-8380D01*
X103614Y-8446D01*
X103614Y-8546D01*
X103548Y-8613D01*
X103448Y-8646D01*
X103314Y-8646D01*
X103214Y-8613D01*
X103148Y-8546D01*
X104321Y-7946D02*
X104321Y-8646D01*
X104321Y-7946D02*
X104754Y-7946D01*
X104321Y-8280D02*
X104587Y-8280D01*
X104834Y-7946D02*
X104834Y-8646D01*
X104834Y-7946D02*
X105134Y-7946D01*
X105234Y-7980D01*
X105267Y-8013D01*
X105300Y-8080D01*
X105300Y-8146D01*
X105267Y-8213D01*
X105234Y-8246D01*
X105134Y-8280D01*
X104834Y-8280D01*
X105067Y-8280D02*
X105300Y-8646D01*
X105657Y-7946D02*
X105590Y-7980D01*
X105524Y-8046D01*
X105490Y-8113D01*
X105457Y-8213D01*
X105457Y-8380D01*
X105490Y-8480D01*
X105524Y-8546D01*
X105590Y-8613D01*
X105657Y-8646D01*
X105790Y-8646D01*
X105857Y-8613D01*
X105924Y-8546D01*
X105957Y-8480D01*
X105990Y-8380D01*
X105990Y-8213D01*
X105957Y-8113D01*
X105924Y-8046D01*
X105857Y-7980D01*
X105790Y-7946D01*
X105657Y-7946D01*
X106154Y-7946D02*
X106154Y-8646D01*
X106154Y-7946D02*
X106420Y-8646D01*
X106687Y-7946D02*
X106420Y-8646D01*
X106687Y-7946D02*
X106687Y-8646D01*
X107670Y-7946D02*
X107670Y-8646D01*
X107437Y-7946D02*
X107903Y-7946D01*
X107987Y-7946D02*
X107987Y-8646D01*
X108453Y-7946D02*
X108453Y-8646D01*
X107987Y-8280D02*
X108453Y-8280D01*
X109080Y-7946D02*
X108646Y-7946D01*
X108646Y-8646D01*
X109080Y-8646D01*
X108646Y-8280D02*
X108913Y-8280D01*
X109746Y-7946D02*
X109746Y-8646D01*
X109746Y-7946D02*
X110213Y-8646D01*
X110213Y-7946D02*
X110213Y-8646D01*
X110906Y-8113D02*
X110873Y-8046D01*
X110806Y-7980D01*
X110739Y-7946D01*
X110606Y-7946D01*
X110539Y-7980D01*
X110473Y-8046D01*
X110439Y-8113D01*
X110406Y-8213D01*
X110406Y-8380D01*
X110439Y-8480D01*
X110473Y-8546D01*
X110539Y-8613D01*
X110606Y-8646D01*
X110739Y-8646D01*
X110806Y-8613D01*
X110873Y-8546D01*
X110906Y-8480D01*
X111652Y-7946D02*
X111652Y-8646D01*
X111652Y-7946D02*
X111886Y-7946D01*
X111986Y-7980D01*
X112052Y-8046D01*
X112086Y-8113D01*
X112119Y-8213D01*
X112119Y-8380D01*
X112086Y-8480D01*
X112052Y-8546D01*
X111986Y-8613D01*
X111886Y-8646D01*
X111652Y-8646D01*
X112276Y-7946D02*
X112276Y-8646D01*
X112276Y-7946D02*
X112576Y-7946D01*
X112676Y-7980D01*
X112709Y-8013D01*
X112742Y-8080D01*
X112742Y-8146D01*
X112709Y-8213D01*
X112676Y-8246D01*
X112576Y-8280D01*
X112276Y-8280D01*
X112509Y-8280D02*
X112742Y-8646D01*
X112899Y-7946D02*
X112899Y-8646D01*
X113045Y-7946D02*
X113045Y-8646D01*
X113445Y-8646D01*
X113522Y-7946D02*
X113522Y-8646D01*
X113922Y-8646D01*
X114549Y-7946D02*
X114549Y-8646D01*
X114549Y-7946D02*
X114782Y-7946D01*
X114882Y-7980D01*
X114948Y-8046D01*
X114982Y-8113D01*
X115015Y-8213D01*
X115015Y-8380D01*
X114982Y-8480D01*
X114948Y-8546D01*
X114882Y-8613D01*
X114782Y-8646D01*
X114549Y-8646D01*
X115705Y-8646D02*
X115438Y-7946D01*
X115172Y-8646D01*
X115272Y-8413D02*
X115605Y-8413D01*
X116102Y-7946D02*
X116102Y-8646D01*
X115868Y-7946D02*
X116335Y-7946D01*
X116951Y-8646D02*
X116685Y-7946D01*
X116418Y-8646D01*
X116518Y-8413D02*
X116851Y-8413D01*
X117664Y-8313D02*
X117964Y-8313D01*
X118064Y-8280D01*
X118098Y-8246D01*
X118131Y-8180D01*
X118131Y-8080D01*
X118098Y-8013D01*
X118064Y-7980D01*
X117964Y-7946D01*
X117664Y-7946D01*
X117664Y-8646D01*
X118288Y-7946D02*
X118288Y-8646D01*
X118288Y-7946D02*
X118588Y-7946D01*
X118688Y-7980D01*
X118721Y-8013D01*
X118754Y-8080D01*
X118754Y-8146D01*
X118721Y-8213D01*
X118688Y-8246D01*
X118588Y-8280D01*
X118288Y-8280D01*
X118521Y-8280D02*
X118754Y-8646D01*
X119111Y-7946D02*
X119044Y-7980D01*
X118978Y-8046D01*
X118944Y-8113D01*
X118911Y-8213D01*
X118911Y-8380D01*
X118944Y-8480D01*
X118978Y-8546D01*
X119044Y-8613D01*
X119111Y-8646D01*
X119244Y-8646D01*
X119311Y-8613D01*
X119377Y-8546D01*
X119411Y-8480D01*
X119444Y-8380D01*
X119444Y-8213D01*
X119411Y-8113D01*
X119377Y-8046D01*
X119311Y-7980D01*
X119244Y-7946D01*
X119111Y-7946D01*
X119607Y-7946D02*
X119874Y-8646D01*
X120141Y-7946D02*
X119874Y-8646D01*
X120231Y-7946D02*
X120231Y-8646D01*
X120377Y-7946D02*
X120377Y-8646D01*
X120377Y-7946D02*
X120611Y-7946D01*
X120711Y-7980D01*
X120777Y-8046D01*
X120810Y-8113D01*
X120844Y-8213D01*
X120844Y-8380D01*
X120810Y-8480D01*
X120777Y-8546D01*
X120711Y-8613D01*
X120611Y-8646D01*
X120377Y-8646D01*
X121434Y-7946D02*
X121000Y-7946D01*
X121000Y-8646D01*
X121434Y-8646D01*
X121000Y-8280D02*
X121267Y-8280D01*
X121550Y-7946D02*
X121550Y-8646D01*
X121550Y-7946D02*
X121784Y-7946D01*
X121884Y-7980D01*
X121950Y-8046D01*
X121984Y-8113D01*
X122017Y-8213D01*
X122017Y-8380D01*
X121984Y-8480D01*
X121950Y-8546D01*
X121884Y-8613D01*
X121784Y-8646D01*
X121550Y-8646D01*
X122207Y-8580D02*
X122174Y-8613D01*
X122207Y-8646D01*
X122240Y-8613D01*
X122207Y-8580D01*
X78852Y-6006D02*
X79118Y-6706D01*
X79385Y-6006D02*
X79118Y-6706D01*
X79475Y-6006D02*
X79475Y-6706D01*
X80155Y-6706D02*
X79888Y-6006D01*
X79621Y-6706D01*
X79721Y-6473D02*
X80055Y-6473D01*
X80785Y-6106D02*
X80718Y-6039D01*
X80618Y-6006D01*
X80485Y-6006D01*
X80385Y-6039D01*
X80318Y-6106D01*
X80318Y-6173D01*
X80351Y-6239D01*
X80385Y-6273D01*
X80451Y-6306D01*
X80651Y-6373D01*
X80718Y-6406D01*
X80751Y-6439D01*
X80785Y-6506D01*
X80785Y-6606D01*
X80718Y-6673D01*
X80618Y-6706D01*
X80485Y-6706D01*
X80385Y-6673D01*
X80318Y-6606D01*
X82024Y-6706D02*
X81758Y-6006D01*
X81491Y-6706D01*
X81591Y-6473D02*
X81924Y-6473D01*
X82188Y-6006D02*
X82188Y-6706D01*
X82188Y-6006D02*
X82487Y-6006D01*
X82587Y-6039D01*
X82621Y-6073D01*
X82654Y-6139D01*
X82654Y-6206D01*
X82621Y-6273D01*
X82587Y-6306D01*
X82487Y-6339D01*
X82188Y-6339D01*
X82421Y-6339D02*
X82654Y-6706D01*
X83244Y-6006D02*
X82811Y-6006D01*
X82811Y-6706D01*
X83244Y-6706D01*
X82811Y-6339D02*
X83077Y-6339D01*
X84144Y-6006D02*
X84144Y-6706D01*
X83911Y-6006D02*
X84377Y-6006D01*
X84894Y-6006D02*
X84460Y-6006D01*
X84460Y-6706D01*
X84894Y-6706D01*
X84460Y-6339D02*
X84727Y-6339D01*
X85010Y-6006D02*
X85010Y-6706D01*
X85010Y-6006D02*
X85477Y-6706D01*
X85477Y-6006D02*
X85477Y-6706D01*
X85903Y-6006D02*
X85903Y-6706D01*
X85670Y-6006D02*
X86137Y-6006D01*
X86653Y-6006D02*
X86220Y-6006D01*
X86220Y-6706D01*
X86653Y-6706D01*
X86220Y-6339D02*
X86487Y-6339D01*
X86770Y-6006D02*
X86770Y-6706D01*
X86770Y-6006D02*
X87003Y-6006D01*
X87103Y-6039D01*
X87170Y-6106D01*
X87203Y-6173D01*
X87236Y-6273D01*
X87236Y-6439D01*
X87203Y-6539D01*
X87170Y-6606D01*
X87103Y-6673D01*
X87003Y-6706D01*
X86770Y-6706D01*
X87943Y-6006D02*
X87943Y-6706D01*
X88090Y-6006D02*
X88090Y-6706D01*
X88090Y-6006D02*
X88556Y-6706D01*
X88556Y-6006D02*
X88556Y-6706D01*
X89299Y-6006D02*
X89299Y-6706D01*
X89299Y-6006D02*
X89599Y-6006D01*
X89699Y-6039D01*
X89733Y-6073D01*
X89766Y-6139D01*
X89766Y-6206D01*
X89733Y-6273D01*
X89699Y-6306D01*
X89599Y-6339D01*
X89299Y-6339D02*
X89599Y-6339D01*
X89699Y-6373D01*
X89733Y-6406D01*
X89766Y-6473D01*
X89766Y-6573D01*
X89733Y-6639D01*
X89699Y-6673D01*
X89599Y-6706D01*
X89299Y-6706D01*
X90123Y-6006D02*
X90056Y-6039D01*
X89989Y-6106D01*
X89956Y-6173D01*
X89923Y-6273D01*
X89923Y-6439D01*
X89956Y-6539D01*
X89989Y-6606D01*
X90056Y-6673D01*
X90123Y-6706D01*
X90256Y-6706D01*
X90322Y-6673D01*
X90389Y-6606D01*
X90422Y-6539D01*
X90456Y-6439D01*
X90456Y-6273D01*
X90422Y-6173D01*
X90389Y-6106D01*
X90322Y-6039D01*
X90256Y-6006D01*
X90123Y-6006D01*
X90852Y-6006D02*
X90852Y-6706D01*
X90619Y-6006D02*
X91086Y-6006D01*
X91169Y-6006D02*
X91169Y-6706D01*
X91636Y-6006D02*
X91636Y-6706D01*
X91169Y-6339D02*
X91636Y-6339D01*
X92845Y-6106D02*
X92779Y-6039D01*
X92679Y-6006D01*
X92545Y-6006D01*
X92445Y-6039D01*
X92379Y-6106D01*
X92379Y-6173D01*
X92412Y-6239D01*
X92445Y-6273D01*
X92512Y-6306D01*
X92712Y-6373D01*
X92779Y-6406D01*
X92812Y-6439D01*
X92845Y-6506D01*
X92845Y-6606D01*
X92779Y-6673D01*
X92679Y-6706D01*
X92545Y-6706D01*
X92445Y-6673D01*
X92379Y-6606D01*
X93002Y-6006D02*
X93002Y-6706D01*
X93149Y-6006D02*
X93149Y-6706D01*
X93149Y-6006D02*
X93382Y-6006D01*
X93482Y-6039D01*
X93548Y-6106D01*
X93582Y-6173D01*
X93615Y-6273D01*
X93615Y-6439D01*
X93582Y-6539D01*
X93548Y-6606D01*
X93482Y-6673D01*
X93382Y-6706D01*
X93149Y-6706D01*
X94205Y-6006D02*
X93772Y-6006D01*
X93772Y-6706D01*
X94205Y-6706D01*
X93772Y-6339D02*
X94038Y-6339D01*
X94355Y-6639D02*
X94322Y-6673D01*
X94355Y-6706D01*
X94388Y-6673D01*
X94355Y-6639D01*
X107325Y19715D02*
X107225Y19682D01*
X107159Y19582D01*
X107125Y19416D01*
X107125Y19316D01*
X107159Y19149D01*
X107225Y19049D01*
X107325Y19016D01*
X107392Y19016D01*
X107492Y19049D01*
X107558Y19149D01*
X107592Y19316D01*
X107592Y19416D01*
X107558Y19582D01*
X107492Y19682D01*
X107392Y19715D01*
X107325Y19715D01*
X107782Y19082D02*
X107748Y19049D01*
X107782Y19016D01*
X107815Y19049D01*
X107782Y19082D01*
X108368Y19715D02*
X108035Y19715D01*
X108002Y19416D01*
X108035Y19449D01*
X108135Y19482D01*
X108235Y19482D01*
X108335Y19449D01*
X108402Y19382D01*
X108435Y19282D01*
X108435Y19216D01*
X108402Y19116D01*
X108335Y19049D01*
X108235Y19016D01*
X108135Y19016D01*
X108035Y19049D01*
X108002Y19082D01*
X107968Y19149D01*
X108792Y19715D02*
X108725Y19682D01*
X108658Y19615D01*
X108625Y19549D01*
X108592Y19449D01*
X108592Y19282D01*
X108625Y19182D01*
X108658Y19116D01*
X108725Y19049D01*
X108792Y19016D01*
X108925Y19016D01*
X108991Y19049D01*
X109058Y19116D01*
X109091Y19182D01*
X109125Y19282D01*
X109125Y19449D01*
X109091Y19549D01*
X109058Y19615D01*
X108991Y19682D01*
X108925Y19715D01*
X108792Y19715D01*
X109755Y19715D02*
X109288Y19016D01*
X109288Y19715D02*
X109755Y19715D01*
X109288Y19016D02*
X109755Y19016D01*
D66*
X106924Y12083D02*
X107606Y11060D01*
X107606Y12083D02*
X106924Y11060D01*
X113699Y14145D02*
X114381Y13122D01*
X114381Y14145D02*
X113699Y13122D01*
X87049Y8128D02*
X87731Y7105D01*
X87731Y8128D02*
X87049Y7105D01*
D67*
X111236Y-10836D02*
X111709Y-10836D01*
M02*
